<svg width="55" height="55" viewBox="0 0 55 55" fill="none" xmlns="http://www.w3.org/2000/svg">
<path d="M44.6875 24.9219H41.0352V12.8906C41.0352 9.09326 37.9575 6.01562 34.1602 6.01562H20.8398C17.0425 6.01562 13.9648 9.09326 13.9648 12.8906V24.9219H10.3125C9.36182 24.9219 8.59375 25.6899 8.59375 26.6406V47.2656C8.59375 48.2163 9.36182 48.9844 10.3125 48.9844H44.6875C45.6382 48.9844 46.4062 48.2163 46.4062 47.2656V26.6406C46.4062 25.6899 45.6382 24.9219 44.6875 24.9219ZM29.0039 37.6514V40.498C29.0039 40.7344 28.8105 40.9277 28.5742 40.9277H26.4258C26.1895 40.9277 25.9961 40.7344 25.9961 40.498V37.6514C25.5527 37.333 25.2218 36.8823 25.0509 36.3639C24.8801 35.8455 24.8781 35.2863 25.0453 34.7667C25.2125 34.2472 25.5402 33.7941 25.9814 33.4726C26.4225 33.1512 26.9542 32.978 27.5 32.978C28.0458 32.978 28.5775 33.1512 29.0186 33.4726C29.4597 33.7941 29.7875 34.2472 29.9547 34.7667C30.1219 35.2863 30.1199 35.8455 29.9491 36.3639C29.7782 36.8823 29.4473 37.333 29.0039 37.6514ZM37.168 24.9219H17.832V12.8906C17.832 11.231 19.1802 9.88281 20.8398 9.88281H34.1602C35.8198 9.88281 37.168 11.231 37.168 12.8906V24.9219Z" fill="#DD5928"/>
</svg>
