<svg width="58" height="58" viewBox="0 0 58 58" fill="none" xmlns="http://www.w3.org/2000/svg">
<path d="M21.75 7.25C23.5424 7.25 25.2945 7.78151 26.7849 8.77731C28.2752 9.77311 29.4367 11.1885 30.1227 12.8444C30.8086 14.5004 30.988 16.3226 30.6384 18.0805C30.2887 19.8385 29.4256 21.4532 28.1582 22.7207C26.8907 23.9881 25.276 24.8512 23.518 25.2009C21.7601 25.5505 19.9379 25.3711 18.2819 24.6852C16.626 23.9992 15.2106 22.8377 14.2148 21.3474C13.219 19.857 12.6875 18.1049 12.6875 16.3125C12.6875 13.909 13.6423 11.6039 15.3418 9.90434C17.0414 8.2048 19.3465 7.25 21.75 7.25ZM21.75 3.625C19.2406 3.625 16.7877 4.36911 14.7012 5.76323C12.6148 7.15735 10.9886 9.13887 10.0283 11.4572C9.06799 13.7755 8.81674 16.3266 9.30629 18.7877C9.79584 21.2488 11.0042 23.5095 12.7786 25.2839C14.553 27.0583 16.8137 28.2667 19.2748 28.7562C21.7359 29.2458 24.287 28.9945 26.6053 28.0342C28.9236 27.0739 30.9052 25.4477 32.2993 23.3613C33.6934 21.2748 34.4375 18.8219 34.4375 16.3125C34.4375 12.9476 33.1008 9.72045 30.7214 7.34108C28.342 4.96171 25.1149 3.625 21.75 3.625ZM39.875 54.375H36.25V45.3125C36.25 42.909 35.2952 40.6039 33.5957 38.9043C31.8961 37.2048 29.591 36.25 27.1875 36.25H16.3125C13.909 36.25 11.6039 37.2048 9.90434 38.9043C8.2048 40.6039 7.25 42.909 7.25 45.3125V54.375H3.625V45.3125C3.625 41.9476 4.96171 38.7205 7.34108 36.3411C9.72045 33.9617 12.9476 32.625 16.3125 32.625H27.1875C30.5524 32.625 33.7795 33.9617 36.1589 36.3411C38.5383 38.7205 39.875 41.9476 39.875 45.3125V54.375ZM39.875 7.25H58V10.875H39.875V7.25ZM39.875 16.3125H58V19.9375H39.875V16.3125ZM39.875 25.375H52.5625V29H39.875V25.375Z" fill="#DD5928"/>
</svg>
