<svg width="622" height="622" viewBox="0 0 622 622" fill="none" xmlns="http://www.w3.org/2000/svg">
<path d="M127.597 559.999C34.6579 506.308 34.6579 419.352 127.597 365.736C220.536 312.12 371.21 312.082 464.136 365.736C557.063 419.39 557.076 506.383 464.136 560.036C371.197 613.69 220.536 613.653 127.597 559.999Z" fill="#F5F5F5"/>
<path d="M343.568 501.606L348.93 504.703L172.767 532.109V528.177L343.568 501.606Z" fill="#E0E0E0"/>
<path d="M112.283 548.604C100.291 555.608 100.291 566.953 112.283 573.957C124.276 580.96 143.719 580.96 155.724 573.957C167.729 566.953 167.716 555.608 155.724 548.604C143.732 541.6 124.276 541.551 112.283 548.604Z" fill="#E0E0E0"/>
<path d="M295.637 446.596C266.627 463.539 266.627 490.994 295.637 507.925C324.647 524.856 371.67 524.856 400.668 507.925C429.665 490.994 429.665 463.539 400.668 446.596C371.67 429.653 324.684 429.715 295.637 446.596Z" fill="#E0E0E0"/>
<path d="M419.539 449.606C427.799 448.885 436.955 448.362 443.486 453.463C446.559 455.839 448.686 459.185 451.025 462.283C453.538 465.604 456.335 468.701 459.384 471.538C460.936 473.094 462.73 474.388 464.696 475.37C466.898 476.279 469.27 476.703 471.65 476.614C481.602 476.614 490.845 471.115 498.508 464.696C500.561 462.979 502.651 460.964 503.186 458.377C504.081 454.06 500.436 450.141 496.717 447.778C486.242 441.11 473.205 437.278 461.288 434.094C448.585 430.526 435.445 428.755 422.251 428.832C414.037 428.989 405.865 430.044 397.881 431.979C393.054 433.148 386.063 434.591 382.331 438.112C381.477 438.837 380.85 439.793 380.525 440.865C380.201 441.938 380.193 443.081 380.502 444.158C381.435 446.646 384.296 447.629 386.859 448.226C397.483 450.739 408.778 450.539 419.539 449.606Z" fill="#E0E0E0"/>
<path d="M146.419 210.236V214.988C146.419 216.493 147.476 217.103 148.77 216.344L153.36 213.694V203.506L148.77 206.156C148.086 206.604 147.517 207.207 147.109 207.916C146.7 208.625 146.464 209.419 146.419 210.236Z" fill="#E0E0E0"/>
<path d="M153.36 366.171L134.203 377.243C133.518 377.687 132.948 378.288 132.539 378.995C132.13 379.702 131.895 380.495 131.852 381.311V386.075C131.852 387.568 132.897 388.178 134.203 387.431L153.36 376.372V366.171Z" fill="#E0E0E0"/>
<path d="M131.864 206.143V210.908C131.864 212.401 132.909 213.01 134.215 212.264L153.373 201.192V191.004L134.215 202.075C133.53 202.52 132.96 203.12 132.551 203.827C132.143 204.534 131.907 205.328 131.864 206.143Z" fill="#E0E0E0"/>
<path d="M142.214 259.996L120.444 272.573C119.761 273.019 119.193 273.62 118.784 274.327C118.376 275.033 118.139 275.826 118.093 276.641V281.405C118.093 282.898 119.15 283.508 120.444 282.761L142.214 270.197C142.899 269.75 143.469 269.147 143.878 268.438C144.287 267.729 144.522 266.934 144.565 266.116V261.364C144.565 259.797 143.52 259.187 142.214 259.996Z" fill="#E0E0E0"/>
<path d="M153.36 316.125L134.203 327.197C133.518 327.641 132.948 328.242 132.539 328.949C132.13 329.656 131.895 330.449 131.852 331.265V336.029C131.852 337.522 132.897 338.132 134.203 337.385L153.36 326.314V316.125Z" fill="#E0E0E0"/>
<path d="M131.864 156.097V160.849C131.864 162.354 132.909 162.964 134.215 162.218L153.373 151.146V140.958L134.215 152.029C133.529 152.472 132.958 153.072 132.549 153.779C132.14 154.487 131.905 155.281 131.864 156.097Z" fill="#E0E0E0"/>
<path d="M153.36 441.247L134.203 452.318C133.518 452.763 132.948 453.363 132.539 454.07C132.13 454.777 131.895 455.571 131.852 456.386V461.151C131.852 462.644 132.897 463.253 134.203 462.507L153.36 451.435V441.247Z" fill="#E0E0E0"/>
<path d="M110.044 306.546V311.299C110.044 312.804 111.089 313.413 112.395 312.655L134.153 300.09C134.84 299.646 135.412 299.046 135.822 298.34C136.233 297.633 136.471 296.839 136.516 296.022V291.258C136.516 289.765 135.459 289.155 134.153 289.902L112.395 302.466C111.71 302.913 111.14 303.516 110.731 304.225C110.323 304.934 110.087 305.729 110.044 306.546Z" fill="#E0E0E0"/>
<path d="M131.864 256.189V260.954C131.864 262.447 132.909 263.056 134.215 262.31L153.373 251.251V241.05L134.215 252.121C133.53 252.566 132.96 253.166 132.551 253.873C132.143 254.58 131.907 255.374 131.864 256.189Z" fill="#E0E0E0"/>
<path d="M129.998 337.124V332.372C129.998 330.867 128.941 330.257 127.647 331.016L105.877 343.58C105.194 344.027 104.625 344.628 104.217 345.334C103.808 346.041 103.572 346.833 103.526 347.648V352.413C103.526 353.906 104.583 354.515 105.877 353.769L127.647 341.204C128.331 340.756 128.9 340.153 129.308 339.444C129.717 338.735 129.953 337.941 129.998 337.124Z" fill="#E0E0E0"/>
<path d="M120.444 457.867L142.214 445.302C142.899 444.855 143.469 444.252 143.878 443.543C144.287 442.834 144.522 442.039 144.565 441.222V436.47C144.565 434.965 143.52 434.355 142.214 435.114L120.444 447.678C119.761 448.125 119.193 448.726 118.784 449.432C118.376 450.139 118.139 450.931 118.093 451.746V456.548C118.093 458.003 119.15 458.613 120.444 457.867Z" fill="#E0E0E0"/>
<path d="M130.11 141.99L108.34 154.555C107.655 154.999 107.085 155.599 106.676 156.306C106.267 157.013 106.032 157.807 105.989 158.622V163.387C105.989 164.88 107.034 165.489 108.34 164.743L130.11 152.179C130.794 151.73 131.363 151.127 131.771 150.418C132.18 149.71 132.416 148.915 132.461 148.098V143.346C132.461 141.816 131.404 141.231 130.11 141.99Z" fill="#E0E0E0"/>
<path d="M142.214 159.842L120.444 172.406C119.76 172.855 119.191 173.458 118.783 174.166C118.374 174.875 118.138 175.67 118.093 176.486V181.238C118.093 182.744 119.15 183.353 120.444 182.594L142.214 170.03C142.899 169.585 143.469 168.985 143.878 168.278C144.287 167.571 144.522 166.778 144.565 165.962V161.198C144.565 159.705 143.52 159.095 142.214 159.842Z" fill="#E0E0E0"/>
<path d="M142.214 209.888L120.444 222.465C119.76 222.91 119.19 223.51 118.782 224.217C118.373 224.924 118.137 225.717 118.093 226.532V231.297C118.093 232.79 119.15 233.399 120.444 232.653L142.214 220.076C142.899 219.632 143.469 219.031 143.878 218.324C144.287 217.617 144.522 216.824 144.565 216.008V211.244C144.565 209.751 143.52 209.141 142.214 209.888Z" fill="#E0E0E0"/>
<path d="M120.444 357.774L142.214 345.198C142.901 344.755 143.472 344.155 143.881 343.447C144.289 342.74 144.524 341.946 144.565 341.13V336.365C144.565 334.872 143.52 334.263 142.214 335.009L120.444 347.586C119.76 348.031 119.19 348.632 118.782 349.339C118.373 350.045 118.137 350.839 118.093 351.654V356.418C118.093 357.911 119.15 358.521 120.444 357.774Z" fill="#E0E0E0"/>
<path d="M153.36 391.201L134.203 402.272C133.516 402.715 132.945 403.315 132.536 404.022C132.127 404.73 131.893 405.524 131.852 406.34V411.092C131.852 412.597 132.897 413.207 134.203 412.461L153.36 401.389V391.201Z" fill="#E0E0E0"/>
<path d="M356.717 104.347V109.099C356.677 109.92 356.443 110.72 356.034 111.434C355.625 112.147 355.054 112.754 354.366 113.204L349.775 115.854V105.64L354.366 102.991C355.659 102.244 356.717 102.841 356.717 104.347Z" fill="#E0E0E0"/>
<path d="M349.775 268.331L368.945 257.272C370.189 256.513 371.297 257.122 371.297 258.628V263.38C371.251 264.196 371.015 264.991 370.607 265.7C370.198 266.408 369.629 267.011 368.945 267.46L349.775 278.519V268.331Z" fill="#E0E0E0"/>
<path d="M371.297 83.46V88.212C371.251 89.0287 371.015 89.8234 370.607 90.5321C370.198 91.2408 369.629 91.8437 368.945 92.2924L349.775 103.352V93.1632L368.945 82.104C370.239 81.3452 371.297 81.9547 371.297 83.46Z" fill="#E0E0E0"/>
<path d="M360.922 149.28L382.692 136.703C383.936 135.957 385.043 136.566 385.043 138.059V142.824C384.999 143.639 384.763 144.432 384.354 145.139C383.946 145.846 383.376 146.446 382.692 146.892L360.922 159.468C359.616 160.215 358.571 159.605 358.571 158.112V153.348C358.614 152.532 358.849 151.739 359.258 151.032C359.667 150.325 360.237 149.724 360.922 149.28Z" fill="#E0E0E0"/>
<path d="M349.775 218.285L368.945 207.226C370.189 206.467 371.297 207.076 371.297 208.581V213.334C371.251 214.15 371.015 214.945 370.607 215.654C370.198 216.362 369.629 216.965 368.945 217.414L349.775 228.473V218.285Z" fill="#E0E0E0"/>
<path d="M371.297 33.4014V38.1659C371.262 38.9919 371.031 39.7976 370.622 40.516C370.213 41.2345 369.638 41.8447 368.945 42.296L349.775 53.3676V43.117L368.945 32.0454C370.239 31.299 371.297 31.9086 371.297 33.4014Z" fill="#E0E0E0"/>
<path d="M349.775 343.406L368.945 332.347C370.189 331.588 371.297 332.198 371.297 333.703V338.455C371.251 339.272 371.015 340.066 370.607 340.775C370.198 341.484 369.629 342.087 368.945 342.535L349.775 353.595V343.406Z" fill="#E0E0E0"/>
<path d="M393.104 158.672V163.437C393.058 164.252 392.821 165.044 392.413 165.751C392.004 166.457 391.436 167.058 390.753 167.505L368.983 180.069C367.677 180.828 366.632 180.218 366.632 178.713V173.961C366.675 173.144 366.91 172.348 367.319 171.639C367.727 170.93 368.297 170.328 368.983 169.881L390.753 157.316C392.046 156.57 393.104 157.179 393.104 158.672Z" fill="#E0E0E0"/>
<path d="M371.297 133.506V138.258C371.252 139.075 371.017 139.87 370.608 140.579C370.2 141.288 369.63 141.891 368.945 142.338L349.775 153.398V143.209L368.945 132.15C370.239 131.391 371.297 132.001 371.297 133.506Z" fill="#E0E0E0"/>
<path d="M373.2 212.239V207.487C373.244 206.67 373.48 205.875 373.888 205.166C374.297 204.457 374.867 203.854 375.551 203.406L397.321 190.842C398.627 190.096 399.672 190.693 399.672 192.198V196.963C399.629 197.778 399.394 198.572 398.985 199.279C398.576 199.986 398.006 200.586 397.321 201.03L375.551 213.595C374.195 214.354 373.2 213.744 373.2 212.239Z" fill="#E0E0E0"/>
<path d="M382.692 322.022L360.922 334.636C359.616 335.382 358.571 334.773 358.571 333.28V328.416C358.614 327.601 358.849 326.807 359.258 326.1C359.667 325.393 360.237 324.793 360.922 324.348L382.692 311.784C383.936 311.025 385.043 311.634 385.043 313.14V317.892C385.005 318.717 384.773 319.522 384.364 320.24C383.955 320.958 383.382 321.568 382.692 322.022Z" fill="#E0E0E0"/>
<path d="M360.922 49.1256L382.692 36.5612C383.936 35.8148 385.043 36.4243 385.043 37.9171V42.6816C384.997 43.4964 384.76 44.289 384.352 44.9955C383.943 45.7021 383.375 46.3029 382.692 46.7495L360.922 59.3139C359.616 60.0728 358.571 59.4632 358.571 57.958V53.2059C358.614 52.3887 358.849 51.5933 359.258 50.8843C359.666 50.1753 360.236 49.5727 360.922 49.1256Z" fill="#E0E0E0"/>
<path d="M360.922 99.1717L382.692 86.6073C383.936 85.8609 385.043 86.4704 385.043 87.9632V92.7278C384.997 93.5425 384.76 94.3351 384.352 95.0416C383.943 95.7482 383.375 96.349 382.692 96.7956L360.922 109.372C359.616 110.119 358.571 109.509 358.571 108.004V103.252C358.614 102.435 358.849 101.639 359.258 100.93C359.666 100.221 360.236 99.6188 360.922 99.1717Z" fill="#E0E0E0"/>
<path d="M382.692 221.917L360.922 234.494C359.616 235.24 358.571 234.631 358.571 233.126V228.374C358.614 227.556 358.849 226.761 359.258 226.052C359.666 225.343 360.236 224.74 360.922 224.293L382.692 211.729C383.936 210.982 385.043 211.592 385.043 213.085V217.849C384.997 218.664 384.76 219.457 384.352 220.163C383.943 220.87 383.375 221.471 382.692 221.917Z" fill="#E0E0E0"/>
<path d="M349.775 293.36L368.945 282.288C370.189 281.542 371.297 282.152 371.297 283.644V288.409C371.25 289.224 371.014 290.016 370.605 290.723C370.197 291.429 369.628 292.03 368.945 292.477L349.775 303.536V293.36Z" fill="#E0E0E0"/>
<path d="M172.767 345.285L329.809 435.997V56.4278L172.767 147.153V345.285Z" fill="#DD5928"/>
<path opacity="0.4" d="M172.767 345.285L329.809 435.997V56.4278L172.767 147.153V345.285Z" fill="black"/>
<path d="M329.809 435.997L172.767 345.285V526.635L329.809 435.997Z" fill="#E0E0E0"/>
<path d="M329.809 435.997L337.149 440.214V52.1858L329.809 56.4278V435.997Z" fill="#DD5928"/>
<path opacity="0.4" d="M329.809 435.997L337.149 440.214V52.1858L329.809 56.4278V435.997Z" fill="white"/>
<path opacity="0.1" d="M329.809 435.997L337.149 440.214V52.1858L329.809 56.4278V435.997Z" fill="black"/>
<path d="M337.149 440.214L349.775 432.924V25.5642L160.588 134.787L160.6 542.148L172.767 535.119V147.153L337.149 52.1858V440.214Z" fill="#DD5928"/>
<path opacity="0.7" d="M337.149 440.214L349.775 432.924V25.5642L160.588 134.787L160.6 542.148L172.767 535.119V147.153L337.149 52.1858V440.214Z" fill="white"/>
<path d="M349.775 25.5642L160.588 134.787L153.36 130.583L342.548 21.3719L349.775 25.5642Z" fill="#DD5928"/>
<path opacity="0.85" d="M349.775 25.5642L160.588 134.787L153.36 130.583L342.548 21.3719L349.775 25.5642Z" fill="white"/>
<path d="M160.588 542.148V134.787L153.36 130.583L153.248 537.906L160.588 542.148Z" fill="#DD5928"/>
<path opacity="0.6" d="M153.36 130.583L153.248 537.906L160.588 542.148V134.787" fill="white"/>
<path d="M419.663 110.716C421.057 110.594 422.46 110.674 423.831 110.952C425.151 111.205 426.416 111.694 427.563 112.395C428.649 113.059 429.579 113.95 430.287 115.008C430.926 116.039 431.343 117.193 431.51 118.395C431.677 119.597 431.591 120.82 431.257 121.987C430.968 122.873 430.549 123.712 430.013 124.475C429.495 125.224 428.912 125.928 428.272 126.577L426.456 128.393C425.906 128.941 425.406 129.536 424.963 130.172C424.566 130.736 424.334 131.4 424.291 132.088C424.257 132.406 424.141 132.71 423.955 132.971C423.868 133.096 423.753 133.199 423.619 133.272C423.485 133.346 423.336 133.387 423.184 133.394L419.763 133.68C419.6 133.695 419.436 133.677 419.28 133.627C419.125 133.578 418.98 133.499 418.855 133.394C418.727 133.299 418.623 133.175 418.552 133.032C418.481 132.89 418.444 132.732 418.444 132.573C418.39 131.502 418.555 130.431 418.929 129.426C419.279 128.54 419.743 127.703 420.31 126.938C420.856 126.199 421.463 125.508 422.126 124.873C422.786 124.238 423.371 123.629 423.943 123.069C424.455 122.552 424.91 121.98 425.299 121.365C425.637 120.836 425.791 120.211 425.734 119.586C425.695 119.036 425.523 118.504 425.232 118.036C424.942 117.568 424.542 117.178 424.067 116.899C422.883 116.214 421.505 115.938 420.149 116.115C418.932 116.198 417.771 116.654 416.825 117.423C415.878 118.191 415.192 119.233 414.862 120.407C414.766 120.688 414.628 120.952 414.451 121.19C414.224 121.39 413.932 121.501 413.63 121.501L409.997 121.8C409.869 121.816 409.739 121.805 409.615 121.769C409.491 121.733 409.375 121.671 409.276 121.589C409.171 121.507 409.086 121.403 409.026 121.285C408.966 121.167 408.932 121.037 408.928 120.904C408.885 119.765 409.124 118.632 409.624 117.608C410.14 116.407 410.864 115.308 411.764 114.361C412.776 113.351 413.943 112.511 415.222 111.873C416.611 111.195 418.121 110.802 419.663 110.716ZM423.594 136.081C423.916 136.062 424.233 136.169 424.478 136.38C424.603 136.479 424.705 136.603 424.778 136.745C424.851 136.886 424.893 137.042 424.901 137.201L425.236 141.157C425.259 141.477 425.156 141.793 424.95 142.04C424.849 142.165 424.722 142.266 424.578 142.339C424.435 142.412 424.278 142.454 424.117 142.463L420.26 142.786C420.101 142.802 419.941 142.785 419.789 142.736C419.637 142.687 419.497 142.606 419.377 142.5C419.252 142.4 419.149 142.276 419.074 142.135C419 141.994 418.954 141.839 418.942 141.679L418.618 137.723C418.599 137.564 418.615 137.403 418.664 137.25C418.714 137.098 418.796 136.958 418.905 136.84C419.003 136.713 419.127 136.609 419.268 136.534C419.41 136.459 419.566 136.415 419.726 136.405L423.594 136.081Z" fill="#DD5928"/>
<path d="M447.529 153.622C448.588 153.916 449.598 154.364 450.527 154.953C451.42 155.496 452.208 156.195 452.853 157.018C453.455 157.814 453.879 158.731 454.097 159.705C454.334 160.746 454.291 161.832 453.973 162.852C453.766 163.67 453.394 164.436 452.878 165.104C452.423 165.68 451.887 166.187 451.286 166.609C450.695 167.014 450.071 167.368 449.42 167.666L447.579 168.512C447.025 168.761 446.496 169.06 445.999 169.408C445.545 169.714 445.19 170.147 444.979 170.652C444.865 170.879 444.693 171.072 444.481 171.212C444.382 171.28 444.269 171.324 444.151 171.341C444.032 171.358 443.911 171.348 443.797 171.311L441.197 170.577C441.072 170.547 440.956 170.49 440.855 170.411C440.754 170.331 440.671 170.231 440.612 170.117C440.546 170.013 440.504 169.894 440.491 169.771C440.478 169.648 440.494 169.524 440.538 169.408C440.8 168.605 441.224 167.865 441.782 167.231C442.286 166.668 442.858 166.171 443.486 165.751C444.093 165.355 444.735 165.014 445.402 164.73C446.061 164.444 446.646 164.171 447.23 163.897C447.75 163.662 448.243 163.37 448.698 163.026C449.101 162.715 449.387 162.277 449.507 161.782C449.64 161.36 449.666 160.911 449.581 160.476C449.496 160.042 449.304 159.635 449.022 159.294C448.34 158.465 447.405 157.884 446.36 157.64C445.439 157.364 444.456 157.379 443.545 157.684C442.634 157.99 441.84 158.569 441.272 159.344C441.129 159.525 440.956 159.68 440.762 159.804C440.541 159.887 440.298 159.887 440.077 159.804L437.316 159.021C437.218 158.997 437.126 158.954 437.044 158.894C436.963 158.834 436.895 158.759 436.843 158.672C436.788 158.582 436.753 158.481 436.74 158.375C436.727 158.27 436.737 158.164 436.768 158.063C437.051 157.212 437.538 156.443 438.187 155.823C438.911 155.112 439.753 154.532 440.675 154.107C441.7 153.644 442.791 153.346 443.909 153.223C445.13 153.12 446.36 153.255 447.529 153.622ZM443.436 173.389C443.557 173.421 443.67 173.478 443.768 173.555C443.866 173.632 443.948 173.727 444.009 173.837C444.072 173.947 444.112 174.069 444.127 174.195C444.142 174.321 444.131 174.449 444.096 174.571L443.25 177.569C443.217 177.689 443.161 177.802 443.084 177.9C443.007 177.998 442.911 178.08 442.802 178.141C442.691 178.203 442.57 178.243 442.444 178.258C442.318 178.273 442.19 178.263 442.068 178.228L439.132 177.407C439.012 177.373 438.9 177.315 438.803 177.236C438.707 177.157 438.628 177.058 438.572 176.947C438.507 176.839 438.465 176.72 438.448 176.596C438.431 176.472 438.439 176.346 438.473 176.225L439.319 173.215C439.354 173.094 439.413 172.981 439.492 172.883C439.571 172.784 439.668 172.703 439.779 172.642C439.887 172.58 440.007 172.54 440.131 172.525C440.255 172.51 440.381 172.52 440.5 172.555L443.436 173.389Z" fill="#DD5928"/>
<g opacity="0.2">
<path opacity="0.2" d="M447.529 153.622C448.588 153.916 449.598 154.364 450.527 154.953C451.42 155.496 452.208 156.195 452.853 157.018C453.455 157.814 453.879 158.731 454.097 159.705C454.334 160.746 454.291 161.832 453.973 162.852C453.766 163.67 453.394 164.436 452.878 165.104C452.423 165.68 451.887 166.187 451.286 166.609C450.695 167.014 450.071 167.368 449.42 167.666L447.579 168.512C447.025 168.761 446.496 169.06 445.999 169.408C445.545 169.714 445.19 170.147 444.979 170.652C444.865 170.879 444.693 171.072 444.481 171.212C444.382 171.28 444.269 171.324 444.151 171.341C444.032 171.358 443.911 171.348 443.797 171.311L441.197 170.577C441.072 170.547 440.956 170.49 440.855 170.411C440.754 170.331 440.671 170.231 440.612 170.117C440.546 170.013 440.504 169.894 440.491 169.771C440.478 169.648 440.494 169.524 440.538 169.408C440.8 168.605 441.224 167.865 441.782 167.231C442.286 166.668 442.858 166.171 443.486 165.751C444.093 165.355 444.735 165.014 445.402 164.73C446.061 164.444 446.646 164.171 447.23 163.897C447.75 163.662 448.243 163.37 448.698 163.026C449.101 162.715 449.387 162.277 449.507 161.782C449.64 161.36 449.666 160.911 449.581 160.476C449.496 160.042 449.304 159.635 449.022 159.294C448.34 158.465 447.405 157.884 446.36 157.64C445.439 157.364 444.456 157.379 443.545 157.684C442.634 157.99 441.84 158.569 441.272 159.344C441.129 159.525 440.956 159.68 440.762 159.804C440.541 159.887 440.298 159.887 440.077 159.804L437.316 159.021C437.218 158.997 437.126 158.954 437.044 158.894C436.963 158.834 436.895 158.759 436.843 158.672C436.788 158.582 436.753 158.481 436.74 158.375C436.727 158.27 436.737 158.164 436.768 158.063C437.051 157.212 437.538 156.443 438.187 155.823C438.911 155.112 439.753 154.532 440.675 154.107C441.7 153.644 442.791 153.346 443.909 153.223C445.13 153.12 446.36 153.255 447.529 153.622ZM443.436 173.389C443.557 173.421 443.67 173.478 443.768 173.555C443.866 173.632 443.948 173.727 444.009 173.837C444.072 173.947 444.112 174.069 444.127 174.195C444.142 174.321 444.131 174.449 444.096 174.571L443.25 177.569C443.217 177.689 443.161 177.802 443.084 177.9C443.007 177.998 442.911 178.08 442.802 178.141C442.691 178.203 442.57 178.243 442.444 178.258C442.318 178.273 442.19 178.263 442.068 178.228L439.132 177.407C439.012 177.373 438.9 177.315 438.803 177.236C438.707 177.157 438.628 177.058 438.572 176.947C438.507 176.839 438.465 176.72 438.448 176.596C438.431 176.472 438.439 176.346 438.473 176.225L439.319 173.215C439.354 173.094 439.413 172.981 439.492 172.883C439.571 172.784 439.668 172.703 439.779 172.642C439.887 172.58 440.007 172.54 440.131 172.525C440.255 172.51 440.381 172.52 440.5 172.555L443.436 173.389Z" fill="black"/>
</g>
<path d="M461.001 139.452C461.106 139.519 461.195 139.606 461.264 139.709C461.332 139.812 461.379 139.928 461.4 140.05C461.425 140.169 461.426 140.292 461.402 140.412C461.378 140.531 461.331 140.645 461.263 140.746L459.558 143.234C459.492 143.339 459.405 143.428 459.302 143.497C459.199 143.565 459.083 143.611 458.961 143.632C458.842 143.657 458.719 143.657 458.599 143.634C458.48 143.61 458.366 143.563 458.265 143.495L455.777 141.828C455.674 141.762 455.587 141.674 455.52 141.571C455.454 141.468 455.41 141.352 455.391 141.231C455.367 141.112 455.366 140.989 455.39 140.869C455.413 140.75 455.46 140.636 455.528 140.535L457.232 138.047C457.372 137.858 457.576 137.729 457.806 137.683C458.036 137.637 458.275 137.678 458.476 137.798L461.001 139.452ZM470.829 122.422C471.713 123.021 472.509 123.741 473.193 124.562C473.851 125.339 474.365 126.228 474.71 127.187C475.044 128.105 475.172 129.087 475.084 130.06C474.984 131.099 474.615 132.094 474.014 132.946C473.568 133.635 472.994 134.23 472.322 134.7C471.72 135.089 471.067 135.39 470.381 135.596C469.711 135.794 469.024 135.931 468.329 136.007L466.376 136.218C465.785 136.283 465.202 136.404 464.634 136.579C464.128 136.722 463.672 137.002 463.315 137.387C463.15 137.571 462.933 137.701 462.693 137.761C462.579 137.793 462.459 137.798 462.343 137.777C462.226 137.755 462.116 137.707 462.022 137.636L459.845 136.168C459.742 136.1 459.653 136.013 459.585 135.91C459.517 135.807 459.469 135.692 459.446 135.571C459.413 135.452 459.41 135.326 459.436 135.205C459.462 135.083 459.517 134.97 459.596 134.874C460.084 134.219 460.692 133.662 461.387 133.232C462.025 132.869 462.706 132.589 463.415 132.399C464.095 132.216 464.79 132.091 465.492 132.026C466.189 132.026 466.836 131.901 467.445 131.827C467.996 131.763 468.537 131.642 469.063 131.466C469.517 131.306 469.909 131.005 470.182 130.608C470.421 130.26 470.571 129.861 470.621 129.442C470.671 129.024 470.619 128.6 470.468 128.207C470.096 127.228 469.409 126.401 468.515 125.855C467.749 125.321 466.837 125.034 465.903 125.034C464.968 125.034 464.057 125.321 463.29 125.855C463.105 125.981 462.898 126.074 462.681 126.129C462.448 126.143 462.219 126.072 462.034 125.93L459.72 124.4C459.636 124.348 459.564 124.279 459.509 124.198C459.453 124.116 459.415 124.024 459.397 123.927C459.372 123.827 459.37 123.722 459.392 123.621C459.413 123.519 459.457 123.424 459.521 123.343C460.043 122.646 460.726 122.087 461.511 121.713C462.403 121.267 463.368 120.989 464.36 120.892C465.449 120.772 466.55 120.831 467.62 121.066C468.766 121.31 469.855 121.77 470.829 122.422Z" fill="#DD5928"/>
<g opacity="0.6">
<path opacity="0.6" d="M461.001 139.452C461.106 139.519 461.195 139.606 461.264 139.709C461.332 139.812 461.379 139.928 461.4 140.05C461.425 140.169 461.426 140.292 461.402 140.412C461.378 140.531 461.331 140.645 461.263 140.746L459.558 143.234C459.492 143.339 459.405 143.428 459.302 143.497C459.199 143.565 459.083 143.611 458.961 143.632C458.842 143.657 458.719 143.657 458.599 143.634C458.48 143.61 458.366 143.563 458.265 143.495L455.777 141.828C455.674 141.762 455.587 141.674 455.52 141.571C455.454 141.468 455.41 141.352 455.391 141.231C455.367 141.112 455.366 140.989 455.39 140.869C455.413 140.75 455.46 140.636 455.528 140.535L457.232 138.047C457.372 137.858 457.576 137.729 457.806 137.683C458.036 137.637 458.275 137.678 458.476 137.798L461.001 139.452ZM470.829 122.422C471.713 123.021 472.509 123.741 473.193 124.562C473.851 125.339 474.365 126.228 474.71 127.187C475.044 128.105 475.172 129.087 475.084 130.06C474.984 131.099 474.615 132.094 474.014 132.946C473.568 133.635 472.994 134.23 472.322 134.7C471.72 135.089 471.067 135.39 470.381 135.596C469.711 135.794 469.024 135.931 468.329 136.007L466.376 136.218C465.785 136.283 465.202 136.404 464.634 136.579C464.128 136.722 463.672 137.002 463.315 137.387C463.15 137.571 462.933 137.701 462.693 137.761C462.579 137.793 462.459 137.798 462.343 137.777C462.226 137.755 462.116 137.707 462.022 137.636L459.845 136.168C459.742 136.1 459.653 136.013 459.585 135.91C459.517 135.807 459.469 135.692 459.446 135.571C459.413 135.452 459.41 135.326 459.436 135.205C459.462 135.083 459.517 134.97 459.596 134.874C460.084 134.219 460.692 133.662 461.387 133.232C462.025 132.869 462.706 132.589 463.415 132.399C464.095 132.216 464.79 132.091 465.492 132.026C466.189 132.026 466.836 131.901 467.445 131.827C467.996 131.763 468.537 131.642 469.063 131.466C469.517 131.306 469.909 131.005 470.182 130.608C470.421 130.26 470.571 129.861 470.621 129.442C470.671 129.024 470.619 128.6 470.468 128.207C470.096 127.228 469.409 126.401 468.515 125.855C467.749 125.321 466.837 125.034 465.903 125.034C464.968 125.034 464.057 125.321 463.29 125.855C463.105 125.981 462.898 126.074 462.681 126.129C462.448 126.143 462.219 126.072 462.034 125.93L459.72 124.4C459.636 124.348 459.564 124.279 459.509 124.198C459.453 124.116 459.415 124.024 459.397 123.927C459.372 123.827 459.37 123.722 459.392 123.621C459.413 123.519 459.457 123.424 459.521 123.343C460.043 122.646 460.726 122.087 461.511 121.713C462.403 121.267 463.368 120.989 464.36 120.892C465.449 120.772 466.55 120.831 467.62 121.066C468.766 121.31 469.855 121.77 470.829 122.422Z" fill="white"/>
</g>
<path d="M358.396 476.452C358.123 479.413 360.051 487.125 360.051 487.125C360.051 487.125 361.693 489.614 366.37 490.758L366.694 479.562L358.396 476.452Z" fill="#263238"/>
<path d="M366.37 490.696L375.601 486.031L376.621 477.062L366.557 484.239L366.37 490.696Z" fill="black"/>
<path d="M373.387 463.527L373.2 461.648C374.618 462.096 378.338 472.583 383.376 479.276C387.979 485.384 395.642 487.984 398.391 490.546C402.061 493.943 396.836 499.852 386.896 499.254C381.92 498.956 374.27 497.015 371.819 494.092C369.369 491.169 367.789 485.384 365.823 483.219C363.858 481.055 359.603 478.952 358.421 476.377C357.75 474.959 357.998 471.675 358.421 468.913C358.795 466.338 359.205 463.514 360.088 463.651C360.088 463.962 360.3 465.231 360.3 465.231C360.598 466.475 362.253 467.794 367.415 467.234C369.704 466.96 373.797 466.077 373.387 463.527Z" fill="#455A64"/>
<path d="M271.578 419.104C269.998 421.281 267.211 436.52 267.211 436.52C267.211 436.52 270.856 441.844 272.958 443.461L279.713 429.13L271.578 419.104Z" fill="#263238"/>
<path d="M272.958 443.399L285.349 440.55L289.952 431.009L277.051 434.604L272.958 443.399Z" fill="black"/>
<path d="M280.808 409.438C280.099 408.903 279.079 410.296 276.603 412.51C274.862 414.065 271.105 415.533 271.105 419.974C271.105 423.171 273.232 427.115 275.272 430.424C277.312 433.733 277.611 436.706 277.599 441.409C277.599 447.094 276.554 450.577 283.545 455.64C289.143 459.683 300.513 460.429 303.013 458.128C307.293 454.122 297.303 448.624 295.674 440.426C293.435 429.118 293.186 427.227 293.497 419.278L280.808 409.438Z" fill="#455A64"/>
<path d="M390.205 270.446C384.757 273.394 368.211 274.178 344.998 269.202L347.748 336.378C347.748 336.378 327.408 350.808 321.151 358.683C314.894 366.557 284.801 404.81 284.801 404.81L280.646 409.624C278.071 412.61 279.402 416.641 282.388 419.216C285.262 421.579 289.006 423.246 291.805 420.808L295.238 417.822C295.238 417.822 362.489 365.985 364.902 362.676C367.316 359.367 372.976 351.156 379.084 333.827C386.971 311.597 388.29 295.5 390.205 270.446Z" fill="#FFA8A7"/>
<path d="M390.193 270.446C375.501 277.188 345.969 274.887 345.969 274.887L347.325 336.278C339.898 340.796 332.946 346.051 326.575 351.965C317.767 360.449 304.332 378.089 304.332 378.089C308.935 391.039 322.047 397.085 322.047 397.085C322.047 397.085 349.626 377.765 365.052 366.831C373.125 361.121 379.196 357.936 381.622 348.643C383.53 341.529 385.001 334.304 386.026 327.01C387.344 318.986 387.979 309.856 388.75 303.101C390.064 292.268 390.546 281.351 390.193 270.446Z" fill="#DD5928"/>
<path opacity="0.4" d="M390.193 270.446C375.501 277.188 345.969 274.887 345.969 274.887L347.325 336.278C339.898 340.796 332.946 346.051 326.575 351.965C317.767 360.449 304.332 378.089 304.332 378.089C308.935 391.039 322.047 397.085 322.047 397.085C322.047 397.085 349.626 377.765 365.052 366.831C373.125 361.121 379.196 357.936 381.622 348.643C383.53 341.529 385.001 334.304 386.026 327.01C387.344 318.986 387.979 309.856 388.75 303.101C390.064 292.268 390.546 281.351 390.193 270.446Z" fill="black"/>
<path opacity="0.1" d="M365.661 350.099L363.323 316.163L354.615 308.064L347.151 328.03L347.337 336.278C342.52 339.222 337.888 342.459 333.467 345.969L334.711 348.967L341.789 366.072C341.789 366.072 339.301 377.741 340.346 384.185C348.494 378.462 357.762 371.931 364.716 367.017L365.661 350.099Z" fill="black"/>
<path d="M373.859 465.007V463.614C372.789 451.062 374.519 382.045 374.444 363.422C374.357 343.257 370.712 294.405 370.712 294.405C370.712 294.405 382.629 278.843 390.305 270.446C383.052 278.743 346.479 274.538 344.277 258.565C341.279 264.86 330.593 271.354 329.71 292.041C328.466 318.402 347.126 365.014 347.126 365.014C346.417 368.535 343.22 383.289 345.098 396.911C348.059 418.407 358.682 456.411 359.802 461.599L360.486 466.015C362.813 468.901 372.18 468.465 373.859 465.007Z" fill="#FFA8A7"/>
<path d="M374.705 326.538L373.635 299.008C373.635 299.008 384.719 296.122 389.21 286.804C390.048 281.394 390.381 275.918 390.205 270.446C390.205 270.446 380.515 274.936 366.893 271.615C358.305 269.321 350.466 264.822 344.153 258.565C344.153 258.565 341.54 261.14 336.179 269.139C333.616 272.958 329.287 282.823 328.914 290.524C328.055 308.101 333.666 326.861 333.666 326.861C336.527 340.62 345.21 365.661 345.21 365.661C345.21 365.661 341.901 383.898 343.568 396.973C345.235 410.047 350.522 424.826 350.522 424.826C350.522 424.826 365.263 429.802 374.954 424.03C374.954 424.03 375.414 378.562 375.588 360.822C375.763 343.083 374.705 326.538 374.705 326.538Z" fill="#DD5928"/>
<path opacity="0.3" d="M374.705 326.538L373.635 299.008C373.635 299.008 384.719 296.122 389.21 286.804C390.048 281.394 390.381 275.918 390.205 270.446C390.205 270.446 380.515 274.936 366.893 271.615C358.305 269.321 350.466 264.822 344.153 258.565C344.153 258.565 341.54 261.14 336.179 269.139C333.616 272.958 329.287 282.823 328.914 290.524C328.055 308.101 333.666 326.861 333.666 326.861C336.527 340.62 345.21 365.661 345.21 365.661C345.21 365.661 341.901 383.898 343.568 396.973C345.235 410.047 350.522 424.826 350.522 424.826C350.522 424.826 365.263 429.802 374.954 424.03C374.954 424.03 375.414 378.562 375.588 360.822C375.763 343.083 374.705 326.538 374.705 326.538Z" fill="black"/>
<path d="M424.664 211.169C426.345 209.262 427.328 206.841 427.45 204.302C427.572 201.763 426.826 199.258 425.336 197.199C420.223 189.2 408.156 192.31 408.156 192.31L404.934 187.122C406.151 186.799 407.42 186.723 408.666 186.899C410.928 186.985 413.186 186.665 415.334 185.953C417.639 185.316 419.644 183.884 420.994 181.91C421.636 180.91 421.926 179.725 421.817 178.542C421.709 177.359 421.209 176.246 420.397 175.379C421.594 175.387 422.778 175.141 423.873 174.656C424.967 174.172 425.945 173.46 426.743 172.568C427.54 171.676 428.139 170.625 428.499 169.484C428.86 168.343 428.973 167.138 428.832 165.95C428.785 165.223 428.516 164.528 428.06 163.959C427.415 163.389 426.636 162.991 425.796 162.802C423.526 162.006 421.452 160.734 419.713 159.07C416.267 155.774 414.812 151.905 410.047 148.807C406.015 146.154 401.289 144.752 396.463 144.777C391.002 144.777 386.075 146.344 382.381 150.86C376.285 150.86 368.348 154.48 362.924 169.52C357.588 184.323 359.528 201.615 369.617 217.078C376.273 227.279 402.807 244.222 421.778 237.542C440.749 230.862 432.775 211.642 424.664 211.169Z" fill="#263238"/>
<path d="M393.017 207.163C407.746 209.9 408.592 217.252 409.338 223.684C411.266 240.44 407.945 268.119 406.788 274.215C406.788 274.215 386.983 268.169 387.207 267.186C387.431 266.204 393.017 207.163 393.017 207.163Z" fill="#FFA8A7"/>
<path d="M393.253 264.499C393.253 264.499 399.921 262.944 404.959 264.499C404.959 264.499 400.817 260.195 391.35 262.994L393.253 264.499Z" fill="#F28F8F"/>
<path d="M391.561 269.251C393.693 263.894 395.358 258.362 396.537 252.719C406.377 247.656 408.529 240.104 406.489 233.026C402.26 218.459 398.142 211.368 394.36 207.163C391.424 205.086 380.975 202.187 380.975 202.187C379.109 201.889 362.203 199.762 357.04 199.339C354.248 201.498 352.126 204.406 350.92 207.723C349.925 210.808 348.183 213.433 348.183 223.982L350.149 242.841C350.149 242.841 350.671 248.489 348.693 251.773C346.715 255.057 338.654 261.066 334.934 269.189C334.934 269.189 335.382 281.555 358.123 286.717C376.621 290.922 390.342 284.229 390.342 284.229C391.153 279.278 391.561 274.269 391.561 269.251Z" fill="#F5F5F5"/>
<path d="M407.012 239.968C406.397 239.187 405.507 238.67 404.524 238.525C402.384 238.263 400.356 239.383 398.378 240.266C394.721 241.896 390.516 242.754 386.697 241.572C382.567 240.241 379.233 236.596 374.942 236.223C370.849 235.9 367.191 238.711 364.181 241.46C359.727 245.603 355.597 250.168 350.497 253.515C348.308 254.918 346.041 256.193 343.705 257.334L342.709 258.379L342.51 258.59C341.752 259.399 340.968 260.257 340.209 261.153L339.923 261.501L339.102 262.496L338.704 263.006L338.02 263.915L337.609 264.487L336.975 265.432L336.601 266.017C336.377 266.365 336.178 266.714 335.967 267.074L335.668 267.597C335.382 268.132 335.096 268.679 334.847 269.239C334.927 270.091 335.124 270.928 335.432 271.727C335.922 273.018 336.579 274.239 337.385 275.359C337.721 275.82 338.082 276.28 338.492 276.753C341.615 280.323 347.374 284.329 358.023 286.705C362.238 287.667 366.551 288.13 370.874 288.085C372.329 288.085 373.722 287.998 375.053 287.874C376.385 287.75 377.641 287.6 378.785 287.414C380.353 287.165 381.796 286.866 383.09 286.555C385.539 285.997 387.927 285.197 390.218 284.167C390.786 280.791 391.151 277.385 391.313 273.966C391.313 273.232 391.387 272.473 391.412 271.677C391.437 270.881 391.412 270.047 391.412 269.189C392.656 265.669 393.801 262.472 394.646 259.685C394.858 258.988 395.057 258.317 395.231 257.67C395.712 256.035 396.098 254.373 396.388 252.694C403.18 249.298 406.315 244.745 407.012 239.968Z" fill="#EBEBEB"/>
<path d="M413.481 164.905C414.563 167.33 416.255 171.212 412.423 186.438C409.176 199.339 404.25 201.59 401.924 202.026C399.598 202.461 395.704 200.993 392.917 199.923L388.364 208.009C388.775 211.492 389.969 218.509 387.668 222.937C380.975 217.837 374.133 211.667 369.443 202.013L376.783 185.953C376.783 185.953 372.528 187.993 370.252 183.117C368.149 178.626 368.933 174.882 372.055 172.879C372.784 172.413 373.618 172.138 374.481 172.081C375.343 172.023 376.207 172.184 376.991 172.548C377.775 172.913 378.454 173.47 378.966 174.167C379.477 174.864 379.805 175.679 379.917 176.536C380.589 180.38 384.321 180.666 385.354 174.956C385.665 173.215 387.133 163.76 393.863 161.658C401.812 171.672 411.938 170.266 413.481 164.905Z" fill="#FFA8A7"/>
<path d="M396.09 178.066C396.016 178.402 395.846 178.709 395.6 178.948C395.354 179.188 395.043 179.351 394.706 179.415C394.369 179.48 394.02 179.444 393.702 179.312C393.385 179.181 393.114 178.958 392.922 178.674C392.729 178.389 392.625 178.054 392.622 177.71C392.618 177.367 392.716 177.03 392.902 176.741C393.089 176.453 393.356 176.225 393.67 176.087C393.985 175.949 394.333 175.906 394.671 175.964C394.903 176.009 395.123 176.098 395.319 176.228C395.516 176.358 395.685 176.526 395.817 176.721C395.948 176.916 396.04 177.135 396.087 177.366C396.134 177.597 396.135 177.835 396.09 178.066Z" fill="#263238"/>
<path d="M398.08 191.75C398.047 191.971 397.97 192.183 397.854 192.374C397.738 192.566 397.586 192.732 397.405 192.864C397.225 192.996 397.02 193.09 396.803 193.143C396.585 193.195 396.36 193.204 396.139 193.168C395.794 193.123 395.471 192.975 395.21 192.745C394.95 192.514 394.765 192.21 394.679 191.873C394.592 191.536 394.609 191.181 394.727 190.853C394.844 190.525 395.057 190.241 395.338 190.035C395.619 189.83 395.955 189.714 396.303 189.701C396.651 189.689 396.994 189.78 397.289 189.965C397.584 190.149 397.817 190.418 397.958 190.736C398.099 191.055 398.142 191.408 398.08 191.75Z" fill="#B16668"/>
<path d="M410.868 175.678L408.094 172.63C408.279 172.436 408.501 172.282 408.747 172.177C408.993 172.072 409.257 172.018 409.525 172.018C409.792 172.018 410.057 172.072 410.303 172.177C410.549 172.282 410.771 172.436 410.955 172.63C411.346 173.047 411.556 173.601 411.539 174.172C411.523 174.743 411.282 175.284 410.868 175.678Z" fill="#263238"/>
<path d="M395.517 170.814L391.723 172.406C391.606 172.163 391.54 171.899 391.529 171.629C391.519 171.36 391.563 171.091 391.659 170.84C391.756 170.588 391.903 170.359 392.092 170.166C392.28 169.973 392.506 169.821 392.756 169.719C393.268 169.511 393.841 169.51 394.356 169.713C394.87 169.917 395.286 170.311 395.517 170.814Z" fill="#263238"/>
<path d="M409.139 180.492C409.099 180.719 409.015 180.936 408.891 181.13C408.767 181.325 408.606 181.493 408.417 181.625C408.228 181.758 408.015 181.851 407.79 181.901C407.565 181.951 407.332 181.956 407.105 181.916C406.878 181.876 406.661 181.792 406.467 181.668C406.272 181.544 406.104 181.383 405.972 181.194C405.839 181.005 405.746 180.792 405.696 180.567C405.646 180.342 405.641 180.109 405.681 179.882C405.762 179.424 406.021 179.016 406.403 178.749C406.784 178.482 407.256 178.377 407.715 178.458C408.173 178.539 408.581 178.799 408.848 179.18C409.115 179.561 409.22 180.033 409.139 180.492Z" fill="#263238"/>
<path d="M401.128 177.046L400.307 188.603L406.464 187.297L401.128 177.046Z" fill="#F28F8F"/>
<path d="M392.917 199.923C388.874 198.43 379.781 193.517 379.233 189.822C379.388 191.646 380.09 193.381 381.249 194.798C383.314 197.572 391.412 202.561 391.412 202.561L392.917 199.923Z" fill="#F28F8F"/>
<path d="M397.806 205.795C397.371 204.414 395.592 204.277 395.592 204.277C395.729 203.737 395.743 203.172 395.633 202.625C395.524 202.079 395.293 201.563 394.957 201.117C394.353 200.675 393.617 200.447 392.868 200.471C393.315 199.488 392.731 197.249 391.512 196.975C390.353 196.852 389.183 196.907 388.041 197.137C386.852 197.934 385.823 198.947 385.005 200.122L386.884 196.552C388.542 196.122 390.171 195.586 391.76 194.947C393.626 194.002 393.539 191.962 392.818 191.85C391.185 191.88 389.559 192.047 387.954 192.347C385.914 192.683 383.339 192.671 382.642 193.94C381.945 195.208 381.174 196.726 379.743 199.637C378.313 202.548 377.915 203.431 378.101 205.098C378.288 206.765 378.263 210.074 378.773 214.217C379.283 218.359 378.462 219.33 376.633 221.681C375.389 223.261 367.701 230.886 359.591 238.301L360.698 222.191C360.698 222.191 363.335 205.621 357.053 199.426C348.594 198.057 344.488 201.914 342.61 206.454C339.313 214.49 340.284 237.393 340.918 249.447C341.553 261.501 346.292 266.067 349.925 266.863C353.557 267.659 363.509 263.467 370.028 254.896C375.153 249.011 386.125 229.63 387.73 226.93C388.902 224.845 390.336 222.917 391.997 221.196C393.241 219.952 394.236 214.976 394.236 212.002C394.51 212.935 395.48 213.682 396.264 213.097C396.425 211.567 397.931 206.803 397.806 205.795Z" fill="#FFA8A7"/>
<path d="M376.596 221.643C377.246 220.873 377.817 220.04 378.3 219.155C378.713 218.221 378.896 217.202 378.835 216.182C378.835 215.162 378.661 214.142 378.549 213.135C378.437 212.127 378.35 211.094 378.275 210.074L378.101 207.014L378.002 205.484C377.931 204.969 377.91 204.448 377.94 203.929C378.113 202.907 378.449 201.92 378.935 201.006C379.358 200.073 379.818 199.164 380.291 198.256L381.672 195.507L382.368 194.139C382.587 193.639 382.994 193.246 383.5 193.044C384.475 192.699 385.492 192.485 386.523 192.409C387.543 192.298 388.538 192.098 389.559 191.974C390.579 191.85 391.586 191.725 392.631 191.7C392.798 191.692 392.961 191.746 393.091 191.85C393.205 191.955 393.291 192.088 393.34 192.235C393.409 192.509 393.409 192.795 393.34 193.069C393.253 193.608 392.996 194.104 392.606 194.487C391.782 195.138 390.827 195.605 389.807 195.855C388.825 196.179 387.842 196.465 386.859 196.739L386.971 196.652L385.117 200.247L384.831 200.073C385.278 199.507 385.756 198.968 386.262 198.455C386.511 198.198 386.772 197.949 387.046 197.709C387.313 197.449 387.614 197.227 387.941 197.05C388.57 196.927 389.206 196.848 389.845 196.813C390.502 196.733 391.17 196.801 391.798 197.012C392.366 197.387 392.767 197.966 392.917 198.629C393.129 199.268 393.129 199.957 392.917 200.595L392.78 200.396C393.262 200.395 393.741 200.471 394.199 200.62C394.44 200.695 394.664 200.818 394.858 200.981C395.031 201.156 395.182 201.352 395.306 201.565C395.758 202.426 395.873 203.424 395.629 204.364L395.517 204.203C396.01 204.26 396.485 204.421 396.911 204.675C397.345 204.934 397.672 205.34 397.831 205.82C397.812 206.45 397.72 207.076 397.557 207.686L397.097 209.49C396.799 210.734 396.438 211.878 396.226 213.072C396.022 213.209 395.782 213.281 395.536 213.281C395.29 213.281 395.05 213.209 394.845 213.072C394.452 212.798 394.17 212.392 394.049 211.928H394.236C394.207 213.332 394.053 214.731 393.776 216.108C393.512 217.489 393.095 218.837 392.532 220.126C392.223 220.753 391.801 221.318 391.288 221.793C390.815 222.315 390.355 222.838 389.932 223.385C389.079 224.491 388.297 225.65 387.593 226.856C388.283 225.64 389.047 224.469 389.882 223.348C390.305 222.8 390.753 222.265 391.225 221.743C391.741 221.27 392.163 220.705 392.469 220.076C393.001 218.788 393.385 217.444 393.614 216.07C393.877 214.704 394.023 213.319 394.049 211.928V211.269L394.236 211.903C394.354 212.315 394.608 212.675 394.957 212.923C395.121 213.05 395.322 213.119 395.53 213.119C395.737 213.119 395.938 213.05 396.102 212.923V212.998C396.326 211.754 396.674 210.584 396.973 209.378L397.408 207.586C397.566 207.002 397.654 206.4 397.669 205.795C397.487 205.382 397.192 205.028 396.818 204.775C396.444 204.522 396.006 204.38 395.555 204.364H395.405V204.215C395.619 203.339 395.509 202.416 395.094 201.615C394.998 201.421 394.864 201.248 394.699 201.106C394.535 200.965 394.343 200.859 394.136 200.794C393.706 200.659 393.257 200.592 392.805 200.595H392.606L392.681 200.396C392.867 199.822 392.867 199.204 392.681 198.629C392.551 198.043 392.199 197.53 391.698 197.199C391.115 197.018 390.5 196.963 389.894 197.037C389.272 197.078 388.653 197.157 388.041 197.274C387.754 197.452 387.483 197.656 387.232 197.883C386.971 198.119 386.71 198.368 386.473 198.617C385.976 199.127 385.516 199.662 385.068 200.222L384.048 201.466L384.782 200.023L386.635 196.415V196.341H386.71C387.692 196.067 388.675 195.793 389.633 195.47C390.607 195.252 391.524 194.828 392.32 194.226C392.655 193.883 392.884 193.451 392.98 192.982C393.054 192.546 392.98 191.924 392.532 191.974C391.516 191.996 390.502 192.079 389.496 192.223C388.489 192.347 387.481 192.534 386.461 192.646C385.452 192.71 384.456 192.911 383.5 193.243C383.045 193.425 382.679 193.778 382.48 194.226L381.784 195.594L380.39 198.318C379.93 199.227 379.457 200.135 379.022 201.068C378.544 201.958 378.217 202.92 378.052 203.916C377.996 204.417 377.996 204.922 378.052 205.422L378.139 206.964L378.288 210.025C378.35 211.045 378.425 212.065 378.524 213.085C378.624 214.105 378.761 215.112 378.773 216.145C378.818 217.172 378.617 218.196 378.188 219.131C377.744 220.02 377.21 220.862 376.596 221.643Z" fill="#B16668"/>
<path d="M392.917 200.62C393.017 200.268 393.051 199.901 393.017 199.538C391.997 199.811 390.678 199.948 389.832 200.247C389.145 200.501 388.58 201.009 388.252 201.665C388.688 201.205 389.932 200.607 392.917 200.62Z" fill="#B16668"/>
<path d="M391.997 205.173C393.089 204.569 394.335 204.301 395.579 204.402C395.642 204.061 395.68 203.716 395.691 203.369C392.78 203.792 391.997 205.173 391.997 205.173Z" fill="#B16668"/>
<path d="M394.074 212.724C394.19 211.41 394.156 210.087 393.975 208.781C393.838 207.997 393.788 207.537 394.671 207.673C395.555 207.81 396.774 206.728 396.537 207.462C396.413 207.86 394.845 208.519 394.746 209.079C394.643 210.313 394.418 211.534 394.074 212.724Z" fill="#B16668"/>
<path d="M359.516 238.263C357.277 240.117 349.688 245.914 348.631 251.823C348.631 251.823 347.573 247.394 351.927 242.468C354.375 239.668 356.992 237.022 359.765 234.544L359.516 238.263Z" fill="#F28F8F"/>
<path d="M406.788 274.215C406.029 278.631 404.623 280.248 400.12 282.226C392.781 285.448 363.385 293.771 354.702 293.833C349.77 293.924 344.858 293.184 340.172 291.643C339.33 291.443 338.578 290.971 338.032 290.3C337.716 289.728 337.294 289.221 336.788 288.807C336.162 288.432 335.514 288.095 334.847 287.799C334.064 287.311 333.498 286.541 333.268 285.647C333.225 285.061 333.041 284.493 332.733 283.993C332.362 283.611 332.029 283.194 331.737 282.749C331.403 282.153 331.235 281.479 331.252 280.796C331.28 280.453 331.251 280.108 331.165 279.776C331.031 279.474 330.836 279.203 330.593 278.979C330.335 278.691 330.094 278.388 329.871 278.071C329.644 277.814 329.5 277.492 329.461 277.151C329.505 276.875 329.617 276.615 329.784 276.392C330.804 274.787 333.093 275.148 334.76 275.322C336.738 275.546 338.679 275.932 340.657 276.168C343.41 276.498 346.189 276.56 348.954 276.355V271.242C350.957 271.685 352.854 272.513 354.54 273.68C357.774 275.67 359.727 278.357 365.736 276.765C371.744 275.173 386.063 267.037 393.253 264.524C400.444 262.011 407.223 271.603 406.788 274.215Z" fill="#FFA8A7"/>
<path d="M172.767 528.849L348.93 501.506V119.747L172.767 147.153V528.849Z" fill="#455A64"/>
<path d="M343.568 116.65L348.93 119.747L172.767 147.153L182.084 141.766L343.568 116.65Z" fill="#37474F"/>
<path d="M193.442 344.799L316.722 325.642V480.806L193.442 499.951V344.799Z" fill="#455A64"/>
<path opacity="0.1" d="M193.442 344.799L316.722 325.642V480.806L193.442 499.951V344.799Z" fill="black"/>
<path d="M202.697 352.724L307.48 336.427V472.869L202.697 489.166V352.724Z" fill="#455A64"/>
<path d="M193.442 499.951L202.697 489.166L307.48 472.869L316.722 480.806L193.442 499.951Z" fill="#263238"/>
<path d="M193.442 344.799L202.697 352.724V489.166L193.442 499.951V344.799Z" fill="#37474F"/>
<path d="M307.479 336.427L316.722 325.642V480.806L307.479 472.869V336.427Z" fill="#37474F"/>
<path d="M263.479 156.906L316.722 148.621V303.785L263.492 312.057L263.479 156.906Z" fill="#455A64"/>
<path opacity="0.1" d="M263.479 156.906L316.722 148.621V303.785L263.492 312.057L263.479 156.906Z" fill="black"/>
<path d="M272.735 164.83L307.48 159.419V295.861L272.735 301.272V164.83Z" fill="#455A64"/>
<path d="M263.492 312.057L272.735 301.272L307.48 295.861L316.722 303.785L263.492 312.057Z" fill="#263238"/>
<path d="M263.479 156.906L272.735 164.83V301.272L263.492 312.057L263.479 156.906Z" fill="#37474F"/>
<path d="M307.479 159.419L316.722 148.621V303.785L307.479 295.861V159.419Z" fill="#37474F"/>
<path d="M193.529 167.741L246.772 159.456V314.62L193.529 322.893V167.741Z" fill="#455A64"/>
<path opacity="0.1" d="M193.529 167.741L246.772 159.456V314.62L193.529 322.893V167.741Z" fill="black"/>
<path d="M202.772 175.665L237.517 170.241L237.529 306.696L202.772 312.107V175.665Z" fill="#455A64"/>
<path d="M193.529 322.893L202.772 312.107L237.529 306.696L246.772 314.62L193.529 322.893Z" fill="#263238"/>
<path d="M193.529 167.741L202.772 175.665V312.107L193.529 322.893V167.741Z" fill="#37474F"/>
<path d="M237.517 170.241L246.772 159.456V314.62L237.529 306.696L237.517 170.241Z" fill="#37474F"/>
<path d="M325.194 297.391L327.595 299.816V339.674L325.194 337.261V297.391Z" fill="#E0E0E0"/>
<path d="M327.595 299.816L340.545 297.876V337.746L327.595 339.674V299.816Z" fill="#FAFAFA"/>
<path opacity="0.05" d="M340.545 308.848L327.595 310.739V318.539L340.545 316.66V308.848Z" fill="black"/>
<path d="M340.545 297.876L338.144 295.462L325.194 297.391L327.595 299.816L340.545 297.876Z" fill="#EBEBEB"/>
<path d="M332.558 307.368L338.505 313.339L340.881 310.229L334.934 304.27C334.784 304.114 334.598 303.996 334.392 303.927C334.186 303.858 333.967 303.839 333.753 303.872C333.263 303.987 332.828 304.267 332.522 304.667C332.216 305.066 332.057 305.559 332.073 306.061C332.06 306.543 332.234 307.011 332.558 307.368Z" fill="#E0E0E0"/>
<path opacity="0.1" d="M327.595 310.813L337.037 311.858V309.022L339.338 308.686L337.174 306.509L327.595 307.965V310.813Z" fill="black"/>
<path d="M308.151 314.234V320.454L341.888 315.404V309.184L308.151 314.234Z" fill="#FAFAFA"/>
<path d="M308.151 314.234L305.999 312.057V318.29L308.151 320.454V314.234Z" fill="#E0E0E0"/>
<path d="M341.888 309.184L339.724 307.007L305.999 312.057L308.151 314.234L341.888 309.184Z" fill="#EBEBEB"/>
<path d="M331.887 324.684C331.871 324.03 332.08 323.391 332.479 322.873C332.877 322.355 333.441 321.989 334.076 321.835C334.371 321.808 334.668 321.846 334.947 321.948C335.225 322.049 335.477 322.211 335.685 322.421C335.894 322.632 336.052 322.886 336.151 323.165C336.249 323.445 336.284 323.743 336.253 324.037C336.251 324.528 336.129 325.01 335.9 325.443C335.67 325.877 335.339 326.248 334.934 326.525V330.593C334.941 330.814 334.872 331.031 334.738 331.207C334.605 331.384 334.415 331.51 334.201 331.563H333.939C333.839 331.573 333.738 331.561 333.644 331.527C333.55 331.492 333.464 331.437 333.394 331.366C333.323 331.294 333.27 331.208 333.237 331.113C333.205 331.018 333.194 330.917 333.205 330.817V326.749C332.801 326.581 332.457 326.293 332.221 325.924C331.985 325.555 331.869 325.122 331.887 324.684Z" fill="#455A64"/>
<path d="M153.808 564.552C164.395 553.63 170.615 509.144 160.289 500.474H107.718C97.3927 509.182 103.6 553.605 114.187 564.54L114.485 564.851L114.846 565.211C115.145 565.498 115.468 565.784 115.804 566.07C115.892 566.129 115.975 566.196 116.053 566.269C116.314 566.468 116.575 566.679 116.861 566.878C117.299 567.2 117.756 567.495 118.23 567.762C126.938 572.85 141.07 572.85 149.778 567.762C150.258 567.495 150.719 567.196 151.158 566.866C151.42 566.692 151.656 566.493 151.905 566.306L152.216 566.057C152.539 565.784 152.85 565.51 153.136 565.224L153.559 564.813L153.808 564.552Z" fill="#455A64"/>
<path d="M112.283 496.978C100.291 503.982 100.291 515.339 112.283 522.343C124.276 529.347 143.719 529.347 155.724 522.343C167.729 515.339 167.716 503.982 155.724 496.978C143.732 489.974 124.276 489.974 112.283 496.978Z" fill="#455A64"/>
<g opacity="0.1">
<path opacity="0.1" d="M112.283 496.978C100.291 503.982 100.291 515.339 112.283 522.343C124.276 529.347 143.719 529.347 155.724 522.343C167.729 515.339 167.716 503.982 155.724 496.978C143.732 489.974 124.276 489.974 112.283 496.978Z" fill="white"/>
</g>
<path d="M118.056 500.349C109.248 505.487 109.248 513.834 118.056 519.009C126.863 524.184 141.144 524.159 149.952 519.009C158.759 513.859 158.759 505.524 149.952 500.349C141.144 495.174 126.888 495.212 118.056 500.349Z" fill="#263238"/>
<path d="M149.952 509.194C141.144 504.044 126.863 504.044 118.056 509.194C115.914 510.353 114.099 512.035 112.781 514.083C114.107 516.125 115.919 517.805 118.056 518.972C126.863 524.122 141.144 524.122 149.952 518.972C152.088 517.805 153.901 516.125 155.226 514.083C153.908 512.035 152.094 510.353 149.952 509.194Z" fill="#F5F5F5"/>
<path d="M104.857 414.177L125.88 428.558L105.976 421.032C106.149 426.351 107.491 431.567 109.907 436.308C109.907 436.308 123.032 442.677 130.172 449.395L112.706 443.896C112.159 446.944 112.346 450.079 113.254 453.04C113.366 453.438 113.49 453.861 113.627 454.284C114.548 457.083 115.866 462.37 118.105 468.64C120.004 474.125 122.424 479.415 125.333 484.438C126.772 486.912 128.376 489.285 130.135 491.542C130.234 491.691 130.346 491.828 130.458 491.965C133.701 489.8 137.076 487.681 140.584 485.608C142.612 480.458 144.839 467.918 145.237 457.742C146.792 418.805 116.003 398.727 92.056 392.955C92.056 392.955 100.764 402.509 104.857 414.177Z" fill="#DD5928"/>
<path opacity="0.3" d="M104.857 414.177L125.88 428.558L105.976 421.032C106.149 426.351 107.491 431.567 109.907 436.308C109.907 436.308 123.032 442.677 130.172 449.395L112.706 443.896C112.159 446.944 112.346 450.079 113.254 453.04C113.366 453.438 113.49 453.861 113.627 454.284C114.548 457.083 115.866 462.37 118.105 468.64C120.004 474.125 122.424 479.415 125.333 484.438C126.772 486.912 128.376 489.285 130.135 491.542C130.234 491.691 130.346 491.828 130.458 491.965C133.701 489.8 137.076 487.681 140.584 485.608C142.612 480.458 144.839 467.918 145.237 457.742C146.792 418.805 116.003 398.727 92.056 392.955C92.056 392.955 100.764 402.509 104.857 414.177Z" fill="black"/>
<path d="M121.626 414.625C123.762 416.536 125.603 418.754 127.087 421.206C128.558 423.665 129.843 426.231 130.931 428.881C133.085 434.184 134.649 439.708 135.596 445.352C137.664 456.619 137.028 468.215 133.742 479.189C133.699 479.332 133.714 479.487 133.784 479.62C133.854 479.752 133.973 479.852 134.116 479.898C134.257 479.941 134.41 479.925 134.541 479.855C134.672 479.785 134.769 479.666 134.812 479.525C137.961 468.367 138.417 456.621 136.143 445.253C135.09 439.593 133.421 434.066 131.167 428.77C130.03 426.129 128.699 423.576 127.187 421.131C125.66 418.703 123.786 416.512 121.626 414.625Z" fill="#FAFAFA"/>
<path d="M195.121 434.069C194.649 434.678 187.197 441.172 175.777 460.591L152.614 466.5L171.448 468.192L162.74 483.319L143.06 488.146L158.672 490.136C158.672 490.136 154.94 505.487 144.068 512.242C138.047 515.974 135.073 516.621 133.158 514.941C131.814 513.76 131.242 506.495 129.911 500.013C128.58 493.532 128.082 482.995 133.717 470.021C135.255 466.544 137.283 463.306 139.738 460.404C153.833 443.386 181.35 434.405 195.121 434.069Z" fill="#DD5928"/>
<path opacity="0.15" d="M195.121 434.069C194.649 434.678 187.197 441.172 175.777 460.591L152.614 466.5L171.448 468.192L162.74 483.319L143.06 488.146L158.672 490.136C158.672 490.136 154.94 505.487 144.068 512.242C138.047 515.974 135.073 516.621 133.158 514.941C131.814 513.76 131.242 506.495 129.911 500.013C128.58 493.532 128.082 482.995 133.717 470.021C135.255 466.544 137.283 463.306 139.738 460.404C153.833 443.386 181.35 434.405 195.121 434.069Z" fill="black"/>
<path opacity="0.1" d="M138.084 476.576C135.954 481.997 134.609 487.694 134.091 493.495C133.73 500.833 133.817 508.186 134.352 515.514C133.932 515.38 133.543 515.164 133.208 514.879C131.864 513.697 131.292 506.432 129.961 499.951C128.63 493.47 128.132 482.933 133.767 469.958C135.305 466.482 137.332 463.244 139.788 460.342C153.883 443.362 181.4 434.38 195.171 434.044C174.172 438.311 152.004 453.251 141.418 470.033C140.124 472.116 139.009 474.305 138.084 476.576Z" fill="black"/>
<path d="M174.16 441.508C163.872 446.484 154.256 453.189 146.792 462.034C143.005 466.418 139.939 471.378 137.711 476.726C135.547 482.079 134.286 487.754 133.979 493.52C133.979 493.52 133.979 493.52 133.979 493.52C133.999 493.527 134.021 493.527 134.041 493.52C134.899 487.886 136.471 482.385 138.718 477.149C140.953 471.928 143.883 467.032 147.426 462.594C151.046 458.182 155.171 454.212 159.717 450.763C164.28 447.286 169.148 444.225 174.259 441.62V441.521L174.16 441.508Z" fill="#FAFAFA"/>
<path d="M72.4381 448.773C74.1367 448.671 75.8399 448.671 77.5385 448.773C84.2359 449.181 90.8579 450.409 97.2559 452.43C99.632 453.177 102.02 454.023 104.372 454.993C105.553 455.478 106.723 455.988 107.867 456.536C113.592 459.129 118.844 462.661 123.405 466.985C125.533 469.054 127.393 471.382 128.941 473.914C129.14 474.238 129.351 474.561 129.538 474.897C130.01 475.768 130.458 476.614 130.869 477.46C134.751 484.747 136.72 492.901 136.591 501.158C136.703 506.98 135.086 513.722 134.029 514.842C133.882 514.995 133.719 515.133 133.543 515.252C131.939 516.397 129.276 515.924 124.213 513.449C114.05 508.473 109.41 494.789 109.41 494.789L122.969 491.703L105.193 489.215L97.4301 478.467L110.455 475.208L92.4416 473.466C86.2821 464.851 79.6105 456.613 72.463 448.798L72.4381 448.773Z" fill="#DD5928"/>
<path opacity="0.05" d="M77.5385 448.723C84.2359 449.131 90.8579 450.359 97.2559 452.381C99.632 453.127 102.02 453.973 104.372 454.943C105.553 455.428 106.723 455.938 107.867 456.486C113.592 459.079 118.844 462.611 123.405 466.935C125.533 469.004 127.393 471.332 128.941 473.865C129.14 474.188 129.351 474.511 129.538 474.847C130.01 475.718 130.458 476.564 130.869 477.41C134.751 484.698 136.72 492.852 136.591 501.108C136.703 506.93 135.086 513.673 134.029 514.792C133.882 514.946 133.719 515.083 133.543 515.203C133.217 515.418 132.855 515.574 132.474 515.663C133.195 506.594 127.498 484.028 120.282 475.009C112.818 465.642 95.4024 452.393 72.4506 448.773C74.1442 448.66 75.843 448.644 77.5385 448.723Z" fill="black"/>
</svg>
