<svg width="405" height="109" viewBox="0 0 405 109" fill="none" xmlns="http://www.w3.org/2000/svg">
<circle cx="10.097" cy="98.1648" r="10.097" fill="#DD5928"/>
<line x1="9.59724" y1="96.7398" x2="84.9599" y2="21.3771" stroke="#DD5928" stroke-width="3"/>
<line x1="84.7022" y1="21.4987" x2="153.137" y2="21.4987" stroke="#DD5928" stroke-width="3"/>
<path d="M173.351 12.03V33H171.251V23.19H159.881V33H157.781V12.03H159.881V21.45H171.251V12.03H173.351ZM192.332 16.62V33H190.232V30.12C189.752 31.14 189.012 31.92 188.012 32.46C187.012 33 185.892 33.27 184.652 33.27C182.692 33.27 181.092 32.67 179.852 31.47C178.612 30.25 177.992 28.49 177.992 26.19V16.62H180.062V25.95C180.062 27.73 180.502 29.09 181.382 30.03C182.282 30.97 183.502 31.44 185.042 31.44C186.622 31.44 187.882 30.94 188.822 29.94C189.762 28.94 190.232 27.47 190.232 25.53V16.62H192.332ZM204.807 16.32C206.767 16.32 208.367 16.93 209.607 18.15C210.847 19.35 211.467 21.1 211.467 23.4V33H209.397V23.64C209.397 21.86 208.947 20.5 208.047 19.56C207.167 18.62 205.957 18.15 204.417 18.15C202.837 18.15 201.577 18.65 200.637 19.65C199.697 20.65 199.227 22.12 199.227 24.06V33H197.127V16.62H199.227V19.41C199.747 18.41 200.497 17.65 201.477 17.13C202.457 16.59 203.567 16.32 204.807 16.32ZM218.841 18.39V28.56C218.841 29.56 219.031 30.25 219.411 30.63C219.791 31.01 220.461 31.2 221.421 31.2H223.341V33H221.091C219.611 33 218.511 32.66 217.791 31.98C217.071 31.28 216.711 30.14 216.711 28.56V18.39H214.431V16.62H216.711V12.51H218.841V16.62H223.341V18.39H218.841ZM234.077 22.5C234.077 20.44 234.527 18.6 235.427 16.98C236.327 15.34 237.557 14.07 239.117 13.17C240.677 12.25 242.417 11.79 244.337 11.79C246.677 11.79 248.677 12.35 250.337 13.47C252.017 14.57 253.237 16.13 253.997 18.15H251.537C250.937 16.73 250.017 15.62 248.777 14.82C247.557 14.02 246.077 13.62 244.337 13.62C242.797 13.62 241.407 13.98 240.167 14.7C238.947 15.42 237.987 16.46 237.287 17.82C236.587 19.16 236.237 20.72 236.237 22.5C236.237 24.28 236.587 25.84 237.287 27.18C237.987 28.52 238.947 29.55 240.167 30.27C241.407 30.99 242.797 31.35 244.337 31.35C246.077 31.35 247.557 30.96 248.777 30.18C250.017 29.38 250.937 28.28 251.537 26.88H253.997C253.237 28.88 252.017 30.43 250.337 31.53C248.657 32.63 246.657 33.18 244.337 33.18C242.417 33.18 240.677 32.73 239.117 31.83C237.557 30.91 236.327 29.64 235.427 28.02C234.527 26.4 234.077 24.56 234.077 22.5ZM265.351 33.24C263.811 33.24 262.421 32.9 261.181 32.22C259.961 31.52 258.991 30.54 258.271 29.28C257.571 28 257.221 26.51 257.221 24.81C257.221 23.11 257.581 21.63 258.301 20.37C259.021 19.09 260.001 18.11 261.241 17.43C262.481 16.73 263.871 16.38 265.411 16.38C266.951 16.38 268.341 16.73 269.581 17.43C270.841 18.11 271.821 19.09 272.521 20.37C273.241 21.63 273.601 23.11 273.601 24.81C273.601 26.49 273.241 27.97 272.521 29.25C271.801 30.53 270.811 31.52 269.551 32.22C268.291 32.9 266.891 33.24 265.351 33.24ZM265.351 31.41C266.431 31.41 267.431 31.17 268.351 30.69C269.271 30.19 270.011 29.45 270.571 28.47C271.151 27.47 271.441 26.25 271.441 24.81C271.441 23.37 271.161 22.16 270.601 21.18C270.041 20.18 269.301 19.44 268.381 18.96C267.461 18.46 266.461 18.21 265.381 18.21C264.301 18.21 263.301 18.46 262.381 18.96C261.461 19.44 260.721 20.18 260.161 21.18C259.621 22.16 259.351 23.37 259.351 24.81C259.351 26.25 259.621 27.47 260.161 28.47C260.721 29.45 261.451 30.19 262.351 30.69C263.271 31.17 264.271 31.41 265.351 31.41ZM296.929 16.32C298.849 16.32 300.409 16.93 301.609 18.15C302.829 19.35 303.439 21.1 303.439 23.4V33H301.369V23.64C301.369 21.86 300.939 20.5 300.079 19.56C299.219 18.62 298.049 18.15 296.569 18.15C295.029 18.15 293.799 18.66 292.879 19.68C291.959 20.7 291.499 22.18 291.499 24.12V33H289.429V23.64C289.429 21.86 288.999 20.5 288.139 19.56C287.279 18.62 286.099 18.15 284.599 18.15C283.059 18.15 281.829 18.66 280.909 19.68C279.989 20.7 279.529 22.18 279.529 24.12V33H277.429V16.62H279.529V19.44C280.049 18.42 280.789 17.65 281.749 17.13C282.709 16.59 283.779 16.32 284.959 16.32C286.379 16.32 287.619 16.66 288.679 17.34C289.759 18.02 290.539 19.02 291.019 20.34C291.459 19.04 292.209 18.05 293.269 17.37C294.349 16.67 295.569 16.32 296.929 16.32ZM310.173 20.22C310.693 19.12 311.513 18.21 312.633 17.49C313.773 16.75 315.123 16.38 316.683 16.38C318.163 16.38 319.493 16.73 320.673 17.43C321.873 18.11 322.803 19.09 323.463 20.37C324.143 21.63 324.483 23.1 324.483 24.78C324.483 26.46 324.143 27.94 323.463 29.22C322.803 30.5 321.873 31.49 320.673 32.19C319.493 32.89 318.163 33.24 316.683 33.24C315.143 33.24 313.803 32.88 312.663 32.16C311.523 31.42 310.693 30.5 310.173 29.4V40.74H308.103V16.62H310.173V20.22ZM322.353 24.78C322.353 23.42 322.083 22.25 321.543 21.27C321.023 20.27 320.303 19.51 319.383 18.99C318.463 18.47 317.423 18.21 316.263 18.21C315.143 18.21 314.113 18.48 313.173 19.02C312.253 19.56 311.523 20.33 310.983 21.33C310.443 22.33 310.173 23.49 310.173 24.81C310.173 26.13 310.443 27.29 310.983 28.29C311.523 29.29 312.253 30.06 313.173 30.6C314.113 31.14 315.143 31.41 316.263 31.41C317.423 31.41 318.463 31.15 319.383 30.63C320.303 30.09 321.023 29.32 321.543 28.32C322.083 27.3 322.353 26.12 322.353 24.78ZM330.447 10.8V33H328.347V10.8H330.447ZM350.023 23.97C350.023 24.69 350.003 25.24 349.963 25.62H336.373C336.433 26.86 336.733 27.92 337.273 28.8C337.813 29.68 338.523 30.35 339.403 30.81C340.283 31.25 341.243 31.47 342.283 31.47C343.643 31.47 344.783 31.14 345.703 30.48C346.643 29.82 347.263 28.93 347.563 27.81H349.783C349.383 29.41 348.523 30.72 347.203 31.74C345.903 32.74 344.263 33.24 342.283 33.24C340.743 33.24 339.363 32.9 338.143 32.22C336.923 31.52 335.963 30.54 335.263 29.28C334.583 28 334.243 26.51 334.243 24.81C334.243 23.11 334.583 21.62 335.263 20.34C335.943 19.06 336.893 18.08 338.113 17.4C339.333 16.72 340.723 16.38 342.283 16.38C343.843 16.38 345.203 16.72 346.363 17.4C347.543 18.08 348.443 19 349.063 20.16C349.703 21.3 350.023 22.57 350.023 23.97ZM347.893 23.91C347.913 22.69 347.663 21.65 347.143 20.79C346.643 19.93 345.953 19.28 345.073 18.84C344.193 18.4 343.233 18.18 342.193 18.18C340.633 18.18 339.303 18.68 338.203 19.68C337.103 20.68 336.493 22.09 336.373 23.91H347.893ZM356.595 18.39V28.56C356.595 29.56 356.785 30.25 357.165 30.63C357.545 31.01 358.215 31.2 359.175 31.2H361.095V33H358.845C357.365 33 356.265 32.66 355.545 31.98C354.825 31.28 354.465 30.14 354.465 28.56V18.39H352.185V16.62H354.465V12.51H356.595V16.62H361.095V18.39H356.595ZM379.378 23.97C379.378 24.69 379.358 25.24 379.318 25.62H365.728C365.788 26.86 366.088 27.92 366.628 28.8C367.168 29.68 367.878 30.35 368.758 30.81C369.638 31.25 370.598 31.47 371.638 31.47C372.998 31.47 374.138 31.14 375.058 30.48C375.998 29.82 376.618 28.93 376.918 27.81H379.138C378.738 29.41 377.878 30.72 376.558 31.74C375.258 32.74 373.618 33.24 371.638 33.24C370.098 33.24 368.718 32.9 367.498 32.22C366.278 31.52 365.318 30.54 364.618 29.28C363.938 28 363.598 26.51 363.598 24.81C363.598 23.11 363.938 21.62 364.618 20.34C365.298 19.06 366.248 18.08 367.468 17.4C368.688 16.72 370.078 16.38 371.638 16.38C373.198 16.38 374.558 16.72 375.718 17.4C376.898 18.08 377.798 19 378.418 20.16C379.058 21.3 379.378 22.57 379.378 23.97ZM377.248 23.91C377.268 22.69 377.018 21.65 376.498 20.79C375.998 19.93 375.308 19.28 374.428 18.84C373.548 18.4 372.588 18.18 371.548 18.18C369.988 18.18 368.658 18.68 367.558 19.68C366.458 20.68 365.848 22.09 365.728 23.91H377.248ZM382.26 24.78C382.26 23.1 382.6 21.63 383.28 20.37C383.96 19.09 384.89 18.11 386.07 17.43C387.27 16.73 388.62 16.38 390.12 16.38C391.56 16.38 392.86 16.73 394.02 17.43C395.18 18.13 396.03 19.04 396.57 20.16V10.8H398.67V33H396.57V29.34C396.07 30.48 395.25 31.42 394.11 32.16C392.97 32.88 391.63 33.24 390.09 33.24C388.59 33.24 387.24 32.89 386.04 32.19C384.86 31.49 383.93 30.5 383.25 29.22C382.59 27.94 382.26 26.46 382.26 24.78ZM396.57 24.81C396.57 23.49 396.3 22.33 395.76 21.33C395.22 20.33 394.48 19.56 393.54 19.02C392.62 18.48 391.6 18.21 390.48 18.21C389.32 18.21 388.28 18.47 387.36 18.99C386.44 19.51 385.71 20.27 385.17 21.27C384.65 22.25 384.39 23.42 384.39 24.78C384.39 26.12 384.65 27.3 385.17 28.32C385.71 29.32 386.44 30.09 387.36 30.63C388.28 31.15 389.32 31.41 390.48 31.41C391.6 31.41 392.62 31.14 393.54 30.6C394.48 30.06 395.22 29.29 395.76 28.29C396.3 27.29 396.57 26.13 396.57 24.81Z" fill="#5F5B5B"/>
<path d="M286.878 76.1895C288.239 76.1895 289.342 75.093 289.342 73.7405C289.342 72.388 288.239 71.2915 286.878 71.2915C285.517 71.2915 284.414 72.388 284.414 73.7405C284.414 75.093 285.517 76.1895 286.878 76.1895Z" stroke="#DD5928" stroke-linecap="round" stroke-linejoin="round"/>
<path d="M281.445 74.8648C282.075 74.8648 282.585 74.3546 282.585 73.7253C282.585 73.0961 282.075 72.5859 281.445 72.5859C280.816 72.5859 280.306 73.0961 280.306 73.7253C280.306 74.3546 280.816 74.8648 281.445 74.8648Z" fill="#DD5928"/>
<path d="M237.987 74.8648C238.616 74.8648 239.126 74.3546 239.126 73.7253C239.126 73.0961 238.616 72.5859 237.987 72.5859C237.357 72.5859 236.847 73.0961 236.847 73.7253C236.847 74.3546 237.357 74.8648 237.987 74.8648Z" fill="#DD5928"/>
<path d="M243.419 74.8648C244.049 74.8648 244.559 74.3546 244.559 73.7253C244.559 73.0961 244.049 72.5859 243.419 72.5859C242.79 72.5859 242.28 73.0961 242.28 73.7253C242.28 74.3546 242.79 74.8648 243.419 74.8648Z" fill="#DD5928"/>
<path d="M248.852 74.8648C249.481 74.8648 249.992 74.3546 249.992 73.7253C249.992 73.0961 249.481 72.5859 248.852 72.5859C248.223 72.5859 247.713 73.0961 247.713 73.7253C247.713 74.3546 248.223 74.8648 248.852 74.8648Z" fill="#DD5928"/>
<path d="M254.283 74.8648C254.913 74.8648 255.423 74.3546 255.423 73.7253C255.423 73.0961 254.913 72.5859 254.283 72.5859C253.654 72.5859 253.144 73.0961 253.144 73.7253C253.144 74.3546 253.654 74.8648 254.283 74.8648Z" fill="#DD5928"/>
<path d="M259.716 74.8648C260.345 74.8648 260.855 74.3546 260.855 73.7253C260.855 73.0961 260.345 72.5859 259.716 72.5859C259.087 72.5859 258.577 73.0961 258.577 73.7253C258.577 74.3546 259.087 74.8648 259.716 74.8648Z" fill="#DD5928"/>
<path d="M265.149 74.8648C265.778 74.8648 266.288 74.3546 266.288 73.7253C266.288 73.0961 265.778 72.5859 265.149 72.5859C264.519 72.5859 264.009 73.0961 264.009 73.7253C264.009 74.3546 264.519 74.8648 265.149 74.8648Z" fill="#DD5928"/>
<path d="M270.58 74.8648C271.209 74.8648 271.719 74.3546 271.719 73.7253C271.719 73.0961 271.209 72.5859 270.58 72.5859C269.951 72.5859 269.441 73.0961 269.441 73.7253C269.441 74.3546 269.951 74.8648 270.58 74.8648Z" fill="#DD5928"/>
<path d="M276.013 74.8648C276.642 74.8648 277.152 74.3546 277.152 73.7253C277.152 73.0961 276.642 72.5859 276.013 72.5859C275.383 72.5859 274.873 73.0961 274.873 73.7253C274.873 74.3546 275.383 74.8648 276.013 74.8648Z" fill="#DD5928"/>
<path d="M259.716 48.1781V66.7187M281.445 54.6849V66.7217V54.6849ZM276.013 54.6849V66.7217V54.6849ZM254.283 54.6849V66.7217V54.6849ZM265.149 54.6849V66.7217V54.6849ZM270.58 54.6849V66.7217V54.6849ZM248.852 54.6849V66.7217V54.6849ZM232.554 42.7302V66.7217V42.7302ZM286.878 42.7302V66.7217V42.7302ZM237.987 54.6849V66.7217V54.6849ZM243.419 54.6849V66.7217V54.6849Z" stroke="#DD5928" stroke-linecap="round" stroke-linejoin="round"/>
<path d="M232.554 76.1894C233.915 76.1894 235.018 75.0862 235.018 73.7253C235.018 72.3644 233.915 71.2611 232.554 71.2611C231.193 71.2611 230.09 72.3644 230.09 73.7253C230.09 75.0862 231.193 76.1894 232.554 76.1894Z" stroke="#DD5928" stroke-linecap="round" stroke-linejoin="round"/>
<path d="M341.289 76.1895C342.65 76.1895 343.754 75.093 343.754 73.7405C343.754 72.388 342.65 71.2915 341.289 71.2915C339.929 71.2915 338.825 72.388 338.825 73.7405C338.825 75.093 339.929 76.1895 341.289 76.1895Z" stroke="#DD5928" stroke-linecap="round" stroke-linejoin="round"/>
<path d="M335.857 74.8648C336.486 74.8648 336.996 74.3546 336.996 73.7253C336.996 73.0961 336.486 72.5859 335.857 72.5859C335.227 72.5859 334.717 73.0961 334.717 73.7253C334.717 74.3546 335.227 74.8648 335.857 74.8648Z" fill="#DD5928"/>
<path d="M292.398 74.8648C293.027 74.8648 293.537 74.3546 293.537 73.7253C293.537 73.0961 293.027 72.5859 292.398 72.5859C291.769 72.5859 291.259 73.0961 291.259 73.7253C291.259 74.3546 291.769 74.8648 292.398 74.8648Z" fill="#DD5928"/>
<path d="M297.831 74.8648C298.46 74.8648 298.97 74.3546 298.97 73.7253C298.97 73.0961 298.46 72.5859 297.831 72.5859C297.201 72.5859 296.691 73.0961 296.691 73.7253C296.691 74.3546 297.201 74.8648 297.831 74.8648Z" fill="#DD5928"/>
<path d="M303.263 74.8648C303.893 74.8648 304.403 74.3546 304.403 73.7253C304.403 73.0961 303.893 72.5859 303.263 72.5859C302.634 72.5859 302.124 73.0961 302.124 73.7253C302.124 74.3546 302.634 74.8648 303.263 74.8648Z" fill="#DD5928"/>
<path d="M308.695 74.8648C309.324 74.8648 309.834 74.3546 309.834 73.7253C309.834 73.0961 309.324 72.5859 308.695 72.5859C308.065 72.5859 307.555 73.0961 307.555 73.7253C307.555 74.3546 308.065 74.8648 308.695 74.8648Z" fill="#DD5928"/>
<path d="M314.127 74.8648C314.757 74.8648 315.267 74.3546 315.267 73.7253C315.267 73.0961 314.757 72.5859 314.127 72.5859C313.498 72.5859 312.988 73.0961 312.988 73.7253C312.988 74.3546 313.498 74.8648 314.127 74.8648Z" fill="#DD5928"/>
<path d="M319.56 74.8648C320.189 74.8648 320.7 74.3546 320.7 73.7253C320.7 73.0961 320.189 72.5859 319.56 72.5859C318.931 72.5859 318.421 73.0961 318.421 73.7253C318.421 74.3546 318.931 74.8648 319.56 74.8648Z" fill="#DD5928"/>
<path d="M324.991 74.8648C325.621 74.8648 326.131 74.3546 326.131 73.7253C326.131 73.0961 325.621 72.5859 324.991 72.5859C324.362 72.5859 323.852 73.0961 323.852 73.7253C323.852 74.3546 324.362 74.8648 324.991 74.8648Z" fill="#DD5928"/>
<path d="M330.424 74.8648C331.053 74.8648 331.563 74.3546 331.563 73.7253C331.563 73.0961 331.053 72.5859 330.424 72.5859C329.795 72.5859 329.285 73.0961 329.285 73.7253C329.285 74.3546 329.795 74.8648 330.424 74.8648Z" fill="#DD5928"/>
<path d="M314.127 48.1781V66.7187M335.857 54.6849V66.7217V54.6849ZM330.424 54.6849V66.7217V54.6849ZM308.695 54.6849V66.7217V54.6849ZM319.56 54.6849V66.7217V54.6849ZM324.991 54.6849V66.7217V54.6849ZM303.263 54.6849V66.7217V54.6849ZM286.965 42.7302V66.7217V42.7302ZM341.289 42.7302V66.7217V42.7302ZM292.398 54.6849V66.7217V54.6849ZM297.831 54.6849V66.7217V54.6849Z" stroke="#DD5928" stroke-linecap="round" stroke-linejoin="round"/>
<path d="M286.965 76.1894C288.326 76.1894 289.429 75.0862 289.429 73.7253C289.429 72.3644 288.326 71.2611 286.965 71.2611C285.604 71.2611 284.501 72.3644 284.501 73.7253C284.501 75.0862 285.604 76.1894 286.965 76.1894Z" stroke="#DD5928" stroke-linecap="round" stroke-linejoin="round"/>
<path d="M395.701 76.1895C397.062 76.1895 398.165 75.093 398.165 73.7405C398.165 72.388 397.062 71.2915 395.701 71.2915C394.34 71.2915 393.237 72.388 393.237 73.7405C393.237 75.093 394.34 76.1895 395.701 76.1895Z" stroke="#DD5928" stroke-linecap="round" stroke-linejoin="round"/>
<path d="M390.268 74.8648C390.897 74.8648 391.408 74.3546 391.408 73.7253C391.408 73.0961 390.897 72.5859 390.268 72.5859C389.639 72.5859 389.129 73.0961 389.129 73.7253C389.129 74.3546 389.639 74.8648 390.268 74.8648Z" fill="#DD5928"/>
<path d="M346.809 74.8648C347.439 74.8648 347.949 74.3546 347.949 73.7253C347.949 73.0961 347.439 72.5859 346.809 72.5859C346.18 72.5859 345.67 73.0961 345.67 73.7253C345.67 74.3546 346.18 74.8648 346.809 74.8648Z" fill="#DD5928"/>
<path d="M352.242 74.8648C352.871 74.8648 353.382 74.3546 353.382 73.7253C353.382 73.0961 352.871 72.5859 352.242 72.5859C351.613 72.5859 351.103 73.0961 351.103 73.7253C351.103 74.3546 351.613 74.8648 352.242 74.8648Z" fill="#DD5928"/>
<path d="M357.675 74.8648C358.304 74.8648 358.814 74.3546 358.814 73.7253C358.814 73.0961 358.304 72.5859 357.675 72.5859C357.046 72.5859 356.535 73.0961 356.535 73.7253C356.535 74.3546 357.046 74.8648 357.675 74.8648Z" fill="#DD5928"/>
<path d="M363.106 74.8648C363.735 74.8648 364.245 74.3546 364.245 73.7253C364.245 73.0961 363.735 72.5859 363.106 72.5859C362.477 72.5859 361.967 73.0961 361.967 73.7253C361.967 74.3546 362.477 74.8648 363.106 74.8648Z" fill="#DD5928"/>
<path d="M368.539 74.8648C369.168 74.8648 369.678 74.3546 369.678 73.7253C369.678 73.0961 369.168 72.5859 368.539 72.5859C367.909 72.5859 367.399 73.0961 367.399 73.7253C367.399 74.3546 367.909 74.8648 368.539 74.8648Z" fill="#DD5928"/>
<path d="M373.971 74.8648C374.601 74.8648 375.111 74.3546 375.111 73.7253C375.111 73.0961 374.601 72.5859 373.971 72.5859C373.342 72.5859 372.832 73.0961 372.832 73.7253C372.832 74.3546 373.342 74.8648 373.971 74.8648Z" fill="#DD5928"/>
<path d="M379.403 74.8648C380.032 74.8648 380.542 74.3546 380.542 73.7253C380.542 73.0961 380.032 72.5859 379.403 72.5859C378.773 72.5859 378.263 73.0961 378.263 73.7253C378.263 74.3546 378.773 74.8648 379.403 74.8648Z" fill="#DD5928"/>
<path d="M384.835 74.8648C385.465 74.8648 385.975 74.3546 385.975 73.7253C385.975 73.0961 385.465 72.5859 384.835 72.5859C384.206 72.5859 383.696 73.0961 383.696 73.7253C383.696 74.3546 384.206 74.8648 384.835 74.8648Z" fill="#DD5928"/>
<path d="M368.539 48.1781V66.7187M390.268 54.6849V66.7217V54.6849ZM384.835 54.6849V66.7217V54.6849ZM363.106 54.6849V66.7217V54.6849ZM373.971 54.6849V66.7217V54.6849ZM379.403 54.6849V66.7217V54.6849ZM357.675 54.6849V66.7217V54.6849ZM341.377 42.7302V66.7217V42.7302ZM395.701 42.7302V66.7217V42.7302ZM346.809 54.6849V66.7217V54.6849ZM352.242 54.6849V66.7217V54.6849Z" stroke="#DD5928" stroke-linecap="round" stroke-linejoin="round"/>
<path d="M341.377 76.1894C342.738 76.1894 343.841 75.0862 343.841 73.7253C343.841 72.3644 342.738 71.2611 341.377 71.2611C340.016 71.2611 338.912 72.3644 338.912 73.7253C338.912 75.0862 340.016 76.1894 341.377 76.1894Z" stroke="#DD5928" stroke-linecap="round" stroke-linejoin="round"/>
<path d="M164.56 60.3954C164.56 59.2754 164.786 58.2954 165.24 57.4554C165.693 56.602 166.313 55.9487 167.1 55.4954C167.9 55.0287 168.8 54.7954 169.8 54.7954C170.76 54.7954 171.626 55.0287 172.4 55.4954C173.173 55.962 173.74 56.5687 174.1 57.3154V51.0754H175.5V65.8754H174.1V63.4354C173.766 64.1954 173.22 64.822 172.46 65.3154C171.7 65.7954 170.806 66.0354 169.78 66.0354C168.78 66.0354 167.88 65.802 167.08 65.3354C166.293 64.8687 165.673 64.2087 165.22 63.3554C164.78 62.502 164.56 61.5154 164.56 60.3954ZM174.1 60.4154C174.1 59.5354 173.92 58.762 173.56 58.0954C173.2 57.4287 172.706 56.9154 172.08 56.5554C171.466 56.1954 170.786 56.0154 170.04 56.0154C169.266 56.0154 168.573 56.1887 167.96 56.5354C167.346 56.882 166.86 57.3887 166.5 58.0554C166.153 58.7087 165.98 59.4887 165.98 60.3954C165.98 61.2887 166.153 62.0754 166.5 62.7554C166.86 63.422 167.346 63.9354 167.96 64.2954C168.573 64.642 169.266 64.8154 170.04 64.8154C170.786 64.8154 171.466 64.6354 172.08 64.2754C172.706 63.9154 173.2 63.402 173.56 62.7354C173.92 62.0687 174.1 61.2954 174.1 60.4154ZM178.056 60.3954C178.056 59.2754 178.276 58.2954 178.716 57.4554C179.169 56.602 179.789 55.9487 180.576 55.4954C181.376 55.0287 182.276 54.7954 183.276 54.7954C184.316 54.7954 185.209 55.0354 185.956 55.5154C186.716 55.9954 187.262 56.6087 187.596 57.3554V54.9554H188.996V65.8754H187.596V63.4554C187.249 64.202 186.696 64.822 185.936 65.3154C185.189 65.7954 184.296 66.0354 183.256 66.0354C182.269 66.0354 181.376 65.802 180.576 65.3354C179.789 64.8687 179.169 64.2087 178.716 63.3554C178.276 62.502 178.056 61.5154 178.056 60.3954ZM187.596 60.4154C187.596 59.5354 187.416 58.762 187.056 58.0954C186.696 57.4287 186.202 56.9154 185.576 56.5554C184.962 56.1954 184.282 56.0154 183.536 56.0154C182.762 56.0154 182.069 56.1887 181.456 56.5354C180.842 56.882 180.356 57.3887 179.996 58.0554C179.649 58.7087 179.476 59.4887 179.476 60.3954C179.476 61.2887 179.649 62.0754 179.996 62.7554C180.356 63.422 180.842 63.9354 181.456 64.2954C182.069 64.642 182.762 64.8154 183.536 64.8154C184.282 64.8154 184.962 64.6354 185.576 64.2754C186.202 63.9154 186.696 63.402 187.056 62.7354C187.416 62.0687 187.596 61.2954 187.596 60.4154ZM194.012 56.1354V62.9154C194.012 63.582 194.139 64.042 194.392 64.2954C194.645 64.5487 195.092 64.6754 195.732 64.6754H197.012V65.8754H195.512C194.525 65.8754 193.792 65.6487 193.312 65.1954C192.832 64.7287 192.592 63.9687 192.592 62.9154V56.1354H191.072V54.9554H192.592V52.2154H194.012V54.9554H197.012V56.1354H194.012ZM198.681 60.3954C198.681 59.2754 198.901 58.2954 199.341 57.4554C199.794 56.602 200.414 55.9487 201.201 55.4954C202.001 55.0287 202.901 54.7954 203.901 54.7954C204.941 54.7954 205.834 55.0354 206.581 55.5154C207.341 55.9954 207.887 56.6087 208.221 57.3554V54.9554H209.621V65.8754H208.221V63.4554C207.874 64.202 207.321 64.822 206.561 65.3154C205.814 65.7954 204.921 66.0354 203.881 66.0354C202.894 66.0354 202.001 65.802 201.201 65.3354C200.414 64.8687 199.794 64.2087 199.341 63.3554C198.901 62.502 198.681 61.5154 198.681 60.3954ZM208.221 60.4154C208.221 59.5354 208.041 58.762 207.681 58.0954C207.321 57.4287 206.827 56.9154 206.201 56.5554C205.587 56.1954 204.907 56.0154 204.161 56.0154C203.387 56.0154 202.694 56.1887 202.081 56.5354C201.467 56.882 200.981 57.3887 200.621 58.0554C200.274 58.7087 200.101 59.4887 200.101 60.3954C200.101 61.2887 200.274 62.0754 200.621 62.7554C200.981 63.422 201.467 63.9354 202.081 64.2954C202.694 64.642 203.387 64.8154 204.161 64.8154C204.907 64.8154 205.587 64.6354 206.201 64.2754C206.827 63.9154 207.321 63.402 207.681 62.7354C208.041 62.0687 208.221 61.2954 208.221 60.4154Z" fill="#DD5928"/>
<line x1="159.564" y1="40.3879" x2="159.564" y2="75.7273" stroke="#DD5928" stroke-width="5"/>
<line x1="167.161" y1="42.8879" x2="157.064" y2="42.8879" stroke="#DD5928" stroke-width="5"/>
<line x1="167.161" y1="75.9834" x2="157.064" y2="75.9834" stroke="#DD5928" stroke-width="5"/>
<line x1="216.828" y1="75.7272" x2="216.828" y2="40.3878" stroke="#DD5928" stroke-width="5"/>
<line x1="209.231" y1="73.2272" x2="219.328" y2="73.2272" stroke="#DD5928" stroke-width="5"/>
<line x1="209.231" y1="40.1316" x2="219.328" y2="40.1316" stroke="#DD5928" stroke-width="5"/>
</svg>
