<svg width="804" height="748" viewBox="0 0 804 748" fill="none" xmlns="http://www.w3.org/2000/svg">
<g filter="url(#filter0_d_72_81)">
<rect x="428" y="40" width="311.544" height="127.397" rx="20" fill="white"/>
</g>
<path d="M559.983 111.719V122.299C559.983 123.365 559.656 124.225 559.003 124.879C558.349 125.519 557.476 125.839 556.383 125.839C555.249 125.839 554.343 125.499 553.663 124.819C552.996 124.125 552.663 123.192 552.663 122.019H554.083C554.096 122.779 554.283 123.399 554.643 123.879C555.016 124.359 555.596 124.599 556.383 124.599C557.129 124.599 557.683 124.379 558.043 123.939C558.403 123.499 558.583 122.952 558.583 122.299V111.719H559.983ZM568.283 125.859C567.256 125.859 566.33 125.632 565.503 125.179C564.69 124.712 564.043 124.059 563.563 123.219C563.096 122.365 562.863 121.372 562.863 120.239C562.863 119.105 563.103 118.119 563.583 117.279C564.063 116.425 564.716 115.772 565.543 115.319C566.37 114.852 567.296 114.619 568.323 114.619C569.35 114.619 570.276 114.852 571.103 115.319C571.943 115.772 572.596 116.425 573.063 117.279C573.543 118.119 573.783 119.105 573.783 120.239C573.783 121.359 573.543 122.345 573.063 123.199C572.583 124.052 571.923 124.712 571.083 125.179C570.243 125.632 569.31 125.859 568.283 125.859ZM568.283 124.639C569.003 124.639 569.67 124.479 570.283 124.159C570.896 123.825 571.39 123.332 571.763 122.679C572.15 122.012 572.343 121.199 572.343 120.239C572.343 119.279 572.156 118.472 571.783 117.819C571.41 117.152 570.916 116.659 570.303 116.339C569.69 116.005 569.023 115.839 568.303 115.839C567.583 115.839 566.916 116.005 566.303 116.339C565.69 116.659 565.196 117.152 564.823 117.819C564.463 118.472 564.283 119.279 564.283 120.239C564.283 121.199 564.463 122.012 564.823 122.679C565.196 123.332 565.683 123.825 566.283 124.159C566.896 124.479 567.563 124.639 568.283 124.639ZM581.535 114.579C582.362 114.579 583.102 114.752 583.755 115.099C584.422 115.445 584.942 115.979 585.315 116.699C585.702 117.405 585.895 118.272 585.895 119.299V125.699H584.515V119.459C584.515 118.272 584.215 117.365 583.615 116.739C583.028 116.112 582.222 115.799 581.195 115.799C580.142 115.799 579.302 116.132 578.675 116.799C578.048 117.465 577.735 118.445 577.735 119.739V125.699H576.335V110.899H577.735V116.639C578.082 115.985 578.588 115.479 579.255 115.119C579.935 114.759 580.695 114.579 581.535 114.579ZM594.111 114.579C595.418 114.579 596.485 114.985 597.311 115.799C598.138 116.599 598.551 117.765 598.551 119.299V125.699H597.171V119.459C597.171 118.272 596.871 117.365 596.271 116.739C595.685 116.112 594.878 115.799 593.851 115.799C592.798 115.799 591.958 116.132 591.331 116.799C590.705 117.465 590.391 118.445 590.391 119.739V125.699H588.991V114.779H590.391V116.639C590.738 115.972 591.238 115.465 591.891 115.119C592.545 114.759 593.285 114.579 594.111 114.579ZM616.076 115.739C616.076 116.939 615.683 117.905 614.896 118.639C614.109 119.372 612.929 119.739 611.356 119.739H608.536V125.699H607.136V111.719H611.356C612.916 111.719 614.089 112.085 614.876 112.819C615.676 113.552 616.076 114.525 616.076 115.739ZM611.356 118.539C613.543 118.539 614.636 117.605 614.636 115.739C614.636 114.805 614.376 114.099 613.856 113.619C613.336 113.139 612.503 112.899 611.356 112.899H608.536V118.539H611.356ZM617.785 120.219C617.785 119.099 618.005 118.119 618.445 117.279C618.898 116.425 619.518 115.772 620.305 115.319C621.105 114.852 622.005 114.619 623.005 114.619C624.045 114.619 624.938 114.859 625.685 115.339C626.445 115.819 626.992 116.432 627.325 117.179V114.779H628.725V125.699H627.325V123.279C626.978 124.025 626.425 124.645 625.665 125.139C624.918 125.619 624.025 125.859 622.985 125.859C621.998 125.859 621.105 125.625 620.305 125.159C619.518 124.692 618.898 124.032 618.445 123.179C618.005 122.325 617.785 121.339 617.785 120.219ZM627.325 120.239C627.325 119.359 627.145 118.585 626.785 117.919C626.425 117.252 625.932 116.739 625.305 116.379C624.692 116.019 624.012 115.839 623.265 115.839C622.492 115.839 621.798 116.012 621.185 116.359C620.572 116.705 620.085 117.212 619.725 117.879C619.378 118.532 619.205 119.312 619.205 120.219C619.205 121.112 619.378 121.899 619.725 122.579C620.085 123.245 620.572 123.759 621.185 124.119C621.798 124.465 622.492 124.639 623.265 124.639C624.012 124.639 624.692 124.459 625.305 124.099C625.932 123.739 626.425 123.225 626.785 122.559C627.145 121.892 627.325 121.119 627.325 120.239ZM633.321 116.719C633.628 116.039 634.094 115.512 634.721 115.139C635.361 114.765 636.141 114.579 637.061 114.579V116.039H636.681C635.668 116.039 634.854 116.312 634.241 116.859C633.628 117.405 633.321 118.319 633.321 119.599V125.699H631.921V114.779H633.321V116.719ZM645.067 125.699L640.567 120.799V125.699H639.167V110.899H640.567V119.659L644.967 114.779H646.927L641.747 120.219L646.967 125.699H645.067ZM658.656 119.679C658.656 120.159 658.643 120.525 658.616 120.779H649.556C649.596 121.605 649.796 122.312 650.156 122.899C650.516 123.485 650.99 123.932 651.576 124.239C652.163 124.532 652.803 124.679 653.496 124.679C654.403 124.679 655.163 124.459 655.776 124.019C656.403 123.579 656.816 122.985 657.016 122.239H658.496C658.23 123.305 657.656 124.179 656.776 124.859C655.91 125.525 654.816 125.859 653.496 125.859C652.47 125.859 651.55 125.632 650.736 125.179C649.923 124.712 649.283 124.059 648.816 123.219C648.363 122.365 648.136 121.372 648.136 120.239C648.136 119.105 648.363 118.112 648.816 117.259C649.27 116.405 649.903 115.752 650.716 115.299C651.53 114.845 652.456 114.619 653.496 114.619C654.536 114.619 655.443 114.845 656.216 115.299C657.003 115.752 657.603 116.365 658.016 117.139C658.443 117.899 658.656 118.745 658.656 119.679ZM657.236 119.639C657.25 118.825 657.083 118.132 656.736 117.559C656.403 116.985 655.943 116.552 655.356 116.259C654.77 115.965 654.13 115.819 653.436 115.819C652.396 115.819 651.51 116.152 650.776 116.819C650.043 117.485 649.636 118.425 649.556 119.639H657.236ZM662.618 116.719C662.925 116.039 663.391 115.512 664.018 115.139C664.658 114.765 665.438 114.579 666.358 114.579V116.039H665.978C664.965 116.039 664.151 116.312 663.538 116.859C662.925 117.405 662.618 118.319 662.618 119.599V125.699H661.218V114.779H662.618V116.719Z" fill="#DD5928"/>
<path d="M566.635 67.9015C568.595 67.9015 570.195 68.5115 571.435 69.7315C572.675 70.9315 573.295 72.6815 573.295 74.9815V84.5815H571.225V75.2215C571.225 73.4415 570.775 72.0815 569.875 71.1415C568.995 70.2015 567.785 69.7315 566.245 69.7315C564.665 69.7315 563.405 70.2315 562.465 71.2315C561.525 72.2315 561.055 73.7015 561.055 75.6415V84.5815H558.955V68.2015H561.055V70.9915C561.575 69.9915 562.325 69.2315 563.305 68.7115C564.285 68.1715 565.395 67.9015 566.635 67.9015ZM576.98 76.3615C576.98 74.6815 577.31 73.2115 577.97 71.9515C578.65 70.6715 579.58 69.6915 580.76 69.0115C581.96 68.3115 583.31 67.9615 584.81 67.9615C586.37 67.9615 587.71 68.3215 588.83 69.0415C589.97 69.7615 590.79 70.6815 591.29 71.8015V68.2015H593.39V84.5815H591.29V80.9515C590.77 82.0715 589.94 83.0015 588.8 83.7415C587.68 84.4615 586.34 84.8215 584.78 84.8215C583.3 84.8215 581.96 84.4715 580.76 83.7715C579.58 83.0715 578.65 82.0815 577.97 80.8015C577.31 79.5215 576.98 78.0415 576.98 76.3615ZM591.29 76.3915C591.29 75.0715 591.02 73.9115 590.48 72.9115C589.94 71.9115 589.2 71.1415 588.26 70.6015C587.34 70.0615 586.32 69.7915 585.2 69.7915C584.04 69.7915 583 70.0515 582.08 70.5715C581.16 71.0915 580.43 71.8515 579.89 72.8515C579.37 73.8315 579.11 75.0015 579.11 76.3615C579.11 77.7015 579.37 78.8815 579.89 79.9015C580.43 80.9015 581.16 81.6715 582.08 82.2115C583 82.7315 584.04 82.9915 585.2 82.9915C586.32 82.9915 587.34 82.7215 588.26 82.1815C589.2 81.6415 589.94 80.8715 590.48 79.8715C591.02 78.8715 591.29 77.7115 591.29 76.3915ZM617.684 67.9015C619.604 67.9015 621.164 68.5115 622.364 69.7315C623.584 70.9315 624.194 72.6815 624.194 74.9815V84.5815H622.124V75.2215C622.124 73.4415 621.694 72.0815 620.834 71.1415C619.974 70.2015 618.804 69.7315 617.324 69.7315C615.784 69.7315 614.554 70.2415 613.634 71.2615C612.714 72.2815 612.254 73.7615 612.254 75.7015V84.5815H610.184V75.2215C610.184 73.4415 609.754 72.0815 608.894 71.1415C608.034 70.2015 606.854 69.7315 605.354 69.7315C603.814 69.7315 602.584 70.2415 601.664 71.2615C600.744 72.2815 600.284 73.7615 600.284 75.7015V84.5815H598.184V68.2015H600.284V71.0215C600.804 70.0015 601.544 69.2315 602.504 68.7115C603.464 68.1715 604.534 67.9015 605.714 67.9015C607.134 67.9015 608.374 68.2415 609.434 68.9215C610.514 69.6015 611.294 70.6015 611.774 71.9215C612.214 70.6215 612.964 69.6315 614.024 68.9515C615.104 68.2515 616.324 67.9015 617.684 67.9015ZM643.678 75.5515C643.678 76.2715 643.658 76.8215 643.618 77.2015H630.028C630.088 78.4415 630.388 79.5015 630.928 80.3815C631.468 81.2615 632.178 81.9315 633.058 82.3915C633.938 82.8315 634.898 83.0515 635.938 83.0515C637.298 83.0515 638.438 82.7215 639.358 82.0615C640.298 81.4015 640.918 80.5115 641.218 79.3915H643.438C643.038 80.9915 642.178 82.3015 640.858 83.3215C639.558 84.3215 637.918 84.8215 635.938 84.8215C634.398 84.8215 633.018 84.4815 631.798 83.8015C630.578 83.1015 629.618 82.1215 628.918 80.8615C628.238 79.5815 627.898 78.0915 627.898 76.3915C627.898 74.6915 628.238 73.2015 628.918 71.9215C629.598 70.6415 630.548 69.6615 631.768 68.9815C632.988 68.3015 634.378 67.9615 635.938 67.9615C637.498 67.9615 638.858 68.3015 640.018 68.9815C641.198 69.6615 642.098 70.5815 642.718 71.7415C643.358 72.8815 643.678 74.1515 643.678 75.5515ZM641.548 75.4915C641.568 74.2715 641.318 73.2315 640.798 72.3715C640.298 71.5115 639.608 70.8615 638.728 70.4215C637.848 69.9815 636.888 69.7615 635.848 69.7615C634.288 69.7615 632.958 70.2615 631.858 71.2615C630.758 72.2615 630.148 73.6715 630.028 75.4915H641.548Z" fill="#5F5B5B"/>
<path fill-rule="evenodd" clip-rule="evenodd" d="M496.91 127.875C514.42 127.875 528.615 113.68 528.615 96.1705C528.615 78.6608 514.42 64.466 496.91 64.466C479.401 64.466 465.206 78.6608 465.206 96.1705C465.206 113.68 479.401 127.875 496.91 127.875ZM496.91 131.398C516.366 131.398 532.137 115.626 532.137 96.1705C532.137 76.7145 516.366 60.9432 496.91 60.9432C477.454 60.9432 461.683 76.7145 461.683 96.1705C461.683 115.626 477.454 131.398 496.91 131.398Z" fill="#DD5928"/>
<path d="M475.774 116.655C475.774 114.836 477.134 113.298 478.944 113.097C492.533 111.593 501.349 111.729 514.908 113.131C515.585 113.202 516.227 113.468 516.755 113.898C517.283 114.328 517.674 114.902 517.881 115.551C518.088 116.199 518.102 116.894 517.92 117.55C517.739 118.207 517.37 118.796 516.859 119.246C500.857 133.194 491.712 133.002 476.901 119.26C476.179 118.591 475.774 117.64 475.774 116.657V116.655Z" fill="#DD5928"/>
<path fill-rule="evenodd" clip-rule="evenodd" d="M514.726 114.881C501.275 113.49 492.586 113.36 479.136 114.848C478.694 114.9 478.285 115.113 477.99 115.446C477.695 115.78 477.533 116.211 477.535 116.657C477.535 117.161 477.745 117.638 478.099 117.969C485.44 124.778 491.003 127.856 496.44 127.875C501.897 127.894 507.758 124.842 515.702 117.92C515.955 117.695 516.136 117.402 516.225 117.076C516.314 116.75 516.306 116.405 516.203 116.084C516.1 115.762 515.905 115.477 515.643 115.264C515.381 115.051 515.062 114.919 514.726 114.883V114.881ZM478.751 111.346C492.482 109.826 501.426 109.964 515.091 111.378C516.11 111.484 517.075 111.885 517.869 112.532C518.664 113.179 519.252 114.043 519.563 115.019C519.873 115.994 519.893 117.04 519.618 118.026C519.344 119.013 518.788 119.899 518.018 120.574C509.96 127.598 503.249 131.424 496.429 131.398C489.59 131.373 483.175 127.482 475.705 120.551C475.17 120.053 474.744 119.45 474.453 118.78C474.162 118.109 474.012 117.386 474.013 116.655C474.01 115.342 474.492 114.074 475.366 113.094C476.241 112.114 477.446 111.491 478.751 111.345V111.346Z" fill="#DD5928"/>
<path d="M511.001 89.1251C511.001 92.8622 509.517 96.4463 506.874 99.0888C504.231 101.731 500.647 103.216 496.91 103.216C493.173 103.216 489.589 101.731 486.946 99.0888C484.304 96.4463 482.819 92.8622 482.819 89.1251C482.819 85.3879 484.304 81.8039 486.946 79.1613C489.589 76.5188 493.173 75.0342 496.91 75.0342C500.647 75.0342 504.231 76.5188 506.874 79.1613C509.517 81.8039 511.001 85.3879 511.001 89.1251Z" fill="#DD5928"/>
<path fill-rule="evenodd" clip-rule="evenodd" d="M496.91 99.6932C499.713 99.6932 502.401 98.5798 504.383 96.5979C506.365 94.616 507.478 91.9279 507.478 89.1251C507.478 86.3222 506.365 83.6342 504.383 81.6522C502.401 79.6703 499.713 78.5569 496.91 78.5569C494.107 78.5569 491.419 79.6703 489.437 81.6522C487.455 83.6342 486.342 86.3222 486.342 89.1251C486.342 91.9279 487.455 94.616 489.437 96.5979C491.419 98.5798 494.107 99.6932 496.91 99.6932ZM496.91 103.216C500.647 103.216 504.231 101.731 506.874 99.0888C509.517 96.4463 511.001 92.8622 511.001 89.1251C511.001 85.3879 509.517 81.8039 506.874 79.1613C504.231 76.5188 500.647 75.0342 496.91 75.0342C493.173 75.0342 489.589 76.5188 486.946 79.1613C484.304 81.8039 482.819 85.3879 482.819 89.1251C482.819 92.8622 484.304 96.4463 486.946 99.0888C489.589 101.731 493.173 103.216 496.91 103.216Z" fill="#DD5928"/>
<g filter="url(#filter1_d_72_81)">
<rect x="424" y="216" width="316" height="266" rx="20" fill="white"/>
</g>
<path d="M555.18 445.92C556.207 445.92 557.1 446.16 557.86 446.64C558.62 447.12 559.167 447.727 559.5 448.46V446.08H560.9V457.28C560.9 458.28 560.68 459.167 560.24 459.94C559.813 460.713 559.213 461.307 558.44 461.72C557.667 462.147 556.787 462.36 555.8 462.36C554.4 462.36 553.233 462.027 552.3 461.36C551.38 460.693 550.807 459.787 550.58 458.64H551.96C552.2 459.4 552.653 460.007 553.32 460.46C554 460.913 554.827 461.14 555.8 461.14C556.507 461.14 557.14 460.987 557.7 460.68C558.26 460.387 558.7 459.947 559.02 459.36C559.34 458.773 559.5 458.08 559.5 457.28V454.58C559.153 455.327 558.6 455.947 557.84 456.44C557.093 456.92 556.207 457.16 555.18 457.16C554.18 457.16 553.28 456.927 552.48 456.46C551.693 455.993 551.073 455.333 550.62 454.48C550.18 453.627 549.96 452.64 549.96 451.52C549.96 450.4 550.18 449.42 550.62 448.58C551.073 447.727 551.693 447.073 552.48 446.62C553.28 446.153 554.18 445.92 555.18 445.92ZM559.5 451.54C559.5 450.66 559.32 449.887 558.96 449.22C558.6 448.553 558.107 448.04 557.48 447.68C556.867 447.32 556.187 447.14 555.44 447.14C554.667 447.14 553.973 447.313 553.36 447.66C552.747 448.007 552.26 448.513 551.9 449.18C551.553 449.833 551.38 450.613 551.38 451.52C551.38 452.413 551.553 453.2 551.9 453.88C552.26 454.547 552.747 455.06 553.36 455.42C553.973 455.767 554.667 455.94 555.44 455.94C556.187 455.94 556.867 455.76 557.48 455.4C558.107 455.04 558.6 454.527 558.96 453.86C559.32 453.193 559.5 452.42 559.5 451.54ZM568.876 457.16C567.849 457.16 566.923 456.933 566.096 456.48C565.283 456.013 564.636 455.36 564.156 454.52C563.689 453.667 563.456 452.673 563.456 451.54C563.456 450.407 563.696 449.42 564.176 448.58C564.656 447.727 565.309 447.073 566.136 446.62C566.963 446.153 567.889 445.92 568.916 445.92C569.943 445.92 570.869 446.153 571.696 446.62C572.536 447.073 573.189 447.727 573.656 448.58C574.136 449.42 574.376 450.407 574.376 451.54C574.376 452.66 574.136 453.647 573.656 454.5C573.176 455.353 572.516 456.013 571.676 456.48C570.836 456.933 569.903 457.16 568.876 457.16ZM568.876 455.94C569.596 455.94 570.263 455.78 570.876 455.46C571.489 455.127 571.983 454.633 572.356 453.98C572.743 453.313 572.936 452.5 572.936 451.54C572.936 450.58 572.749 449.773 572.376 449.12C572.003 448.453 571.509 447.96 570.896 447.64C570.283 447.307 569.616 447.14 568.896 447.14C568.176 447.14 567.509 447.307 566.896 447.64C566.283 447.96 565.789 448.453 565.416 449.12C565.056 449.773 564.876 450.58 564.876 451.54C564.876 452.5 565.056 453.313 565.416 453.98C565.789 454.633 566.276 455.127 566.876 455.46C567.489 455.78 568.156 455.94 568.876 455.94ZM581.708 457.16C580.681 457.16 579.755 456.933 578.928 456.48C578.115 456.013 577.468 455.36 576.988 454.52C576.521 453.667 576.288 452.673 576.288 451.54C576.288 450.407 576.528 449.42 577.008 448.58C577.488 447.727 578.141 447.073 578.968 446.62C579.795 446.153 580.721 445.92 581.748 445.92C582.775 445.92 583.701 446.153 584.528 446.62C585.368 447.073 586.021 447.727 586.488 448.58C586.968 449.42 587.208 450.407 587.208 451.54C587.208 452.66 586.968 453.647 586.488 454.5C586.008 455.353 585.348 456.013 584.508 456.48C583.668 456.933 582.735 457.16 581.708 457.16ZM581.708 455.94C582.428 455.94 583.095 455.78 583.708 455.46C584.321 455.127 584.815 454.633 585.188 453.98C585.575 453.313 585.768 452.5 585.768 451.54C585.768 450.58 585.581 449.773 585.208 449.12C584.835 448.453 584.341 447.96 583.728 447.64C583.115 447.307 582.448 447.14 581.728 447.14C581.008 447.14 580.341 447.307 579.728 447.64C579.115 447.96 578.621 448.453 578.248 449.12C577.888 449.773 577.708 450.58 577.708 451.54C577.708 452.5 577.888 453.313 578.248 453.98C578.621 454.633 579.108 455.127 579.708 455.46C580.321 455.78 580.988 455.94 581.708 455.94ZM594.34 445.92C595.367 445.92 596.26 446.16 597.02 446.64C597.78 447.12 598.327 447.727 598.66 448.46V446.08H600.06V457.28C600.06 458.28 599.84 459.167 599.4 459.94C598.973 460.713 598.373 461.307 597.6 461.72C596.827 462.147 595.947 462.36 594.96 462.36C593.56 462.36 592.393 462.027 591.46 461.36C590.54 460.693 589.967 459.787 589.74 458.64H591.12C591.36 459.4 591.813 460.007 592.48 460.46C593.16 460.913 593.987 461.14 594.96 461.14C595.667 461.14 596.3 460.987 596.86 460.68C597.42 460.387 597.86 459.947 598.18 459.36C598.5 458.773 598.66 458.08 598.66 457.28V454.58C598.313 455.327 597.76 455.947 597 456.44C596.253 456.92 595.367 457.16 594.34 457.16C593.34 457.16 592.44 456.927 591.64 456.46C590.853 455.993 590.233 455.333 589.78 454.48C589.34 453.627 589.12 452.64 589.12 451.52C589.12 450.4 589.34 449.42 589.78 448.58C590.233 447.727 590.853 447.073 591.64 446.62C592.44 446.153 593.34 445.92 594.34 445.92ZM598.66 451.54C598.66 450.66 598.48 449.887 598.12 449.22C597.76 448.553 597.267 448.04 596.64 447.68C596.027 447.32 595.347 447.14 594.6 447.14C593.827 447.14 593.133 447.313 592.52 447.66C591.907 448.007 591.42 448.513 591.06 449.18C590.713 449.833 590.54 450.613 590.54 451.52C590.54 452.413 590.713 453.2 591.06 453.88C591.42 454.547 591.907 455.06 592.52 455.42C593.133 455.767 593.827 455.94 594.6 455.94C595.347 455.94 596.027 455.76 596.64 455.4C597.267 455.04 597.76 454.527 598.12 453.86C598.48 453.193 598.66 452.42 598.66 451.54ZM604.656 442.2V457H603.256V442.2H604.656ZM617.707 450.98C617.707 451.46 617.693 451.827 617.667 452.08H608.607C608.647 452.907 608.847 453.613 609.207 454.2C609.567 454.787 610.04 455.233 610.627 455.54C611.213 455.833 611.853 455.98 612.547 455.98C613.453 455.98 614.213 455.76 614.827 455.32C615.453 454.88 615.867 454.287 616.067 453.54H617.547C617.28 454.607 616.707 455.48 615.827 456.16C614.96 456.827 613.867 457.16 612.547 457.16C611.52 457.16 610.6 456.933 609.787 456.48C608.973 456.013 608.333 455.36 607.867 454.52C607.413 453.667 607.187 452.673 607.187 451.54C607.187 450.407 607.413 449.413 607.867 448.56C608.32 447.707 608.953 447.053 609.767 446.6C610.58 446.147 611.507 445.92 612.547 445.92C613.587 445.92 614.493 446.147 615.267 446.6C616.053 447.053 616.653 447.667 617.067 448.44C617.493 449.2 617.707 450.047 617.707 450.98ZM616.287 450.94C616.3 450.127 616.133 449.433 615.787 448.86C615.453 448.287 614.993 447.853 614.407 447.56C613.82 447.267 613.18 447.12 612.487 447.12C611.447 447.12 610.56 447.453 609.827 448.12C609.093 448.787 608.687 449.727 608.607 450.94H616.287Z" fill="#DD5928"/>
<path d="M515.44 263.81C515.44 262.11 515.78 260.63 516.46 259.37C517.14 258.09 518.08 257.11 519.28 256.43C520.48 255.73 521.85 255.38 523.39 255.38C525.41 255.38 527.07 255.88 528.37 256.88C529.69 257.88 530.54 259.24 530.92 260.96H528.67C528.39 259.78 527.78 258.86 526.84 258.2C525.92 257.52 524.77 257.18 523.39 257.18C522.29 257.18 521.3 257.43 520.42 257.93C519.54 258.43 518.84 259.18 518.32 260.18C517.82 261.16 517.57 262.37 517.57 263.81C517.57 265.25 517.82 266.47 518.32 267.47C518.84 268.47 519.54 269.22 520.42 269.72C521.3 270.22 522.29 270.47 523.39 270.47C524.77 270.47 525.92 270.14 526.84 269.48C527.78 268.8 528.39 267.86 528.67 266.66H530.92C530.54 268.34 529.69 269.69 528.37 270.71C527.05 271.73 525.39 272.24 523.39 272.24C521.85 272.24 520.48 271.9 519.28 271.22C518.08 270.52 517.14 269.54 516.46 268.28C515.78 267 515.44 265.51 515.44 263.81ZM541.968 272.24C540.428 272.24 539.038 271.9 537.798 271.22C536.578 270.52 535.608 269.54 534.888 268.28C534.188 267 533.838 265.51 533.838 263.81C533.838 262.11 534.198 260.63 534.918 259.37C535.638 258.09 536.618 257.11 537.858 256.43C539.098 255.73 540.488 255.38 542.028 255.38C543.568 255.38 544.958 255.73 546.198 256.43C547.458 257.11 548.438 258.09 549.138 259.37C549.858 260.63 550.218 262.11 550.218 263.81C550.218 265.49 549.858 266.97 549.138 268.25C548.418 269.53 547.428 270.52 546.168 271.22C544.908 271.9 543.508 272.24 541.968 272.24ZM541.968 270.41C543.048 270.41 544.048 270.17 544.968 269.69C545.888 269.19 546.628 268.45 547.188 267.47C547.768 266.47 548.058 265.25 548.058 263.81C548.058 262.37 547.778 261.16 547.218 260.18C546.658 259.18 545.918 258.44 544.998 257.96C544.078 257.46 543.078 257.21 541.998 257.21C540.918 257.21 539.918 257.46 538.998 257.96C538.078 258.44 537.338 259.18 536.778 260.18C536.238 261.16 535.968 262.37 535.968 263.81C535.968 265.25 536.238 266.47 536.778 267.47C537.338 268.45 538.068 269.19 538.968 269.69C539.888 270.17 540.888 270.41 541.968 270.41ZM573.546 255.32C575.466 255.32 577.026 255.93 578.226 257.15C579.446 258.35 580.056 260.1 580.056 262.4V272H577.986V262.64C577.986 260.86 577.556 259.5 576.696 258.56C575.836 257.62 574.666 257.15 573.186 257.15C571.646 257.15 570.416 257.66 569.496 258.68C568.576 259.7 568.116 261.18 568.116 263.12V272H566.046V262.64C566.046 260.86 565.616 259.5 564.756 258.56C563.896 257.62 562.716 257.15 561.216 257.15C559.676 257.15 558.446 257.66 557.526 258.68C556.606 259.7 556.146 261.18 556.146 263.12V272H554.046V255.62H556.146V258.44C556.666 257.42 557.406 256.65 558.366 256.13C559.326 255.59 560.396 255.32 561.576 255.32C562.996 255.32 564.236 255.66 565.296 256.34C566.376 257.02 567.156 258.02 567.636 259.34C568.076 258.04 568.826 257.05 569.886 256.37C570.966 255.67 572.186 255.32 573.546 255.32ZM586.79 259.22C587.31 258.12 588.13 257.21 589.25 256.49C590.39 255.75 591.74 255.38 593.3 255.38C594.78 255.38 596.11 255.73 597.29 256.43C598.49 257.11 599.42 258.09 600.08 259.37C600.76 260.63 601.1 262.1 601.1 263.78C601.1 265.46 600.76 266.94 600.08 268.22C599.42 269.5 598.49 270.49 597.29 271.19C596.11 271.89 594.78 272.24 593.3 272.24C591.76 272.24 590.42 271.88 589.28 271.16C588.14 270.42 587.31 269.5 586.79 268.4V279.74H584.72V255.62H586.79V259.22ZM598.97 263.78C598.97 262.42 598.7 261.25 598.16 260.27C597.64 259.27 596.92 258.51 596 257.99C595.08 257.47 594.04 257.21 592.88 257.21C591.76 257.21 590.73 257.48 589.79 258.02C588.87 258.56 588.14 259.33 587.6 260.33C587.06 261.33 586.79 262.49 586.79 263.81C586.79 265.13 587.06 266.29 587.6 267.29C588.14 268.29 588.87 269.06 589.79 269.6C590.73 270.14 591.76 270.41 592.88 270.41C594.04 270.41 595.08 270.15 596 269.63C596.92 269.09 597.64 268.32 598.16 267.32C598.7 266.3 598.97 265.12 598.97 263.78ZM604.004 263.78C604.004 262.1 604.334 260.63 604.994 259.37C605.674 258.09 606.604 257.11 607.784 256.43C608.984 255.73 610.334 255.38 611.834 255.38C613.394 255.38 614.734 255.74 615.854 256.46C616.994 257.18 617.814 258.1 618.314 259.22V255.62H620.414V272H618.314V268.37C617.794 269.49 616.964 270.42 615.824 271.16C614.704 271.88 613.364 272.24 611.804 272.24C610.324 272.24 608.984 271.89 607.784 271.19C606.604 270.49 605.674 269.5 604.994 268.22C604.334 266.94 604.004 265.46 604.004 263.78ZM618.314 263.81C618.314 262.49 618.044 261.33 617.504 260.33C616.964 259.33 616.224 258.56 615.284 258.02C614.364 257.48 613.344 257.21 612.224 257.21C611.064 257.21 610.024 257.47 609.104 257.99C608.184 258.51 607.454 259.27 606.914 260.27C606.394 261.25 606.134 262.42 606.134 263.78C606.134 265.12 606.394 266.3 606.914 267.32C607.454 268.32 608.184 269.09 609.104 269.63C610.024 270.15 611.064 270.41 612.224 270.41C613.344 270.41 614.364 270.14 615.284 269.6C616.224 269.06 616.964 268.29 617.504 267.29C618.044 266.29 618.314 265.13 618.314 263.81ZM632.889 255.32C634.849 255.32 636.449 255.93 637.689 257.15C638.929 258.35 639.549 260.1 639.549 262.4V272H637.479V262.64C637.479 260.86 637.029 259.5 636.129 258.56C635.249 257.62 634.039 257.15 632.499 257.15C630.919 257.15 629.659 257.65 628.719 258.65C627.779 259.65 627.309 261.12 627.309 263.06V272H625.209V255.62H627.309V258.41C627.829 257.41 628.579 256.65 629.559 256.13C630.539 255.59 631.649 255.32 632.889 255.32ZM657.693 255.62L647.973 279.71H645.783L648.963 271.91L642.243 255.62H644.553L650.133 269.6L655.533 255.62H657.693Z" fill="#5F5B5B"/>
<path d="M645.388 351.76C646.124 355.703 646.525 359.826 646.525 364.128C646.525 397.781 624.002 421.71 589.984 421.71C582.248 421.713 574.588 420.191 567.44 417.231C560.292 414.272 553.798 409.933 548.327 404.463C542.857 398.992 538.518 392.498 535.559 385.35C532.6 378.203 531.078 370.542 531.08 362.806C531.078 355.07 532.6 347.409 535.559 340.261C538.518 333.113 542.857 326.619 548.327 321.149C553.798 315.678 560.292 311.34 567.44 308.38C574.588 305.421 582.248 303.899 589.984 303.901C605.889 303.901 619.179 309.753 629.376 319.256L612.771 335.861V335.819C606.589 329.931 598.745 326.909 589.984 326.909C570.549 326.909 554.752 343.328 554.752 362.77C554.752 382.205 570.549 398.661 589.984 398.661C607.619 398.661 619.622 388.578 622.087 374.731H589.984V351.76H645.394H645.388Z" fill="#DD5928"/>
<g filter="url(#filter2_d_72_81)">
<rect x="40" y="390" width="347.446" height="277.957" rx="10" fill="white"/>
</g>
<path d="M156.097 426.362C156.097 424.682 156.427 423.212 157.087 421.952C157.767 420.672 158.697 419.692 159.877 419.012C161.077 418.312 162.427 417.962 163.927 417.962C165.487 417.962 166.827 418.322 167.947 419.042C169.087 419.762 169.907 420.682 170.407 421.802V418.202H172.507V434.582H170.407V430.952C169.887 432.072 169.057 433.002 167.917 433.742C166.797 434.462 165.457 434.822 163.897 434.822C162.417 434.822 161.077 434.472 159.877 433.772C158.697 433.072 157.767 432.082 157.087 430.802C156.427 429.522 156.097 428.042 156.097 426.362ZM170.407 426.392C170.407 425.072 170.137 423.912 169.597 422.912C169.057 421.912 168.317 421.142 167.377 420.602C166.457 420.062 165.437 419.792 164.317 419.792C163.157 419.792 162.117 420.052 161.197 420.572C160.277 421.092 159.547 421.852 159.007 422.852C158.487 423.832 158.227 425.002 158.227 426.362C158.227 427.702 158.487 428.882 159.007 429.902C159.547 430.902 160.277 431.672 161.197 432.212C162.117 432.732 163.157 432.992 164.317 432.992C165.437 432.992 166.457 432.722 167.377 432.182C168.317 431.642 169.057 430.872 169.597 429.872C170.137 428.872 170.407 427.712 170.407 426.392ZM179.401 421.112C179.861 420.092 180.561 419.302 181.501 418.742C182.461 418.182 183.631 417.902 185.011 417.902V420.092H184.441C182.921 420.092 181.701 420.502 180.781 421.322C179.861 422.142 179.401 423.512 179.401 425.432V434.582H177.301V418.202H179.401V421.112ZM190.901 419.972V430.142C190.901 431.142 191.091 431.832 191.471 432.212C191.851 432.592 192.521 432.782 193.481 432.782H195.401V434.582H193.151C191.671 434.582 190.571 434.242 189.851 433.562C189.131 432.862 188.771 431.722 188.771 430.142V419.972H186.491V418.202H188.771V414.092H190.901V418.202H195.401V419.972H190.901ZM199.914 415.112C199.494 415.112 199.134 414.962 198.834 414.662C198.534 414.362 198.384 413.992 198.384 413.552C198.384 413.112 198.534 412.752 198.834 412.472C199.134 412.172 199.494 412.022 199.914 412.022C200.334 412.022 200.694 412.172 200.994 412.472C201.294 412.752 201.444 413.112 201.444 413.552C201.444 413.992 201.294 414.362 200.994 414.662C200.694 414.962 200.334 415.112 199.914 415.112ZM200.964 418.202V434.582H198.864V418.202H200.964ZM204.759 426.392C204.759 424.692 205.099 423.212 205.779 421.952C206.459 420.672 207.399 419.692 208.599 419.012C209.799 418.312 211.169 417.962 212.709 417.962C214.729 417.962 216.389 418.462 217.689 419.462C219.009 420.462 219.859 421.822 220.239 423.542H217.989C217.709 422.362 217.099 421.442 216.159 420.782C215.239 420.102 214.089 419.762 212.709 419.762C211.609 419.762 210.619 420.012 209.739 420.512C208.859 421.012 208.159 421.762 207.639 422.762C207.139 423.742 206.889 424.952 206.889 426.392C206.889 427.832 207.139 429.052 207.639 430.052C208.159 431.052 208.859 431.802 209.739 432.302C210.619 432.802 211.609 433.052 212.709 433.052C214.089 433.052 215.239 432.722 216.159 432.062C217.099 431.382 217.709 430.442 217.989 429.242H220.239C219.859 430.922 219.009 432.272 217.689 433.292C216.369 434.312 214.709 434.822 212.709 434.822C211.169 434.822 209.799 434.482 208.599 433.802C207.399 433.102 206.459 432.122 205.779 430.862C205.099 429.582 204.759 428.092 204.759 426.392ZM226.218 412.382V434.582H224.118V412.382H226.218ZM245.793 425.552C245.793 426.272 245.773 426.822 245.733 427.202H232.143C232.203 428.442 232.503 429.502 233.043 430.382C233.583 431.262 234.293 431.932 235.173 432.392C236.053 432.832 237.013 433.052 238.053 433.052C239.413 433.052 240.553 432.722 241.473 432.062C242.413 431.402 243.033 430.512 243.333 429.392H245.553C245.153 430.992 244.293 432.302 242.973 433.322C241.673 434.322 240.033 434.822 238.053 434.822C236.513 434.822 235.133 434.482 233.913 433.802C232.693 433.102 231.733 432.122 231.033 430.862C230.353 429.582 230.013 428.092 230.013 426.392C230.013 424.692 230.353 423.202 231.033 421.922C231.713 420.642 232.663 419.662 233.883 418.982C235.103 418.302 236.493 417.962 238.053 417.962C239.613 417.962 240.973 418.302 242.133 418.982C243.313 419.662 244.213 420.582 244.833 421.742C245.473 422.882 245.793 424.152 245.793 425.552ZM243.663 425.492C243.683 424.272 243.433 423.232 242.913 422.372C242.413 421.512 241.723 420.862 240.843 420.422C239.963 419.982 239.003 419.762 237.963 419.762C236.403 419.762 235.073 420.262 233.973 421.262C232.873 422.262 232.263 423.672 232.143 425.492H243.663ZM255.275 434.822C253.395 434.822 251.855 434.392 250.655 433.532C249.475 432.652 248.815 431.462 248.675 429.962H250.835C250.935 430.882 251.365 431.632 252.125 432.212C252.905 432.772 253.945 433.052 255.245 433.052C256.385 433.052 257.275 432.782 257.915 432.242C258.575 431.702 258.905 431.032 258.905 430.232C258.905 429.672 258.725 429.212 258.365 428.852C258.005 428.492 257.545 428.212 256.985 428.012C256.445 427.792 255.705 427.562 254.765 427.322C253.545 427.002 252.555 426.682 251.795 426.362C251.035 426.042 250.385 425.572 249.845 424.952C249.325 424.312 249.065 423.462 249.065 422.402C249.065 421.602 249.305 420.862 249.785 420.182C250.265 419.502 250.945 418.962 251.825 418.562C252.705 418.162 253.705 417.962 254.825 417.962C256.585 417.962 258.005 418.412 259.085 419.312C260.165 420.192 260.745 421.412 260.825 422.972H258.725C258.665 422.012 258.285 421.242 257.585 420.662C256.905 420.062 255.965 419.762 254.765 419.762C253.705 419.762 252.845 420.012 252.185 420.512C251.525 421.012 251.195 421.632 251.195 422.372C251.195 423.012 251.385 423.542 251.765 423.962C252.165 424.362 252.655 424.682 253.235 424.922C253.815 425.142 254.595 425.392 255.575 425.672C256.755 425.992 257.695 426.302 258.395 426.602C259.095 426.902 259.695 427.342 260.195 427.922C260.695 428.502 260.955 429.272 260.975 430.232C260.975 431.112 260.735 431.902 260.255 432.602C259.775 433.282 259.105 433.822 258.245 434.222C257.385 434.622 256.395 434.822 255.275 434.822Z" fill="#5F5B5B"/>
<path d="M159.372 630.635C159.465 629.421 159.932 628.468 160.772 627.775C161.625 627.068 162.725 626.715 164.072 626.715C164.965 626.715 165.732 626.875 166.372 627.195C167.012 627.515 167.492 627.955 167.812 628.515C168.145 629.061 168.312 629.681 168.312 630.375C168.312 631.215 168.065 631.941 167.572 632.555C167.079 633.168 166.379 633.548 165.472 633.695V633.795C166.419 633.981 167.172 634.395 167.732 635.035C168.292 635.661 168.572 636.488 168.572 637.515C168.572 638.661 168.185 639.601 167.412 640.335C166.652 641.055 165.545 641.415 164.092 641.415C162.705 641.415 161.565 641.055 160.672 640.335C159.779 639.601 159.265 638.568 159.132 637.235H160.492C160.612 638.128 160.985 638.855 161.612 639.415C162.239 639.961 163.065 640.235 164.092 640.235C165.105 640.235 165.879 639.968 166.412 639.435C166.959 638.901 167.232 638.221 167.232 637.395C167.232 635.368 165.772 634.355 162.852 634.355H162.412V633.175H162.872C165.592 633.175 166.952 632.288 166.952 630.515C166.952 629.741 166.699 629.121 166.192 628.655C165.685 628.175 164.965 627.935 164.032 627.935C163.125 627.935 162.372 628.175 161.772 628.655C161.185 629.121 160.839 629.781 160.732 630.635H159.372ZM179.371 630.475C179.078 628.741 178.071 627.875 176.351 627.875C175.044 627.875 174.064 628.381 173.411 629.395C172.758 630.408 172.458 632.068 172.511 634.375C172.778 633.575 173.284 632.948 174.031 632.495C174.791 632.028 175.658 631.795 176.631 631.795C178.031 631.795 179.138 632.228 179.951 633.095C180.778 633.948 181.191 635.128 181.191 636.635C181.191 637.515 181.018 638.315 180.671 639.035C180.338 639.741 179.818 640.308 179.111 640.735C178.418 641.161 177.551 641.375 176.511 641.375C174.524 641.375 173.151 640.741 172.391 639.475C171.644 638.208 171.271 636.415 171.271 634.095C171.271 629.161 172.964 626.695 176.351 626.695C177.631 626.695 178.638 627.048 179.371 627.755C180.104 628.448 180.538 629.355 180.671 630.475H179.371ZM176.371 632.995C175.744 632.995 175.151 633.121 174.591 633.375C174.031 633.628 173.571 634.015 173.211 634.535C172.864 635.041 172.691 635.668 172.691 636.415C172.691 637.495 173.011 638.395 173.651 639.115C174.291 639.835 175.224 640.195 176.451 640.195C177.478 640.195 178.298 639.881 178.911 639.255C179.524 638.628 179.831 637.775 179.831 636.695C179.831 635.535 179.531 634.628 178.931 633.975C178.331 633.321 177.478 632.995 176.371 632.995ZM188.857 635.835C188.857 634.715 189.077 633.735 189.517 632.895C189.971 632.041 190.591 631.388 191.377 630.935C192.177 630.468 193.077 630.235 194.077 630.235C195.117 630.235 196.011 630.475 196.757 630.955C197.517 631.435 198.064 632.048 198.397 632.795V630.395H199.797V641.315H198.397V638.895C198.051 639.641 197.497 640.261 196.737 640.755C195.991 641.235 195.097 641.475 194.057 641.475C193.071 641.475 192.177 641.241 191.377 640.775C190.591 640.308 189.971 639.648 189.517 638.795C189.077 637.941 188.857 636.955 188.857 635.835ZM198.397 635.855C198.397 634.975 198.217 634.201 197.857 633.535C197.497 632.868 197.004 632.355 196.377 631.995C195.764 631.635 195.084 631.455 194.337 631.455C193.564 631.455 192.871 631.628 192.257 631.975C191.644 632.321 191.157 632.828 190.797 633.495C190.451 634.148 190.277 634.928 190.277 635.835C190.277 636.728 190.451 637.515 190.797 638.195C191.157 638.861 191.644 639.375 192.257 639.735C192.871 640.081 193.564 640.255 194.337 640.255C195.084 640.255 195.764 640.075 196.377 639.715C197.004 639.355 197.497 638.841 197.857 638.175C198.217 637.508 198.397 636.735 198.397 635.855ZM204.394 632.335C204.7 631.655 205.167 631.128 205.794 630.755C206.434 630.381 207.214 630.195 208.134 630.195V631.655H207.754C206.74 631.655 205.927 631.928 205.314 632.475C204.7 633.021 204.394 633.935 204.394 635.215V641.315H202.994V630.395H204.394V632.335ZM212.06 631.575V638.355C212.06 639.021 212.186 639.481 212.44 639.735C212.693 639.988 213.14 640.115 213.78 640.115H215.06V641.315H213.56C212.573 641.315 211.84 641.088 211.36 640.635C210.88 640.168 210.64 639.408 210.64 638.355V631.575H209.12V630.395H210.64V627.655H212.06V630.395H215.06V631.575H212.06ZM218.069 628.335C217.789 628.335 217.549 628.235 217.349 628.035C217.149 627.835 217.049 627.588 217.049 627.295C217.049 627.001 217.149 626.761 217.349 626.575C217.549 626.375 217.789 626.275 218.069 626.275C218.349 626.275 218.589 626.375 218.789 626.575C218.989 626.761 219.089 627.001 219.089 627.295C219.089 627.588 218.989 627.835 218.789 628.035C218.589 628.235 218.349 628.335 218.069 628.335ZM218.769 630.395V641.315H217.369V630.395H218.769ZM221.299 635.855C221.299 634.721 221.526 633.735 221.979 632.895C222.432 632.041 223.059 631.388 223.859 630.935C224.659 630.468 225.572 630.235 226.599 630.235C227.946 630.235 229.052 630.568 229.919 631.235C230.799 631.901 231.366 632.808 231.619 633.955H230.119C229.932 633.168 229.526 632.555 228.899 632.115C228.286 631.661 227.519 631.435 226.599 631.435C225.866 631.435 225.206 631.601 224.619 631.935C224.032 632.268 223.566 632.768 223.219 633.435C222.886 634.088 222.719 634.895 222.719 635.855C222.719 636.815 222.886 637.628 223.219 638.295C223.566 638.961 224.032 639.461 224.619 639.795C225.206 640.128 225.866 640.295 226.599 640.295C227.519 640.295 228.286 640.075 228.899 639.635C229.526 639.181 229.932 638.555 230.119 637.755H231.619C231.366 638.875 230.799 639.775 229.919 640.455C229.039 641.135 227.932 641.475 226.599 641.475C225.572 641.475 224.659 641.248 223.859 640.795C223.059 640.328 222.432 639.675 221.979 638.835C221.526 637.981 221.299 636.988 221.299 635.855ZM235.604 626.515V641.315H234.204V626.515H235.604ZM248.655 635.295C248.655 635.775 248.641 636.141 248.615 636.395H239.555C239.595 637.221 239.795 637.928 240.155 638.515C240.515 639.101 240.988 639.548 241.575 639.855C242.161 640.148 242.801 640.295 243.495 640.295C244.401 640.295 245.161 640.075 245.775 639.635C246.401 639.195 246.815 638.601 247.015 637.855H248.495C248.228 638.921 247.655 639.795 246.775 640.475C245.908 641.141 244.815 641.475 243.495 641.475C242.468 641.475 241.548 641.248 240.735 640.795C239.921 640.328 239.281 639.675 238.815 638.835C238.361 637.981 238.135 636.988 238.135 635.855C238.135 634.721 238.361 633.728 238.815 632.875C239.268 632.021 239.901 631.368 240.715 630.915C241.528 630.461 242.455 630.235 243.495 630.235C244.535 630.235 245.441 630.461 246.215 630.915C247.001 631.368 247.601 631.981 248.015 632.755C248.441 633.515 248.655 634.361 248.655 635.295ZM247.235 635.255C247.248 634.441 247.081 633.748 246.735 633.175C246.401 632.601 245.941 632.168 245.355 631.875C244.768 631.581 244.128 631.435 243.435 631.435C242.395 631.435 241.508 631.768 240.775 632.435C240.041 633.101 239.635 634.041 239.555 635.255H247.235ZM254.976 641.475C253.723 641.475 252.696 641.188 251.896 640.615C251.11 640.028 250.67 639.235 250.576 638.235H252.016C252.083 638.848 252.37 639.348 252.876 639.735C253.396 640.108 254.09 640.295 254.956 640.295C255.716 640.295 256.31 640.115 256.736 639.755C257.176 639.395 257.396 638.948 257.396 638.415C257.396 638.041 257.276 637.735 257.036 637.495C256.796 637.255 256.49 637.068 256.116 636.935C255.756 636.788 255.263 636.635 254.636 636.475C253.823 636.261 253.163 636.048 252.656 635.835C252.15 635.621 251.716 635.308 251.356 634.895C251.01 634.468 250.836 633.901 250.836 633.195C250.836 632.661 250.996 632.168 251.316 631.715C251.636 631.261 252.09 630.901 252.676 630.635C253.263 630.368 253.93 630.235 254.676 630.235C255.85 630.235 256.796 630.535 257.516 631.135C258.236 631.721 258.623 632.535 258.676 633.575H257.276C257.236 632.935 256.983 632.421 256.516 632.035C256.063 631.635 255.436 631.435 254.636 631.435C253.93 631.435 253.356 631.601 252.916 631.935C252.476 632.268 252.256 632.681 252.256 633.175C252.256 633.601 252.383 633.955 252.636 634.235C252.903 634.501 253.23 634.715 253.616 634.875C254.003 635.021 254.523 635.188 255.176 635.375C255.963 635.588 256.59 635.795 257.056 635.995C257.523 636.195 257.923 636.488 258.256 636.875C258.59 637.261 258.763 637.775 258.776 638.415C258.776 639.001 258.616 639.528 258.296 639.995C257.976 640.448 257.53 640.808 256.956 641.075C256.383 641.341 255.723 641.475 254.976 641.475Z" fill="#DD5928"/>
<path d="M172.464 541.284C172.464 542.705 171.9 544.067 170.895 545.072C169.891 546.076 168.528 546.641 167.108 546.641H151.038C149.618 546.641 148.255 546.076 147.251 545.072C146.246 544.067 145.682 542.705 145.682 541.284C145.682 539.863 146.246 538.501 147.251 537.496C148.255 536.492 149.618 535.928 151.038 535.928H156.395V493.076H151.038C149.618 493.076 148.255 492.512 147.251 491.507C146.246 490.502 145.682 489.14 145.682 487.719C145.682 486.299 146.246 484.936 147.251 483.932C148.255 482.927 149.618 482.363 151.038 482.363H161.751C162.664 482.364 163.561 482.598 164.358 483.043C165.155 483.489 165.825 484.13 166.304 484.907L188.533 520.461L210.763 484.907C211.242 484.13 211.912 483.489 212.709 483.043C213.506 482.598 214.403 482.364 215.316 482.363H226.029C227.449 482.363 228.812 482.927 229.816 483.932C230.821 484.936 231.385 486.299 231.385 487.719C231.385 489.14 230.821 490.502 229.816 491.507C228.812 492.512 227.449 493.076 226.029 493.076H220.672V535.928H226.029C227.449 535.928 228.812 536.492 229.816 537.496C230.821 538.501 231.385 539.863 231.385 541.284C231.385 542.705 230.821 544.067 229.816 545.072C228.812 546.076 227.449 546.641 226.029 546.641H209.959C208.539 546.641 207.176 546.076 206.172 545.072C205.167 544.067 204.603 542.705 204.603 541.284C204.603 539.863 205.167 538.501 206.172 537.496C207.176 536.492 208.539 535.928 209.959 535.928V506.4L193.086 533.383C192.606 534.158 191.936 534.798 191.139 535.242C190.342 535.685 189.445 535.918 188.533 535.918C187.622 535.918 186.725 535.685 185.928 535.242C185.131 534.798 184.461 534.158 183.98 533.383L167.108 506.4V535.928C168.528 535.928 169.891 536.492 170.895 537.496C171.9 538.501 172.464 539.863 172.464 541.284ZM247.455 525.215H295.663C297.083 525.215 298.446 524.65 299.45 523.646C300.455 522.641 301.019 521.279 301.019 519.858C301.019 518.438 300.455 517.075 299.45 516.071C298.446 515.066 297.083 514.502 295.663 514.502H247.455C246.034 514.502 244.671 515.066 243.667 516.071C242.662 517.075 242.098 518.438 242.098 519.858C242.098 521.279 242.662 522.641 243.667 523.646C244.671 524.65 246.034 525.215 247.455 525.215ZM295.663 535.928H247.455C246.034 535.928 244.671 536.492 243.667 537.496C242.662 538.501 242.098 539.863 242.098 541.284C242.098 542.705 242.662 544.067 243.667 545.072C244.671 546.076 246.034 546.641 247.455 546.641H295.663C297.083 546.641 298.446 546.076 299.45 545.072C300.455 544.067 301.019 542.705 301.019 541.284C301.019 539.863 300.455 538.501 299.45 537.496C298.446 536.492 297.083 535.928 295.663 535.928ZM295.663 557.353H183.177C181.756 557.353 180.394 557.918 179.389 558.922C178.385 559.927 177.82 561.289 177.82 562.71C177.82 564.131 178.385 565.493 179.389 566.497C180.394 567.502 181.756 568.066 183.177 568.066H295.663C297.083 568.066 298.446 567.502 299.45 566.497C300.455 565.493 301.019 564.131 301.019 562.71C301.019 561.289 300.455 559.927 299.45 558.922C298.446 557.918 297.083 557.353 295.663 557.353ZM295.663 578.779H183.177C181.756 578.779 180.394 579.344 179.389 580.348C178.385 581.353 177.82 582.715 177.82 584.136C177.82 585.556 178.385 586.919 179.389 587.923C180.394 588.928 181.756 589.492 183.177 589.492H295.663C297.083 589.492 298.446 588.928 299.45 587.923C300.455 586.919 301.019 585.556 301.019 584.136C301.019 582.715 300.455 581.353 299.45 580.348C298.446 579.344 297.083 578.779 295.663 578.779Z" fill="#DD5928"/>
<g filter="url(#filter3_d_72_81)">
<rect x="424" y="523" width="316" height="144.769" rx="20" fill="white"/>
</g>
<path d="M545.5 567.817C545.5 568.537 545.48 569.087 545.44 569.467H531.85C531.91 570.707 532.21 571.767 532.75 572.647C533.29 573.527 534 574.197 534.88 574.657C535.76 575.097 536.72 575.317 537.76 575.317C539.12 575.317 540.26 574.987 541.18 574.327C542.12 573.667 542.74 572.777 543.04 571.657H545.26C544.86 573.257 544 574.567 542.68 575.587C541.38 576.587 539.74 577.087 537.76 577.087C536.22 577.087 534.84 576.747 533.62 576.067C532.4 575.367 531.44 574.387 530.74 573.127C530.06 571.847 529.72 570.357 529.72 568.657C529.72 566.957 530.06 565.467 530.74 564.187C531.42 562.907 532.37 561.927 533.59 561.247C534.81 560.567 536.2 560.227 537.76 560.227C539.32 560.227 540.68 560.567 541.84 561.247C543.02 561.927 543.92 562.847 544.54 564.007C545.18 565.147 545.5 566.417 545.5 567.817ZM543.37 567.757C543.39 566.537 543.14 565.497 542.62 564.637C542.12 563.777 541.43 563.127 540.55 562.687C539.67 562.247 538.71 562.027 537.67 562.027C536.11 562.027 534.78 562.527 533.68 563.527C532.58 564.527 531.97 565.937 531.85 567.757H543.37ZM568.842 560.167C570.762 560.167 572.322 560.777 573.522 561.997C574.742 563.197 575.352 564.947 575.352 567.247V576.847H573.282V567.487C573.282 565.707 572.852 564.347 571.992 563.407C571.132 562.467 569.962 561.997 568.482 561.997C566.942 561.997 565.712 562.507 564.792 563.527C563.872 564.547 563.412 566.027 563.412 567.967V576.847H561.342V567.487C561.342 565.707 560.912 564.347 560.052 563.407C559.192 562.467 558.012 561.997 556.512 561.997C554.972 561.997 553.742 562.507 552.822 563.527C551.902 564.547 551.442 566.027 551.442 567.967V576.847H549.342V560.467H551.442V563.287C551.962 562.267 552.702 561.497 553.662 560.977C554.622 560.437 555.692 560.167 556.872 560.167C558.292 560.167 559.532 560.507 560.592 561.187C561.672 561.867 562.452 562.867 562.932 564.187C563.372 562.887 564.122 561.897 565.182 561.217C566.262 560.517 567.482 560.167 568.842 560.167ZM579.056 568.627C579.056 566.947 579.386 565.477 580.046 564.217C580.726 562.937 581.656 561.957 582.836 561.277C584.036 560.577 585.386 560.227 586.886 560.227C588.446 560.227 589.786 560.587 590.906 561.307C592.046 562.027 592.866 562.947 593.366 564.067V560.467H595.466V576.847H593.366V573.217C592.846 574.337 592.016 575.267 590.876 576.007C589.756 576.727 588.416 577.087 586.856 577.087C585.376 577.087 584.036 576.737 582.836 576.037C581.656 575.337 580.726 574.347 580.046 573.067C579.386 571.787 579.056 570.307 579.056 568.627ZM593.366 568.657C593.366 567.337 593.096 566.177 592.556 565.177C592.016 564.177 591.276 563.407 590.336 562.867C589.416 562.327 588.396 562.057 587.276 562.057C586.116 562.057 585.076 562.317 584.156 562.837C583.236 563.357 582.506 564.117 581.966 565.117C581.446 566.097 581.186 567.267 581.186 568.627C581.186 569.967 581.446 571.147 581.966 572.167C582.506 573.167 583.236 573.937 584.156 574.477C585.076 574.997 586.116 575.257 587.276 575.257C588.396 575.257 589.416 574.987 590.336 574.447C591.276 573.907 592.016 573.137 592.556 572.137C593.096 571.137 593.366 569.977 593.366 568.657ZM601.31 557.377C600.89 557.377 600.53 557.227 600.23 556.927C599.93 556.627 599.78 556.257 599.78 555.817C599.78 555.377 599.93 555.017 600.23 554.737C600.53 554.437 600.89 554.287 601.31 554.287C601.73 554.287 602.09 554.437 602.39 554.737C602.69 555.017 602.84 555.377 602.84 555.817C602.84 556.257 602.69 556.627 602.39 556.927C602.09 557.227 601.73 557.377 601.31 557.377ZM602.36 560.467V576.847H600.26V560.467H602.36ZM609.216 554.647V576.847H607.116V554.647H609.216Z" fill="#5F5B5B"/>
<path d="M530.68 599.193C530.4 599.193 530.16 599.093 529.96 598.893C529.76 598.693 529.66 598.446 529.66 598.153C529.66 597.86 529.76 597.62 529.96 597.433C530.16 597.233 530.4 597.133 530.68 597.133C530.96 597.133 531.193 597.233 531.38 597.433C531.58 597.62 531.68 597.86 531.68 598.153C531.68 598.446 531.58 598.693 531.38 598.893C531.193 599.093 530.96 599.193 530.68 599.193ZM531.36 614.753C531.36 615.633 531.14 616.28 530.7 616.693C530.26 617.12 529.6 617.333 528.72 617.333H527.74V616.133H528.5C529.02 616.133 529.393 616.02 529.62 615.793C529.847 615.58 529.96 615.213 529.96 614.693V601.253H531.36V614.753ZM539.348 612.333C538.321 612.333 537.394 612.106 536.568 611.653C535.754 611.186 535.108 610.533 534.628 609.693C534.161 608.84 533.928 607.846 533.928 606.713C533.928 605.58 534.168 604.593 534.648 603.753C535.128 602.9 535.781 602.246 536.608 601.793C537.434 601.326 538.361 601.093 539.388 601.093C540.414 601.093 541.341 601.326 542.168 601.793C543.008 602.246 543.661 602.9 544.128 603.753C544.608 604.593 544.848 605.58 544.848 606.713C544.848 607.833 544.608 608.82 544.128 609.673C543.648 610.526 542.988 611.186 542.148 611.653C541.308 612.106 540.374 612.333 539.348 612.333ZM539.348 611.113C540.068 611.113 540.734 610.953 541.348 610.633C541.961 610.3 542.454 609.806 542.828 609.153C543.214 608.486 543.408 607.673 543.408 606.713C543.408 605.753 543.221 604.946 542.848 604.293C542.474 603.626 541.981 603.133 541.368 602.813C540.754 602.48 540.088 602.313 539.368 602.313C538.648 602.313 537.981 602.48 537.368 602.813C536.754 603.133 536.261 603.626 535.888 604.293C535.528 604.946 535.348 605.753 535.348 606.713C535.348 607.673 535.528 608.486 535.888 609.153C536.261 609.806 536.748 610.3 537.348 610.633C537.961 610.953 538.628 611.113 539.348 611.113ZM552.6 601.053C553.426 601.053 554.166 601.226 554.82 601.573C555.486 601.92 556.006 602.453 556.38 603.173C556.766 603.88 556.96 604.746 556.96 605.773V612.173H555.58V605.933C555.58 604.746 555.28 603.84 554.68 603.213C554.093 602.586 553.286 602.273 552.26 602.273C551.206 602.273 550.366 602.606 549.74 603.273C549.113 603.94 548.8 604.92 548.8 606.213V612.173H547.4V597.373H548.8V603.113C549.146 602.46 549.653 601.953 550.32 601.593C551 601.233 551.76 601.053 552.6 601.053ZM565.176 601.053C566.482 601.053 567.549 601.46 568.376 602.273C569.202 603.073 569.616 604.24 569.616 605.773V612.173H568.236V605.933C568.236 604.746 567.936 603.84 567.336 603.213C566.749 602.586 565.942 602.273 564.916 602.273C563.862 602.273 563.022 602.606 562.396 603.273C561.769 603.94 561.456 604.92 561.456 606.213V612.173H560.056V601.253H561.456V603.113C561.802 602.446 562.302 601.94 562.956 601.593C563.609 601.233 564.349 601.053 565.176 601.053ZM572.952 612.273C572.659 612.273 572.412 612.173 572.212 611.973C572.025 611.773 571.932 611.526 571.932 611.233C571.932 610.94 572.025 610.7 572.212 610.513C572.412 610.313 572.659 610.213 572.952 610.213C573.232 610.213 573.465 610.313 573.652 610.513C573.852 610.7 573.952 610.94 573.952 611.233C573.952 611.526 573.852 611.773 573.652 611.973C573.465 612.173 573.232 612.273 572.952 612.273ZM585.285 602.213C585.285 603.413 584.892 604.38 584.105 605.113C583.318 605.846 582.138 606.213 580.565 606.213H577.745V612.173H576.345V598.193H580.565C582.125 598.193 583.298 598.56 584.085 599.293C584.885 600.026 585.285 601 585.285 602.213ZM580.565 605.013C582.752 605.013 583.845 604.08 583.845 602.213C583.845 601.28 583.585 600.573 583.065 600.093C582.545 599.613 581.712 599.373 580.565 599.373H577.745V605.013H580.565ZM597.374 599.453C598.814 599.453 600.081 599.733 601.174 600.293C602.267 600.853 603.107 601.64 603.694 602.653C604.281 603.653 604.574 604.806 604.574 606.113C604.574 607.153 604.407 608.146 604.074 609.093C603.741 610.04 603.261 610.813 602.634 611.413C602.007 612 601.274 612.293 600.434 612.293C599.781 612.293 599.281 612.12 598.934 611.773C598.601 611.413 598.421 610.926 598.394 610.313C597.981 610.926 597.454 611.413 596.814 611.773C596.174 612.12 595.494 612.293 594.774 612.293C593.761 612.293 592.967 611.986 592.394 611.373C591.834 610.76 591.554 609.926 591.554 608.873C591.554 607.886 591.761 606.966 592.174 606.113C592.587 605.246 593.161 604.553 593.894 604.033C594.627 603.513 595.461 603.253 596.394 603.253C597.061 603.253 597.621 603.4 598.074 603.693C598.541 603.986 598.874 604.413 599.074 604.973L599.334 603.493H600.554L599.534 609.313C599.494 609.553 599.474 609.773 599.474 609.973C599.474 610.866 599.861 611.313 600.634 611.313C601.207 611.313 601.701 611.053 602.114 610.533C602.541 610.013 602.861 609.36 603.074 608.573C603.301 607.773 603.414 606.98 603.414 606.193C603.414 605.02 603.161 604.006 602.654 603.153C602.161 602.286 601.447 601.626 600.514 601.173C599.581 600.706 598.474 600.473 597.194 600.473C595.594 600.473 594.147 600.866 592.854 601.653C591.561 602.44 590.547 603.506 589.814 604.853C589.081 606.2 588.714 607.686 588.714 609.313C588.701 611.126 589.247 612.533 590.354 613.533C591.461 614.546 592.974 615.053 594.894 615.053C596.107 615.053 597.207 614.826 598.194 614.373L598.414 615.353C597.241 615.833 595.967 616.073 594.594 616.073C593.194 616.073 591.961 615.8 590.894 615.253C589.827 614.72 589.001 613.953 588.414 612.953C587.827 611.953 587.534 610.786 587.534 609.453C587.534 607.6 587.954 605.913 588.794 604.393C589.647 602.86 590.821 601.653 592.314 600.773C593.821 599.893 595.507 599.453 597.374 599.453ZM595.174 611.193C595.774 611.193 596.327 611.033 596.834 610.713C597.341 610.393 597.754 609.946 598.074 609.373C598.407 608.8 598.614 608.146 598.694 607.413C598.721 607.173 598.734 607 598.734 606.893C598.734 606.146 598.527 605.54 598.114 605.073C597.714 604.593 597.141 604.353 596.394 604.353C595.687 604.353 595.067 604.56 594.534 604.973C594.001 605.386 593.587 605.926 593.294 606.593C593.001 607.246 592.854 607.94 592.854 608.673C592.854 609.446 593.054 610.06 593.454 610.513C593.854 610.966 594.427 611.193 595.174 611.193ZM612.253 601.093C613.28 601.093 614.173 601.333 614.933 601.813C615.693 602.293 616.24 602.9 616.573 603.633V601.253H617.973V612.453C617.973 613.453 617.753 614.34 617.313 615.113C616.886 615.886 616.286 616.48 615.513 616.893C614.74 617.32 613.86 617.533 612.873 617.533C611.473 617.533 610.306 617.2 609.373 616.533C608.453 615.866 607.88 614.96 607.653 613.813H609.033C609.273 614.573 609.726 615.18 610.393 615.633C611.073 616.086 611.9 616.313 612.873 616.313C613.58 616.313 614.213 616.16 614.773 615.853C615.333 615.56 615.773 615.12 616.093 614.533C616.413 613.946 616.573 613.253 616.573 612.453V609.753C616.226 610.5 615.673 611.12 614.913 611.613C614.166 612.093 613.28 612.333 612.253 612.333C611.253 612.333 610.353 612.1 609.553 611.633C608.766 611.166 608.146 610.506 607.693 609.653C607.253 608.8 607.033 607.813 607.033 606.693C607.033 605.573 607.253 604.593 607.693 603.753C608.146 602.9 608.766 602.246 609.553 601.793C610.353 601.326 611.253 601.093 612.253 601.093ZM616.573 606.713C616.573 605.833 616.393 605.06 616.033 604.393C615.673 603.726 615.18 603.213 614.553 602.853C613.94 602.493 613.26 602.313 612.513 602.313C611.74 602.313 611.046 602.486 610.433 602.833C609.82 603.18 609.333 603.686 608.973 604.353C608.626 605.006 608.453 605.786 608.453 606.693C608.453 607.586 608.626 608.373 608.973 609.053C609.333 609.72 609.82 610.233 610.433 610.593C611.046 610.94 611.74 611.113 612.513 611.113C613.26 611.113 613.94 610.933 614.553 610.573C615.18 610.213 615.673 609.7 616.033 609.033C616.393 608.366 616.573 607.593 616.573 606.713ZM625.949 612.333C624.922 612.333 623.996 612.106 623.169 611.653C622.356 611.186 621.709 610.533 621.229 609.693C620.762 608.84 620.529 607.846 620.529 606.713C620.529 605.58 620.769 604.593 621.249 603.753C621.729 602.9 622.382 602.246 623.209 601.793C624.036 601.326 624.962 601.093 625.989 601.093C627.016 601.093 627.942 601.326 628.769 601.793C629.609 602.246 630.262 602.9 630.729 603.753C631.209 604.593 631.449 605.58 631.449 606.713C631.449 607.833 631.209 608.82 630.729 609.673C630.249 610.526 629.589 611.186 628.749 611.653C627.909 612.106 626.976 612.333 625.949 612.333ZM625.949 611.113C626.669 611.113 627.336 610.953 627.949 610.633C628.562 610.3 629.056 609.806 629.429 609.153C629.816 608.486 630.009 607.673 630.009 606.713C630.009 605.753 629.822 604.946 629.449 604.293C629.076 603.626 628.582 603.133 627.969 602.813C627.356 602.48 626.689 602.313 625.969 602.313C625.249 602.313 624.582 602.48 623.969 602.813C623.356 603.133 622.862 603.626 622.489 604.293C622.129 604.946 621.949 605.753 621.949 606.713C621.949 607.673 622.129 608.486 622.489 609.153C622.862 609.806 623.349 610.3 623.949 610.633C624.562 610.953 625.229 611.113 625.949 611.113ZM638.781 612.333C637.754 612.333 636.828 612.106 636.001 611.653C635.188 611.186 634.541 610.533 634.061 609.693C633.594 608.84 633.361 607.846 633.361 606.713C633.361 605.58 633.601 604.593 634.081 603.753C634.561 602.9 635.214 602.246 636.041 601.793C636.868 601.326 637.794 601.093 638.821 601.093C639.848 601.093 640.774 601.326 641.601 601.793C642.441 602.246 643.094 602.9 643.561 603.753C644.041 604.593 644.281 605.58 644.281 606.713C644.281 607.833 644.041 608.82 643.561 609.673C643.081 610.526 642.421 611.186 641.581 611.653C640.741 612.106 639.808 612.333 638.781 612.333ZM638.781 611.113C639.501 611.113 640.168 610.953 640.781 610.633C641.394 610.3 641.888 609.806 642.261 609.153C642.648 608.486 642.841 607.673 642.841 606.713C642.841 605.753 642.654 604.946 642.281 604.293C641.908 603.626 641.414 603.133 640.801 602.813C640.188 602.48 639.521 602.313 638.801 602.313C638.081 602.313 637.414 602.48 636.801 602.813C636.188 603.133 635.694 603.626 635.321 604.293C634.961 604.946 634.781 605.753 634.781 606.713C634.781 607.673 634.961 608.486 635.321 609.153C635.694 609.806 636.181 610.3 636.781 610.633C637.394 610.953 638.061 611.113 638.781 611.113ZM651.413 601.093C652.44 601.093 653.333 601.333 654.093 601.813C654.853 602.293 655.4 602.9 655.733 603.633V601.253H657.133V612.453C657.133 613.453 656.913 614.34 656.473 615.113C656.046 615.886 655.446 616.48 654.673 616.893C653.9 617.32 653.02 617.533 652.033 617.533C650.633 617.533 649.466 617.2 648.533 616.533C647.613 615.866 647.04 614.96 646.813 613.813H648.193C648.433 614.573 648.886 615.18 649.553 615.633C650.233 616.086 651.06 616.313 652.033 616.313C652.74 616.313 653.373 616.16 653.933 615.853C654.493 615.56 654.933 615.12 655.253 614.533C655.573 613.946 655.733 613.253 655.733 612.453V609.753C655.386 610.5 654.833 611.12 654.073 611.613C653.326 612.093 652.44 612.333 651.413 612.333C650.413 612.333 649.513 612.1 648.713 611.633C647.926 611.166 647.306 610.506 646.853 609.653C646.413 608.8 646.193 607.813 646.193 606.693C646.193 605.573 646.413 604.593 646.853 603.753C647.306 602.9 647.926 602.246 648.713 601.793C649.513 601.326 650.413 601.093 651.413 601.093ZM655.733 606.713C655.733 605.833 655.553 605.06 655.193 604.393C654.833 603.726 654.34 603.213 653.713 602.853C653.1 602.493 652.42 602.313 651.673 602.313C650.9 602.313 650.206 602.486 649.593 602.833C648.98 603.18 648.493 603.686 648.133 604.353C647.786 605.006 647.613 605.786 647.613 606.693C647.613 607.586 647.786 608.373 648.133 609.053C648.493 609.72 648.98 610.233 649.593 610.593C650.206 610.94 650.9 611.113 651.673 611.113C652.42 611.113 653.1 610.933 653.713 610.573C654.34 610.213 654.833 609.7 655.193 609.033C655.553 608.366 655.733 607.593 655.733 606.713ZM661.729 597.373V612.173H660.329V597.373H661.729ZM674.78 606.153C674.78 606.633 674.766 607 674.74 607.253H665.68C665.72 608.08 665.92 608.786 666.28 609.373C666.64 609.96 667.113 610.406 667.7 610.713C668.286 611.006 668.926 611.153 669.62 611.153C670.526 611.153 671.286 610.933 671.9 610.493C672.526 610.053 672.94 609.46 673.14 608.713H674.62C674.353 609.78 673.78 610.653 672.9 611.333C672.033 612 670.94 612.333 669.62 612.333C668.593 612.333 667.673 612.106 666.86 611.653C666.046 611.186 665.406 610.533 664.94 609.693C664.486 608.84 664.26 607.846 664.26 606.713C664.26 605.58 664.486 604.586 664.94 603.733C665.393 602.88 666.026 602.226 666.84 601.773C667.653 601.32 668.58 601.093 669.62 601.093C670.66 601.093 671.566 601.32 672.34 601.773C673.126 602.226 673.726 602.84 674.14 603.613C674.566 604.373 674.78 605.22 674.78 606.153ZM673.36 606.113C673.373 605.3 673.206 604.606 672.86 604.033C672.526 603.46 672.066 603.026 671.48 602.733C670.893 602.44 670.253 602.293 669.56 602.293C668.52 602.293 667.633 602.626 666.9 603.293C666.166 603.96 665.76 604.9 665.68 606.113H673.36ZM677.581 612.273C677.288 612.273 677.041 612.173 676.841 611.973C676.654 611.773 676.561 611.526 676.561 611.233C676.561 610.94 676.654 610.7 676.841 610.513C677.041 610.313 677.288 610.213 677.581 610.213C677.861 610.213 678.094 610.313 678.281 610.513C678.481 610.7 678.581 610.94 678.581 611.233C678.581 611.526 678.481 611.773 678.281 611.973C678.094 612.173 677.861 612.273 677.581 612.273ZM680.334 606.713C680.334 605.58 680.56 604.593 681.014 603.753C681.467 602.9 682.094 602.246 682.894 601.793C683.694 601.326 684.607 601.093 685.634 601.093C686.98 601.093 688.087 601.426 688.954 602.093C689.834 602.76 690.4 603.666 690.654 604.813H689.154C688.967 604.026 688.56 603.413 687.934 602.973C687.32 602.52 686.554 602.293 685.634 602.293C684.9 602.293 684.24 602.46 683.654 602.793C683.067 603.126 682.6 603.626 682.254 604.293C681.92 604.946 681.754 605.753 681.754 606.713C681.754 607.673 681.92 608.486 682.254 609.153C682.6 609.82 683.067 610.32 683.654 610.653C684.24 610.986 684.9 611.153 685.634 611.153C686.554 611.153 687.32 610.933 687.934 610.493C688.56 610.04 688.967 609.413 689.154 608.613H690.654C690.4 609.733 689.834 610.633 688.954 611.313C688.074 611.993 686.967 612.333 685.634 612.333C684.607 612.333 683.694 612.106 682.894 611.653C682.094 611.186 681.467 610.533 681.014 609.693C680.56 608.84 680.334 607.846 680.334 606.713ZM698.019 612.333C696.993 612.333 696.066 612.106 695.239 611.653C694.426 611.186 693.779 610.533 693.299 609.693C692.833 608.84 692.599 607.846 692.599 606.713C692.599 605.58 692.839 604.593 693.319 603.753C693.799 602.9 694.453 602.246 695.279 601.793C696.106 601.326 697.033 601.093 698.059 601.093C699.086 601.093 700.013 601.326 700.839 601.793C701.679 602.246 702.333 602.9 702.799 603.753C703.279 604.593 703.519 605.58 703.519 606.713C703.519 607.833 703.279 608.82 702.799 609.673C702.319 610.526 701.659 611.186 700.819 611.653C699.979 612.106 699.046 612.333 698.019 612.333ZM698.019 611.113C698.739 611.113 699.406 610.953 700.019 610.633C700.633 610.3 701.126 609.806 701.499 609.153C701.886 608.486 702.079 607.673 702.079 606.713C702.079 605.753 701.893 604.946 701.519 604.293C701.146 603.626 700.653 603.133 700.039 602.813C699.426 602.48 698.759 602.313 698.039 602.313C697.319 602.313 696.653 602.48 696.039 602.813C695.426 603.133 694.933 603.626 694.559 604.293C694.199 604.946 694.019 605.753 694.019 606.713C694.019 607.673 694.199 608.486 694.559 609.153C694.933 609.806 695.419 610.3 696.019 610.633C696.633 610.953 697.299 611.113 698.019 611.113ZM719.071 601.053C720.351 601.053 721.391 601.46 722.191 602.273C723.005 603.073 723.411 604.24 723.411 605.773V612.173H722.031V605.933C722.031 604.746 721.745 603.84 721.171 603.213C720.598 602.586 719.818 602.273 718.831 602.273C717.805 602.273 716.985 602.613 716.371 603.293C715.758 603.973 715.451 604.96 715.451 606.253V612.173H714.071V605.933C714.071 604.746 713.785 603.84 713.211 603.213C712.638 602.586 711.851 602.273 710.851 602.273C709.825 602.273 709.005 602.613 708.391 603.293C707.778 603.973 707.471 604.96 707.471 606.253V612.173H706.071V601.253H707.471V603.133C707.818 602.453 708.311 601.94 708.951 601.593C709.591 601.233 710.305 601.053 711.091 601.053C712.038 601.053 712.865 601.28 713.571 601.733C714.291 602.186 714.811 602.853 715.131 603.733C715.425 602.866 715.925 602.206 716.631 601.753C717.351 601.286 718.165 601.053 719.071 601.053Z" fill="#DD5928"/>
<path d="M511.058 612.844V577.925C511.058 574.705 508.694 572.106 505.765 572.106H456.328C453.4 572.106 451.035 574.705 451.035 577.925V612.844C451.035 616.064 453.4 618.663 456.328 618.663H505.765C508.694 618.663 511.058 616.064 511.058 612.844ZM506.435 577.499C507.6 578.779 506.965 580.098 506.33 580.758L492.003 595.191L505.765 610.943C506.188 611.486 506.471 612.339 505.977 612.921C505.518 613.542 504.459 613.503 504.001 613.115L488.58 598.644L481.029 606.209L473.513 598.644L458.093 613.115C457.634 613.503 456.575 613.542 456.117 612.921C455.623 612.339 455.905 611.486 456.328 610.943L470.09 595.191L455.764 580.758C455.129 580.098 454.493 578.779 455.658 577.499C456.822 576.218 458.022 576.839 459.01 577.77L481.029 597.324L503.083 577.77C504.071 576.839 505.271 576.218 506.435 577.499Z" fill="#DD5928"/>
<defs>
<filter id="filter0_d_72_81" x="388" y="0" width="431.544" height="247.397" filterUnits="userSpaceOnUse" color-interpolation-filters="sRGB">
<feFlood flood-opacity="0" result="BackgroundImageFix"/>
<feColorMatrix in="SourceAlpha" type="matrix" values="0 0 0 0 0 0 0 0 0 0 0 0 0 0 0 0 0 0 127 0" result="hardAlpha"/>
<feMorphology radius="20" operator="dilate" in="SourceAlpha" result="effect1_dropShadow_72_81"/>
<feOffset dx="20" dy="20"/>
<feGaussianBlur stdDeviation="20"/>
<feComposite in2="hardAlpha" operator="out"/>
<feColorMatrix type="matrix" values="0 0 0 0 0.6375 0 0 0 0 0.629531 0 0 0 0 0.629531 0 0 0 0.2 0"/>
<feBlend mode="normal" in2="BackgroundImageFix" result="effect1_dropShadow_72_81"/>
<feBlend mode="normal" in="SourceGraphic" in2="effect1_dropShadow_72_81" result="shape"/>
</filter>
<filter id="filter1_d_72_81" x="384" y="176" width="436" height="386" filterUnits="userSpaceOnUse" color-interpolation-filters="sRGB">
<feFlood flood-opacity="0" result="BackgroundImageFix"/>
<feColorMatrix in="SourceAlpha" type="matrix" values="0 0 0 0 0 0 0 0 0 0 0 0 0 0 0 0 0 0 127 0" result="hardAlpha"/>
<feMorphology radius="20" operator="dilate" in="SourceAlpha" result="effect1_dropShadow_72_81"/>
<feOffset dx="20" dy="20"/>
<feGaussianBlur stdDeviation="20"/>
<feComposite in2="hardAlpha" operator="out"/>
<feColorMatrix type="matrix" values="0 0 0 0 0.6375 0 0 0 0 0.629531 0 0 0 0 0.629531 0 0 0 0.2 0"/>
<feBlend mode="normal" in2="BackgroundImageFix" result="effect1_dropShadow_72_81"/>
<feBlend mode="normal" in="SourceGraphic" in2="effect1_dropShadow_72_81" result="shape"/>
</filter>
<filter id="filter2_d_72_81" x="0" y="350" width="467.446" height="397.957" filterUnits="userSpaceOnUse" color-interpolation-filters="sRGB">
<feFlood flood-opacity="0" result="BackgroundImageFix"/>
<feColorMatrix in="SourceAlpha" type="matrix" values="0 0 0 0 0 0 0 0 0 0 0 0 0 0 0 0 0 0 127 0" result="hardAlpha"/>
<feMorphology radius="20" operator="dilate" in="SourceAlpha" result="effect1_dropShadow_72_81"/>
<feOffset dx="20" dy="20"/>
<feGaussianBlur stdDeviation="20"/>
<feComposite in2="hardAlpha" operator="out"/>
<feColorMatrix type="matrix" values="0 0 0 0 0.6375 0 0 0 0 0.629531 0 0 0 0 0.629531 0 0 0 0.2 0"/>
<feBlend mode="normal" in2="BackgroundImageFix" result="effect1_dropShadow_72_81"/>
<feBlend mode="normal" in="SourceGraphic" in2="effect1_dropShadow_72_81" result="shape"/>
</filter>
<filter id="filter3_d_72_81" x="384" y="483" width="436" height="264.769" filterUnits="userSpaceOnUse" color-interpolation-filters="sRGB">
<feFlood flood-opacity="0" result="BackgroundImageFix"/>
<feColorMatrix in="SourceAlpha" type="matrix" values="0 0 0 0 0 0 0 0 0 0 0 0 0 0 0 0 0 0 127 0" result="hardAlpha"/>
<feMorphology radius="20" operator="dilate" in="SourceAlpha" result="effect1_dropShadow_72_81"/>
<feOffset dx="20" dy="20"/>
<feGaussianBlur stdDeviation="20"/>
<feComposite in2="hardAlpha" operator="out"/>
<feColorMatrix type="matrix" values="0 0 0 0 0.639216 0 0 0 0 0.631373 0 0 0 0 0.631373 0 0 0 0.15 0"/>
<feBlend mode="normal" in2="BackgroundImageFix" result="effect1_dropShadow_72_81"/>
<feBlend mode="normal" in="SourceGraphic" in2="effect1_dropShadow_72_81" result="shape"/>
</filter>
</defs>
</svg>
