<svg width="202" height="78" viewBox="0 0 202 78" fill="none" xmlns="http://www.w3.org/2000/svg">
<path d="M14.376 9.224V26H12.696V18.152H3.6V26H1.92V9.224H3.6V16.76H12.696V9.224H14.376ZM29.5611 12.896V26H27.8811V23.696C27.4971 24.512 26.9051 25.136 26.1051 25.568C25.3051 26 24.4091 26.216 23.4171 26.216C21.8491 26.216 20.5691 25.736 19.5771 24.776C18.5851 23.8 18.0891 22.392 18.0891 20.552V12.896H19.7451V20.36C19.7451 21.784 20.0971 22.872 20.8011 23.624C21.5211 24.376 22.4971 24.752 23.7291 24.752C24.9931 24.752 26.0011 24.352 26.7531 23.552C27.5051 22.752 27.8811 21.576 27.8811 20.024V12.896H29.5611ZM39.5406 12.656C41.1086 12.656 42.3886 13.144 43.3806 14.12C44.3726 15.08 44.8686 16.48 44.8686 18.32V26H43.2126V18.512C43.2126 17.088 42.8526 16 42.1326 15.248C41.4286 14.496 40.4606 14.12 39.2286 14.12C37.9646 14.12 36.9566 14.52 36.2046 15.32C35.4526 16.12 35.0766 17.296 35.0766 18.848V26H33.3966V12.896H35.0766V15.128C35.4926 14.328 36.0926 13.72 36.8766 13.304C37.6606 12.872 38.5486 12.656 39.5406 12.656ZM50.7681 14.312V22.448C50.7681 23.248 50.9201 23.8 51.2241 24.104C51.5281 24.408 52.0641 24.56 52.8321 24.56H54.3681V26H52.5681C51.3841 26 50.5041 25.728 49.9281 25.184C49.3521 24.624 49.0641 23.712 49.0641 22.448V14.312H47.2401V12.896H49.0641V9.608H50.7681V12.896H54.3681V14.312H50.7681ZM62.9567 17.6C62.9567 15.952 63.3167 14.48 64.0367 13.184C64.7567 11.872 65.7407 10.856 66.9887 10.136C68.2367 9.4 69.6287 9.032 71.1647 9.032C73.0367 9.032 74.6367 9.48 75.9647 10.376C77.3087 11.256 78.2847 12.504 78.8927 14.12H76.9247C76.4447 12.984 75.7087 12.096 74.7167 11.456C73.7407 10.816 72.5567 10.496 71.1647 10.496C69.9327 10.496 68.8207 10.784 67.8287 11.36C66.8527 11.936 66.0847 12.768 65.5247 13.856C64.9647 14.928 64.6847 16.176 64.6847 17.6C64.6847 19.024 64.9647 20.272 65.5247 21.344C66.0847 22.416 66.8527 23.24 67.8287 23.816C68.8207 24.392 69.9327 24.68 71.1647 24.68C72.5567 24.68 73.7407 24.368 74.7167 23.744C75.7087 23.104 76.4447 22.224 76.9247 21.104H78.8927C78.2847 22.704 77.3087 23.944 75.9647 24.824C74.6207 25.704 73.0207 26.144 71.1647 26.144C69.6287 26.144 68.2367 25.784 66.9887 25.064C65.7407 24.328 64.7567 23.312 64.0367 22.016C63.3167 20.72 62.9567 19.248 62.9567 17.6ZM87.9763 26.192C86.7443 26.192 85.6323 25.92 84.6403 25.376C83.6643 24.816 82.8883 24.032 82.3123 23.024C81.7523 22 81.4723 20.808 81.4723 19.448C81.4723 18.088 81.7603 16.904 82.3363 15.896C82.9123 14.872 83.6963 14.088 84.6883 13.544C85.6803 12.984 86.7923 12.704 88.0243 12.704C89.2563 12.704 90.3683 12.984 91.3603 13.544C92.3683 14.088 93.1523 14.872 93.7123 15.896C94.2883 16.904 94.5763 18.088 94.5763 19.448C94.5763 20.792 94.2883 21.976 93.7123 23C93.1363 24.024 92.3443 24.816 91.3363 25.376C90.3283 25.92 89.2083 26.192 87.9763 26.192ZM87.9763 24.728C88.8403 24.728 89.6403 24.536 90.3763 24.152C91.1123 23.752 91.7043 23.16 92.1523 22.376C92.6163 21.576 92.8483 20.6 92.8483 19.448C92.8483 18.296 92.6243 17.328 92.1763 16.544C91.7283 15.744 91.1363 15.152 90.4003 14.768C89.6643 14.368 88.8643 14.168 88.0003 14.168C87.1363 14.168 86.3363 14.368 85.6003 14.768C84.8643 15.152 84.2723 15.744 83.8243 16.544C83.3923 17.328 83.1763 18.296 83.1763 19.448C83.1763 20.6 83.3923 21.576 83.8243 22.376C84.2723 23.16 84.8563 23.752 85.5763 24.152C86.3123 24.536 87.1123 24.728 87.9763 24.728ZM113.239 12.656C114.775 12.656 116.023 13.144 116.983 14.12C117.959 15.08 118.447 16.48 118.447 18.32V26H116.791V18.512C116.791 17.088 116.447 16 115.759 15.248C115.071 14.496 114.135 14.12 112.951 14.12C111.719 14.12 110.735 14.528 109.999 15.344C109.263 16.16 108.895 17.344 108.895 18.896V26H107.239V18.512C107.239 17.088 106.895 16 106.207 15.248C105.519 14.496 104.575 14.12 103.375 14.12C102.143 14.12 101.159 14.528 100.423 15.344C99.6868 16.16 99.3188 17.344 99.3188 18.896V26H97.6388V12.896H99.3188V15.152C99.7348 14.336 100.327 13.72 101.095 13.304C101.863 12.872 102.719 12.656 103.663 12.656C104.799 12.656 105.791 12.928 106.639 13.472C107.503 14.016 108.127 14.816 108.511 15.872C108.863 14.832 109.463 14.04 110.311 13.496C111.175 12.936 112.151 12.656 113.239 12.656ZM123.834 15.776C124.25 14.896 124.906 14.168 125.802 13.592C126.714 13 127.794 12.704 129.042 12.704C130.226 12.704 131.29 12.984 132.234 13.544C133.194 14.088 133.938 14.872 134.466 15.896C135.01 16.904 135.282 18.08 135.282 19.424C135.282 20.768 135.01 21.952 134.466 22.976C133.938 24 133.194 24.792 132.234 25.352C131.29 25.912 130.226 26.192 129.042 26.192C127.81 26.192 126.738 25.904 125.826 25.328C124.914 24.736 124.25 24 123.834 23.12V32.192H122.178V12.896H123.834V15.776ZM133.578 19.424C133.578 18.336 133.362 17.4 132.93 16.616C132.514 15.816 131.938 15.208 131.202 14.792C130.466 14.376 129.634 14.168 128.706 14.168C127.81 14.168 126.986 14.384 126.234 14.816C125.498 15.248 124.914 15.864 124.482 16.664C124.05 17.464 123.834 18.392 123.834 19.448C123.834 20.504 124.05 21.432 124.482 22.232C124.914 23.032 125.498 23.648 126.234 24.08C126.986 24.512 127.81 24.728 128.706 24.728C129.634 24.728 130.466 24.52 131.202 24.104C131.938 23.672 132.514 23.056 132.93 22.256C133.362 21.44 133.578 20.496 133.578 19.424ZM140.053 8.24V26H138.373V8.24H140.053ZM155.714 18.776C155.714 19.352 155.698 19.792 155.666 20.096H144.794C144.842 21.088 145.082 21.936 145.514 22.64C145.946 23.344 146.514 23.88 147.218 24.248C147.922 24.6 148.69 24.776 149.522 24.776C150.61 24.776 151.522 24.512 152.258 23.984C153.01 23.456 153.506 22.744 153.746 21.848H155.522C155.202 23.128 154.514 24.176 153.458 24.992C152.418 25.792 151.106 26.192 149.522 26.192C148.29 26.192 147.186 25.92 146.21 25.376C145.234 24.816 144.466 24.032 143.906 23.024C143.362 22 143.09 20.808 143.09 19.448C143.09 18.088 143.362 16.896 143.906 15.872C144.45 14.848 145.21 14.064 146.186 13.52C147.162 12.976 148.274 12.704 149.522 12.704C150.77 12.704 151.858 12.976 152.786 13.52C153.73 14.064 154.45 14.8 154.946 15.728C155.458 16.64 155.714 17.656 155.714 18.776ZM154.01 18.728C154.026 17.752 153.826 16.92 153.41 16.232C153.01 15.544 152.458 15.024 151.754 14.672C151.05 14.32 150.282 14.144 149.45 14.144C148.202 14.144 147.138 14.544 146.258 15.344C145.378 16.144 144.89 17.272 144.794 18.728H154.01ZM160.971 14.312V22.448C160.971 23.248 161.123 23.8 161.427 24.104C161.731 24.408 162.267 24.56 163.035 24.56H164.571V26H162.771C161.587 26 160.707 25.728 160.131 25.184C159.555 24.624 159.267 23.712 159.267 22.448V14.312H157.443V12.896H159.267V9.608H160.971V12.896H164.571V14.312H160.971ZM179.198 18.776C179.198 19.352 179.182 19.792 179.15 20.096H168.278C168.326 21.088 168.566 21.936 168.998 22.64C169.43 23.344 169.998 23.88 170.702 24.248C171.406 24.6 172.174 24.776 173.006 24.776C174.094 24.776 175.006 24.512 175.742 23.984C176.494 23.456 176.99 22.744 177.23 21.848H179.006C178.686 23.128 177.998 24.176 176.942 24.992C175.902 25.792 174.59 26.192 173.006 26.192C171.774 26.192 170.67 25.92 169.694 25.376C168.718 24.816 167.95 24.032 167.39 23.024C166.846 22 166.574 20.808 166.574 19.448C166.574 18.088 166.846 16.896 167.39 15.872C167.934 14.848 168.694 14.064 169.67 13.52C170.646 12.976 171.758 12.704 173.006 12.704C174.254 12.704 175.342 12.976 176.27 13.52C177.214 14.064 177.934 14.8 178.43 15.728C178.942 16.64 179.198 17.656 179.198 18.776ZM177.494 18.728C177.51 17.752 177.31 16.92 176.894 16.232C176.494 15.544 175.942 15.024 175.238 14.672C174.534 14.32 173.766 14.144 172.934 14.144C171.686 14.144 170.622 14.544 169.742 15.344C168.862 16.144 168.374 17.272 168.278 18.728H177.494ZM181.504 19.424C181.504 18.08 181.776 16.904 182.32 15.896C182.864 14.872 183.608 14.088 184.552 13.544C185.512 12.984 186.592 12.704 187.792 12.704C188.944 12.704 189.984 12.984 190.912 13.544C191.84 14.104 192.52 14.832 192.952 15.728V8.24H194.632V26H192.952V23.072C192.552 23.984 191.896 24.736 190.984 25.328C190.072 25.904 189 26.192 187.768 26.192C186.568 26.192 185.488 25.912 184.528 25.352C183.584 24.792 182.84 24 182.296 22.976C181.768 21.952 181.504 20.768 181.504 19.424ZM192.952 19.448C192.952 18.392 192.736 17.464 192.304 16.664C191.872 15.864 191.28 15.248 190.528 14.816C189.792 14.384 188.976 14.168 188.08 14.168C187.152 14.168 186.32 14.376 185.584 14.792C184.848 15.208 184.264 15.816 183.832 16.616C183.416 17.4 183.208 18.336 183.208 19.424C183.208 20.496 183.416 21.44 183.832 22.256C184.264 23.056 184.848 23.672 185.584 24.104C186.32 24.52 187.152 24.728 188.08 24.728C188.976 24.728 189.792 24.512 190.528 24.08C191.28 23.648 191.872 23.032 192.304 22.232C192.736 21.432 192.952 20.504 192.952 19.448Z" fill="#BFBFBF"/>
<path d="M106.412 61.655C107.513 61.655 108.406 60.7677 108.406 59.6732C108.406 58.5787 107.513 57.6914 106.412 57.6914C105.311 57.6914 104.418 58.5787 104.418 59.6732C104.418 60.7677 105.311 61.655 106.412 61.655Z" stroke="#DD5928" stroke-linecap="round" stroke-linejoin="round"/>
<path d="M102.016 60.5831C102.525 60.5831 102.938 60.1703 102.938 59.6611C102.938 59.1518 102.525 58.739 102.016 58.739C101.506 58.739 101.094 59.1518 101.094 59.6611C101.094 60.1703 101.506 60.5831 102.016 60.5831Z" fill="#DD5928"/>
<path d="M66.8473 60.5831C67.3566 60.5831 67.7694 60.1703 67.7694 59.6611C67.7694 59.1518 67.3566 58.739 66.8473 58.739C66.3381 58.739 65.9253 59.1518 65.9253 59.6611C65.9253 60.1703 66.3381 60.5831 66.8473 60.5831Z" fill="#DD5928"/>
<path d="M71.2437 60.5831C71.7529 60.5831 72.1658 60.1703 72.1658 59.6611C72.1658 59.1518 71.7529 58.739 71.2437 58.739C70.7345 58.739 70.3217 59.1518 70.3217 59.6611C70.3217 60.1703 70.7345 60.5831 71.2437 60.5831Z" fill="#DD5928"/>
<path d="M75.64 60.5831C76.1492 60.5831 76.5621 60.1703 76.5621 59.6611C76.5621 59.1518 76.1492 58.739 75.64 58.739C75.1308 58.739 74.718 59.1518 74.718 59.6611C74.718 60.1703 75.1308 60.5831 75.64 60.5831Z" fill="#DD5928"/>
<path d="M80.0351 60.5831C80.5444 60.5831 80.9572 60.1703 80.9572 59.6611C80.9572 59.1518 80.5444 58.739 80.0351 58.739C79.5259 58.739 79.1131 59.1518 79.1131 59.6611C79.1131 60.1703 79.5259 60.5831 80.0351 60.5831Z" fill="#DD5928"/>
<path d="M84.4314 60.5831C84.9407 60.5831 85.3535 60.1703 85.3535 59.6611C85.3535 59.1518 84.9407 58.739 84.4314 58.739C83.9222 58.739 83.5094 59.1518 83.5094 59.6611C83.5094 60.1703 83.9222 60.5831 84.4314 60.5831Z" fill="#DD5928"/>
<path d="M88.8278 60.5831C89.337 60.5831 89.7499 60.1703 89.7499 59.6611C89.7499 59.1518 89.337 58.739 88.8278 58.739C88.3186 58.739 87.9058 59.1518 87.9058 59.6611C87.9058 60.1703 88.3186 60.5831 88.8278 60.5831Z" fill="#DD5928"/>
<path d="M93.2229 60.5831C93.7321 60.5831 94.1449 60.1703 94.1449 59.6611C94.1449 59.1518 93.7321 58.739 93.2229 58.739C92.7137 58.739 92.3008 59.1518 92.3008 59.6611C92.3008 60.1703 92.7137 60.5831 93.2229 60.5831Z" fill="#DD5928"/>
<path d="M97.6193 60.5831C98.1285 60.5831 98.5413 60.1703 98.5413 59.6611C98.5413 59.1518 98.1285 58.739 97.6193 58.739C97.11 58.739 96.6972 59.1518 96.6972 59.6611C96.6972 60.1703 97.11 60.5831 97.6193 60.5831Z" fill="#DD5928"/>
<path d="M84.4314 38.9875V53.9911M102.016 44.253V53.9936V44.253ZM97.6192 44.253V53.9936V44.253ZM80.0351 44.253V53.9936V44.253ZM88.8278 44.253V53.9936V44.253ZM93.2229 44.253V53.9936V44.253ZM75.64 44.253V53.9936V44.253ZM62.451 34.5789V53.9936V34.5789ZM106.412 34.5789V53.9936V34.5789ZM66.8473 44.253V53.9936V44.253ZM71.2437 44.253V53.9936V44.253Z" stroke="#DD5928" stroke-linecap="round" stroke-linejoin="round"/>
<path d="M62.451 61.6552C63.5523 61.6552 64.4451 60.7624 64.4451 59.6611C64.4451 58.5598 63.5523 57.667 62.451 57.667C61.3497 57.667 60.4569 58.5598 60.4569 59.6611C60.4569 60.7624 61.3497 61.6552 62.451 61.6552Z" stroke="#DD5928" stroke-linecap="round" stroke-linejoin="round"/>
<path d="M150.443 61.655C151.545 61.655 152.437 60.7677 152.437 59.6732C152.437 58.5787 151.545 57.6914 150.443 57.6914C149.342 57.6914 148.449 58.5787 148.449 59.6732C148.449 60.7677 149.342 61.655 150.443 61.655Z" stroke="#DD5928" stroke-linecap="round" stroke-linejoin="round"/>
<path d="M146.047 60.5831C146.556 60.5831 146.969 60.1703 146.969 59.6611C146.969 59.1518 146.556 58.739 146.047 58.739C145.538 58.739 145.125 59.1518 145.125 59.6611C145.125 60.1703 145.538 60.5831 146.047 60.5831Z" fill="#DD5928"/>
<path d="M110.879 60.5831C111.388 60.5831 111.801 60.1703 111.801 59.6611C111.801 59.1518 111.388 58.739 110.879 58.739C110.37 58.739 109.957 59.1518 109.957 59.6611C109.957 60.1703 110.37 60.5831 110.879 60.5831Z" fill="#DD5928"/>
<path d="M115.275 60.5831C115.784 60.5831 116.197 60.1703 116.197 59.6611C116.197 59.1518 115.784 58.739 115.275 58.739C114.766 58.739 114.353 59.1518 114.353 59.6611C114.353 60.1703 114.766 60.5831 115.275 60.5831Z" fill="#DD5928"/>
<path d="M119.671 60.5831C120.181 60.5831 120.593 60.1703 120.593 59.6611C120.593 59.1518 120.181 58.739 119.671 58.739C119.162 58.739 118.749 59.1518 118.749 59.6611C118.749 60.1703 119.162 60.5831 119.671 60.5831Z" fill="#DD5928"/>
<path d="M124.067 60.5831C124.576 60.5831 124.989 60.1703 124.989 59.6611C124.989 59.1518 124.576 58.739 124.067 58.739C123.557 58.739 123.145 59.1518 123.145 59.6611C123.145 60.1703 123.557 60.5831 124.067 60.5831Z" fill="#DD5928"/>
<path d="M128.463 60.5831C128.972 60.5831 129.385 60.1703 129.385 59.6611C129.385 59.1518 128.972 58.739 128.463 58.739C127.954 58.739 127.541 59.1518 127.541 59.6611C127.541 60.1703 127.954 60.5831 128.463 60.5831Z" fill="#DD5928"/>
<path d="M132.859 60.5831C133.368 60.5831 133.781 60.1703 133.781 59.6611C133.781 59.1518 133.368 58.739 132.859 58.739C132.35 58.739 131.937 59.1518 131.937 59.6611C131.937 60.1703 132.35 60.5831 132.859 60.5831Z" fill="#DD5928"/>
<path d="M137.254 60.5831C137.764 60.5831 138.176 60.1703 138.176 59.6611C138.176 59.1518 137.764 58.739 137.254 58.739C136.745 58.739 136.332 59.1518 136.332 59.6611C136.332 60.1703 136.745 60.5831 137.254 60.5831Z" fill="#DD5928"/>
<path d="M141.651 60.5831C142.16 60.5831 142.573 60.1703 142.573 59.6611C142.573 59.1518 142.16 58.739 141.651 58.739C141.141 58.739 140.729 59.1518 140.729 59.6611C140.729 60.1703 141.141 60.5831 141.651 60.5831Z" fill="#DD5928"/>
<path d="M128.463 38.9875V53.9911M146.047 44.253V53.9936V44.253ZM141.651 44.253V53.9936V44.253ZM124.067 44.253V53.9936V44.253ZM132.859 44.253V53.9936V44.253ZM137.254 44.253V53.9936V44.253ZM119.671 44.253V53.9936V44.253ZM106.482 34.5789V53.9936V34.5789ZM150.443 34.5789V53.9936V34.5789ZM110.879 44.253V53.9936V44.253ZM115.275 44.253V53.9936V44.253Z" stroke="#DD5928" stroke-linecap="round" stroke-linejoin="round"/>
<path d="M106.482 61.6552C107.584 61.6552 108.477 60.7624 108.477 59.6611C108.477 58.5598 107.584 57.667 106.482 57.667C105.381 57.667 104.488 58.5598 104.488 59.6611C104.488 60.7624 105.381 61.6552 106.482 61.6552Z" stroke="#DD5928" stroke-linecap="round" stroke-linejoin="round"/>
<path d="M194.475 61.655C195.576 61.655 196.469 60.7677 196.469 59.6732C196.469 58.5787 195.576 57.6914 194.475 57.6914C193.373 57.6914 192.481 58.5787 192.481 59.6732C192.481 60.7677 193.373 61.655 194.475 61.655Z" stroke="#DD5928" stroke-linecap="round" stroke-linejoin="round"/>
<path d="M190.078 60.5831C190.588 60.5831 191.001 60.1703 191.001 59.6611C191.001 59.1518 190.588 58.739 190.078 58.739C189.569 58.739 189.156 59.1518 189.156 59.6611C189.156 60.1703 189.569 60.5831 190.078 60.5831Z" fill="#DD5928"/>
<path d="M154.91 60.5831C155.419 60.5831 155.832 60.1703 155.832 59.6611C155.832 59.1518 155.419 58.739 154.91 58.739C154.401 58.739 153.988 59.1518 153.988 59.6611C153.988 60.1703 154.401 60.5831 154.91 60.5831Z" fill="#DD5928"/>
<path d="M159.307 60.5831C159.816 60.5831 160.229 60.1703 160.229 59.6611C160.229 59.1518 159.816 58.739 159.307 58.739C158.797 58.739 158.385 59.1518 158.385 59.6611C158.385 60.1703 158.797 60.5831 159.307 60.5831Z" fill="#DD5928"/>
<path d="M163.703 60.5831C164.212 60.5831 164.625 60.1703 164.625 59.6611C164.625 59.1518 164.212 58.739 163.703 58.739C163.194 58.739 162.781 59.1518 162.781 59.6611C162.781 60.1703 163.194 60.5831 163.703 60.5831Z" fill="#DD5928"/>
<path d="M168.098 60.5831C168.607 60.5831 169.02 60.1703 169.02 59.6611C169.02 59.1518 168.607 58.739 168.098 58.739C167.589 58.739 167.176 59.1518 167.176 59.6611C167.176 60.1703 167.589 60.5831 168.098 60.5831Z" fill="#DD5928"/>
<path d="M172.494 60.5831C173.004 60.5831 173.416 60.1703 173.416 59.6611C173.416 59.1518 173.004 58.739 172.494 58.739C171.985 58.739 171.572 59.1518 171.572 59.6611C171.572 60.1703 171.985 60.5831 172.494 60.5831Z" fill="#DD5928"/>
<path d="M176.891 60.5831C177.4 60.5831 177.813 60.1703 177.813 59.6611C177.813 59.1518 177.4 58.739 176.891 58.739C176.381 58.739 175.969 59.1518 175.969 59.6611C175.969 60.1703 176.381 60.5831 176.891 60.5831Z" fill="#DD5928"/>
<path d="M181.286 60.5831C181.795 60.5831 182.208 60.1703 182.208 59.6611C182.208 59.1518 181.795 58.739 181.286 58.739C180.777 58.739 180.364 59.1518 180.364 59.6611C180.364 60.1703 180.777 60.5831 181.286 60.5831Z" fill="#DD5928"/>
<path d="M185.682 60.5831C186.191 60.5831 186.604 60.1703 186.604 59.6611C186.604 59.1518 186.191 58.739 185.682 58.739C185.173 58.739 184.76 59.1518 184.76 59.6611C184.76 60.1703 185.173 60.5831 185.682 60.5831Z" fill="#DD5928"/>
<path d="M172.494 38.9875V53.9911M190.078 44.253V53.9936V44.253ZM185.682 44.253V53.9936V44.253ZM168.098 44.253V53.9936V44.253ZM176.891 44.253V53.9936V44.253ZM181.286 44.253V53.9936V44.253ZM163.703 44.253V53.9936V44.253ZM150.514 34.5789V53.9936V34.5789ZM194.475 34.5789V53.9936V34.5789ZM154.91 44.253V53.9936V44.253ZM159.307 44.253V53.9936V44.253Z" stroke="#DD5928" stroke-linecap="round" stroke-linejoin="round"/>
<path d="M150.514 61.6552C151.615 61.6552 152.508 60.7624 152.508 59.6611C152.508 58.5598 151.615 57.667 150.514 57.667C149.413 57.667 148.52 58.5598 148.52 59.6611C148.52 60.7624 149.413 61.6552 150.514 61.6552Z" stroke="#DD5928" stroke-linecap="round" stroke-linejoin="round"/>
<path d="M9.67142 44.9447C9.67142 44.1047 9.84142 43.3697 10.1814 42.7397C10.5214 42.0997 10.9864 41.6097 11.5764 41.2697C12.1764 40.9197 12.8514 40.7447 13.6014 40.7447C14.3214 40.7447 14.9714 40.9197 15.5514 41.2697C16.1314 41.6197 16.5564 42.0747 16.8264 42.6347V37.9547H17.8764V49.0547H16.8264V47.2247C16.5764 47.7947 16.1664 48.2647 15.5964 48.6347C15.0264 48.9947 14.3564 49.1747 13.5864 49.1747C12.8364 49.1747 12.1614 48.9997 11.5614 48.6497C10.9714 48.2997 10.5064 47.8047 10.1664 47.1647C9.83642 46.5247 9.67142 45.7847 9.67142 44.9447ZM16.8264 44.9597C16.8264 44.2997 16.6914 43.7197 16.4214 43.2197C16.1514 42.7197 15.7814 42.3347 15.3114 42.0647C14.8514 41.7947 14.3414 41.6597 13.7814 41.6597C13.2014 41.6597 12.6814 41.7897 12.2214 42.0497C11.7614 42.3097 11.3964 42.6897 11.1264 43.1897C10.8664 43.6797 10.7364 44.2647 10.7364 44.9447C10.7364 45.6147 10.8664 46.2047 11.1264 46.7147C11.3964 47.2147 11.7614 47.5997 12.2214 47.8697C12.6814 48.1297 13.2014 48.2597 13.7814 48.2597C14.3414 48.2597 14.8514 48.1247 15.3114 47.8547C15.7814 47.5847 16.1514 47.1997 16.4214 46.6997C16.6914 46.1997 16.8264 45.6197 16.8264 44.9597ZM19.7935 44.9447C19.7935 44.1047 19.9585 43.3697 20.2885 42.7397C20.6285 42.0997 21.0935 41.6097 21.6835 41.2697C22.2835 40.9197 22.9585 40.7447 23.7085 40.7447C24.4885 40.7447 25.1585 40.9247 25.7185 41.2847C26.2885 41.6447 26.6985 42.1047 26.9485 42.6647V40.8647H27.9985V49.0547H26.9485V47.2397C26.6885 47.7997 26.2735 48.2647 25.7035 48.6347C25.1435 48.9947 24.4735 49.1747 23.6935 49.1747C22.9535 49.1747 22.2835 48.9997 21.6835 48.6497C21.0935 48.2997 20.6285 47.8047 20.2885 47.1647C19.9585 46.5247 19.7935 45.7847 19.7935 44.9447ZM26.9485 44.9597C26.9485 44.2997 26.8135 43.7197 26.5435 43.2197C26.2735 42.7197 25.9035 42.3347 25.4335 42.0647C24.9735 41.7947 24.4635 41.6597 23.9035 41.6597C23.3235 41.6597 22.8035 41.7897 22.3435 42.0497C21.8835 42.3097 21.5185 42.6897 21.2485 43.1897C20.9885 43.6797 20.8585 44.2647 20.8585 44.9447C20.8585 45.6147 20.9885 46.2047 21.2485 46.7147C21.5185 47.2147 21.8835 47.5997 22.3435 47.8697C22.8035 48.1297 23.3235 48.2597 23.9035 48.2597C24.4635 48.2597 24.9735 48.1247 25.4335 47.8547C25.9035 47.5847 26.2735 47.1997 26.5435 46.6997C26.8135 46.1997 26.9485 45.6197 26.9485 44.9597ZM31.7606 41.7497V46.8347C31.7606 47.3347 31.8556 47.6797 32.0456 47.8697C32.2356 48.0597 32.5706 48.1547 33.0506 48.1547H34.0106V49.0547H32.8856C32.1456 49.0547 31.5956 48.8847 31.2356 48.5447C30.8756 48.1947 30.6956 47.6247 30.6956 46.8347V41.7497H29.5556V40.8647H30.6956V38.8097H31.7606V40.8647H34.0106V41.7497H31.7606ZM35.2622 44.9447C35.2622 44.1047 35.4272 43.3697 35.7572 42.7397C36.0972 42.0997 36.5622 41.6097 37.1522 41.2697C37.7522 40.9197 38.4272 40.7447 39.1772 40.7447C39.9572 40.7447 40.6272 40.9247 41.1872 41.2847C41.7572 41.6447 42.1672 42.1047 42.4172 42.6647V40.8647H43.4672V49.0547H42.4172V47.2397C42.1572 47.7997 41.7422 48.2647 41.1722 48.6347C40.6122 48.9947 39.9422 49.1747 39.1622 49.1747C38.4222 49.1747 37.7522 48.9997 37.1522 48.6497C36.5622 48.2997 36.0972 47.8047 35.7572 47.1647C35.4272 46.5247 35.2622 45.7847 35.2622 44.9447ZM42.4172 44.9597C42.4172 44.2997 42.2822 43.7197 42.0122 43.2197C41.7422 42.7197 41.3722 42.3347 40.9022 42.0647C40.4422 41.7947 39.9322 41.6597 39.3722 41.6597C38.7922 41.6597 38.2722 41.7897 37.8122 42.0497C37.3522 42.3097 36.9872 42.6897 36.7172 43.1897C36.4572 43.6797 36.3272 44.2647 36.3272 44.9447C36.3272 45.6147 36.4572 46.2047 36.7172 46.7147C36.9872 47.2147 37.3522 47.5997 37.8122 47.8697C38.2722 48.1297 38.7922 48.2597 39.3722 48.2597C39.9322 48.2597 40.4422 48.1247 40.9022 47.8547C41.3722 47.5847 41.7422 47.1997 42.0122 46.6997C42.2822 46.1997 42.4172 45.6197 42.4172 44.9597Z" fill="#DD5928"/>
<line x1="3.86188" y1="29.2324" x2="3.86188" y2="57.8302" stroke="#DD5928" stroke-width="5"/>
<line x1="9.53253" y1="31.7324" x2="1.36174" y2="31.7324" stroke="#DD5928" stroke-width="5"/>
<line x1="9.53253" y1="58.5144" x2="1.36174" y2="58.5144" stroke="#DD5928" stroke-width="5"/>
<line x1="49.2483" y1="61.281" x2="49.2483" y2="32.6833" stroke="#DD5928" stroke-width="5"/>
<line x1="43.5775" y1="58.781" x2="51.7482" y2="58.781" stroke="#DD5928" stroke-width="5"/>
<line x1="43.5775" y1="31.999" x2="51.7482" y2="31.999" stroke="#DD5928" stroke-width="5"/>
</svg>
