<svg width="360" height="305" viewBox="0 0 360 305" fill="none" xmlns="http://www.w3.org/2000/svg">
<g filter="url(#filter0_d_72_267)">
<rect x="36" y="40" width="138.576" height="56.6667" rx="10" fill="white"/>
</g>
<path d="M95.1512 69.2705V74.5605C95.1512 75.0938 94.9879 75.5238 94.6612 75.8505C94.3345 76.1705 93.8979 76.3305 93.3512 76.3305C92.7845 76.3305 92.3312 76.1605 91.9912 75.8205C91.6579 75.4738 91.4912 75.0072 91.4912 74.4205H92.2012C92.2079 74.8005 92.3012 75.1105 92.4812 75.3505C92.6679 75.5905 92.9579 75.7105 93.3512 75.7105C93.7245 75.7105 94.0012 75.6005 94.1812 75.3805C94.3612 75.1605 94.4512 74.8872 94.4512 74.5605V69.2705H95.1512ZM99.3015 76.3405C98.7881 76.3405 98.3248 76.2272 97.9115 76.0005C97.5048 75.7672 97.1815 75.4405 96.9415 75.0205C96.7081 74.5938 96.5915 74.0972 96.5915 73.5305C96.5915 72.9638 96.7115 72.4705 96.9515 72.0505C97.1915 71.6238 97.5181 71.2972 97.9315 71.0705C98.3448 70.8372 98.8081 70.7205 99.3215 70.7205C99.8348 70.7205 100.298 70.8372 100.711 71.0705C101.131 71.2972 101.458 71.6238 101.691 72.0505C101.931 72.4705 102.051 72.9638 102.051 73.5305C102.051 74.0905 101.931 74.5838 101.691 75.0105C101.451 75.4372 101.121 75.7672 100.701 76.0005C100.281 76.2272 99.8148 76.3405 99.3015 76.3405ZM99.3015 75.7305C99.6615 75.7305 99.9948 75.6505 100.301 75.4905C100.608 75.3238 100.855 75.0772 101.041 74.7505C101.235 74.4172 101.331 74.0105 101.331 73.5305C101.331 73.0505 101.238 72.6472 101.051 72.3205C100.865 71.9872 100.618 71.7405 100.311 71.5805C100.005 71.4138 99.6715 71.3305 99.3115 71.3305C98.9515 71.3305 98.6181 71.4138 98.3115 71.5805C98.0048 71.7405 97.7581 71.9872 97.5715 72.3205C97.3915 72.6472 97.3015 73.0505 97.3015 73.5305C97.3015 74.0105 97.3915 74.4172 97.5715 74.7505C97.7581 75.0772 98.0015 75.3238 98.3015 75.4905C98.6081 75.6505 98.9415 75.7305 99.3015 75.7305ZM105.927 70.7005C106.341 70.7005 106.711 70.7872 107.037 70.9605C107.371 71.1338 107.631 71.4005 107.817 71.7605C108.011 72.1138 108.107 72.5472 108.107 73.0605V76.2605H107.417V73.1405C107.417 72.5472 107.267 72.0938 106.967 71.7805C106.674 71.4672 106.271 71.3105 105.757 71.3105C105.231 71.3105 104.811 71.4772 104.497 71.8105C104.184 72.1438 104.027 72.6338 104.027 73.2805V76.2605H103.327V68.8605H104.027V71.7305C104.201 71.4038 104.454 71.1505 104.787 70.9705C105.127 70.7905 105.507 70.7005 105.927 70.7005ZM112.216 70.7005C112.869 70.7005 113.402 70.9038 113.816 71.3105C114.229 71.7105 114.436 72.2938 114.436 73.0605V76.2605H113.746V73.1405C113.746 72.5472 113.596 72.0938 113.296 71.7805C113.002 71.4672 112.599 71.3105 112.086 71.3105C111.559 71.3105 111.139 71.4772 110.826 71.8105C110.512 72.1438 110.356 72.6338 110.356 73.2805V76.2605H109.656V70.8005H110.356V71.7305C110.529 71.3972 110.779 71.1438 111.106 70.9705C111.432 70.7905 111.802 70.7005 112.216 70.7005ZM123.198 71.2805C123.198 71.8805 123.001 72.3638 122.608 72.7305C122.215 73.0972 121.625 73.2805 120.838 73.2805H119.428V76.2605H118.728V69.2705H120.838C121.618 69.2705 122.205 69.4538 122.598 69.8205C122.998 70.1872 123.198 70.6738 123.198 71.2805ZM120.838 72.6805C121.931 72.6805 122.478 72.2138 122.478 71.2805C122.478 70.8138 122.348 70.4605 122.088 70.2205C121.828 69.9805 121.411 69.8605 120.838 69.8605H119.428V72.6805H120.838ZM124.052 73.5205C124.052 72.9605 124.162 72.4705 124.382 72.0505C124.609 71.6238 124.919 71.2972 125.312 71.0705C125.712 70.8372 126.162 70.7205 126.662 70.7205C127.182 70.7205 127.629 70.8405 128.002 71.0805C128.382 71.3205 128.656 71.6272 128.822 72.0005V70.8005H129.522V76.2605H128.822V75.0505C128.649 75.4238 128.372 75.7338 127.992 75.9805C127.619 76.2205 127.172 76.3405 126.652 76.3405C126.159 76.3405 125.712 76.2238 125.312 75.9905C124.919 75.7572 124.609 75.4272 124.382 75.0005C124.162 74.5738 124.052 74.0805 124.052 73.5205ZM128.822 73.5305C128.822 73.0905 128.732 72.7038 128.552 72.3705C128.372 72.0372 128.126 71.7805 127.812 71.6005C127.506 71.4205 127.166 71.3305 126.792 71.3305C126.406 71.3305 126.059 71.4172 125.752 71.5905C125.446 71.7638 125.202 72.0172 125.022 72.3505C124.849 72.6772 124.762 73.0672 124.762 73.5205C124.762 73.9672 124.849 74.3605 125.022 74.7005C125.202 75.0338 125.446 75.2905 125.752 75.4705C126.059 75.6438 126.406 75.7305 126.792 75.7305C127.166 75.7305 127.506 75.6405 127.812 75.4605C128.126 75.2805 128.372 75.0238 128.552 74.6905C128.732 74.3572 128.822 73.9705 128.822 73.5305ZM131.82 71.7705C131.974 71.4305 132.207 71.1672 132.52 70.9805C132.84 70.7938 133.23 70.7005 133.69 70.7005V71.4305H133.5C132.994 71.4305 132.587 71.5672 132.28 71.8405C131.974 72.1138 131.82 72.5705 131.82 73.2105V76.2605H131.12V70.8005H131.82V71.7705ZM137.693 76.2605L135.443 73.8105V76.2605H134.743V68.8605H135.443V73.2405L137.643 70.8005H138.623L136.033 73.5205L138.643 76.2605H137.693ZM144.488 73.2505C144.488 73.4905 144.482 73.6738 144.468 73.8005H139.938C139.958 74.2138 140.058 74.5672 140.238 74.8605C140.418 75.1538 140.655 75.3772 140.948 75.5305C141.242 75.6772 141.562 75.7505 141.908 75.7505C142.362 75.7505 142.742 75.6405 143.048 75.4205C143.362 75.2005 143.568 74.9038 143.668 74.5305H144.408C144.275 75.0638 143.988 75.5005 143.548 75.8405C143.115 76.1738 142.568 76.3405 141.908 76.3405C141.395 76.3405 140.935 76.2272 140.528 76.0005C140.122 75.7672 139.802 75.4405 139.568 75.0205C139.342 74.5938 139.228 74.0972 139.228 73.5305C139.228 72.9638 139.342 72.4672 139.568 72.0405C139.795 71.6138 140.112 71.2872 140.518 71.0605C140.925 70.8338 141.388 70.7205 141.908 70.7205C142.428 70.7205 142.882 70.8338 143.268 71.0605C143.662 71.2872 143.962 71.5938 144.168 71.9805C144.382 72.3605 144.488 72.7838 144.488 73.2505ZM143.778 73.2305C143.785 72.8238 143.702 72.4772 143.528 72.1905C143.362 71.9038 143.132 71.6872 142.838 71.5405C142.545 71.3938 142.225 71.3205 141.878 71.3205C141.358 71.3205 140.915 71.4872 140.548 71.8205C140.182 72.1538 139.978 72.6238 139.938 73.2305H143.778ZM146.469 71.7705C146.622 71.4305 146.856 71.1672 147.169 70.9805C147.489 70.7938 147.879 70.7005 148.339 70.7005V71.4305H148.149C147.642 71.4305 147.236 71.5672 146.929 71.8405C146.622 72.1138 146.469 72.5705 146.469 73.2105V76.2605H145.769V70.8005H146.469V71.7705Z" fill="#DD5928"/>
<path d="M97.8858 52.3676C98.8005 52.3676 99.5472 52.6523 100.126 53.2216C100.704 53.7816 100.994 54.5983 100.994 55.6716V60.1516H100.028V55.7836C100.028 54.9529 99.8178 54.3183 99.3978 53.8796C98.9872 53.4409 98.4225 53.2216 97.7038 53.2216C96.9665 53.2216 96.3785 53.4549 95.9398 53.9216C95.5012 54.3883 95.2818 55.0743 95.2818 55.9796V60.1516H94.3018V52.5076H95.2818V53.8096C95.5245 53.3429 95.8745 52.9883 96.3318 52.7456C96.7892 52.4936 97.3072 52.3676 97.8858 52.3676ZM102.713 56.3156C102.713 55.5316 102.867 54.8456 103.175 54.2576C103.493 53.6603 103.927 53.2029 104.477 52.8856C105.037 52.5589 105.667 52.3956 106.367 52.3956C107.095 52.3956 107.721 52.5636 108.243 52.8996C108.775 53.2356 109.158 53.6649 109.391 54.1876V52.5076H110.371V60.1516H109.391V58.4576C109.149 58.9803 108.761 59.4143 108.229 59.7596C107.707 60.0956 107.081 60.2636 106.353 60.2636C105.663 60.2636 105.037 60.1003 104.477 59.7736C103.927 59.4469 103.493 58.9849 103.175 58.3876C102.867 57.7903 102.713 57.0996 102.713 56.3156ZM109.391 56.3296C109.391 55.7136 109.265 55.1723 109.013 54.7056C108.761 54.2389 108.416 53.8796 107.977 53.6276C107.548 53.3756 107.072 53.2496 106.549 53.2496C106.008 53.2496 105.523 53.3709 105.093 53.6136C104.664 53.8563 104.323 54.2109 104.071 54.6776C103.829 55.1349 103.707 55.6809 103.707 56.3156C103.707 56.9409 103.829 57.4916 104.071 57.9676C104.323 58.4343 104.664 58.7936 105.093 59.0456C105.523 59.2883 106.008 59.4096 106.549 59.4096C107.072 59.4096 107.548 59.2836 107.977 59.0316C108.416 58.7796 108.761 58.4203 109.013 57.9536C109.265 57.4869 109.391 56.9456 109.391 56.3296ZM121.708 52.3676C122.604 52.3676 123.332 52.6523 123.892 53.2216C124.462 53.7816 124.746 54.5983 124.746 55.6716V60.1516H123.78V55.7836C123.78 54.9529 123.58 54.3183 123.178 53.8796C122.777 53.4409 122.231 53.2216 121.54 53.2216C120.822 53.2216 120.248 53.4596 119.818 53.9356C119.389 54.4116 119.174 55.1023 119.174 56.0076V60.1516H118.208V55.7836C118.208 54.9529 118.008 54.3183 117.606 53.8796C117.205 53.4409 116.654 53.2216 115.954 53.2216C115.236 53.2216 114.662 53.4596 114.232 53.9356C113.803 54.4116 113.588 55.1023 113.588 56.0076V60.1516H112.608V52.5076H113.588V53.8236C113.831 53.3476 114.176 52.9883 114.624 52.7456C115.072 52.4936 115.572 52.3676 116.122 52.3676C116.785 52.3676 117.364 52.5263 117.858 52.8436C118.362 53.1609 118.726 53.6276 118.95 54.2436C119.156 53.6369 119.506 53.1749 120 52.8576C120.504 52.5309 121.074 52.3676 121.708 52.3676ZM133.839 55.9376C133.839 56.2736 133.83 56.5303 133.811 56.7076H127.469C127.497 57.2863 127.637 57.7809 127.889 58.1916C128.141 58.6023 128.472 58.9149 128.883 59.1296C129.294 59.3349 129.742 59.4376 130.227 59.4376C130.862 59.4376 131.394 59.2836 131.823 58.9756C132.262 58.6676 132.551 58.2523 132.691 57.7296H133.727C133.54 58.4763 133.139 59.0876 132.523 59.5636C131.916 60.0303 131.151 60.2636 130.227 60.2636C129.508 60.2636 128.864 60.1049 128.295 59.7876C127.726 59.4609 127.278 59.0036 126.951 58.4156C126.634 57.8183 126.475 57.1229 126.475 56.3296C126.475 55.5363 126.634 54.8409 126.951 54.2436C127.268 53.6463 127.712 53.1889 128.281 52.8716C128.85 52.5543 129.499 52.3956 130.227 52.3956C130.955 52.3956 131.59 52.5543 132.131 52.8716C132.682 53.1889 133.102 53.6183 133.391 54.1596C133.69 54.6916 133.839 55.2843 133.839 55.9376ZM132.845 55.9096C132.854 55.3403 132.738 54.8549 132.495 54.4536C132.262 54.0523 131.94 53.7489 131.529 53.5436C131.118 53.3383 130.67 53.2356 130.185 53.2356C129.457 53.2356 128.836 53.4689 128.323 53.9356C127.81 54.4023 127.525 55.0603 127.469 55.9096H132.845Z" fill="#BFBFBF"/>
<path fill-rule="evenodd" clip-rule="evenodd" d="M66.6516 79.0871C74.4399 79.0871 80.7538 72.7732 80.7538 64.9849C80.7538 57.1965 74.4399 50.8826 66.6516 50.8826C58.8632 50.8826 52.5493 57.1965 52.5493 64.9849C52.5493 72.7732 58.8632 79.0871 66.6516 79.0871ZM66.6516 80.6541C75.3056 80.6541 82.3207 73.639 82.3207 64.9849C82.3207 56.3308 75.3056 49.3157 66.6516 49.3157C57.9975 49.3157 50.9824 56.3308 50.9824 64.9849C50.9824 73.639 57.9975 80.6541 66.6516 80.6541Z" fill="#DD5928"/>
<path d="M57.2501 74.0965C57.2501 73.2871 57.8549 72.6032 58.6603 72.5139C64.7047 71.8448 68.6259 71.9051 74.657 72.5288C74.9581 72.5604 75.2436 72.679 75.4784 72.8702C75.7133 73.0614 75.8874 73.3168 75.9794 73.6053C76.0715 73.8938 76.0775 74.2029 75.9969 74.4947C75.9162 74.7866 75.7522 75.0487 75.525 75.2489C68.4073 81.4531 64.3396 81.3677 57.7515 75.2552C57.4303 74.9575 57.2501 74.5344 57.2501 74.0972V74.0965Z" fill="#DD5928"/>
<path fill-rule="evenodd" clip-rule="evenodd" d="M74.5762 73.3077C68.5929 72.6887 64.7281 72.6308 58.7456 73.2928C58.5487 73.3157 58.3672 73.4105 58.2358 73.559C58.1044 73.7074 58.0323 73.8991 58.0335 74.0974C58.0335 74.3215 58.1267 74.5338 58.2842 74.6811C61.5496 77.7099 64.0238 79.0786 66.4423 79.0872C68.8695 79.0959 71.4769 77.7381 75.0103 74.6591C75.1225 74.5592 75.2033 74.4289 75.2429 74.2839C75.2824 74.1389 75.279 73.9855 75.233 73.8425C75.187 73.6994 75.1005 73.5728 74.9839 73.478C74.8673 73.3832 74.7257 73.3243 74.5762 73.3084V73.3077ZM58.5741 71.7353C64.6819 71.0591 68.6603 71.1202 74.7384 71.7494C75.1915 71.7967 75.6209 71.975 75.9742 72.2626C76.3275 72.5502 76.5892 72.9346 76.7274 73.3687C76.8656 73.8028 76.8742 74.2677 76.7522 74.7066C76.6302 75.1455 76.3829 75.5393 76.0405 75.8398C72.4562 78.9642 69.4712 80.6659 66.4376 80.6542C63.3955 80.6432 60.5421 78.9125 57.2195 75.8296C56.9816 75.608 56.7919 75.3398 56.6624 75.0416C56.5328 74.7434 56.4662 74.4217 56.4666 74.0966C56.4654 73.5125 56.6798 72.9485 57.0687 72.5126C57.4576 72.0767 57.9936 71.7997 58.5741 71.7345V71.7353Z" fill="#DD5928"/>
<path d="M72.9192 61.8509C72.9192 63.5132 72.2589 65.1074 71.0834 66.2828C69.908 67.4583 68.3138 68.1186 66.6515 68.1186C64.9892 68.1186 63.395 67.4583 62.2196 66.2828C61.0442 65.1074 60.3839 63.5132 60.3839 61.8509C60.3839 60.1886 61.0442 58.5944 62.2196 57.419C63.395 56.2436 64.9892 55.5833 66.6515 55.5833C68.3138 55.5833 69.908 56.2436 71.0834 57.419C72.2589 58.5944 72.9192 60.1886 72.9192 61.8509Z" fill="#DD5928"/>
<path fill-rule="evenodd" clip-rule="evenodd" d="M66.6515 66.5517C67.8982 66.5517 69.0939 66.0564 69.9755 65.1749C70.857 64.2933 71.3523 63.0976 71.3523 61.8509C71.3523 60.6042 70.857 59.4086 69.9755 58.527C69.0939 57.6454 67.8982 57.1502 66.6515 57.1502C65.4048 57.1502 64.2092 57.6454 63.3276 58.527C62.446 59.4086 61.9508 60.6042 61.9508 61.8509C61.9508 63.0976 62.446 64.2933 63.3276 65.1749C64.2092 66.0564 65.4048 66.5517 66.6515 66.5517ZM66.6515 68.1186C68.3138 68.1186 69.908 67.4583 71.0834 66.2828C72.2589 65.1074 72.9192 63.5132 72.9192 61.8509C72.9192 60.1886 72.2589 58.5944 71.0834 57.419C69.908 56.2436 68.3138 55.5833 66.6515 55.5833C64.9892 55.5833 63.395 56.2436 62.2196 57.419C61.0442 58.5944 60.3839 60.1886 60.3839 61.8509C60.3839 63.5132 61.0442 65.1074 62.2196 66.2828C63.395 67.4583 64.9892 68.1186 66.6515 68.1186Z" fill="#DD5928"/>
<g filter="url(#filter1_d_72_267)">
<rect x="39.0001" y="120" width="120" height="105" rx="10" fill="white"/>
</g>
<path d="M82.09 207.46C82.6033 207.46 83.05 207.58 83.43 207.82C83.81 208.06 84.0833 208.363 84.25 208.73V207.54H84.95V213.14C84.95 213.64 84.84 214.083 84.62 214.47C84.4067 214.857 84.1067 215.153 83.72 215.36C83.3333 215.573 82.8933 215.68 82.4 215.68C81.7 215.68 81.1167 215.513 80.65 215.18C80.19 214.847 79.9033 214.393 79.79 213.82H80.48C80.6 214.2 80.8267 214.503 81.16 214.73C81.5 214.957 81.9133 215.07 82.4 215.07C82.7533 215.07 83.07 214.993 83.35 214.84C83.63 214.693 83.85 214.473 84.01 214.18C84.17 213.887 84.25 213.54 84.25 213.14V211.79C84.0767 212.163 83.8 212.473 83.42 212.72C83.0467 212.96 82.6033 213.08 82.09 213.08C81.59 213.08 81.14 212.963 80.74 212.73C80.3467 212.497 80.0367 212.167 79.81 211.74C79.59 211.313 79.48 210.82 79.48 210.26C79.48 209.7 79.59 209.21 79.81 208.79C80.0367 208.363 80.3467 208.037 80.74 207.81C81.14 207.577 81.59 207.46 82.09 207.46ZM84.25 210.27C84.25 209.83 84.16 209.443 83.98 209.11C83.8 208.777 83.5533 208.52 83.24 208.34C82.9333 208.16 82.5933 208.07 82.22 208.07C81.8333 208.07 81.4867 208.157 81.18 208.33C80.8733 208.503 80.63 208.757 80.45 209.09C80.2767 209.417 80.19 209.807 80.19 210.26C80.19 210.707 80.2767 211.1 80.45 211.44C80.63 211.773 80.8733 212.03 81.18 212.21C81.4867 212.383 81.8333 212.47 82.22 212.47C82.5933 212.47 82.9333 212.38 83.24 212.2C83.5533 212.02 83.8 211.763 83.98 211.43C84.16 211.097 84.25 210.71 84.25 210.27ZM88.938 213.08C88.4247 213.08 87.9614 212.967 87.548 212.74C87.1414 212.507 86.818 212.18 86.578 211.76C86.3447 211.333 86.228 210.837 86.228 210.27C86.228 209.703 86.348 209.21 86.588 208.79C86.828 208.363 87.1547 208.037 87.568 207.81C87.9814 207.577 88.4447 207.46 88.958 207.46C89.4714 207.46 89.9347 207.577 90.348 207.81C90.768 208.037 91.0947 208.363 91.328 208.79C91.568 209.21 91.688 209.703 91.688 210.27C91.688 210.83 91.568 211.323 91.328 211.75C91.088 212.177 90.758 212.507 90.338 212.74C89.918 212.967 89.4514 213.08 88.938 213.08ZM88.938 212.47C89.298 212.47 89.6314 212.39 89.938 212.23C90.2447 212.063 90.4914 211.817 90.678 211.49C90.8714 211.157 90.968 210.75 90.968 210.27C90.968 209.79 90.8747 209.387 90.688 209.06C90.5014 208.727 90.2547 208.48 89.948 208.32C89.6414 208.153 89.308 208.07 88.948 208.07C88.588 208.07 88.2547 208.153 87.948 208.32C87.6414 208.48 87.3947 208.727 87.208 209.06C87.028 209.387 86.938 209.79 86.938 210.27C86.938 210.75 87.028 211.157 87.208 211.49C87.3947 211.817 87.638 212.063 87.938 212.23C88.2447 212.39 88.578 212.47 88.938 212.47ZM95.3541 213.08C94.8407 213.08 94.3774 212.967 93.9641 212.74C93.5574 212.507 93.2341 212.18 92.9941 211.76C92.7607 211.333 92.6441 210.837 92.6441 210.27C92.6441 209.703 92.7641 209.21 93.0041 208.79C93.2441 208.363 93.5707 208.037 93.9841 207.81C94.3974 207.577 94.8607 207.46 95.3741 207.46C95.8874 207.46 96.3507 207.577 96.7641 207.81C97.1841 208.037 97.5107 208.363 97.7441 208.79C97.9841 209.21 98.1041 209.703 98.1041 210.27C98.1041 210.83 97.9841 211.323 97.7441 211.75C97.5041 212.177 97.1741 212.507 96.7541 212.74C96.3341 212.967 95.8674 213.08 95.3541 213.08ZM95.3541 212.47C95.7141 212.47 96.0474 212.39 96.3541 212.23C96.6607 212.063 96.9074 211.817 97.0941 211.49C97.2874 211.157 97.3841 210.75 97.3841 210.27C97.3841 209.79 97.2907 209.387 97.1041 209.06C96.9174 208.727 96.6707 208.48 96.3641 208.32C96.0574 208.153 95.7241 208.07 95.3641 208.07C95.0041 208.07 94.6707 208.153 94.3641 208.32C94.0574 208.48 93.8107 208.727 93.6241 209.06C93.4441 209.387 93.3541 209.79 93.3541 210.27C93.3541 210.75 93.4441 211.157 93.6241 211.49C93.8107 211.817 94.0541 212.063 94.3541 212.23C94.6607 212.39 94.9941 212.47 95.3541 212.47ZM101.67 207.46C102.183 207.46 102.63 207.58 103.01 207.82C103.39 208.06 103.663 208.363 103.83 208.73V207.54H104.53V213.14C104.53 213.64 104.42 214.083 104.2 214.47C103.987 214.857 103.687 215.153 103.3 215.36C102.913 215.573 102.473 215.68 101.98 215.68C101.28 215.68 100.697 215.513 100.23 215.18C99.7701 214.847 99.4834 214.393 99.3701 213.82H100.06C100.18 214.2 100.407 214.503 100.74 214.73C101.08 214.957 101.493 215.07 101.98 215.07C102.333 215.07 102.65 214.993 102.93 214.84C103.21 214.693 103.43 214.473 103.59 214.18C103.75 213.887 103.83 213.54 103.83 213.14V211.79C103.657 212.163 103.38 212.473 103 212.72C102.627 212.96 102.183 213.08 101.67 213.08C101.17 213.08 100.72 212.963 100.32 212.73C99.9267 212.497 99.6167 212.167 99.3901 211.74C99.1701 211.313 99.0601 210.82 99.0601 210.26C99.0601 209.7 99.1701 209.21 99.3901 208.79C99.6167 208.363 99.9267 208.037 100.32 207.81C100.72 207.577 101.17 207.46 101.67 207.46ZM103.83 210.27C103.83 209.83 103.74 209.443 103.56 209.11C103.38 208.777 103.133 208.52 102.82 208.34C102.513 208.16 102.173 208.07 101.8 208.07C101.413 208.07 101.067 208.157 100.76 208.33C100.453 208.503 100.21 208.757 100.03 209.09C99.8567 209.417 99.7701 209.807 99.7701 210.26C99.7701 210.707 99.8567 211.1 100.03 211.44C100.21 211.773 100.453 212.03 100.76 212.21C101.067 212.383 101.413 212.47 101.8 212.47C102.173 212.47 102.513 212.38 102.82 212.2C103.133 212.02 103.38 211.763 103.56 211.43C103.74 211.097 103.83 210.71 103.83 210.27ZM106.828 205.6V213H106.128V205.6H106.828ZM113.353 209.99C113.353 210.23 113.347 210.413 113.333 210.54H108.803C108.823 210.953 108.923 211.307 109.103 211.6C109.283 211.893 109.52 212.117 109.813 212.27C110.107 212.417 110.427 212.49 110.773 212.49C111.227 212.49 111.607 212.38 111.913 212.16C112.227 211.94 112.433 211.643 112.533 211.27H113.273C113.14 211.803 112.853 212.24 112.413 212.58C111.98 212.913 111.433 213.08 110.773 213.08C110.26 213.08 109.8 212.967 109.393 212.74C108.987 212.507 108.667 212.18 108.433 211.76C108.207 211.333 108.093 210.837 108.093 210.27C108.093 209.703 108.207 209.207 108.433 208.78C108.66 208.353 108.977 208.027 109.383 207.8C109.79 207.573 110.253 207.46 110.773 207.46C111.293 207.46 111.747 207.573 112.133 207.8C112.527 208.027 112.827 208.333 113.033 208.72C113.247 209.1 113.353 209.523 113.353 209.99ZM112.643 209.97C112.65 209.563 112.567 209.217 112.393 208.93C112.227 208.643 111.997 208.427 111.703 208.28C111.41 208.133 111.09 208.06 110.743 208.06C110.223 208.06 109.78 208.227 109.413 208.56C109.047 208.893 108.843 209.363 108.803 209.97H112.643Z" fill="#DD5928"/>
<path d="M64.672 134.178C64.672 133.385 64.8307 132.694 65.148 132.106C65.4653 131.509 65.904 131.051 66.464 130.734C67.024 130.407 67.6633 130.244 68.382 130.244C69.3247 130.244 70.0993 130.477 70.706 130.944C71.322 131.411 71.7187 132.045 71.896 132.848H70.846C70.7153 132.297 70.4307 131.868 69.992 131.56C69.5627 131.243 69.026 131.084 68.382 131.084C67.8687 131.084 67.4067 131.201 66.996 131.434C66.5853 131.667 66.2587 132.017 66.016 132.484C65.7827 132.941 65.666 133.506 65.666 134.178C65.666 134.85 65.7827 135.419 66.016 135.886C66.2587 136.353 66.5853 136.703 66.996 136.936C67.4067 137.169 67.8687 137.286 68.382 137.286C69.026 137.286 69.5627 137.132 69.992 136.824C70.4307 136.507 70.7153 136.068 70.846 135.508H71.896C71.7187 136.292 71.322 136.922 70.706 137.398C70.09 137.874 69.3153 138.112 68.382 138.112C67.6633 138.112 67.024 137.953 66.464 137.636C65.904 137.309 65.4653 136.852 65.148 136.264C64.8307 135.667 64.672 134.971 64.672 134.178ZM77.0519 138.112C76.3333 138.112 75.6846 137.953 75.1059 137.636C74.5366 137.309 74.0839 136.852 73.7479 136.264C73.4213 135.667 73.2579 134.971 73.2579 134.178C73.2579 133.385 73.4259 132.694 73.7619 132.106C74.0979 131.509 74.5553 131.051 75.1339 130.734C75.7126 130.407 76.3613 130.244 77.0799 130.244C77.7986 130.244 78.4473 130.407 79.0259 130.734C79.6139 131.051 80.0713 131.509 80.3979 132.106C80.7339 132.694 80.9019 133.385 80.9019 134.178C80.9019 134.962 80.7339 135.653 80.3979 136.25C80.0619 136.847 79.5999 137.309 79.0119 137.636C78.4239 137.953 77.7706 138.112 77.0519 138.112ZM77.0519 137.258C77.5559 137.258 78.0226 137.146 78.4519 136.922C78.8813 136.689 79.2266 136.343 79.4879 135.886C79.7586 135.419 79.8939 134.85 79.8939 134.178C79.8939 133.506 79.7633 132.941 79.5019 132.484C79.2406 132.017 78.8953 131.672 78.4659 131.448C78.0366 131.215 77.5699 131.098 77.0659 131.098C76.5619 131.098 76.0953 131.215 75.6659 131.448C75.2366 131.672 74.8913 132.017 74.6299 132.484C74.3779 132.941 74.2519 133.506 74.2519 134.178C74.2519 134.85 74.3779 135.419 74.6299 135.886C74.8913 136.343 75.2319 136.689 75.6519 136.922C76.0813 137.146 76.5479 137.258 77.0519 137.258ZM91.7884 130.216C92.6844 130.216 93.4124 130.501 93.9724 131.07C94.5417 131.63 94.8264 132.447 94.8264 133.52V138H93.8604V133.632C93.8604 132.801 93.6597 132.167 93.2584 131.728C92.857 131.289 92.311 131.07 91.6204 131.07C90.9017 131.07 90.3277 131.308 89.8984 131.784C89.469 132.26 89.2544 132.951 89.2544 133.856V138H88.2884V133.632C88.2884 132.801 88.0877 132.167 87.6864 131.728C87.285 131.289 86.7344 131.07 86.0344 131.07C85.3157 131.07 84.7417 131.308 84.3124 131.784C83.883 132.26 83.6684 132.951 83.6684 133.856V138H82.6884V130.356H83.6684V131.672C83.911 131.196 84.2564 130.837 84.7044 130.594C85.1524 130.342 85.6517 130.216 86.2024 130.216C86.865 130.216 87.4437 130.375 87.9384 130.692C88.4424 131.009 88.8064 131.476 89.0304 132.092C89.2357 131.485 89.5857 131.023 90.0804 130.706C90.5844 130.379 91.1537 130.216 91.7884 130.216ZM97.9688 132.036C98.2115 131.523 98.5941 131.098 99.1168 130.762C99.6488 130.417 100.279 130.244 101.007 130.244C101.697 130.244 102.318 130.407 102.869 130.734C103.429 131.051 103.863 131.509 104.171 132.106C104.488 132.694 104.647 133.38 104.647 134.164C104.647 134.948 104.488 135.639 104.171 136.236C103.863 136.833 103.429 137.295 102.869 137.622C102.318 137.949 101.697 138.112 101.007 138.112C100.288 138.112 99.6628 137.944 99.1308 137.608C98.5988 137.263 98.2115 136.833 97.9688 136.32V141.612H97.0028V130.356H97.9688V132.036ZM103.653 134.164C103.653 133.529 103.527 132.983 103.275 132.526C103.032 132.059 102.696 131.705 102.267 131.462C101.837 131.219 101.352 131.098 100.811 131.098C100.288 131.098 99.8075 131.224 99.3688 131.476C98.9395 131.728 98.5988 132.087 98.3468 132.554C98.0948 133.021 97.9688 133.562 97.9688 134.178C97.9688 134.794 98.0948 135.335 98.3468 135.802C98.5988 136.269 98.9395 136.628 99.3688 136.88C99.8075 137.132 100.288 137.258 100.811 137.258C101.352 137.258 101.837 137.137 102.267 136.894C102.696 136.642 103.032 136.283 103.275 135.816C103.527 135.34 103.653 134.789 103.653 134.164ZM106.002 134.164C106.002 133.38 106.156 132.694 106.464 132.106C106.781 131.509 107.215 131.051 107.766 130.734C108.326 130.407 108.956 130.244 109.656 130.244C110.384 130.244 111.009 130.412 111.532 130.748C112.064 131.084 112.447 131.513 112.68 132.036V130.356H113.66V138H112.68V136.306C112.437 136.829 112.05 137.263 111.518 137.608C110.995 137.944 110.37 138.112 109.642 138.112C108.951 138.112 108.326 137.949 107.766 137.622C107.215 137.295 106.781 136.833 106.464 136.236C106.156 135.639 106.002 134.948 106.002 134.164ZM112.68 134.178C112.68 133.562 112.554 133.021 112.302 132.554C112.05 132.087 111.705 131.728 111.266 131.476C110.837 131.224 110.361 131.098 109.838 131.098C109.297 131.098 108.811 131.219 108.382 131.462C107.953 131.705 107.612 132.059 107.36 132.526C107.117 132.983 106.996 133.529 106.996 134.164C106.996 134.789 107.117 135.34 107.36 135.816C107.612 136.283 107.953 136.642 108.382 136.894C108.811 137.137 109.297 137.258 109.838 137.258C110.361 137.258 110.837 137.132 111.266 136.88C111.705 136.628 112.05 136.269 112.302 135.802C112.554 135.335 112.68 134.794 112.68 134.178ZM119.481 130.216C120.396 130.216 121.143 130.501 121.721 131.07C122.3 131.63 122.589 132.447 122.589 133.52V138H121.623V133.632C121.623 132.801 121.413 132.167 120.993 131.728C120.583 131.289 120.018 131.07 119.299 131.07C118.562 131.07 117.974 131.303 117.535 131.77C117.097 132.237 116.877 132.923 116.877 133.828V138H115.897V130.356H116.877V131.658C117.12 131.191 117.47 130.837 117.927 130.594C118.385 130.342 118.903 130.216 119.481 130.216ZM131.057 130.356L126.521 141.598H125.499L126.983 137.958L123.847 130.356H124.925L127.529 136.88L130.049 130.356H131.057Z" fill="#BFBFBF"/>
<path d="M114.798 167.154C115.054 168.527 115.194 169.963 115.194 171.46C115.194 183.177 107.352 191.508 95.5083 191.508C92.8149 191.509 90.1477 190.979 87.6592 189.949C85.1706 188.919 82.9095 187.408 81.0049 185.503C79.1004 183.599 77.5898 181.338 76.5594 178.849C75.5291 176.361 74.9992 173.693 75 171C74.9992 168.307 75.5291 165.639 76.5594 163.151C77.5898 160.662 79.1004 158.401 81.0049 156.497C82.9095 154.592 85.1706 153.081 87.6592 152.051C90.1477 151.021 92.8149 150.491 95.5083 150.492C101.046 150.492 105.673 152.529 109.223 155.838L103.442 161.619V161.604C101.29 159.554 98.5583 158.502 95.5083 158.502C88.7417 158.502 83.2417 164.219 83.2417 170.988C83.2417 177.754 88.7417 183.483 95.5083 183.483C101.648 183.483 105.827 179.973 106.685 175.152H95.5083V167.154H114.8H114.798Z" fill="#DD5928"/>
<g filter="url(#filter2_d_72_267)">
<rect x="194" y="40" width="129" height="103" rx="10" fill="white"/>
</g>
<path d="M232.72 55.89C232.72 55.05 232.885 54.315 233.215 53.685C233.555 53.045 234.02 52.555 234.61 52.215C235.21 51.865 235.885 51.69 236.635 51.69C237.415 51.69 238.085 51.87 238.645 52.23C239.215 52.59 239.625 53.05 239.875 53.61V51.81H240.925V60H239.875V58.185C239.615 58.745 239.2 59.21 238.63 59.58C238.07 59.94 237.4 60.12 236.62 60.12C235.88 60.12 235.21 59.945 234.61 59.595C234.02 59.245 233.555 58.75 233.215 58.11C232.885 57.47 232.72 56.73 232.72 55.89ZM239.875 55.905C239.875 55.245 239.74 54.665 239.47 54.165C239.2 53.665 238.83 53.28 238.36 53.01C237.9 52.74 237.39 52.605 236.83 52.605C236.25 52.605 235.73 52.735 235.27 52.995C234.81 53.255 234.445 53.635 234.175 54.135C233.915 54.625 233.785 55.21 233.785 55.89C233.785 56.56 233.915 57.15 234.175 57.66C234.445 58.16 234.81 58.545 235.27 58.815C235.73 59.075 236.25 59.205 236.83 59.205C237.39 59.205 237.9 59.07 238.36 58.8C238.83 58.53 239.2 58.145 239.47 57.645C239.74 57.145 239.875 56.565 239.875 55.905ZM244.372 53.265C244.602 52.755 244.952 52.36 245.422 52.08C245.902 51.8 246.487 51.66 247.177 51.66V52.755H246.892C246.132 52.755 245.522 52.96 245.062 53.37C244.602 53.78 244.372 54.465 244.372 55.425V60H243.322V51.81H244.372V53.265ZM250.122 52.695V57.78C250.122 58.28 250.217 58.625 250.407 58.815C250.597 59.005 250.932 59.1 251.412 59.1H252.372V60H251.247C250.507 60 249.957 59.83 249.597 59.49C249.237 59.14 249.057 58.57 249.057 57.78V52.695H247.917V51.81H249.057V49.755H250.122V51.81H252.372V52.695H250.122ZM254.628 50.265C254.418 50.265 254.238 50.19 254.088 50.04C253.938 49.89 253.863 49.705 253.863 49.485C253.863 49.265 253.938 49.085 254.088 48.945C254.238 48.795 254.418 48.72 254.628 48.72C254.838 48.72 255.018 48.795 255.168 48.945C255.318 49.085 255.393 49.265 255.393 49.485C255.393 49.705 255.318 49.89 255.168 50.04C255.018 50.19 254.838 50.265 254.628 50.265ZM255.153 51.81V60H254.103V51.81H255.153ZM257.051 55.905C257.051 55.055 257.221 54.315 257.561 53.685C257.901 53.045 258.371 52.555 258.971 52.215C259.571 51.865 260.256 51.69 261.026 51.69C262.036 51.69 262.866 51.94 263.516 52.44C264.176 52.94 264.601 53.62 264.791 54.48H263.666C263.526 53.89 263.221 53.43 262.751 53.1C262.291 52.76 261.716 52.59 261.026 52.59C260.476 52.59 259.981 52.715 259.541 52.965C259.101 53.215 258.751 53.59 258.491 54.09C258.241 54.58 258.116 55.185 258.116 55.905C258.116 56.625 258.241 57.235 258.491 57.735C258.751 58.235 259.101 58.61 259.541 58.86C259.981 59.11 260.476 59.235 261.026 59.235C261.716 59.235 262.291 59.07 262.751 58.74C263.221 58.4 263.526 57.93 263.666 57.33H264.791C264.601 58.17 264.176 58.845 263.516 59.355C262.856 59.865 262.026 60.12 261.026 60.12C260.256 60.12 259.571 59.95 258.971 59.61C258.371 59.26 257.901 58.77 257.561 58.14C257.221 57.5 257.051 56.755 257.051 55.905ZM267.78 48.9V60H266.73V48.9H267.78ZM277.568 55.485C277.568 55.845 277.558 56.12 277.538 56.31H270.743C270.773 56.93 270.923 57.46 271.193 57.9C271.463 58.34 271.818 58.675 272.258 58.905C272.698 59.125 273.178 59.235 273.698 59.235C274.378 59.235 274.948 59.07 275.408 58.74C275.878 58.41 276.188 57.965 276.338 57.405H277.448C277.248 58.205 276.818 58.86 276.158 59.37C275.508 59.87 274.688 60.12 273.698 60.12C272.928 60.12 272.238 59.95 271.628 59.61C271.018 59.26 270.538 58.77 270.188 58.14C269.848 57.5 269.678 56.755 269.678 55.905C269.678 55.055 269.848 54.31 270.188 53.67C270.528 53.03 271.003 52.54 271.613 52.2C272.223 51.86 272.918 51.69 273.698 51.69C274.478 51.69 275.158 51.86 275.738 52.2C276.328 52.54 276.778 53 277.088 53.58C277.408 54.15 277.568 54.785 277.568 55.485ZM276.503 55.455C276.513 54.845 276.388 54.325 276.128 53.895C275.878 53.465 275.533 53.14 275.093 52.92C274.653 52.7 274.173 52.59 273.653 52.59C272.873 52.59 272.208 52.84 271.658 53.34C271.108 53.84 270.803 54.545 270.743 55.455H276.503ZM282.309 60.12C281.369 60.12 280.599 59.905 279.999 59.475C279.409 59.035 279.079 58.44 279.009 57.69H280.089C280.139 58.15 280.354 58.525 280.734 58.815C281.124 59.095 281.644 59.235 282.294 59.235C282.864 59.235 283.309 59.1 283.629 58.83C283.959 58.56 284.124 58.225 284.124 57.825C284.124 57.545 284.034 57.315 283.854 57.135C283.674 56.955 283.444 56.815 283.164 56.715C282.894 56.605 282.524 56.49 282.054 56.37C281.444 56.21 280.949 56.05 280.569 55.89C280.189 55.73 279.864 55.495 279.594 55.185C279.334 54.865 279.204 54.44 279.204 53.91C279.204 53.51 279.324 53.14 279.564 52.8C279.804 52.46 280.144 52.19 280.584 51.99C281.024 51.79 281.524 51.69 282.084 51.69C282.964 51.69 283.674 51.915 284.214 52.365C284.754 52.805 285.044 53.415 285.084 54.195H284.034C284.004 53.715 283.814 53.33 283.464 53.04C283.124 52.74 282.654 52.59 282.054 52.59C281.524 52.59 281.094 52.715 280.764 52.965C280.434 53.215 280.269 53.525 280.269 53.895C280.269 54.215 280.364 54.48 280.554 54.69C280.754 54.89 280.999 55.05 281.289 55.17C281.579 55.28 281.969 55.405 282.459 55.545C283.049 55.705 283.519 55.86 283.869 56.01C284.219 56.16 284.519 56.38 284.769 56.67C285.019 56.96 285.149 57.345 285.159 57.825C285.159 58.265 285.039 58.66 284.799 59.01C284.559 59.35 284.224 59.62 283.794 59.82C283.364 60.02 282.869 60.12 282.309 60.12Z" fill="#BFBFBF"/>
<path d="M232.62 123.696C232.667 123.089 232.9 122.612 233.32 122.266C233.747 121.912 234.297 121.736 234.97 121.736C235.417 121.736 235.8 121.816 236.12 121.976C236.44 122.136 236.68 122.356 236.84 122.636C237.007 122.909 237.09 123.219 237.09 123.566C237.09 123.986 236.967 124.349 236.72 124.656C236.473 124.962 236.123 125.152 235.67 125.226V125.276C236.143 125.369 236.52 125.576 236.8 125.896C237.08 126.209 237.22 126.622 237.22 127.136C237.22 127.709 237.027 128.179 236.64 128.546C236.26 128.906 235.707 129.086 234.98 129.086C234.287 129.086 233.717 128.906 233.27 128.546C232.823 128.179 232.567 127.662 232.5 126.996H233.18C233.24 127.442 233.427 127.806 233.74 128.086C234.053 128.359 234.467 128.496 234.98 128.496C235.487 128.496 235.873 128.362 236.14 128.096C236.413 127.829 236.55 127.489 236.55 127.076C236.55 126.062 235.82 125.556 234.36 125.556H234.14V124.966H234.37C235.73 124.966 236.41 124.522 236.41 123.636C236.41 123.249 236.283 122.939 236.03 122.706C235.777 122.466 235.417 122.346 234.95 122.346C234.497 122.346 234.12 122.466 233.82 122.706C233.527 122.939 233.353 123.269 233.3 123.696H232.62ZM242.62 123.616C242.473 122.749 241.97 122.316 241.11 122.316C240.456 122.316 239.966 122.569 239.64 123.076C239.313 123.582 239.163 124.412 239.19 125.566C239.323 125.166 239.576 124.852 239.95 124.626C240.33 124.392 240.763 124.276 241.25 124.276C241.95 124.276 242.503 124.492 242.91 124.926C243.323 125.352 243.53 125.942 243.53 126.696C243.53 127.136 243.443 127.536 243.27 127.896C243.103 128.249 242.843 128.532 242.49 128.746C242.143 128.959 241.71 129.066 241.19 129.066C240.196 129.066 239.51 128.749 239.13 128.116C238.756 127.482 238.57 126.586 238.57 125.426C238.57 122.959 239.416 121.726 241.11 121.726C241.75 121.726 242.253 121.902 242.62 122.256C242.986 122.602 243.203 123.056 243.27 123.616H242.62ZM241.12 124.876C240.806 124.876 240.51 124.939 240.23 125.066C239.95 125.192 239.72 125.386 239.54 125.646C239.366 125.899 239.28 126.212 239.28 126.586C239.28 127.126 239.44 127.576 239.76 127.936C240.08 128.296 240.546 128.476 241.16 128.476C241.673 128.476 242.083 128.319 242.39 128.006C242.696 127.692 242.85 127.266 242.85 126.726C242.85 126.146 242.7 125.692 242.4 125.366C242.1 125.039 241.673 124.876 241.12 124.876ZM247.363 126.296C247.363 125.736 247.473 125.246 247.693 124.826C247.919 124.399 248.229 124.072 248.623 123.846C249.023 123.612 249.473 123.496 249.973 123.496C250.493 123.496 250.939 123.616 251.313 123.856C251.693 124.096 251.966 124.402 252.133 124.776V123.576H252.833V129.036H252.133V127.826C251.959 128.199 251.683 128.509 251.303 128.756C250.929 128.996 250.483 129.116 249.963 129.116C249.469 129.116 249.023 128.999 248.623 128.766C248.229 128.532 247.919 128.202 247.693 127.776C247.473 127.349 247.363 126.856 247.363 126.296ZM252.133 126.306C252.133 125.866 252.043 125.479 251.863 125.146C251.683 124.812 251.436 124.556 251.123 124.376C250.816 124.196 250.476 124.106 250.103 124.106C249.716 124.106 249.369 124.192 249.063 124.366C248.756 124.539 248.513 124.792 248.333 125.126C248.159 125.452 248.073 125.842 248.073 126.296C248.073 126.742 248.159 127.136 248.333 127.476C248.513 127.809 248.756 128.066 249.063 128.246C249.369 128.419 249.716 128.506 250.103 128.506C250.476 128.506 250.816 128.416 251.123 128.236C251.436 128.056 251.683 127.799 251.863 127.466C252.043 127.132 252.133 126.746 252.133 126.306ZM255.131 124.546C255.284 124.206 255.518 123.942 255.831 123.756C256.151 123.569 256.541 123.476 257.001 123.476V124.206H256.811C256.304 124.206 255.898 124.342 255.591 124.616C255.284 124.889 255.131 125.346 255.131 125.986V129.036H254.431V123.576H255.131V124.546ZM258.964 124.166V127.556C258.964 127.889 259.027 128.119 259.154 128.246C259.281 128.372 259.504 128.436 259.824 128.436H260.464V129.036H259.714C259.221 129.036 258.854 128.922 258.614 128.696C258.374 128.462 258.254 128.082 258.254 127.556V124.166H257.494V123.576H258.254V122.206H258.964V123.576H260.464V124.166H258.964ZM261.968 122.546C261.828 122.546 261.708 122.496 261.608 122.396C261.508 122.296 261.458 122.172 261.458 122.026C261.458 121.879 261.508 121.759 261.608 121.666C261.708 121.566 261.828 121.516 261.968 121.516C262.108 121.516 262.228 121.566 262.328 121.666C262.428 121.759 262.478 121.879 262.478 122.026C262.478 122.172 262.428 122.296 262.328 122.396C262.228 122.496 262.108 122.546 261.968 122.546ZM262.318 123.576V129.036H261.618V123.576H262.318ZM263.584 126.306C263.584 125.739 263.697 125.246 263.924 124.826C264.15 124.399 264.464 124.072 264.864 123.846C265.264 123.612 265.72 123.496 266.234 123.496C266.907 123.496 267.46 123.662 267.894 123.996C268.334 124.329 268.617 124.782 268.744 125.356H267.994C267.9 124.962 267.697 124.656 267.384 124.436C267.077 124.209 266.694 124.096 266.234 124.096C265.867 124.096 265.537 124.179 265.244 124.346C264.95 124.512 264.717 124.762 264.544 125.096C264.377 125.422 264.294 125.826 264.294 126.306C264.294 126.786 264.377 127.192 264.544 127.526C264.717 127.859 264.95 128.109 265.244 128.276C265.537 128.442 265.867 128.526 266.234 128.526C266.694 128.526 267.077 128.416 267.384 128.196C267.697 127.969 267.9 127.656 267.994 127.256H268.744C268.617 127.816 268.334 128.266 267.894 128.606C267.454 128.946 266.9 129.116 266.234 129.116C265.72 129.116 265.264 129.002 264.864 128.776C264.464 128.542 264.15 128.216 263.924 127.796C263.697 127.369 263.584 126.872 263.584 126.306ZM270.736 121.636V129.036H270.036V121.636H270.736ZM277.261 126.026C277.261 126.266 277.255 126.449 277.241 126.576H272.711C272.731 126.989 272.831 127.342 273.011 127.636C273.191 127.929 273.428 128.152 273.721 128.306C274.015 128.452 274.335 128.526 274.681 128.526C275.135 128.526 275.515 128.416 275.821 128.196C276.135 127.976 276.341 127.679 276.441 127.306H277.181C277.048 127.839 276.761 128.276 276.321 128.616C275.888 128.949 275.341 129.116 274.681 129.116C274.168 129.116 273.708 129.002 273.301 128.776C272.895 128.542 272.575 128.216 272.341 127.796C272.115 127.369 272.001 126.872 272.001 126.306C272.001 125.739 272.115 125.242 272.341 124.816C272.568 124.389 272.885 124.062 273.291 123.836C273.698 123.609 274.161 123.496 274.681 123.496C275.201 123.496 275.655 123.609 276.041 123.836C276.435 124.062 276.735 124.369 276.941 124.756C277.155 125.136 277.261 125.559 277.261 126.026ZM276.551 126.006C276.558 125.599 276.475 125.252 276.301 124.966C276.135 124.679 275.905 124.462 275.611 124.316C275.318 124.169 274.998 124.096 274.651 124.096C274.131 124.096 273.688 124.262 273.321 124.596C272.955 124.929 272.751 125.399 272.711 126.006H276.551ZM280.422 129.116C279.796 129.116 279.282 128.972 278.882 128.686C278.489 128.392 278.269 127.996 278.222 127.496H278.942C278.976 127.802 279.119 128.052 279.372 128.246C279.632 128.432 279.979 128.526 280.412 128.526C280.792 128.526 281.089 128.436 281.302 128.256C281.522 128.076 281.632 127.852 281.632 127.586C281.632 127.399 281.572 127.246 281.452 127.126C281.332 127.006 281.179 126.912 280.992 126.846C280.812 126.772 280.566 126.696 280.252 126.616C279.846 126.509 279.516 126.402 279.262 126.296C279.009 126.189 278.792 126.032 278.612 125.826C278.439 125.612 278.352 125.329 278.352 124.976C278.352 124.709 278.432 124.462 278.592 124.236C278.752 124.009 278.979 123.829 279.272 123.696C279.566 123.562 279.899 123.496 280.272 123.496C280.859 123.496 281.332 123.646 281.692 123.946C282.052 124.239 282.246 124.646 282.272 125.166H281.572C281.552 124.846 281.426 124.589 281.192 124.396C280.966 124.196 280.652 124.096 280.252 124.096C279.899 124.096 279.612 124.179 279.392 124.346C279.172 124.512 279.062 124.719 279.062 124.966C279.062 125.179 279.126 125.356 279.252 125.496C279.386 125.629 279.549 125.736 279.742 125.816C279.936 125.889 280.196 125.972 280.522 126.066C280.916 126.172 281.229 126.276 281.462 126.376C281.696 126.476 281.896 126.622 282.062 126.816C282.229 127.009 282.316 127.266 282.322 127.586C282.322 127.879 282.242 128.142 282.082 128.376C281.922 128.602 281.699 128.782 281.412 128.916C281.126 129.049 280.796 129.116 280.422 129.116Z" fill="#DD5928"/>
<path d="M244.355 92.1506C244.355 92.5742 244.183 92.9804 243.878 93.2799C243.573 93.5794 243.159 93.7477 242.728 93.7477H237.846C237.414 93.7477 237.001 93.5794 236.695 93.2799C236.39 92.9804 236.219 92.5742 236.219 92.1506C236.219 91.727 236.39 91.3208 236.695 91.0213C237.001 90.7218 237.414 90.5535 237.846 90.5535H239.473V77.7767H237.846C237.414 77.7767 237.001 77.6085 236.695 77.3089C236.39 77.0094 236.219 76.6032 236.219 76.1796C236.219 75.756 236.39 75.3498 236.695 75.0503C237.001 74.7508 237.414 74.5825 237.846 74.5825H241.1C241.378 74.5828 241.65 74.6527 241.892 74.7854C242.135 74.9182 242.338 75.1095 242.484 75.3411L249.237 85.9419L255.99 75.3411C256.135 75.1095 256.339 74.9182 256.581 74.7854C256.823 74.6527 257.095 74.5828 257.373 74.5825H260.627C261.059 74.5825 261.473 74.7508 261.778 75.0503C262.083 75.3498 262.254 75.756 262.254 76.1796C262.254 76.6032 262.083 77.0094 261.778 77.3089C261.473 77.6085 261.059 77.7767 260.627 77.7767H259V90.5535H260.627C261.059 90.5535 261.473 90.7218 261.778 91.0213C262.083 91.3208 262.254 91.727 262.254 92.1506C262.254 92.5742 262.083 92.9804 261.778 93.2799C261.473 93.5794 261.059 93.7477 260.627 93.7477H255.746C255.314 93.7477 254.9 93.5794 254.595 93.2799C254.29 92.9804 254.118 92.5742 254.118 92.1506C254.118 91.727 254.29 91.3208 254.595 91.0213C254.9 90.7218 255.314 90.5535 255.746 90.5535V81.7495L250.62 89.7949C250.474 90.026 250.27 90.2167 250.028 90.349C249.786 90.4812 249.514 90.5507 249.237 90.5507C248.96 90.5507 248.687 90.4812 248.445 90.349C248.203 90.2167 247.999 90.026 247.853 89.7949L242.728 81.7495V90.5535C243.159 90.5535 243.573 90.7218 243.878 91.0213C244.183 91.3208 244.355 91.727 244.355 92.1506ZM267.136 87.3593H281.781C282.213 87.3593 282.627 87.191 282.932 86.8915C283.237 86.592 283.408 86.1858 283.408 85.7622C283.408 85.3386 283.237 84.9324 282.932 84.6329C282.627 84.3334 282.213 84.1651 281.781 84.1651H267.136C266.705 84.1651 266.291 84.3334 265.986 84.6329C265.68 84.9324 265.509 85.3386 265.509 85.7622C265.509 86.1858 265.68 86.592 265.986 86.8915C266.291 87.191 266.705 87.3593 267.136 87.3593ZM281.781 90.5535H267.136C266.705 90.5535 266.291 90.7218 265.986 91.0213C265.68 91.3208 265.509 91.727 265.509 92.1506C265.509 92.5742 265.68 92.9804 265.986 93.2799C266.291 93.5794 266.705 93.7477 267.136 93.7477H281.781C282.213 93.7477 282.627 93.5794 282.932 93.2799C283.237 92.9804 283.408 92.5742 283.408 92.1506C283.408 91.727 283.237 91.3208 282.932 91.0213C282.627 90.7218 282.213 90.5535 281.781 90.5535ZM281.781 96.9419H247.609C247.178 96.9419 246.764 97.1102 246.459 97.4097C246.154 97.7092 245.982 98.1154 245.982 98.539C245.982 98.9626 246.154 99.3688 246.459 99.6683C246.764 99.9678 247.178 100.136 247.609 100.136H281.781C282.213 100.136 282.627 99.9678 282.932 99.6683C283.237 99.3688 283.408 98.9626 283.408 98.539C283.408 98.1154 283.237 97.7092 282.932 97.4097C282.627 97.1102 282.213 96.9419 281.781 96.9419ZM281.781 103.33H247.609C247.178 103.33 246.764 103.499 246.459 103.798C246.154 104.098 245.982 104.504 245.982 104.927C245.982 105.351 246.154 105.757 246.459 106.057C246.764 106.356 247.178 106.524 247.609 106.524H281.781C282.213 106.524 282.627 106.356 282.932 106.057C283.237 105.757 283.408 105.351 283.408 104.927C283.408 104.504 283.237 104.098 282.932 103.798C282.627 103.499 282.213 103.33 281.781 103.33Z" fill="#DD5928"/>
<g filter="url(#filter3_d_72_267)">
<rect x="192" y="161" width="131" height="64" rx="10" fill="white"/>
</g>
<path d="M248.184 183.184C248.184 183.568 248.173 183.861 248.152 184.064H240.904C240.936 184.725 241.096 185.291 241.384 185.76C241.672 186.229 242.051 186.587 242.52 186.832C242.989 187.067 243.501 187.184 244.056 187.184C244.781 187.184 245.389 187.008 245.88 186.656C246.381 186.304 246.712 185.829 246.872 185.232H248.056C247.843 186.085 247.384 186.784 246.68 187.328C245.987 187.861 245.112 188.128 244.056 188.128C243.235 188.128 242.499 187.947 241.848 187.584C241.197 187.211 240.685 186.688 240.312 186.016C239.949 185.333 239.768 184.539 239.768 183.632C239.768 182.725 239.949 181.931 240.312 181.248C240.675 180.565 241.181 180.043 241.832 179.68C242.483 179.317 243.224 179.136 244.056 179.136C244.888 179.136 245.613 179.317 246.232 179.68C246.861 180.043 247.341 180.533 247.672 181.152C248.013 181.76 248.184 182.437 248.184 183.184ZM247.048 183.152C247.059 182.501 246.925 181.947 246.648 181.488C246.381 181.029 246.013 180.683 245.544 180.448C245.075 180.213 244.563 180.096 244.008 180.096C243.176 180.096 242.467 180.363 241.88 180.896C241.293 181.429 240.968 182.181 240.904 183.152H247.048ZM260.633 179.104C261.657 179.104 262.489 179.429 263.129 180.08C263.78 180.72 264.105 181.653 264.105 182.88V188H263.001V183.008C263.001 182.059 262.772 181.333 262.313 180.832C261.854 180.331 261.23 180.08 260.441 180.08C259.62 180.08 258.964 180.352 258.473 180.896C257.982 181.44 257.737 182.229 257.737 183.264V188H256.633V183.008C256.633 182.059 256.404 181.333 255.945 180.832C255.486 180.331 254.857 180.08 254.057 180.08C253.236 180.08 252.58 180.352 252.089 180.896C251.598 181.44 251.353 182.229 251.353 183.264V188H250.233V179.264H251.353V180.768C251.63 180.224 252.025 179.813 252.537 179.536C253.049 179.248 253.62 179.104 254.249 179.104C255.006 179.104 255.668 179.285 256.233 179.648C256.809 180.011 257.225 180.544 257.481 181.248C257.716 180.555 258.116 180.027 258.681 179.664C259.257 179.291 259.908 179.104 260.633 179.104ZM266.081 183.616C266.081 182.72 266.257 181.936 266.609 181.264C266.971 180.581 267.467 180.059 268.097 179.696C268.737 179.323 269.457 179.136 270.257 179.136C271.089 179.136 271.803 179.328 272.401 179.712C273.009 180.096 273.446 180.587 273.713 181.184V179.264H274.833V188H273.713V186.064C273.435 186.661 272.993 187.157 272.385 187.552C271.787 187.936 271.073 188.128 270.241 188.128C269.451 188.128 268.737 187.941 268.097 187.568C267.467 187.195 266.971 186.667 266.609 185.984C266.257 185.301 266.081 184.512 266.081 183.616ZM273.713 183.632C273.713 182.928 273.569 182.309 273.281 181.776C272.993 181.243 272.598 180.832 272.097 180.544C271.606 180.256 271.062 180.112 270.465 180.112C269.846 180.112 269.291 180.251 268.801 180.528C268.31 180.805 267.921 181.211 267.633 181.744C267.355 182.267 267.217 182.891 267.217 183.616C267.217 184.331 267.355 184.96 267.633 185.504C267.921 186.037 268.31 186.448 268.801 186.736C269.291 187.013 269.846 187.152 270.465 187.152C271.062 187.152 271.606 187.008 272.097 186.72C272.598 186.432 272.993 186.021 273.281 185.488C273.569 184.955 273.713 184.336 273.713 183.632ZM277.949 177.616C277.725 177.616 277.533 177.536 277.373 177.376C277.213 177.216 277.133 177.019 277.133 176.784C277.133 176.549 277.213 176.357 277.373 176.208C277.533 176.048 277.725 175.968 277.949 175.968C278.173 175.968 278.365 176.048 278.525 176.208C278.685 176.357 278.765 176.549 278.765 176.784C278.765 177.019 278.685 177.216 278.525 177.376C278.365 177.536 278.173 177.616 277.949 177.616ZM278.509 179.264V188H277.389V179.264H278.509ZM282.166 176.16V188H281.046V176.16H282.166Z" fill="#BFBFBF"/>
<path d="M238.96 196.808C238.848 196.808 238.752 196.768 238.672 196.688C238.592 196.608 238.552 196.509 238.552 196.392C238.552 196.275 238.592 196.179 238.672 196.104C238.752 196.024 238.848 195.984 238.96 195.984C239.072 195.984 239.165 196.024 239.24 196.104C239.32 196.179 239.36 196.275 239.36 196.392C239.36 196.509 239.32 196.608 239.24 196.688C239.165 196.768 239.072 196.808 238.96 196.808ZM239.232 203.032C239.232 203.384 239.144 203.643 238.968 203.808C238.792 203.979 238.528 204.064 238.176 204.064H237.784V203.584H238.088C238.296 203.584 238.445 203.539 238.536 203.448C238.627 203.363 238.672 203.216 238.672 203.008V197.632H239.232V203.032ZM242.427 202.064C242.016 202.064 241.646 201.973 241.315 201.792C240.99 201.605 240.731 201.344 240.539 201.008C240.352 200.667 240.259 200.269 240.259 199.816C240.259 199.363 240.355 198.968 240.547 198.632C240.739 198.291 241 198.029 241.331 197.848C241.662 197.661 242.032 197.568 242.443 197.568C242.854 197.568 243.224 197.661 243.555 197.848C243.891 198.029 244.152 198.291 244.339 198.632C244.531 198.968 244.627 199.363 244.627 199.816C244.627 200.264 244.531 200.659 244.339 201C244.147 201.341 243.883 201.605 243.547 201.792C243.211 201.973 242.838 202.064 242.427 202.064ZM242.427 201.576C242.715 201.576 242.982 201.512 243.227 201.384C243.472 201.251 243.67 201.053 243.819 200.792C243.974 200.525 244.051 200.2 244.051 199.816C244.051 199.432 243.976 199.109 243.827 198.848C243.678 198.581 243.48 198.384 243.235 198.256C242.99 198.123 242.723 198.056 242.435 198.056C242.147 198.056 241.88 198.123 241.635 198.256C241.39 198.384 241.192 198.581 241.043 198.848C240.899 199.109 240.827 199.432 240.827 199.816C240.827 200.2 240.899 200.525 241.043 200.792C241.192 201.053 241.387 201.251 241.627 201.384C241.872 201.512 242.139 201.576 242.427 201.576ZM247.728 197.552C248.058 197.552 248.354 197.621 248.616 197.76C248.882 197.899 249.09 198.112 249.24 198.4C249.394 198.683 249.472 199.029 249.472 199.44V202H248.92V199.504C248.92 199.029 248.8 198.667 248.56 198.416C248.325 198.165 248.002 198.04 247.592 198.04C247.17 198.04 246.834 198.173 246.584 198.44C246.333 198.707 246.208 199.099 246.208 199.616V202H245.648V196.08H246.208V198.376C246.346 198.115 246.549 197.912 246.816 197.768C247.088 197.624 247.392 197.552 247.728 197.552ZM252.758 197.552C253.281 197.552 253.708 197.715 254.038 198.04C254.369 198.36 254.534 198.827 254.534 199.44V202H253.982V199.504C253.982 199.029 253.862 198.667 253.622 198.416C253.388 198.165 253.065 198.04 252.654 198.04C252.233 198.04 251.897 198.173 251.646 198.44C251.396 198.707 251.27 199.099 251.27 199.616V202H250.71V197.632H251.27V198.376C251.409 198.109 251.609 197.907 251.87 197.768C252.132 197.624 252.428 197.552 252.758 197.552ZM255.869 202.04C255.751 202.04 255.653 202 255.573 201.92C255.498 201.84 255.461 201.741 255.461 201.624C255.461 201.507 255.498 201.411 255.573 201.336C255.653 201.256 255.751 201.216 255.869 201.216C255.981 201.216 256.074 201.256 256.149 201.336C256.229 201.411 256.269 201.507 256.269 201.624C256.269 201.741 256.229 201.84 256.149 201.92C256.074 202 255.981 202.04 255.869 202.04ZM260.802 198.016C260.802 198.496 260.645 198.883 260.33 199.176C260.015 199.469 259.543 199.616 258.914 199.616H257.786V202H257.226V196.408H258.914C259.538 196.408 260.007 196.555 260.322 196.848C260.642 197.141 260.802 197.531 260.802 198.016ZM258.914 199.136C259.789 199.136 260.226 198.763 260.226 198.016C260.226 197.643 260.122 197.36 259.914 197.168C259.706 196.976 259.373 196.88 258.914 196.88H257.786V199.136H258.914ZM265.638 196.912C266.214 196.912 266.72 197.024 267.158 197.248C267.595 197.472 267.931 197.787 268.166 198.192C268.4 198.592 268.518 199.053 268.518 199.576C268.518 199.992 268.451 200.389 268.318 200.768C268.184 201.147 267.992 201.456 267.742 201.696C267.491 201.931 267.198 202.048 266.862 202.048C266.6 202.048 266.4 201.979 266.262 201.84C266.128 201.696 266.056 201.501 266.046 201.256C265.88 201.501 265.67 201.696 265.414 201.84C265.158 201.979 264.886 202.048 264.598 202.048C264.192 202.048 263.875 201.925 263.646 201.68C263.422 201.435 263.31 201.101 263.31 200.68C263.31 200.285 263.392 199.917 263.558 199.576C263.723 199.229 263.952 198.952 264.246 198.744C264.539 198.536 264.872 198.432 265.246 198.432C265.512 198.432 265.736 198.491 265.918 198.608C266.104 198.725 266.238 198.896 266.318 199.12L266.422 198.528H266.91L266.502 200.856C266.486 200.952 266.478 201.04 266.478 201.12C266.478 201.477 266.632 201.656 266.942 201.656C267.171 201.656 267.368 201.552 267.534 201.344C267.704 201.136 267.832 200.875 267.918 200.56C268.008 200.24 268.054 199.923 268.054 199.608C268.054 199.139 267.952 198.733 267.75 198.392C267.552 198.045 267.267 197.781 266.894 197.6C266.52 197.413 266.078 197.32 265.566 197.32C264.926 197.32 264.347 197.477 263.83 197.792C263.312 198.107 262.907 198.533 262.614 199.072C262.32 199.611 262.174 200.205 262.174 200.856C262.168 201.581 262.387 202.144 262.83 202.544C263.272 202.949 263.878 203.152 264.646 203.152C265.131 203.152 265.571 203.061 265.966 202.88L266.054 203.272C265.584 203.464 265.075 203.56 264.526 203.56C263.966 203.56 263.472 203.451 263.046 203.232C262.619 203.019 262.288 202.712 262.054 202.312C261.819 201.912 261.702 201.445 261.702 200.912C261.702 200.171 261.87 199.496 262.206 198.888C262.547 198.275 263.016 197.792 263.614 197.44C264.216 197.088 264.891 196.912 265.638 196.912ZM264.758 201.608C264.998 201.608 265.219 201.544 265.422 201.416C265.624 201.288 265.79 201.109 265.918 200.88C266.051 200.651 266.134 200.389 266.166 200.096C266.176 200 266.182 199.931 266.182 199.888C266.182 199.589 266.099 199.347 265.934 199.16C265.774 198.968 265.544 198.872 265.246 198.872C264.963 198.872 264.715 198.955 264.502 199.12C264.288 199.285 264.123 199.501 264.006 199.768C263.888 200.029 263.83 200.307 263.83 200.6C263.83 200.909 263.91 201.155 264.07 201.336C264.23 201.517 264.459 201.608 264.758 201.608ZM271.589 197.568C272 197.568 272.357 197.664 272.661 197.856C272.965 198.048 273.184 198.291 273.317 198.584V197.632H273.877V202.112C273.877 202.512 273.789 202.867 273.613 203.176C273.443 203.485 273.203 203.723 272.893 203.888C272.584 204.059 272.232 204.144 271.837 204.144C271.277 204.144 270.811 204.011 270.437 203.744C270.069 203.477 269.84 203.115 269.749 202.656H270.301C270.397 202.96 270.579 203.203 270.845 203.384C271.117 203.565 271.448 203.656 271.837 203.656C272.12 203.656 272.373 203.595 272.597 203.472C272.821 203.355 272.997 203.179 273.125 202.944C273.253 202.709 273.317 202.432 273.317 202.112V201.032C273.179 201.331 272.957 201.579 272.653 201.776C272.355 201.968 272 202.064 271.589 202.064C271.189 202.064 270.829 201.971 270.509 201.784C270.195 201.597 269.947 201.333 269.765 200.992C269.589 200.651 269.501 200.256 269.501 199.808C269.501 199.36 269.589 198.968 269.765 198.632C269.947 198.291 270.195 198.029 270.509 197.848C270.829 197.661 271.189 197.568 271.589 197.568ZM273.317 199.816C273.317 199.464 273.245 199.155 273.101 198.888C272.957 198.621 272.76 198.416 272.509 198.272C272.264 198.128 271.992 198.056 271.693 198.056C271.384 198.056 271.107 198.125 270.861 198.264C270.616 198.403 270.421 198.605 270.277 198.872C270.139 199.133 270.069 199.445 270.069 199.808C270.069 200.165 270.139 200.48 270.277 200.752C270.421 201.019 270.616 201.224 270.861 201.368C271.107 201.507 271.384 201.576 271.693 201.576C271.992 201.576 272.264 201.504 272.509 201.36C272.76 201.216 272.957 201.011 273.101 200.744C273.245 200.477 273.317 200.168 273.317 199.816ZM277.068 202.064C276.657 202.064 276.286 201.973 275.956 201.792C275.63 201.605 275.372 201.344 275.18 201.008C274.993 200.667 274.9 200.269 274.9 199.816C274.9 199.363 274.996 198.968 275.188 198.632C275.38 198.291 275.641 198.029 275.972 197.848C276.302 197.661 276.673 197.568 277.084 197.568C277.494 197.568 277.865 197.661 278.196 197.848C278.532 198.029 278.793 198.291 278.98 198.632C279.172 198.968 279.268 199.363 279.268 199.816C279.268 200.264 279.172 200.659 278.98 201C278.788 201.341 278.524 201.605 278.188 201.792C277.852 201.973 277.478 202.064 277.068 202.064ZM277.068 201.576C277.356 201.576 277.622 201.512 277.868 201.384C278.113 201.251 278.31 201.053 278.46 200.792C278.614 200.525 278.692 200.2 278.692 199.816C278.692 199.432 278.617 199.109 278.468 198.848C278.318 198.581 278.121 198.384 277.876 198.256C277.63 198.123 277.364 198.056 277.076 198.056C276.788 198.056 276.521 198.123 276.276 198.256C276.03 198.384 275.833 198.581 275.684 198.848C275.54 199.109 275.468 199.432 275.468 199.816C275.468 200.2 275.54 200.525 275.684 200.792C275.833 201.053 276.028 201.251 276.268 201.384C276.513 201.512 276.78 201.576 277.068 201.576ZM282.2 202.064C281.79 202.064 281.419 201.973 281.088 201.792C280.763 201.605 280.504 201.344 280.312 201.008C280.126 200.667 280.032 200.269 280.032 199.816C280.032 199.363 280.128 198.968 280.32 198.632C280.512 198.291 280.774 198.029 281.104 197.848C281.435 197.661 281.806 197.568 282.216 197.568C282.627 197.568 282.998 197.661 283.328 197.848C283.664 198.029 283.926 198.291 284.112 198.632C284.304 198.968 284.4 199.363 284.4 199.816C284.4 200.264 284.304 200.659 284.112 201C283.92 201.341 283.656 201.605 283.32 201.792C282.984 201.973 282.611 202.064 282.2 202.064ZM282.2 201.576C282.488 201.576 282.755 201.512 283 201.384C283.246 201.251 283.443 201.053 283.592 200.792C283.747 200.525 283.824 200.2 283.824 199.816C283.824 199.432 283.75 199.109 283.6 198.848C283.451 198.581 283.254 198.384 283.008 198.256C282.763 198.123 282.496 198.056 282.208 198.056C281.92 198.056 281.654 198.123 281.408 198.256C281.163 198.384 280.966 198.581 280.816 198.848C280.672 199.109 280.6 199.432 280.6 199.816C280.6 200.2 280.672 200.525 280.816 200.792C280.966 201.053 281.16 201.251 281.4 201.384C281.646 201.512 281.912 201.576 282.2 201.576ZM287.253 197.568C287.664 197.568 288.021 197.664 288.325 197.856C288.629 198.048 288.848 198.291 288.981 198.584V197.632H289.541V202.112C289.541 202.512 289.453 202.867 289.277 203.176C289.107 203.485 288.867 203.723 288.557 203.888C288.248 204.059 287.896 204.144 287.501 204.144C286.941 204.144 286.475 204.011 286.101 203.744C285.733 203.477 285.504 203.115 285.413 202.656H285.965C286.061 202.96 286.243 203.203 286.509 203.384C286.781 203.565 287.112 203.656 287.501 203.656C287.784 203.656 288.037 203.595 288.261 203.472C288.485 203.355 288.661 203.179 288.789 202.944C288.917 202.709 288.981 202.432 288.981 202.112V201.032C288.843 201.331 288.621 201.579 288.317 201.776C288.019 201.968 287.664 202.064 287.253 202.064C286.853 202.064 286.493 201.971 286.173 201.784C285.859 201.597 285.611 201.333 285.429 200.992C285.253 200.651 285.165 200.256 285.165 199.808C285.165 199.36 285.253 198.968 285.429 198.632C285.611 198.291 285.859 198.029 286.173 197.848C286.493 197.661 286.853 197.568 287.253 197.568ZM288.981 199.816C288.981 199.464 288.909 199.155 288.765 198.888C288.621 198.621 288.424 198.416 288.173 198.272C287.928 198.128 287.656 198.056 287.357 198.056C287.048 198.056 286.771 198.125 286.525 198.264C286.28 198.403 286.085 198.605 285.941 198.872C285.803 199.133 285.733 199.445 285.733 199.808C285.733 200.165 285.803 200.48 285.941 200.752C286.085 201.019 286.28 201.224 286.525 201.368C286.771 201.507 287.048 201.576 287.357 201.576C287.656 201.576 287.928 201.504 288.173 201.36C288.424 201.216 288.621 201.011 288.765 200.744C288.909 200.477 288.981 200.168 288.981 199.816ZM291.38 196.08V202H290.82V196.08H291.38ZM296.6 199.592C296.6 199.784 296.594 199.931 296.584 200.032H292.96C292.976 200.363 293.056 200.645 293.2 200.88C293.344 201.115 293.533 201.293 293.768 201.416C294.002 201.533 294.258 201.592 294.536 201.592C294.898 201.592 295.202 201.504 295.448 201.328C295.698 201.152 295.864 200.915 295.944 200.616H296.536C296.429 201.043 296.2 201.392 295.848 201.664C295.501 201.931 295.064 202.064 294.536 202.064C294.125 202.064 293.757 201.973 293.432 201.792C293.106 201.605 292.85 201.344 292.664 201.008C292.482 200.667 292.392 200.269 292.392 199.816C292.392 199.363 292.482 198.965 292.664 198.624C292.845 198.283 293.098 198.021 293.424 197.84C293.749 197.659 294.12 197.568 294.536 197.568C294.952 197.568 295.314 197.659 295.624 197.84C295.938 198.021 296.178 198.267 296.344 198.576C296.514 198.88 296.6 199.219 296.6 199.592ZM296.032 199.576C296.037 199.251 295.97 198.973 295.832 198.744C295.698 198.515 295.514 198.341 295.28 198.224C295.045 198.107 294.789 198.048 294.512 198.048C294.096 198.048 293.741 198.181 293.448 198.448C293.154 198.715 292.992 199.091 292.96 199.576H296.032ZM297.72 202.04C297.603 202.04 297.504 202 297.424 201.92C297.35 201.84 297.312 201.741 297.312 201.624C297.312 201.507 297.35 201.411 297.424 201.336C297.504 201.256 297.603 201.216 297.72 201.216C297.832 201.216 297.926 201.256 298 201.336C298.08 201.411 298.12 201.507 298.12 201.624C298.12 201.741 298.08 201.84 298 201.92C297.926 202 297.832 202.04 297.72 202.04ZM298.822 199.816C298.822 199.363 298.912 198.968 299.094 198.632C299.275 198.291 299.526 198.029 299.846 197.848C300.166 197.661 300.531 197.568 300.942 197.568C301.48 197.568 301.923 197.701 302.27 197.968C302.622 198.235 302.848 198.597 302.95 199.056H302.35C302.275 198.741 302.112 198.496 301.862 198.32C301.616 198.139 301.31 198.048 300.942 198.048C300.648 198.048 300.384 198.115 300.15 198.248C299.915 198.381 299.728 198.581 299.59 198.848C299.456 199.109 299.39 199.432 299.39 199.816C299.39 200.2 299.456 200.525 299.59 200.792C299.728 201.059 299.915 201.259 300.15 201.392C300.384 201.525 300.648 201.592 300.942 201.592C301.31 201.592 301.616 201.504 301.862 201.328C302.112 201.147 302.275 200.896 302.35 200.576H302.95C302.848 201.024 302.622 201.384 302.27 201.656C301.918 201.928 301.475 202.064 300.942 202.064C300.531 202.064 300.166 201.973 299.846 201.792C299.526 201.605 299.275 201.344 299.094 201.008C298.912 200.667 298.822 200.269 298.822 199.816ZM305.896 202.064C305.485 202.064 305.114 201.973 304.784 201.792C304.458 201.605 304.2 201.344 304.008 201.008C303.821 200.667 303.728 200.269 303.728 199.816C303.728 199.363 303.824 198.968 304.016 198.632C304.208 198.291 304.469 198.029 304.8 197.848C305.13 197.661 305.501 197.568 305.912 197.568C306.322 197.568 306.693 197.661 307.024 197.848C307.36 198.029 307.621 198.291 307.808 198.632C308 198.968 308.096 199.363 308.096 199.816C308.096 200.264 308 200.659 307.808 201C307.616 201.341 307.352 201.605 307.016 201.792C306.68 201.973 306.306 202.064 305.896 202.064ZM305.896 201.576C306.184 201.576 306.45 201.512 306.696 201.384C306.941 201.251 307.138 201.053 307.288 200.792C307.442 200.525 307.52 200.2 307.52 199.816C307.52 199.432 307.445 199.109 307.296 198.848C307.146 198.581 306.949 198.384 306.704 198.256C306.458 198.123 306.192 198.056 305.904 198.056C305.616 198.056 305.349 198.123 305.104 198.256C304.858 198.384 304.661 198.581 304.512 198.848C304.368 199.109 304.296 199.432 304.296 199.816C304.296 200.2 304.368 200.525 304.512 200.792C304.661 201.053 304.856 201.251 305.096 201.384C305.341 201.512 305.608 201.576 305.896 201.576ZM314.317 197.552C314.829 197.552 315.245 197.715 315.565 198.04C315.89 198.36 316.053 198.827 316.053 199.44V202H315.501V199.504C315.501 199.029 315.386 198.667 315.157 198.416C314.927 198.165 314.615 198.04 314.221 198.04C313.81 198.04 313.482 198.176 313.237 198.448C312.991 198.72 312.869 199.115 312.869 199.632V202H312.317V199.504C312.317 199.029 312.202 198.667 311.973 198.416C311.743 198.165 311.429 198.04 311.029 198.04C310.618 198.04 310.29 198.176 310.045 198.448C309.799 198.72 309.677 199.115 309.677 199.632V202H309.117V197.632H309.677V198.384C309.815 198.112 310.013 197.907 310.269 197.768C310.525 197.624 310.81 197.552 311.125 197.552C311.503 197.552 311.834 197.643 312.117 197.824C312.405 198.005 312.613 198.272 312.741 198.624C312.858 198.277 313.058 198.013 313.341 197.832C313.629 197.645 313.954 197.552 314.317 197.552Z" fill="#DD5928"/>
<path d="M234.3 198.65V183.35C234.3 181.939 233.161 180.8 231.75 180.8H207.933C206.522 180.8 205.383 181.939 205.383 183.35V198.65C205.383 200.061 206.522 201.2 207.933 201.2H231.75C233.161 201.2 234.3 200.061 234.3 198.65ZM232.073 183.163C232.634 183.724 232.328 184.302 232.022 184.591L225.12 190.915L231.75 197.817C231.954 198.055 232.09 198.429 231.852 198.684C231.631 198.956 231.121 198.939 230.9 198.769L223.471 192.428L219.833 195.743L216.212 192.428L208.783 198.769C208.562 198.939 208.052 198.956 207.831 198.684C207.593 198.429 207.729 198.055 207.933 197.817L214.563 190.915L207.661 184.591C207.355 184.302 207.049 183.724 207.61 183.163C208.171 182.602 208.749 182.874 209.225 183.282L219.833 191.85L230.458 183.282C230.934 182.874 231.512 182.602 232.073 183.163Z" fill="#DD5928"/>
<defs>
<filter id="filter0_d_72_267" x="4" y="8" width="226.576" height="144.667" filterUnits="userSpaceOnUse" color-interpolation-filters="sRGB">
<feFlood flood-opacity="0" result="BackgroundImageFix"/>
<feColorMatrix in="SourceAlpha" type="matrix" values="0 0 0 0 0 0 0 0 0 0 0 0 0 0 0 0 0 0 127 0" result="hardAlpha"/>
<feMorphology radius="20" operator="dilate" in="SourceAlpha" result="effect1_dropShadow_72_267"/>
<feOffset dx="12" dy="12"/>
<feGaussianBlur stdDeviation="12"/>
<feComposite in2="hardAlpha" operator="out"/>
<feColorMatrix type="matrix" values="0 0 0 0 0.6375 0 0 0 0 0.629531 0 0 0 0 0.629531 0 0 0 0.2 0"/>
<feBlend mode="normal" in2="BackgroundImageFix" result="effect1_dropShadow_72_267"/>
<feBlend mode="normal" in="SourceGraphic" in2="effect1_dropShadow_72_267" result="shape"/>
</filter>
<filter id="filter1_d_72_267" x="-0.999939" y="80" width="240" height="225" filterUnits="userSpaceOnUse" color-interpolation-filters="sRGB">
<feFlood flood-opacity="0" result="BackgroundImageFix"/>
<feColorMatrix in="SourceAlpha" type="matrix" values="0 0 0 0 0 0 0 0 0 0 0 0 0 0 0 0 0 0 127 0" result="hardAlpha"/>
<feMorphology radius="20" operator="dilate" in="SourceAlpha" result="effect1_dropShadow_72_267"/>
<feOffset dx="20" dy="20"/>
<feGaussianBlur stdDeviation="20"/>
<feComposite in2="hardAlpha" operator="out"/>
<feColorMatrix type="matrix" values="0 0 0 0 0.6375 0 0 0 0 0.629531 0 0 0 0 0.629531 0 0 0 0.2 0"/>
<feBlend mode="normal" in2="BackgroundImageFix" result="effect1_dropShadow_72_267"/>
<feBlend mode="normal" in="SourceGraphic" in2="effect1_dropShadow_72_267" result="shape"/>
</filter>
<filter id="filter2_d_72_267" x="154" y="0" width="249" height="223" filterUnits="userSpaceOnUse" color-interpolation-filters="sRGB">
<feFlood flood-opacity="0" result="BackgroundImageFix"/>
<feColorMatrix in="SourceAlpha" type="matrix" values="0 0 0 0 0 0 0 0 0 0 0 0 0 0 0 0 0 0 127 0" result="hardAlpha"/>
<feMorphology radius="20" operator="dilate" in="SourceAlpha" result="effect1_dropShadow_72_267"/>
<feOffset dx="20" dy="20"/>
<feGaussianBlur stdDeviation="20"/>
<feComposite in2="hardAlpha" operator="out"/>
<feColorMatrix type="matrix" values="0 0 0 0 0.6375 0 0 0 0 0.629531 0 0 0 0 0.629531 0 0 0 0.2 0"/>
<feBlend mode="normal" in2="BackgroundImageFix" result="effect1_dropShadow_72_267"/>
<feBlend mode="normal" in="SourceGraphic" in2="effect1_dropShadow_72_267" result="shape"/>
</filter>
<filter id="filter3_d_72_267" x="152" y="121" width="251" height="184" filterUnits="userSpaceOnUse" color-interpolation-filters="sRGB">
<feFlood flood-opacity="0" result="BackgroundImageFix"/>
<feColorMatrix in="SourceAlpha" type="matrix" values="0 0 0 0 0 0 0 0 0 0 0 0 0 0 0 0 0 0 127 0" result="hardAlpha"/>
<feMorphology radius="20" operator="dilate" in="SourceAlpha" result="effect1_dropShadow_72_267"/>
<feOffset dx="20" dy="20"/>
<feGaussianBlur stdDeviation="20"/>
<feComposite in2="hardAlpha" operator="out"/>
<feColorMatrix type="matrix" values="0 0 0 0 0.639216 0 0 0 0 0.631373 0 0 0 0 0.631373 0 0 0 0.15 0"/>
<feBlend mode="normal" in2="BackgroundImageFix" result="effect1_dropShadow_72_267"/>
<feBlend mode="normal" in="SourceGraphic" in2="effect1_dropShadow_72_267" result="shape"/>
</filter>
</defs>
</svg>
