<svg width="490" height="490" viewBox="0 0 490 490" fill="none" xmlns="http://www.w3.org/2000/svg">
<path d="M100.519 441.157C27.3028 398.86 27.3028 330.358 100.519 288.12C173.734 245.882 292.432 245.853 365.638 288.12C438.844 330.387 438.854 398.919 365.638 441.186C292.422 483.454 173.734 483.424 100.519 441.157Z" fill="#F5F5F5"/>
<path d="M270.656 395.156L274.88 397.596L136.102 419.185V416.088L270.656 395.156Z" fill="#E0E0E0"/>
<path d="M88.4548 432.18C79.0076 437.698 79.0076 446.635 88.4548 452.153C97.902 457.67 113.219 457.67 122.676 452.153C132.133 446.635 132.124 437.698 122.676 432.18C113.229 426.663 97.902 426.624 88.4548 432.18Z" fill="#E0E0E0"/>
<path d="M232.897 351.82C210.043 365.168 210.043 386.796 232.897 400.134C255.751 413.472 292.795 413.472 315.638 400.134C338.482 386.796 338.482 365.168 315.638 351.82C292.795 338.472 255.78 338.521 232.897 351.82Z" fill="#E0E0E0"/>
<path d="M330.505 354.192C337.012 353.623 344.225 353.212 349.37 357.23C351.791 359.101 353.466 361.738 355.309 364.178C357.289 366.794 359.492 369.234 361.894 371.469C363.117 372.694 364.53 373.714 366.079 374.487C367.813 375.204 369.682 375.538 371.557 375.467C379.397 375.467 386.679 371.136 392.715 366.079C394.332 364.727 395.979 363.139 396.4 361.101C397.106 357.7 394.234 354.613 391.304 352.751C383.053 347.498 372.782 344.48 363.394 341.971C353.387 339.161 343.035 337.765 332.641 337.826C326.171 337.949 319.733 338.781 313.443 340.305C309.641 341.226 304.133 342.363 301.193 345.136C300.52 345.708 300.026 346.461 299.771 347.305C299.515 348.15 299.509 349.051 299.753 349.899C300.488 351.859 302.742 352.633 304.76 353.104C313.13 355.083 322.028 354.927 330.505 354.192Z" fill="#E0E0E0"/>
<path d="M115.346 165.62V169.364C115.346 170.549 116.179 171.03 117.198 170.432L120.814 168.344V160.318L117.198 162.406C116.659 162.759 116.211 163.234 115.889 163.792C115.568 164.351 115.382 164.977 115.346 165.62Z" fill="#E0E0E0"/>
<path d="M120.814 288.463L105.722 297.185C105.183 297.535 104.734 298.008 104.412 298.565C104.09 299.122 103.904 299.747 103.87 300.39V304.143C103.87 305.319 104.693 305.799 105.722 305.211L120.814 296.499V288.463Z" fill="#E0E0E0"/>
<path d="M103.88 162.396V166.149C103.88 167.325 104.703 167.805 105.732 167.217L120.824 158.495V150.469L105.732 159.191C105.193 159.541 104.743 160.014 104.421 160.571C104.1 161.128 103.914 161.753 103.88 162.396Z" fill="#E0E0E0"/>
<path d="M112.034 204.82L94.8836 214.728C94.3456 215.08 93.8977 215.553 93.576 216.11C93.2543 216.666 93.0677 217.291 93.0314 217.932V221.686C93.0314 222.862 93.8644 223.342 94.8836 222.754L112.034 212.856C112.574 212.504 113.023 212.029 113.344 211.471C113.666 210.912 113.852 210.285 113.886 209.642V205.898C113.886 204.663 113.063 204.183 112.034 204.82Z" fill="#E0E0E0"/>
<path d="M120.814 249.038L105.722 257.76C105.183 258.11 104.734 258.583 104.412 259.14C104.09 259.697 103.904 260.322 103.87 260.964V264.718C103.87 265.894 104.693 266.374 105.722 265.786L120.814 257.064V249.038Z" fill="#E0E0E0"/>
<path d="M103.88 122.97V126.714C103.88 127.9 104.703 128.38 105.732 127.792L120.824 119.07V111.044L105.732 119.766C105.191 120.115 104.741 120.587 104.419 121.145C104.097 121.702 103.912 122.328 103.88 122.97Z" fill="#E0E0E0"/>
<path d="M120.814 347.606L105.722 356.328C105.183 356.678 104.734 357.151 104.412 357.708C104.09 358.265 103.904 358.89 103.87 359.533V363.286C103.87 364.462 104.693 364.942 105.722 364.354L120.814 355.632V347.606Z" fill="#E0E0E0"/>
<path d="M86.6908 241.492V245.235C86.6908 246.421 87.514 246.901 88.543 246.303L105.683 236.405C106.224 236.056 106.675 235.583 106.998 235.026C107.322 234.469 107.509 233.844 107.545 233.201V229.447C107.545 228.271 106.712 227.791 105.683 228.379L88.543 238.277C88.0031 238.629 87.554 239.104 87.2322 239.663C86.9103 240.221 86.7248 240.848 86.6908 241.492Z" fill="#E0E0E0"/>
<path d="M103.88 201.821V205.575C103.88 206.751 104.703 207.231 105.732 206.643L120.824 197.931V189.895L105.732 198.617C105.193 198.967 104.743 199.44 104.421 199.997C104.1 200.554 103.914 201.179 103.88 201.821Z" fill="#E0E0E0"/>
<path d="M102.41 265.58V261.836C102.41 260.651 101.577 260.17 100.558 260.768L83.4078 270.666C82.8698 271.018 82.4219 271.491 82.1001 272.048C81.7784 272.605 81.5919 273.229 81.5556 273.871V277.624C81.5556 278.8 82.3886 279.28 83.4078 278.692L100.558 268.794C101.097 268.441 101.545 267.966 101.867 267.408C102.188 266.849 102.374 266.223 102.41 265.58Z" fill="#E0E0E0"/>
<path d="M94.8836 360.699L112.034 350.801C112.574 350.449 113.023 349.974 113.344 349.415C113.666 348.857 113.852 348.23 113.886 347.586V343.843C113.886 342.657 113.063 342.177 112.034 342.775L94.8836 352.673C94.3456 353.025 93.8977 353.498 93.576 354.054C93.2543 354.611 93.0677 355.235 93.0314 355.877V359.66C93.0314 360.807 93.8644 361.287 94.8836 360.699Z" fill="#E0E0E0"/>
<path d="M102.498 111.857L85.3482 121.755C84.8085 122.105 84.3593 122.578 84.0374 123.135C83.7155 123.692 83.53 124.317 83.496 124.96V128.713C83.496 129.889 84.3192 130.369 85.3482 129.781L102.498 119.883C103.037 119.53 103.485 119.055 103.807 118.497C104.129 117.938 104.315 117.312 104.35 116.669V112.925C104.35 111.72 103.517 111.259 102.498 111.857Z" fill="#E0E0E0"/>
<path d="M112.034 125.92L94.8836 135.818C94.3448 136.172 93.8966 136.647 93.5748 137.205C93.2531 137.763 93.067 138.389 93.0314 139.033V142.776C93.0314 143.962 93.8644 144.442 94.8836 143.844L112.034 133.946C112.573 133.596 113.022 133.123 113.344 132.566C113.666 132.009 113.852 131.384 113.886 130.742V126.988C113.886 125.812 113.063 125.332 112.034 125.92Z" fill="#E0E0E0"/>
<path d="M112.034 165.346L94.8836 175.253C94.3445 175.604 93.8958 176.077 93.5739 176.634C93.2521 177.191 93.0662 177.816 93.0314 178.458V182.211C93.0314 183.387 93.8644 183.868 94.8836 183.28L112.034 173.372C112.573 173.022 113.022 172.549 113.344 171.992C113.666 171.435 113.852 170.81 113.886 170.167V166.414C113.886 165.238 113.063 164.758 112.034 165.346Z" fill="#E0E0E0"/>
<path d="M94.8836 281.848L112.034 271.94C112.574 271.591 113.024 271.119 113.346 270.561C113.669 270.004 113.853 269.378 113.886 268.736V264.982C113.886 263.806 113.063 263.326 112.034 263.914L94.8836 273.822C94.3445 274.172 93.8958 274.645 93.5739 275.202C93.2521 275.759 93.0662 276.384 93.0314 277.026V280.78C93.0314 281.956 93.8644 282.436 94.8836 281.848Z" fill="#E0E0E0"/>
<path d="M120.814 308.181L105.722 316.903C105.182 317.252 104.732 317.724 104.41 318.281C104.088 318.839 103.903 319.464 103.87 320.107V323.851C103.87 325.037 104.693 325.517 105.722 324.929L120.814 316.207V308.181Z" fill="#E0E0E0"/>
<path d="M281.015 82.2023V85.9459C280.983 86.5929 280.799 87.2231 280.477 87.7852C280.155 88.3472 279.705 88.8252 279.163 89.1799L275.547 91.2673V83.2215L279.163 81.1341C280.182 80.5461 281.015 81.0165 281.015 82.2023Z" fill="#E0E0E0"/>
<path d="M275.547 211.386L290.648 202.674C291.628 202.076 292.501 202.556 292.501 203.742V207.486C292.465 208.129 292.279 208.755 291.957 209.313C291.635 209.872 291.187 210.347 290.648 210.7L275.547 219.412V211.386Z" fill="#E0E0E0"/>
<path d="M292.501 65.7481V69.4917C292.465 70.1351 292.279 70.7611 291.957 71.3194C291.635 71.8777 291.187 72.3527 290.648 72.7061L275.547 81.4183V73.3921L290.648 64.6799C291.668 64.0821 292.501 64.5623 292.501 65.7481Z" fill="#E0E0E0"/>
<path d="M284.327 117.6L301.477 107.692C302.457 107.104 303.33 107.584 303.33 108.76V112.514C303.295 113.156 303.109 113.781 302.787 114.338C302.465 114.895 302.017 115.368 301.477 115.718L284.327 125.626C283.298 126.214 282.475 125.734 282.475 124.558V120.805C282.509 120.162 282.695 119.537 283.017 118.98C283.339 118.423 283.788 117.95 284.327 117.6Z" fill="#E0E0E0"/>
<path d="M275.547 171.961L290.648 163.248C291.628 162.651 292.501 163.131 292.501 164.317V168.06C292.465 168.704 292.279 169.33 291.957 169.888C291.635 170.446 291.187 170.921 290.648 171.275L275.547 179.987V171.961Z" fill="#E0E0E0"/>
<path d="M292.501 26.313V30.0664C292.473 30.7171 292.291 31.3518 291.969 31.9178C291.647 32.4837 291.194 32.9645 290.648 33.32L275.547 42.042V33.9668L290.648 25.2448C291.668 24.6568 292.501 25.137 292.501 26.313Z" fill="#E0E0E0"/>
<path d="M275.547 270.529L290.648 261.817C291.628 261.219 292.501 261.699 292.501 262.885V266.629C292.465 267.272 292.279 267.898 291.957 268.456C291.635 269.015 291.187 269.49 290.648 269.843L275.547 278.555V270.529Z" fill="#E0E0E0"/>
<path d="M309.68 124.999V128.752C309.644 129.394 309.457 130.019 309.135 130.575C308.814 131.132 308.366 131.605 307.828 131.957L290.678 141.855C289.649 142.453 288.826 141.973 288.826 140.787V137.043C288.86 136.399 289.045 135.773 289.367 135.214C289.689 134.656 290.138 134.181 290.678 133.829L307.828 123.931C308.847 123.343 309.68 123.823 309.68 124.999Z" fill="#E0E0E0"/>
<path d="M292.501 105.174V108.917C292.466 109.561 292.28 110.187 291.958 110.745C291.636 111.304 291.188 111.779 290.648 112.132L275.547 120.844V112.818L290.648 104.105C291.668 103.508 292.501 103.988 292.501 105.174Z" fill="#E0E0E0"/>
<path d="M294 167.198V163.454C294.035 162.811 294.221 162.184 294.542 161.626C294.864 161.067 295.313 160.593 295.852 160.24L313.002 150.342C314.031 149.754 314.854 150.224 314.854 151.41V155.163C314.82 155.806 314.635 156.431 314.313 156.988C313.991 157.545 313.542 158.018 313.002 158.368L295.852 168.266C294.784 168.864 294 168.384 294 167.198Z" fill="#E0E0E0"/>
<path d="M301.477 253.683L284.327 263.62C283.298 264.208 282.475 263.728 282.475 262.552V258.72C282.509 258.078 282.695 257.452 283.017 256.895C283.339 256.338 283.788 255.865 284.327 255.515L301.477 245.617C302.457 245.02 303.33 245.5 303.33 246.686V250.429C303.3 251.079 303.117 251.713 302.795 252.279C302.473 252.844 302.021 253.325 301.477 253.683Z" fill="#E0E0E0"/>
<path d="M284.327 38.7002L301.477 28.8022C302.457 28.2142 303.33 28.6944 303.33 29.8704V33.6238C303.293 34.2656 303.107 34.89 302.785 35.4466C302.463 36.0032 302.015 36.4765 301.477 36.8284L284.327 46.7264C283.298 47.3242 282.475 46.844 282.475 45.6582V41.9146C282.509 41.2708 282.695 40.6442 283.017 40.0857C283.338 39.5271 283.788 39.0524 284.327 38.7002Z" fill="#E0E0E0"/>
<path d="M284.327 78.1256L301.477 68.2276C302.457 67.6396 303.33 68.1198 303.33 69.2958V73.0492C303.293 73.691 303.107 74.3154 302.785 74.872C302.463 75.4286 302.015 75.9019 301.477 76.2538L284.327 86.1616C283.298 86.7496 282.475 86.2694 282.475 85.0836V81.34C282.509 80.6962 282.695 80.0696 283.017 79.5111C283.338 78.9525 283.788 78.4778 284.327 78.1256Z" fill="#E0E0E0"/>
<path d="M301.477 174.822L284.327 184.73C283.298 185.318 282.475 184.838 282.475 183.652V179.908C282.509 179.265 282.695 178.638 283.017 178.08C283.338 177.521 283.788 177.046 284.327 176.694L301.477 166.796C302.457 166.208 303.33 166.688 303.33 167.864V171.618C303.293 172.26 303.107 172.884 302.785 173.441C302.463 173.997 302.015 174.47 301.477 174.822Z" fill="#E0E0E0"/>
<path d="M275.547 231.104L290.648 222.382C291.628 221.794 292.501 222.274 292.501 223.45V227.203C292.464 227.845 292.278 228.469 291.956 229.026C291.634 229.583 291.186 230.056 290.648 230.408L275.547 239.12V231.104Z" fill="#E0E0E0"/>
<path d="M136.102 272.009L259.818 343.47V44.4529L136.102 115.924V272.009Z" fill="#DD5928"/>
<path opacity="0.4" d="M136.102 272.009L259.818 343.47V44.4529L136.102 115.924V272.009Z" fill="black"/>
<path d="M259.818 343.47L136.102 272.009V414.873L259.818 343.47Z" fill="#E0E0E0"/>
<path d="M259.818 343.47L265.6 346.793V41.1111L259.818 44.4529V343.47Z" fill="#DD5928"/>
<path opacity="0.4" d="M259.818 343.47L265.6 346.793V41.1111L259.818 44.4529V343.47Z" fill="white"/>
<path opacity="0.1" d="M259.818 343.47L265.6 346.793V41.1111L259.818 44.4529V343.47Z" fill="black"/>
<path d="M265.6 346.793L275.547 341.05V20.139L126.508 106.183L126.518 427.094L136.102 421.557V115.924L265.6 41.111V346.793Z" fill="#DD5928"/>
<path opacity="0.7" d="M265.6 346.793L275.547 341.05V20.139L126.508 106.183L126.518 427.094L136.102 421.557V115.924L265.6 41.111V346.793Z" fill="white"/>
<path d="M275.547 20.139L126.508 106.183L120.814 102.871L269.853 16.8364L275.547 20.139Z" fill="#DD5928"/>
<path opacity="0.85" d="M275.547 20.139L126.508 106.183L120.814 102.871L269.853 16.8364L275.547 20.139Z" fill="white"/>
<path d="M126.508 427.094V106.183L120.814 102.871L120.726 423.752L126.508 427.094Z" fill="#DD5928"/>
<path opacity="0.6" d="M120.814 102.871L120.726 423.752L126.508 427.094V106.183" fill="white"/>
<path d="M330.603 87.2199C331.701 87.1242 332.806 87.1869 333.886 87.4061C334.926 87.6055 335.922 87.9905 336.826 88.5429C337.682 89.0658 338.414 89.7679 338.972 90.6009C339.476 91.4135 339.804 92.3223 339.935 93.2691C340.067 94.2158 339.999 95.1797 339.737 96.0987C339.509 96.797 339.179 97.4576 338.757 98.0587C338.348 98.6494 337.889 99.2035 337.385 99.7149L335.954 101.146C335.521 101.577 335.127 102.046 334.778 102.547C334.465 102.992 334.282 103.514 334.249 104.056C334.222 104.307 334.13 104.547 333.984 104.752C333.915 104.851 333.824 104.932 333.719 104.99C333.614 105.047 333.496 105.08 333.376 105.085L330.681 105.311C330.553 105.322 330.424 105.308 330.301 105.269C330.179 105.231 330.065 105.168 329.966 105.085C329.865 105.01 329.784 104.913 329.727 104.8C329.671 104.688 329.642 104.564 329.643 104.439C329.6 103.595 329.73 102.751 330.025 101.959C330.3 101.261 330.666 100.602 331.113 99.9991C331.542 99.4171 332.021 98.8728 332.543 98.3723C333.063 97.8725 333.523 97.3923 333.974 96.9513C334.378 96.5439 334.736 96.0937 335.042 95.6087C335.309 95.1927 335.43 94.6996 335.385 94.2073C335.355 93.7745 335.219 93.3556 334.99 92.9868C334.761 92.618 334.446 92.3104 334.072 92.0905C333.139 91.5508 332.054 91.3338 330.985 91.4731C330.027 91.5382 329.112 91.898 328.367 92.5033C327.621 93.1086 327.081 93.9298 326.82 94.8541C326.745 95.0755 326.636 95.2838 326.497 95.4715C326.318 95.6291 326.088 95.7162 325.85 95.7165L322.988 95.9517C322.887 95.9643 322.785 95.956 322.687 95.9274C322.589 95.8987 322.498 95.8503 322.42 95.7851C322.338 95.7208 322.27 95.6392 322.223 95.5461C322.176 95.4529 322.149 95.3506 322.146 95.2461C322.112 94.3485 322.3 93.4563 322.694 92.6491C323.101 91.7036 323.671 90.8376 324.38 90.0913C325.177 89.2958 326.097 88.634 327.104 88.1313C328.198 87.5975 329.388 87.2876 330.603 87.2199ZM333.7 107.202C333.953 107.187 334.203 107.272 334.396 107.437C334.494 107.515 334.575 107.613 334.632 107.725C334.689 107.836 334.722 107.959 334.729 108.084L334.993 111.201C335.011 111.453 334.93 111.702 334.768 111.896C334.688 111.994 334.588 112.075 334.475 112.132C334.362 112.19 334.238 112.223 334.111 112.23L331.073 112.484C330.948 112.497 330.822 112.483 330.702 112.444C330.582 112.406 330.472 112.343 330.378 112.259C330.279 112.18 330.198 112.082 330.139 111.971C330.08 111.86 330.045 111.738 330.035 111.612L329.78 108.496C329.765 108.37 329.777 108.243 329.816 108.123C329.855 108.003 329.92 107.893 330.005 107.8C330.083 107.7 330.18 107.618 330.292 107.559C330.403 107.5 330.526 107.465 330.652 107.457L333.7 107.202Z" fill="#DD5928"/>
<path d="M352.555 121.02C353.389 121.252 354.185 121.605 354.917 122.069C355.62 122.497 356.241 123.048 356.749 123.696C357.223 124.323 357.557 125.045 357.729 125.812C357.916 126.633 357.882 127.488 357.631 128.292C357.469 128.936 357.175 129.54 356.769 130.066C356.411 130.52 355.988 130.919 355.515 131.251C355.049 131.57 354.557 131.849 354.045 132.084L352.594 132.751C352.158 132.946 351.741 133.183 351.35 133.456C350.992 133.698 350.713 134.038 350.546 134.436C350.456 134.615 350.321 134.767 350.154 134.877C350.076 134.931 349.987 134.966 349.894 134.979C349.8 134.993 349.705 134.985 349.615 134.956L347.567 134.378C347.469 134.354 347.377 134.309 347.297 134.246C347.218 134.184 347.153 134.105 347.106 134.015C347.054 133.933 347.021 133.84 347.011 133.743C347.001 133.646 347.013 133.548 347.047 133.456C347.254 132.824 347.588 132.241 348.027 131.741C348.424 131.298 348.876 130.906 349.37 130.575C349.849 130.263 350.354 129.995 350.879 129.772C351.399 129.546 351.859 129.331 352.32 129.115C352.729 128.93 353.117 128.699 353.476 128.429C353.794 128.184 354.018 127.838 354.113 127.449C354.218 127.116 354.238 126.763 354.172 126.42C354.105 126.078 353.953 125.758 353.731 125.489C353.194 124.836 352.457 124.378 351.634 124.186C350.909 123.968 350.134 123.98 349.417 124.221C348.699 124.461 348.073 124.918 347.626 125.528C347.513 125.671 347.377 125.793 347.224 125.891C347.05 125.956 346.859 125.956 346.685 125.891L344.509 125.273C344.432 125.255 344.359 125.221 344.295 125.174C344.231 125.126 344.178 125.067 344.137 124.999C344.094 124.928 344.066 124.848 344.056 124.765C344.046 124.682 344.053 124.598 344.078 124.519C344.301 123.848 344.685 123.243 345.195 122.755C345.766 122.194 346.429 121.737 347.155 121.402C347.963 121.038 348.823 120.803 349.703 120.707C350.665 120.625 351.634 120.731 352.555 121.02ZM349.331 136.592C349.426 136.618 349.515 136.662 349.592 136.723C349.669 136.784 349.734 136.859 349.782 136.945C349.831 137.032 349.863 137.128 349.875 137.227C349.887 137.327 349.878 137.427 349.85 137.523L349.184 139.885C349.158 139.98 349.114 140.069 349.053 140.146C348.993 140.224 348.917 140.288 348.831 140.336C348.744 140.385 348.648 140.416 348.549 140.428C348.45 140.44 348.349 140.432 348.253 140.405L345.94 139.758C345.845 139.731 345.757 139.685 345.681 139.623C345.605 139.561 345.543 139.483 345.499 139.395C345.448 139.311 345.415 139.217 345.401 139.119C345.388 139.021 345.394 138.922 345.421 138.827L346.087 136.455C346.115 136.36 346.161 136.271 346.223 136.194C346.286 136.116 346.362 136.052 346.45 136.004C346.535 135.955 346.629 135.923 346.727 135.912C346.824 135.9 346.924 135.908 347.018 135.936L349.331 136.592Z" fill="#DD5928"/>
<g opacity="0.2">
<path opacity="0.2" d="M352.555 121.02C353.389 121.252 354.185 121.605 354.917 122.069C355.62 122.497 356.241 123.048 356.749 123.696C357.223 124.323 357.557 125.045 357.729 125.812C357.916 126.633 357.882 127.488 357.631 128.292C357.469 128.936 357.175 129.54 356.769 130.066C356.411 130.52 355.988 130.919 355.515 131.251C355.049 131.57 354.557 131.849 354.045 132.084L352.594 132.751C352.158 132.946 351.741 133.183 351.35 133.456C350.992 133.698 350.713 134.038 350.546 134.436C350.456 134.615 350.321 134.767 350.154 134.877C350.076 134.931 349.987 134.966 349.894 134.979C349.8 134.993 349.705 134.985 349.615 134.956L347.567 134.378C347.469 134.354 347.377 134.309 347.297 134.246C347.218 134.184 347.153 134.105 347.106 134.015C347.054 133.933 347.021 133.84 347.011 133.743C347.001 133.646 347.013 133.548 347.047 133.456C347.254 132.824 347.588 132.241 348.027 131.741C348.424 131.298 348.876 130.906 349.37 130.575C349.849 130.263 350.354 129.995 350.879 129.772C351.399 129.546 351.859 129.331 352.32 129.115C352.729 128.93 353.117 128.699 353.476 128.429C353.794 128.184 354.018 127.838 354.113 127.449C354.218 127.116 354.238 126.763 354.172 126.42C354.105 126.078 353.953 125.758 353.731 125.489C353.194 124.836 352.457 124.378 351.634 124.186C350.909 123.968 350.134 123.98 349.417 124.221C348.699 124.461 348.073 124.918 347.626 125.528C347.513 125.671 347.377 125.793 347.224 125.891C347.05 125.956 346.859 125.956 346.685 125.891L344.509 125.273C344.432 125.255 344.359 125.221 344.295 125.174C344.231 125.126 344.178 125.067 344.137 124.999C344.094 124.928 344.066 124.848 344.056 124.765C344.046 124.682 344.053 124.598 344.078 124.519C344.301 123.848 344.685 123.243 345.195 122.755C345.766 122.194 346.429 121.737 347.155 121.402C347.963 121.038 348.823 120.803 349.703 120.707C350.665 120.625 351.634 120.731 352.555 121.02ZM349.331 136.592C349.426 136.618 349.515 136.662 349.592 136.723C349.669 136.784 349.734 136.859 349.782 136.945C349.831 137.032 349.863 137.128 349.875 137.227C349.887 137.327 349.878 137.427 349.85 137.523L349.184 139.885C349.158 139.98 349.114 140.069 349.053 140.146C348.993 140.224 348.917 140.288 348.831 140.336C348.744 140.385 348.648 140.416 348.549 140.428C348.45 140.44 348.349 140.432 348.253 140.405L345.94 139.758C345.845 139.731 345.757 139.685 345.681 139.623C345.605 139.561 345.543 139.483 345.499 139.395C345.448 139.311 345.415 139.217 345.401 139.119C345.388 139.021 345.394 138.922 345.421 138.827L346.087 136.455C346.115 136.36 346.161 136.271 346.223 136.194C346.286 136.116 346.362 136.052 346.45 136.004C346.535 135.955 346.629 135.923 346.727 135.912C346.824 135.9 346.924 135.908 347.018 135.936L349.331 136.592Z" fill="black"/>
</g>
<path d="M363.168 109.858C363.251 109.91 363.321 109.979 363.375 110.06C363.429 110.141 363.466 110.232 363.482 110.328C363.502 110.422 363.502 110.519 363.484 110.614C363.465 110.708 363.428 110.798 363.374 110.877L362.032 112.837C361.98 112.919 361.911 112.99 361.83 113.044C361.749 113.098 361.657 113.134 361.561 113.151C361.467 113.17 361.37 113.17 361.276 113.152C361.182 113.133 361.092 113.096 361.012 113.043L359.052 111.73C358.972 111.677 358.903 111.608 358.85 111.527C358.798 111.446 358.763 111.355 358.749 111.259C358.729 111.165 358.729 111.068 358.747 110.974C358.766 110.88 358.803 110.79 358.856 110.711L360.199 108.751C360.309 108.602 360.47 108.5 360.651 108.464C360.832 108.428 361.02 108.46 361.179 108.555L363.168 109.858ZM370.91 96.4417C371.607 96.9136 372.234 97.481 372.772 98.1273C373.291 98.7396 373.696 99.4399 373.968 100.195C374.231 100.919 374.331 101.692 374.262 102.459C374.184 103.277 373.893 104.061 373.419 104.733C373.068 105.275 372.616 105.744 372.086 106.114C371.613 106.42 371.098 106.658 370.558 106.82C370.029 106.976 369.488 107.084 368.941 107.143L367.402 107.31C366.937 107.361 366.477 107.456 366.03 107.594C365.632 107.707 365.272 107.927 364.991 108.231C364.861 108.376 364.69 108.478 364.501 108.525C364.411 108.551 364.317 108.555 364.225 108.538C364.133 108.521 364.047 108.483 363.972 108.427L362.257 107.271C362.176 107.217 362.106 107.148 362.052 107.067C361.999 106.987 361.962 106.896 361.943 106.8C361.917 106.706 361.915 106.607 361.935 106.512C361.956 106.416 361.999 106.327 362.061 106.252C362.446 105.735 362.924 105.296 363.472 104.958C363.975 104.672 364.511 104.451 365.07 104.301C365.606 104.157 366.153 104.058 366.706 104.007C367.255 104.007 367.765 103.909 368.245 103.851C368.678 103.8 369.105 103.705 369.519 103.566C369.877 103.44 370.186 103.203 370.401 102.89C370.589 102.617 370.708 102.302 370.747 101.972C370.786 101.643 370.745 101.309 370.626 100.999C370.333 100.228 369.791 99.5765 369.088 99.1465C368.484 98.7253 367.766 98.4995 367.03 98.4995C366.294 98.4995 365.575 98.7253 364.972 99.1465C364.825 99.2458 364.663 99.3187 364.491 99.3621C364.308 99.3727 364.127 99.3171 363.982 99.2053L362.159 97.9999C362.093 97.959 362.036 97.9047 361.992 97.8406C361.948 97.7765 361.918 97.7039 361.904 97.6275C361.885 97.5483 361.883 97.4657 361.9 97.386C361.917 97.3062 361.952 97.2313 362.002 97.1669C362.413 96.6184 362.951 96.1778 363.57 95.8831C364.272 95.5321 365.033 95.3129 365.814 95.2363C366.672 95.142 367.539 95.1884 368.382 95.3735C369.285 95.5656 370.143 95.9282 370.91 96.4417Z" fill="#DD5928"/>
<g opacity="0.6">
<path opacity="0.6" d="M363.168 109.858C363.251 109.91 363.321 109.979 363.375 110.06C363.429 110.141 363.466 110.232 363.482 110.328C363.502 110.422 363.502 110.519 363.484 110.614C363.465 110.708 363.428 110.798 363.374 110.877L362.032 112.837C361.98 112.919 361.911 112.99 361.83 113.044C361.749 113.098 361.657 113.134 361.561 113.151C361.467 113.17 361.37 113.17 361.276 113.152C361.182 113.133 361.092 113.096 361.012 113.043L359.052 111.73C358.972 111.677 358.903 111.608 358.85 111.527C358.798 111.446 358.763 111.355 358.749 111.259C358.729 111.165 358.729 111.068 358.747 110.974C358.766 110.88 358.803 110.79 358.856 110.711L360.199 108.751C360.309 108.602 360.47 108.5 360.651 108.464C360.832 108.428 361.02 108.46 361.179 108.555L363.168 109.858ZM370.91 96.4417C371.607 96.9136 372.234 97.481 372.772 98.1273C373.291 98.7396 373.696 99.4399 373.968 100.195C374.231 100.919 374.331 101.692 374.262 102.459C374.184 103.277 373.893 104.061 373.419 104.733C373.068 105.275 372.616 105.744 372.086 106.114C371.613 106.42 371.098 106.658 370.558 106.82C370.029 106.976 369.488 107.084 368.941 107.143L367.402 107.31C366.937 107.361 366.477 107.456 366.03 107.594C365.632 107.707 365.272 107.927 364.991 108.231C364.861 108.376 364.69 108.478 364.501 108.525C364.411 108.551 364.317 108.555 364.225 108.538C364.133 108.521 364.047 108.483 363.972 108.427L362.257 107.271C362.176 107.217 362.106 107.148 362.052 107.067C361.999 106.987 361.962 106.896 361.943 106.8C361.917 106.706 361.915 106.607 361.935 106.512C361.956 106.416 361.999 106.327 362.061 106.252C362.446 105.735 362.924 105.296 363.472 104.958C363.975 104.672 364.511 104.451 365.07 104.301C365.606 104.157 366.153 104.058 366.706 104.007C367.255 104.007 367.765 103.909 368.245 103.851C368.678 103.8 369.105 103.705 369.519 103.566C369.877 103.44 370.186 103.203 370.401 102.89C370.589 102.617 370.708 102.302 370.747 101.972C370.786 101.643 370.745 101.309 370.626 100.999C370.333 100.228 369.791 99.5765 369.088 99.1465C368.484 98.7253 367.766 98.4995 367.03 98.4995C366.294 98.4995 365.575 98.7253 364.972 99.1465C364.825 99.2458 364.663 99.3187 364.491 99.3621C364.308 99.3727 364.127 99.3171 363.982 99.2053L362.159 97.9999C362.093 97.959 362.036 97.9047 361.992 97.8406C361.948 97.7765 361.918 97.7039 361.904 97.6275C361.885 97.5483 361.883 97.4657 361.9 97.386C361.917 97.3062 361.952 97.2313 362.002 97.1669C362.413 96.6184 362.951 96.1778 363.57 95.8831C364.272 95.5321 365.033 95.3129 365.814 95.2363C366.672 95.142 367.539 95.1884 368.382 95.3735C369.285 95.5656 370.143 95.9282 370.91 96.4417Z" fill="white"/>
</g>
<path d="M282.338 375.34C282.122 377.672 283.641 383.748 283.641 383.748C283.641 383.748 284.935 385.708 288.62 386.61L288.875 377.79L282.338 375.34Z" fill="#263238"/>
<path d="M288.62 386.561L295.891 382.886L296.695 375.82L288.767 381.475L288.62 386.561Z" fill="black"/>
<path d="M294.147 365.158L294 363.678C295.117 364.031 298.047 372.292 302.016 377.565C305.642 382.376 311.679 384.425 313.845 386.443C316.736 389.119 312.62 393.774 304.79 393.303C300.87 393.068 294.843 391.539 292.912 389.236C290.982 386.933 289.737 382.376 288.189 380.671C286.64 378.966 283.289 377.31 282.358 375.281C281.828 374.164 282.024 371.577 282.358 369.401C282.652 367.373 282.975 365.148 283.671 365.256C283.671 365.501 283.837 366.5 283.837 366.5C284.073 367.48 285.376 368.519 289.443 368.078C291.246 367.863 294.47 367.167 294.147 365.158Z" fill="#455A64"/>
<path d="M213.944 330.162C212.699 331.877 210.504 343.882 210.504 343.882C210.504 343.882 213.375 348.076 215.032 349.35L220.353 338.061L213.944 330.162Z" fill="#263238"/>
<path d="M215.032 349.301L224.792 347.057L228.418 339.541L218.256 342.373L215.032 349.301Z" fill="black"/>
<path d="M221.215 322.547C220.657 322.126 219.853 323.224 217.903 324.968C216.531 326.193 213.571 327.349 213.571 330.848C213.571 333.367 215.247 336.473 216.854 339.08C218.462 341.687 218.697 344.029 218.687 347.733C218.687 352.212 217.864 354.956 223.371 358.945C227.781 362.13 236.739 362.718 238.708 360.905C242.08 357.749 234.21 353.417 232.926 346.959C231.162 338.051 230.966 336.561 231.211 330.299L221.215 322.547Z" fill="#455A64"/>
<path d="M307.397 213.052C303.104 215.375 290.07 215.992 271.783 212.072L273.949 264.992C273.949 264.992 257.926 276.36 252.997 282.563C248.067 288.767 224.361 318.902 224.361 318.902L221.088 322.694C219.059 325.046 220.108 328.222 222.46 330.25C224.724 332.112 227.674 333.425 229.879 331.505L232.583 329.153C232.583 329.153 285.562 288.316 287.463 285.709C289.365 283.102 293.824 276.634 298.635 262.983C304.849 245.47 305.887 232.789 307.397 213.052Z" fill="#FFA8A7"/>
<path d="M307.387 213.052C295.813 218.364 272.548 216.551 272.548 216.551L273.616 264.914C267.766 268.473 262.289 272.613 257.27 277.271C250.331 283.955 239.747 297.851 239.747 297.851C243.373 308.053 253.702 312.816 253.702 312.816C253.702 312.816 275.429 297.597 287.581 288.982C293.941 284.484 298.724 281.975 300.635 274.655C302.138 269.05 303.296 263.359 304.104 257.613C305.143 251.292 305.642 244.098 306.25 238.777C307.285 230.244 307.665 221.643 307.387 213.052Z" fill="#DD5928"/>
<path opacity="0.4" d="M307.387 213.052C295.813 218.364 272.548 216.551 272.548 216.551L273.616 264.914C267.766 268.473 262.289 272.613 257.27 277.271C250.331 283.955 239.747 297.851 239.747 297.851C243.373 308.053 253.702 312.816 253.702 312.816C253.702 312.816 275.429 297.597 287.581 288.982C293.941 284.484 298.724 281.975 300.635 274.655C302.138 269.05 303.296 263.359 304.104 257.613C305.143 251.292 305.642 244.098 306.25 238.777C307.285 230.244 307.665 221.643 307.387 213.052Z" fill="black"/>
<path opacity="0.1" d="M288.061 275.801L286.219 249.067L279.359 242.687L273.479 258.416L273.626 264.914C269.831 267.233 266.182 269.783 262.699 272.548L263.679 274.91L269.255 288.385C269.255 288.385 267.295 297.577 268.118 302.653C274.537 298.145 281.838 293 287.316 289.129L288.061 275.801Z" fill="black"/>
<path d="M294.519 366.324V365.226C293.677 355.338 295.039 300.968 294.98 286.297C294.911 270.411 292.04 231.927 292.04 231.927C292.04 231.927 301.428 219.667 307.475 213.052C301.762 219.589 272.95 216.276 271.215 203.693C268.853 208.652 260.435 213.767 259.739 230.065C258.759 250.831 273.459 287.552 273.459 287.552C272.901 290.325 270.382 301.948 271.862 312.679C274.194 329.613 282.563 359.552 283.445 363.639L283.984 367.118C285.817 369.391 293.196 369.048 294.519 366.324Z" fill="#FFA8A7"/>
<path d="M295.186 257.24L294.343 235.553C294.343 235.553 303.075 233.279 306.613 225.939C307.273 221.677 307.535 217.363 307.397 213.052C307.397 213.052 299.762 216.59 289.031 213.973C282.266 212.166 276.091 208.622 271.117 203.693C271.117 203.693 269.059 205.722 264.835 212.023C262.816 215.032 259.406 222.803 259.112 228.869C258.436 242.717 262.856 257.495 262.856 257.495C265.11 268.334 271.95 288.061 271.95 288.061C271.95 288.061 269.343 302.428 270.656 312.728C271.97 323.028 276.135 334.67 276.135 334.67C276.135 334.67 287.748 338.59 295.382 334.043C295.382 334.043 295.744 298.224 295.882 284.249C296.019 270.274 295.186 257.24 295.186 257.24Z" fill="#DD5928"/>
<path opacity="0.3" d="M295.186 257.24L294.343 235.553C294.343 235.553 303.075 233.279 306.613 225.939C307.273 221.677 307.535 217.363 307.397 213.052C307.397 213.052 299.762 216.59 289.031 213.973C282.266 212.166 276.091 208.622 271.117 203.693C271.117 203.693 269.059 205.722 264.835 212.023C262.816 215.032 259.406 222.803 259.112 228.869C258.436 242.717 262.856 257.495 262.856 257.495C265.11 268.334 271.95 288.061 271.95 288.061C271.95 288.061 269.343 302.428 270.656 312.728C271.97 323.028 276.135 334.67 276.135 334.67C276.135 334.67 287.748 338.59 295.382 334.043C295.382 334.043 295.744 298.224 295.882 284.249C296.019 270.274 295.186 257.24 295.186 257.24Z" fill="black"/>
<path d="M334.543 166.355C335.867 164.853 336.641 162.945 336.737 160.945C336.833 158.945 336.246 156.972 335.072 155.35C331.044 149.048 321.538 151.498 321.538 151.498L319 147.412C319.958 147.157 320.958 147.097 321.94 147.235C323.721 147.303 325.5 147.051 327.193 146.49C329.008 145.989 330.588 144.86 331.652 143.305C332.157 142.518 332.385 141.584 332.3 140.652C332.215 139.72 331.821 138.843 331.181 138.16C332.124 138.167 333.057 137.973 333.919 137.591C334.781 137.209 335.552 136.648 336.18 135.946C336.808 135.243 337.28 134.415 337.564 133.516C337.848 132.617 337.937 131.668 337.826 130.732C337.789 130.159 337.577 129.612 337.218 129.164C336.71 128.714 336.096 128.401 335.434 128.253C333.646 127.625 332.012 126.623 330.642 125.313C327.928 122.716 326.781 119.668 323.028 117.228C319.851 115.137 316.128 114.033 312.326 114.052C308.024 114.052 304.143 115.287 301.232 118.845C296.43 118.845 290.178 121.696 285.905 133.545C281.701 145.207 283.23 158.829 291.178 171.01C296.421 179.046 317.324 192.394 332.269 187.131C347.214 181.868 340.932 166.727 334.543 166.355Z" fill="#263238"/>
<path d="M309.611 163.199C321.215 165.355 321.881 171.147 322.469 176.214C323.988 189.414 321.371 211.219 320.46 216.021C320.46 216.021 304.858 211.259 305.035 210.484C305.211 209.71 309.611 163.199 309.611 163.199Z" fill="#FFA8A7"/>
<path d="M309.798 208.368C309.798 208.368 315.05 207.143 319.019 208.368C319.019 208.368 315.756 204.977 308.298 207.182L309.798 208.368Z" fill="#F28F8F"/>
<path d="M308.465 212.111C310.144 207.891 311.455 203.533 312.385 199.087C320.137 195.098 321.832 189.15 320.225 183.574C316.893 172.098 313.649 166.512 310.67 163.199C308.357 161.563 300.125 159.279 300.125 159.279C298.655 159.044 285.337 157.368 281.27 157.035C279.07 158.737 277.398 161.027 276.448 163.64C275.664 166.071 274.292 168.139 274.292 176.449L275.841 191.306C275.841 191.306 276.252 195.755 274.694 198.342C273.136 200.929 266.785 205.663 263.855 212.062C263.855 212.062 264.208 221.803 282.122 225.87C296.695 229.183 307.504 223.91 307.504 223.91C308.143 220.01 308.465 216.064 308.465 212.111Z" fill="#F5F5F5"/>
<path d="M320.636 189.042C320.152 188.427 319.451 188.02 318.676 187.905C316.991 187.699 315.393 188.581 313.835 189.277C310.954 190.561 307.642 191.237 304.633 190.306C301.379 189.258 298.753 186.386 295.372 186.092C292.148 185.837 289.267 188.052 286.895 190.218C283.387 193.481 280.133 197.078 276.115 199.714C274.391 200.82 272.604 201.824 270.764 202.723L269.98 203.546L269.823 203.713C269.226 204.35 268.608 205.026 268.01 205.731L267.785 206.006L267.138 206.79L266.825 207.192L266.286 207.907L265.962 208.358L265.462 209.103L265.168 209.563C264.992 209.838 264.835 210.112 264.669 210.396L264.433 210.808C264.208 211.229 263.983 211.66 263.787 212.101C263.849 212.773 264.004 213.432 264.247 214.061C264.633 215.078 265.15 216.04 265.786 216.923C266.05 217.286 266.335 217.648 266.658 218.021C269.118 220.833 273.655 223.989 282.044 225.861C285.364 226.618 288.762 226.984 292.167 226.948C293.314 226.948 294.412 226.88 295.46 226.782C296.509 226.684 297.499 226.566 298.4 226.419C299.635 226.223 300.772 225.988 301.791 225.743C303.721 225.303 305.602 224.673 307.406 223.861C307.854 221.202 308.142 218.519 308.269 215.825C308.269 215.247 308.328 214.649 308.347 214.022C308.367 213.395 308.347 212.738 308.347 212.062C309.327 209.289 310.229 206.77 310.895 204.575C311.062 204.026 311.219 203.497 311.356 202.987C311.735 201.699 312.039 200.391 312.267 199.067C317.618 196.392 320.088 192.805 320.636 189.042Z" fill="#EBEBEB"/>
<path d="M325.732 129.909C326.585 131.82 327.918 134.877 324.899 146.873C322.342 157.035 318.461 158.809 316.628 159.152C314.796 159.495 311.728 158.339 309.533 157.496L305.946 163.866C306.27 166.61 307.21 172.137 305.397 175.626C300.125 171.608 294.735 166.747 291.04 159.142L296.822 146.49C296.822 146.49 293.471 148.098 291.677 144.256C290.021 140.718 290.639 137.768 293.098 136.191C293.672 135.824 294.329 135.607 295.009 135.562C295.689 135.516 296.369 135.643 296.986 135.93C297.604 136.218 298.139 136.656 298.542 137.205C298.945 137.754 299.203 138.396 299.292 139.072C299.821 142.1 302.761 142.325 303.575 137.827C303.82 136.455 304.976 129.007 310.278 127.351C316.54 135.24 324.517 134.133 325.732 129.909Z" fill="#FFA8A7"/>
<path d="M312.032 140.277C311.974 140.542 311.84 140.783 311.647 140.972C311.453 141.161 311.208 141.289 310.942 141.34C310.676 141.391 310.401 141.363 310.152 141.259C309.902 141.155 309.688 140.98 309.536 140.756C309.385 140.531 309.303 140.268 309.3 139.997C309.297 139.726 309.374 139.461 309.521 139.233C309.668 139.006 309.878 138.827 310.126 138.718C310.374 138.609 310.648 138.575 310.915 138.621C311.097 138.656 311.27 138.727 311.425 138.829C311.58 138.932 311.713 139.064 311.817 139.217C311.921 139.371 311.993 139.544 312.03 139.726C312.067 139.908 312.068 140.095 312.032 140.277Z" fill="#263238"/>
<path d="M313.6 151.057C313.574 151.231 313.513 151.398 313.422 151.549C313.331 151.7 313.211 151.831 313.068 151.934C312.926 152.038 312.765 152.113 312.594 152.154C312.423 152.195 312.245 152.202 312.071 152.174C311.799 152.139 311.544 152.022 311.339 151.84C311.134 151.659 310.988 151.419 310.92 151.154C310.853 150.888 310.866 150.608 310.958 150.35C311.051 150.092 311.219 149.868 311.44 149.706C311.662 149.545 311.926 149.453 312.2 149.443C312.474 149.433 312.745 149.505 312.977 149.651C313.21 149.796 313.393 150.008 313.504 150.259C313.615 150.509 313.649 150.787 313.6 151.057Z" fill="#B16668"/>
<path d="M323.674 138.396L321.489 135.995C321.635 135.842 321.809 135.721 322.003 135.638C322.197 135.555 322.405 135.512 322.616 135.512C322.827 135.512 323.035 135.555 323.229 135.638C323.423 135.721 323.598 135.842 323.743 135.995C324.051 136.323 324.216 136.76 324.203 137.209C324.19 137.659 324 138.085 323.674 138.396Z" fill="#263238"/>
<path d="M311.581 134.564L308.592 135.818C308.5 135.627 308.448 135.419 308.44 135.206C308.431 134.994 308.466 134.782 308.542 134.584C308.618 134.386 308.734 134.205 308.883 134.054C309.031 133.902 309.209 133.782 309.406 133.701C309.81 133.538 310.261 133.536 310.666 133.697C311.071 133.858 311.399 134.168 311.581 134.564Z" fill="#263238"/>
<path d="M322.312 142.188C322.281 142.367 322.214 142.538 322.117 142.691C322.019 142.844 321.892 142.977 321.743 143.081C321.595 143.185 321.427 143.259 321.249 143.298C321.072 143.338 320.889 143.342 320.71 143.31C320.531 143.279 320.36 143.212 320.207 143.115C320.054 143.017 319.921 142.89 319.817 142.741C319.713 142.593 319.639 142.425 319.6 142.247C319.56 142.07 319.556 141.887 319.588 141.708C319.651 141.347 319.856 141.025 320.157 140.815C320.457 140.605 320.829 140.522 321.19 140.586C321.551 140.65 321.873 140.854 322.083 141.155C322.293 141.455 322.376 141.827 322.312 142.188Z" fill="#263238"/>
<path d="M316.001 139.474L315.354 148.578L320.205 147.549L316.001 139.474Z" fill="#F28F8F"/>
<path d="M309.533 157.496C306.348 156.32 299.184 152.449 298.753 149.538C298.874 150.975 299.428 152.342 300.341 153.458C301.967 155.644 308.347 159.573 308.347 159.573L309.533 157.496Z" fill="#F28F8F"/>
<path d="M313.384 162.121C313.041 161.034 311.64 160.926 311.64 160.926C311.748 160.5 311.759 160.055 311.673 159.624C311.586 159.194 311.404 158.788 311.14 158.437C310.664 158.088 310.084 157.908 309.494 157.927C309.847 157.153 309.386 155.389 308.426 155.173C307.513 155.077 306.591 155.12 305.691 155.301C304.755 155.929 303.944 156.727 303.3 157.653L304.78 154.84C306.086 154.501 307.369 154.079 308.622 153.576C310.092 152.831 310.023 151.224 309.455 151.136C308.169 151.16 306.887 151.291 305.623 151.528C304.016 151.792 301.987 151.782 301.438 152.782C300.889 153.782 300.282 154.977 299.155 157.27C298.028 159.564 297.714 160.259 297.861 161.573C298.008 162.886 297.989 165.493 298.39 168.756C298.792 172.019 298.145 172.784 296.705 174.636C295.725 175.881 289.668 181.888 283.279 187.729L284.151 175.038C284.151 175.038 286.229 161.984 281.28 157.104C274.616 156.026 271.382 159.064 269.902 162.641C267.305 168.972 268.069 187.013 268.569 196.51C269.069 206.006 272.803 209.602 275.664 210.23C278.526 210.857 286.366 207.554 291.501 200.802C295.539 196.167 304.182 180.898 305.446 178.772C306.37 177.129 307.499 175.61 308.808 174.254C309.788 173.274 310.572 169.354 310.572 167.012C310.787 167.747 311.552 168.335 312.169 167.874C312.297 166.669 313.482 162.915 313.384 162.121Z" fill="#FFA8A7"/>
<path d="M296.675 174.607C297.187 174 297.637 173.343 298.018 172.647C298.343 171.91 298.487 171.107 298.439 170.304C298.439 169.501 298.302 168.697 298.214 167.903C298.126 167.11 298.057 166.296 297.998 165.493L297.861 163.082L297.783 161.876C297.727 161.471 297.711 161.06 297.734 160.651C297.87 159.847 298.135 159.069 298.518 158.348C298.851 157.613 299.214 156.898 299.586 156.183L300.674 154.017L301.223 152.939C301.395 152.545 301.715 152.236 302.114 152.076C302.882 151.804 303.683 151.636 304.496 151.577C305.299 151.488 306.083 151.332 306.887 151.234C307.691 151.136 308.484 151.038 309.308 151.018C309.439 151.012 309.568 151.053 309.67 151.136C309.76 151.219 309.827 151.323 309.866 151.439C309.92 151.655 309.92 151.88 309.866 152.096C309.797 152.52 309.595 152.912 309.288 153.213C308.639 153.726 307.887 154.094 307.083 154.291C306.309 154.546 305.535 154.771 304.76 154.987L304.849 154.918L303.388 157.751L303.163 157.613C303.515 157.168 303.891 156.743 304.29 156.339C304.486 156.137 304.692 155.941 304.907 155.751C305.118 155.547 305.355 155.372 305.613 155.232C306.108 155.136 306.609 155.073 307.112 155.046C307.631 154.982 308.156 155.036 308.651 155.203C309.098 155.498 309.414 155.954 309.533 156.477C309.7 156.979 309.7 157.522 309.533 158.025L309.425 157.868C309.805 157.868 310.182 157.927 310.542 158.045C310.733 158.104 310.909 158.201 311.062 158.329C311.198 158.467 311.317 158.622 311.415 158.789C311.771 159.467 311.862 160.253 311.669 160.994L311.581 160.867C311.969 160.912 312.343 161.039 312.679 161.239C313.021 161.443 313.279 161.763 313.404 162.141C313.389 162.638 313.316 163.131 313.188 163.611L312.826 165.032C312.591 166.012 312.306 166.914 312.14 167.854C311.979 167.962 311.789 168.019 311.596 168.019C311.402 168.019 311.213 167.962 311.052 167.854C310.742 167.638 310.52 167.318 310.425 166.953H310.572C310.549 168.059 310.428 169.161 310.209 170.246C310.001 171.334 309.673 172.396 309.229 173.411C308.986 173.905 308.654 174.35 308.249 174.724C307.877 175.136 307.514 175.547 307.181 175.979C306.509 176.85 305.894 177.763 305.339 178.713C305.882 177.755 306.484 176.832 307.142 175.949C307.475 175.518 307.828 175.097 308.2 174.685C308.606 174.312 308.938 173.867 309.18 173.372C309.599 172.357 309.901 171.299 310.082 170.216C310.289 169.14 310.404 168.048 310.425 166.953V166.433L310.572 166.933C310.665 167.258 310.865 167.541 311.14 167.737C311.269 167.837 311.428 167.891 311.591 167.891C311.754 167.891 311.913 167.837 312.042 167.737V167.796C312.218 166.816 312.493 165.894 312.728 164.944L313.071 163.533C313.195 163.072 313.264 162.598 313.277 162.121C313.133 161.796 312.901 161.517 312.606 161.318C312.311 161.119 311.966 161.006 311.611 160.994H311.493V160.877C311.661 160.187 311.574 159.459 311.248 158.829C311.172 158.675 311.067 158.539 310.937 158.428C310.807 158.317 310.656 158.233 310.493 158.182C310.154 158.076 309.8 158.023 309.445 158.025H309.288L309.347 157.868C309.494 157.416 309.494 156.929 309.347 156.477C309.245 156.015 308.967 155.611 308.573 155.35C308.113 155.207 307.629 155.163 307.152 155.222C306.662 155.255 306.174 155.317 305.691 155.408C305.465 155.549 305.252 155.71 305.054 155.889C304.849 156.075 304.643 156.271 304.457 156.467C304.065 156.869 303.702 157.29 303.349 157.731L302.546 158.711L303.124 157.574L304.584 154.732V154.673H304.643C305.417 154.458 306.191 154.242 306.946 153.987C307.713 153.816 308.435 153.482 309.063 153.007C309.326 152.738 309.507 152.397 309.582 152.027C309.641 151.684 309.582 151.194 309.229 151.234C308.429 151.251 307.63 151.316 306.838 151.43C306.044 151.528 305.25 151.675 304.447 151.763C303.652 151.813 302.867 151.972 302.114 152.233C301.756 152.376 301.467 152.654 301.311 153.007L300.762 154.085L299.664 156.232C299.302 156.947 298.929 157.662 298.586 158.397C298.21 159.098 297.952 159.857 297.822 160.642C297.778 161.036 297.778 161.433 297.822 161.827L297.891 163.043L298.008 165.453C298.057 166.257 298.116 167.061 298.194 167.864C298.273 168.668 298.381 169.462 298.39 170.275C298.426 171.084 298.268 171.891 297.93 172.627C297.58 173.328 297.159 173.991 296.675 174.607Z" fill="#B16668"/>
<path d="M309.533 158.045C309.612 157.768 309.638 157.479 309.611 157.192C308.808 157.408 307.769 157.515 307.103 157.751C306.561 157.951 306.116 158.351 305.858 158.868C306.201 158.505 307.181 158.035 309.533 158.045Z" fill="#B16668"/>
<path d="M308.808 161.631C309.668 161.156 310.65 160.944 311.63 161.024C311.68 160.755 311.709 160.483 311.718 160.21C309.425 160.544 308.808 161.631 308.808 161.631Z" fill="#B16668"/>
<path d="M310.444 167.58C310.535 166.545 310.509 165.503 310.366 164.473C310.258 163.856 310.219 163.493 310.915 163.601C311.611 163.709 312.571 162.856 312.385 163.435C312.287 163.748 311.052 164.268 310.974 164.709C310.892 165.681 310.715 166.643 310.444 167.58Z" fill="#B16668"/>
<path d="M283.22 187.699C281.456 189.16 275.478 193.726 274.645 198.381C274.645 198.381 273.812 194.893 277.242 191.012C279.17 188.806 281.232 186.721 283.416 184.769L283.22 187.699Z" fill="#F28F8F"/>
<path d="M320.46 216.021C319.862 219.5 318.755 220.774 315.207 222.333C309.425 224.871 286.268 231.427 279.427 231.476C275.542 231.548 271.673 230.965 267.981 229.751C267.318 229.594 266.726 229.222 266.295 228.693C266.046 228.242 265.714 227.843 265.315 227.517C264.822 227.221 264.312 226.956 263.787 226.723C263.17 226.339 262.724 225.732 262.542 225.028C262.508 224.566 262.364 224.118 262.121 223.724C261.829 223.423 261.566 223.095 261.337 222.744C261.073 222.275 260.941 221.744 260.954 221.206C260.976 220.936 260.953 220.664 260.886 220.402C260.78 220.164 260.627 219.951 260.435 219.775C260.232 219.548 260.042 219.309 259.867 219.059C259.687 218.857 259.574 218.603 259.543 218.334C259.578 218.117 259.666 217.912 259.798 217.736C260.602 216.472 262.405 216.756 263.718 216.894C265.276 217.07 266.805 217.374 268.363 217.56C270.532 217.82 272.721 217.869 274.9 217.707V213.679C276.477 214.029 277.971 214.681 279.3 215.6C281.848 217.168 283.387 219.285 288.12 218.03C292.853 216.776 304.133 210.367 309.798 208.387C315.462 206.408 320.803 213.963 320.46 216.021Z" fill="#FFA8A7"/>
<path d="M136.102 416.617L274.88 395.077V94.3347L136.102 115.924V416.617Z" fill="#455A64"/>
<path d="M270.656 91.8945L274.88 94.3347L136.102 115.924L143.443 111.681L270.656 91.8945Z" fill="#37474F"/>
<path d="M152.39 271.627L249.508 256.535V378.77L152.39 393.852V271.627Z" fill="#455A64"/>
<path opacity="0.1" d="M152.39 271.627L249.508 256.535V378.77L152.39 393.852V271.627Z" fill="black"/>
<path d="M159.681 277.869L242.227 265.031V372.518L159.681 385.356V277.869Z" fill="#455A64"/>
<path d="M152.39 393.852L159.681 385.356L242.227 372.518L249.508 378.77L152.39 393.852Z" fill="#263238"/>
<path d="M152.39 271.627L159.681 277.869V385.356L152.39 393.852V271.627Z" fill="#37474F"/>
<path d="M242.227 265.031L249.508 256.535V378.77L242.227 372.517V265.031Z" fill="#37474F"/>
<path d="M207.564 123.607L249.508 117.081V239.316L207.574 245.833L207.564 123.607Z" fill="#455A64"/>
<path opacity="0.1" d="M207.564 123.607L249.508 117.081V239.316L207.574 245.833L207.564 123.607Z" fill="black"/>
<path d="M214.855 129.85L242.227 125.587V233.073L214.855 237.336V129.85Z" fill="#455A64"/>
<path d="M207.574 245.833L214.855 237.336L242.227 233.073L249.508 239.316L207.574 245.833Z" fill="#263238"/>
<path d="M207.564 123.607L214.855 129.85V237.336L207.574 245.833L207.564 123.607Z" fill="#37474F"/>
<path d="M242.227 125.587L249.508 117.081V239.316L242.227 233.073V125.587Z" fill="#37474F"/>
<path d="M152.459 132.143L194.403 125.616V247.852L152.459 254.369V132.143Z" fill="#455A64"/>
<path opacity="0.1" d="M152.459 132.143L194.403 125.616V247.852L152.459 254.369V132.143Z" fill="black"/>
<path d="M159.74 138.386L187.111 134.113L187.121 241.609L159.74 245.872V138.386Z" fill="#455A64"/>
<path d="M152.459 254.369L159.74 245.872L187.121 241.609L194.403 247.852L152.459 254.369Z" fill="#263238"/>
<path d="M152.459 132.143L159.74 138.386V245.872L152.459 254.369V132.143Z" fill="#37474F"/>
<path d="M187.111 134.113L194.403 125.616V247.852L187.121 241.609L187.111 134.113Z" fill="#37474F"/>
<path d="M256.182 234.279L258.073 236.19V267.589L256.182 265.688V234.279Z" fill="#E0E0E0"/>
<path d="M258.073 236.19L268.275 234.661V266.07L258.073 267.589V236.19Z" fill="#FAFAFA"/>
<path opacity="0.05" d="M268.275 243.305L258.073 244.794V250.939L268.275 249.459V243.305Z" fill="black"/>
<path d="M268.275 234.661L266.384 232.76L256.182 234.279L258.073 236.19L268.275 234.661Z" fill="#EBEBEB"/>
<path d="M261.983 242.138L266.668 246.842L268.54 244.392L263.855 239.698C263.736 239.575 263.59 239.483 263.428 239.428C263.266 239.373 263.093 239.358 262.924 239.385C262.538 239.475 262.196 239.696 261.954 240.011C261.713 240.325 261.588 240.713 261.601 241.109C261.591 241.489 261.728 241.858 261.983 242.138Z" fill="#E0E0E0"/>
<path opacity="0.1" d="M258.073 244.853L265.511 245.676V243.442L267.324 243.177L265.619 241.462L258.073 242.609V244.853Z" fill="black"/>
<path d="M242.756 247.548V252.448L269.333 248.469V243.569L242.756 247.548Z" fill="#FAFAFA"/>
<path d="M242.756 247.548L241.06 245.833V250.743L242.756 252.448V247.548Z" fill="#E0E0E0"/>
<path d="M269.333 243.569L267.628 241.854L241.06 245.833L242.756 247.548L269.333 243.569Z" fill="#EBEBEB"/>
<path d="M261.454 255.78C261.442 255.265 261.607 254.762 261.92 254.353C262.234 253.945 262.678 253.657 263.179 253.536C263.411 253.514 263.645 253.545 263.865 253.624C264.084 253.704 264.283 253.832 264.447 253.998C264.611 254.163 264.736 254.364 264.813 254.584C264.891 254.804 264.918 255.038 264.894 255.27C264.892 255.657 264.797 256.037 264.616 256.378C264.435 256.719 264.174 257.012 263.855 257.23V260.435C263.86 260.609 263.806 260.78 263.701 260.919C263.596 261.058 263.446 261.157 263.277 261.199H263.071C262.992 261.207 262.913 261.197 262.839 261.17C262.764 261.144 262.697 261.1 262.641 261.044C262.586 260.987 262.544 260.919 262.518 260.844C262.492 260.77 262.484 260.69 262.493 260.611V257.407C262.174 257.275 261.903 257.048 261.718 256.757C261.532 256.466 261.44 256.125 261.454 255.78Z" fill="#455A64"/>
<path d="M121.167 444.744C129.507 436.139 134.407 401.095 126.273 394.264H84.8582C76.7242 401.124 81.6144 436.12 89.9542 444.734L90.1894 444.979L90.4736 445.263C90.7088 445.489 90.9636 445.714 91.2282 445.939C91.2978 445.986 91.3633 446.039 91.4242 446.096C91.63 446.253 91.8358 446.42 92.0612 446.576C92.4062 446.83 92.7662 447.062 93.1392 447.272C99.9992 451.28 111.132 451.28 117.992 447.272C118.371 447.062 118.734 446.827 119.08 446.567C119.286 446.429 119.472 446.273 119.668 446.126L119.913 445.93C120.168 445.714 120.413 445.498 120.638 445.273L120.971 444.95L121.167 444.744Z" fill="#455A64"/>
<path d="M88.4548 391.51C79.0076 397.027 79.0076 405.975 88.4548 411.492C97.902 417.01 113.219 417.01 122.676 411.492C132.133 405.975 132.124 397.027 122.676 391.51C113.229 385.993 97.902 385.993 88.4548 391.51Z" fill="#455A64"/>
<g opacity="0.1">
<path opacity="0.1" d="M88.4548 391.51C79.0076 397.027 79.0076 405.975 88.4548 411.492C97.902 417.01 113.219 417.01 122.676 411.492C132.133 405.975 132.124 397.027 122.676 391.51C113.229 385.993 97.902 385.993 88.4548 391.51Z" fill="white"/>
</g>
<path d="M93.002 394.166C86.0636 398.213 86.0636 404.789 93.002 408.866C99.9404 412.942 111.191 412.923 118.129 408.866C125.068 404.809 125.068 398.243 118.129 394.166C111.191 390.089 99.96 390.118 93.002 394.166Z" fill="#263238"/>
<path d="M118.129 401.134C111.191 397.076 99.9405 397.076 93.0021 401.134C91.3147 402.047 89.8854 403.372 88.8469 404.985C89.8911 406.593 91.3191 407.917 93.0021 408.836C99.9405 412.894 111.191 412.894 118.129 408.836C119.812 407.917 121.24 406.593 122.284 404.985C121.246 403.372 119.817 402.047 118.129 401.134Z" fill="#F5F5F5"/>
<path d="M82.6042 326.281L99.1662 337.61L83.4862 331.681C83.622 335.871 84.6793 339.98 86.583 343.715C86.583 343.715 96.922 348.733 102.547 354.025L88.788 349.693C88.3565 352.094 88.5043 354.564 89.2192 356.896C89.3074 357.21 89.4054 357.543 89.5132 357.876C90.2384 360.081 91.2772 364.246 93.0412 369.186C94.537 373.507 96.4437 377.674 98.735 381.632C99.8686 383.58 101.132 385.449 102.518 387.227C102.596 387.345 102.684 387.453 102.773 387.561C105.327 385.855 107.986 384.186 110.75 382.553C112.347 378.496 114.101 368.617 114.415 360.601C115.64 329.927 91.385 314.11 72.52 309.562C72.52 309.562 79.38 317.089 82.6042 326.281Z" fill="#DD5928"/>
<path opacity="0.3" d="M82.6042 326.281L99.1662 337.61L83.4862 331.681C83.622 335.871 84.6793 339.98 86.583 343.715C86.583 343.715 96.922 348.733 102.547 354.025L88.788 349.693C88.3565 352.094 88.5043 354.564 89.2192 356.896C89.3074 357.21 89.4054 357.543 89.5132 357.876C90.2384 360.081 91.2772 364.246 93.0412 369.186C94.537 373.507 96.4437 377.674 98.735 381.632C99.8686 383.58 101.132 385.449 102.518 387.227C102.596 387.345 102.684 387.453 102.773 387.561C105.327 385.855 107.986 384.186 110.75 382.553C112.347 378.496 114.101 368.617 114.415 360.601C115.64 329.927 91.385 314.11 72.52 309.562C72.52 309.562 79.38 317.089 82.6042 326.281Z" fill="black"/>
<path d="M95.8146 326.634C97.4977 328.139 98.9476 329.886 100.117 331.818C101.276 333.755 102.288 335.776 103.145 337.865C104.842 342.042 106.074 346.393 106.82 350.84C108.449 359.716 107.948 368.851 105.36 377.496C105.326 377.609 105.338 377.731 105.393 377.835C105.448 377.94 105.541 378.018 105.654 378.055C105.766 378.088 105.886 378.076 105.989 378.021C106.092 377.966 106.169 377.872 106.203 377.761C108.683 368.971 109.042 359.717 107.251 350.762C106.421 346.303 105.107 341.949 103.331 337.777C102.435 335.697 101.387 333.685 100.195 331.759C98.9923 329.847 97.5166 328.12 95.8146 326.634Z" fill="#FAFAFA"/>
<path d="M153.713 341.951C153.341 342.432 147.47 347.547 138.474 362.845L120.226 367.5L135.064 368.833L128.204 380.75L112.7 384.552L124.999 386.12C124.999 386.12 122.059 398.213 113.494 403.535C108.751 406.475 106.408 406.984 104.899 405.661C103.841 404.73 103.39 399.007 102.341 393.901C101.293 388.795 100.901 380.495 105.34 370.273C106.551 367.535 108.149 364.984 110.083 362.698C121.187 349.292 142.864 342.216 153.713 341.951Z" fill="#DD5928"/>
<path opacity="0.15" d="M153.713 341.951C153.341 342.432 147.47 347.547 138.474 362.845L120.226 367.5L135.064 368.833L128.204 380.75L112.7 384.552L124.999 386.12C124.999 386.12 122.059 398.213 113.494 403.535C108.751 406.475 106.408 406.984 104.899 405.661C103.841 404.73 103.39 399.007 102.341 393.901C101.293 388.795 100.901 380.495 105.34 370.273C106.551 367.535 108.149 364.984 110.083 362.698C121.187 349.292 142.864 342.216 153.713 341.951Z" fill="black"/>
<path opacity="0.1" d="M108.78 375.438C107.102 379.708 106.043 384.196 105.634 388.766C105.35 394.547 105.418 400.339 105.84 406.112C105.509 406.006 105.203 405.837 104.938 405.612C103.88 404.681 103.429 398.958 102.381 393.852C101.332 388.746 100.94 380.446 105.379 370.224C106.591 367.486 108.188 364.935 110.123 362.649C121.226 349.272 142.904 342.196 153.752 341.932C137.21 345.293 119.746 357.063 111.406 370.283C110.387 371.924 109.509 373.649 108.78 375.438Z" fill="black"/>
<path d="M137.2 347.812C129.095 351.732 121.52 357.014 115.64 363.982C112.656 367.436 110.242 371.342 108.486 375.556C106.782 379.773 105.788 384.243 105.546 388.786C105.546 388.786 105.546 388.786 105.546 388.786C105.562 388.792 105.579 388.792 105.595 388.786C106.271 384.348 107.51 380.014 109.28 375.889C111.041 371.776 113.348 367.919 116.14 364.423C118.991 360.947 122.241 357.819 125.822 355.103C129.417 352.363 133.251 349.952 137.278 347.9V347.822L137.2 347.812Z" fill="#FAFAFA"/>
<path d="M57.0654 353.535C58.4036 353.455 59.7453 353.455 61.0834 353.535C66.3595 353.856 71.5762 354.824 76.6164 356.416C78.4882 357.004 80.3698 357.671 82.222 358.435C83.153 358.817 84.0742 359.219 84.9758 359.65C89.4859 361.693 93.6229 364.476 97.216 367.882C98.8924 369.512 100.357 371.346 101.577 373.341C101.734 373.596 101.9 373.85 102.047 374.115C102.42 374.801 102.773 375.467 103.096 376.134C106.155 381.875 107.706 388.298 107.604 394.803C107.692 399.389 106.418 404.701 105.585 405.583C105.47 405.704 105.341 405.812 105.203 405.906C103.939 406.808 101.842 406.435 97.853 404.485C89.8464 400.565 86.191 389.785 86.191 389.785L96.873 387.355L82.8688 385.395L76.7536 376.928L87.0142 374.36L72.8238 372.988C67.9715 366.201 62.7157 359.711 57.085 353.554L57.0654 353.535Z" fill="#DD5928"/>
<path opacity="0.05" d="M61.0834 353.496C66.3595 353.817 71.5762 354.784 76.6164 356.377C78.4882 356.965 80.3698 357.631 82.222 358.396C83.153 358.778 84.0742 359.18 84.9758 359.611C89.4859 361.654 93.6229 364.436 97.216 367.843C98.8923 369.473 100.357 371.307 101.577 373.302C101.734 373.556 101.9 373.811 102.047 374.076C102.42 374.762 102.773 375.428 103.096 376.095C106.155 381.836 107.706 388.259 107.604 394.764C107.692 399.35 106.418 404.662 105.585 405.544C105.469 405.664 105.341 405.773 105.203 405.867C104.946 406.037 104.66 406.159 104.36 406.23C104.929 399.085 100.44 381.308 94.7562 374.203C88.8762 366.824 75.1562 356.387 57.0752 353.535C58.4094 353.446 59.7477 353.433 61.0834 353.496Z" fill="black"/>
</svg>
