<svg width="722" height="193" viewBox="0 0 722 193" fill="none" xmlns="http://www.w3.org/2000/svg">
<circle cx="18" cy="175" r="18" fill="#DD5928"/>
<line x1="17.9393" y1="173.29" x2="152.29" y2="38.9393" stroke="#DD5928" stroke-width="3"/>
<line x1="151" y1="39.5" x2="273" y2="39.5" stroke="#DD5928" stroke-width="3"/>
<path d="M308.747 21.953V59H305.037V41.669H284.95V59H281.24V21.953H284.95V38.595H305.037V21.953H308.747ZM342.281 30.062V59H338.571V53.912C337.723 55.714 336.415 57.092 334.649 58.046C332.882 59 330.903 59.477 328.713 59.477C325.25 59.477 322.423 58.417 320.233 56.297C318.042 54.1417 316.947 51.0323 316.947 46.969V30.062H320.604V46.545C320.604 49.6897 321.381 52.0923 322.936 53.753C324.526 55.4137 326.681 56.244 329.402 56.244C332.193 56.244 334.419 55.3607 336.08 53.594C337.74 51.8273 338.571 49.2303 338.571 45.803V30.062H342.281ZM364.319 29.532C367.781 29.532 370.608 30.6097 372.799 32.765C374.989 34.885 376.085 37.9767 376.085 42.04V59H372.428V42.464C372.428 39.3193 371.633 36.9167 370.043 35.256C368.488 33.5953 366.35 32.765 363.63 32.765C360.838 32.765 358.612 33.6483 356.952 35.415C355.291 37.1817 354.461 39.7787 354.461 43.206V59H350.751V30.062H354.461V34.991C355.379 33.2243 356.704 31.8817 358.436 30.963C360.167 30.009 362.128 29.532 364.319 29.532ZM389.113 33.189V51.156C389.113 52.9227 389.448 54.1417 390.12 54.813C390.791 55.4843 391.975 55.82 393.671 55.82H397.063V59H393.088C390.473 59 388.53 58.3993 387.258 57.198C385.986 55.9613 385.35 53.9473 385.35 51.156V33.189H381.322V30.062H385.35V22.801H389.113V30.062H397.063V33.189H389.113ZM416.029 40.45C416.029 36.8107 416.824 33.56 418.414 30.698C420.004 27.8007 422.177 25.557 424.933 23.967C427.689 22.3417 430.763 21.529 434.155 21.529C438.289 21.529 441.823 22.5183 444.755 24.497C447.723 26.4403 449.879 29.1963 451.221 32.765H446.875C445.815 30.2563 444.19 28.2953 441.999 26.882C439.844 25.4687 437.229 24.762 434.155 24.762C431.435 24.762 428.979 25.398 426.788 26.67C424.633 27.942 422.937 29.7793 421.7 32.182C420.464 34.5493 419.845 37.3053 419.845 40.45C419.845 43.5947 420.464 46.3507 421.7 48.718C422.937 51.0853 424.633 52.905 426.788 54.177C428.979 55.449 431.435 56.085 434.155 56.085C437.229 56.085 439.844 55.396 441.999 54.018C444.19 52.6047 445.815 50.6613 446.875 48.188H451.221C449.879 51.7213 447.723 54.4597 444.755 56.403C441.787 58.3463 438.254 59.318 434.155 59.318C430.763 59.318 427.689 58.523 424.933 56.933C422.177 55.3077 420.004 53.064 418.414 50.202C416.824 47.34 416.029 44.0893 416.029 40.45ZM471.281 59.424C468.56 59.424 466.105 58.8233 463.914 57.622C461.759 56.3853 460.045 54.654 458.773 52.428C457.536 50.1667 456.918 47.5343 456.918 44.531C456.918 41.5277 457.554 38.913 458.826 36.687C460.098 34.4257 461.829 32.6943 464.02 31.493C466.211 30.2563 468.666 29.638 471.387 29.638C474.108 29.638 476.563 30.2563 478.754 31.493C480.98 32.6943 482.711 34.4257 483.948 36.687C485.22 38.913 485.856 41.5277 485.856 44.531C485.856 47.499 485.22 50.1137 483.948 52.375C482.676 54.6363 480.927 56.3853 478.701 57.622C476.475 58.8233 474.002 59.424 471.281 59.424ZM471.281 56.191C473.189 56.191 474.956 55.767 476.581 54.919C478.206 54.0357 479.514 52.7283 480.503 50.997C481.528 49.2303 482.04 47.075 482.04 44.531C482.04 41.987 481.545 39.8493 480.556 38.118C479.567 36.3513 478.259 35.044 476.634 34.196C475.009 33.3127 473.242 32.871 471.334 32.871C469.426 32.871 467.659 33.3127 466.034 34.196C464.409 35.044 463.101 36.3513 462.112 38.118C461.158 39.8493 460.681 41.987 460.681 44.531C460.681 47.075 461.158 49.2303 462.112 50.997C463.101 52.7283 464.391 54.0357 465.981 54.919C467.606 55.767 469.373 56.191 471.281 56.191ZM527.069 29.532C530.461 29.532 533.217 30.6097 535.337 32.765C537.492 34.885 538.57 37.9767 538.57 42.04V59H534.913V42.464C534.913 39.3193 534.153 36.9167 532.634 35.256C531.115 33.5953 529.048 32.765 526.433 32.765C523.712 32.765 521.539 33.666 519.914 35.468C518.289 37.27 517.476 39.8847 517.476 43.312V59H513.819V42.464C513.819 39.3193 513.059 36.9167 511.54 35.256C510.021 33.5953 507.936 32.765 505.286 32.765C502.565 32.765 500.392 33.666 498.767 35.468C497.142 37.27 496.329 39.8847 496.329 43.312V59H492.619V30.062H496.329V35.044C497.248 33.242 498.555 31.8817 500.251 30.963C501.947 30.009 503.837 29.532 505.922 29.532C508.431 29.532 510.621 30.1327 512.494 31.334C514.402 32.5353 515.78 34.302 516.628 36.634C517.405 34.3373 518.73 32.5883 520.603 31.387C522.511 30.1503 524.666 29.532 527.069 29.532ZM550.466 36.422C551.385 34.4787 552.834 32.871 554.812 31.599C556.826 30.2917 559.211 29.638 561.967 29.638C564.582 29.638 566.932 30.2563 569.016 31.493C571.136 32.6943 572.779 34.4257 573.945 36.687C575.147 38.913 575.747 41.51 575.747 44.478C575.747 47.446 575.147 50.0607 573.945 52.322C572.779 54.5833 571.136 56.3323 569.016 57.569C566.932 58.8057 564.582 59.424 561.967 59.424C559.247 59.424 556.879 58.788 554.865 57.516C552.851 56.2087 551.385 54.5833 550.466 52.64V72.674H546.809V30.062H550.466V36.422ZM571.984 44.478C571.984 42.0753 571.507 40.0083 570.553 38.277C569.635 36.5103 568.363 35.1677 566.737 34.249C565.112 33.3303 563.275 32.871 561.225 32.871C559.247 32.871 557.427 33.348 555.766 34.302C554.141 35.256 552.851 36.6163 551.897 38.383C550.943 40.1497 550.466 42.199 550.466 44.531C550.466 46.863 550.943 48.9123 551.897 50.679C552.851 52.4457 554.141 53.806 555.766 54.76C557.427 55.714 559.247 56.191 561.225 56.191C563.275 56.191 565.112 55.7317 566.737 54.813C568.363 53.859 569.635 52.4987 570.553 50.732C571.507 48.93 571.984 46.8453 571.984 44.478ZM586.284 19.78V59H582.574V19.78H586.284ZM620.867 43.047C620.867 44.319 620.832 45.2907 620.761 45.962H596.752C596.858 48.1527 597.388 50.0253 598.342 51.58C599.296 53.1347 600.551 54.3183 602.105 55.131C603.66 55.9083 605.356 56.297 607.193 56.297C609.596 56.297 611.61 55.714 613.235 54.548C614.896 53.382 615.991 51.8097 616.521 49.831H620.443C619.737 52.6577 618.217 54.972 615.885 56.774C613.589 58.5407 610.691 59.424 607.193 59.424C604.473 59.424 602.035 58.8233 599.879 57.622C597.724 56.3853 596.028 54.654 594.791 52.428C593.59 50.1667 592.989 47.5343 592.989 44.531C592.989 41.5277 593.59 38.8953 594.791 36.634C595.993 34.3727 597.671 32.6413 599.826 31.44C601.982 30.2387 604.437 29.638 607.193 29.638C609.949 29.638 612.352 30.2387 614.401 31.44C616.486 32.6413 618.076 34.2667 619.171 36.316C620.302 38.33 620.867 40.5737 620.867 43.047ZM617.104 42.941C617.14 40.7857 616.698 38.9483 615.779 37.429C614.896 35.9097 613.677 34.7613 612.122 33.984C610.568 33.2067 608.872 32.818 607.034 32.818C604.278 32.818 601.929 33.7013 599.985 35.468C598.042 37.2347 596.964 39.7257 596.752 42.941H617.104ZM632.478 33.189V51.156C632.478 52.9227 632.814 54.1417 633.485 54.813C634.156 55.4843 635.34 55.82 637.036 55.82H640.428V59H636.453C633.838 59 631.895 58.3993 630.623 57.198C629.351 55.9613 628.715 53.9473 628.715 51.156V33.189H624.687V30.062H628.715V22.801H632.478V30.062H640.428V33.189H632.478ZM672.729 43.047C672.729 44.319 672.693 45.2907 672.623 45.962H648.614C648.72 48.1527 649.25 50.0253 650.204 51.58C651.158 53.1347 652.412 54.3183 653.967 55.131C655.521 55.9083 657.217 56.297 659.055 56.297C661.457 56.297 663.471 55.714 665.097 54.548C666.757 53.382 667.853 51.8097 668.383 49.831H672.305C671.598 52.6577 670.079 54.972 667.747 56.774C665.45 58.5407 662.553 59.424 659.055 59.424C656.334 59.424 653.896 58.8233 651.741 57.622C649.585 56.3853 647.889 54.654 646.653 52.428C645.451 50.1667 644.851 47.5343 644.851 44.531C644.851 41.5277 645.451 38.8953 646.653 36.634C647.854 34.3727 649.532 32.6413 651.688 31.44C653.843 30.2387 656.299 29.638 659.055 29.638C661.811 29.638 664.213 30.2387 666.263 31.44C668.347 32.6413 669.937 34.2667 671.033 36.316C672.163 38.33 672.729 40.5737 672.729 43.047ZM668.966 42.941C669.001 40.7857 668.559 38.9483 667.641 37.429C666.757 35.9097 665.538 34.7613 663.984 33.984C662.429 33.2067 660.733 32.818 658.896 32.818C656.14 32.818 653.79 33.7013 651.847 35.468C649.903 37.2347 648.826 39.7257 648.614 42.941H668.966ZM677.82 44.478C677.82 41.51 678.421 38.913 679.622 36.687C680.824 34.4257 682.467 32.6943 684.551 31.493C686.671 30.2563 689.056 29.638 691.706 29.638C694.25 29.638 696.547 30.2563 698.596 31.493C700.646 32.7297 702.147 34.3373 703.101 36.316V19.78H706.811V59H703.101V52.534C702.218 54.548 700.769 56.2087 698.755 57.516C696.741 58.788 694.374 59.424 691.653 59.424C689.003 59.424 686.618 58.8057 684.498 57.569C682.414 56.3323 680.771 54.5833 679.569 52.322C678.403 50.0607 677.82 47.446 677.82 44.478ZM703.101 44.531C703.101 42.199 702.624 40.1497 701.67 38.383C700.716 36.6163 699.409 35.256 697.748 34.302C696.123 33.348 694.321 32.871 692.342 32.871C690.293 32.871 688.456 33.3303 686.83 34.249C685.205 35.1677 683.915 36.5103 682.961 38.277C682.043 40.0083 681.583 42.0753 681.583 44.478C681.583 46.8453 682.043 48.93 682.961 50.732C683.915 52.4987 685.205 53.859 686.83 54.813C688.456 55.7317 690.293 56.191 692.342 56.191C694.321 56.191 696.123 55.714 697.748 54.76C699.409 53.806 700.716 52.4457 701.67 50.679C702.624 48.9123 703.101 46.863 703.101 44.531Z" fill="#5F5B5B"/>
<path d="M511.422 135.824C513.848 135.824 515.815 133.87 515.815 131.458C515.815 129.047 513.848 127.092 511.422 127.092C508.996 127.092 507.029 129.047 507.029 131.458C507.029 133.87 508.996 135.824 511.422 135.824Z" stroke="#DD5928" stroke-linecap="round" stroke-linejoin="round"/>
<path d="M501.737 133.462C502.859 133.462 503.769 132.553 503.769 131.431C503.769 130.309 502.859 129.4 501.737 129.4C500.615 129.4 499.706 130.309 499.706 131.431C499.706 132.553 500.615 133.462 501.737 133.462Z" fill="#DD5928"/>
<path d="M424.263 133.462C425.385 133.462 426.294 132.553 426.294 131.431C426.294 130.309 425.385 129.4 424.263 129.4C423.141 129.4 422.231 130.309 422.231 131.431C422.231 132.553 423.141 133.462 424.263 133.462Z" fill="#DD5928"/>
<path d="M433.948 133.462C435.07 133.462 435.979 132.553 435.979 131.431C435.979 130.309 435.07 129.4 433.948 129.4C432.826 129.4 431.916 130.309 431.916 131.431C431.916 132.553 432.826 133.462 433.948 133.462Z" fill="#DD5928"/>
<path d="M443.633 133.462C444.755 133.462 445.664 132.553 445.664 131.431C445.664 130.309 444.755 129.4 443.633 129.4C442.511 129.4 441.601 130.309 441.601 131.431C441.601 132.553 442.511 133.462 443.633 133.462Z" fill="#DD5928"/>
<path d="M453.315 133.462C454.437 133.462 455.346 132.553 455.346 131.431C455.346 130.309 454.437 129.4 453.315 129.4C452.193 129.4 451.284 130.309 451.284 131.431C451.284 132.553 452.193 133.462 453.315 133.462Z" fill="#DD5928"/>
<path d="M463 133.462C464.122 133.462 465.031 132.553 465.031 131.431C465.031 130.309 464.122 129.4 463 129.4C461.878 129.4 460.969 130.309 460.969 131.431C460.969 132.553 461.878 133.462 463 133.462Z" fill="#DD5928"/>
<path d="M472.685 133.462C473.807 133.462 474.716 132.553 474.716 131.431C474.716 130.309 473.807 129.4 472.685 129.4C471.563 129.4 470.654 130.309 470.654 131.431C470.654 132.553 471.563 133.462 472.685 133.462Z" fill="#DD5928"/>
<path d="M482.367 133.462C483.489 133.462 484.399 132.553 484.399 131.431C484.399 130.309 483.489 129.4 482.367 129.4C481.245 129.4 480.336 130.309 480.336 131.431C480.336 132.553 481.245 133.462 482.367 133.462Z" fill="#DD5928"/>
<path d="M492.052 133.462C493.174 133.462 494.084 132.553 494.084 131.431C494.084 130.309 493.174 129.4 492.052 129.4C490.93 129.4 490.021 130.309 490.021 131.431C490.021 132.553 490.93 133.462 492.052 133.462Z" fill="#DD5928"/>
<path d="M463 85.8879V118.94M501.737 97.4877V118.946V97.4877ZM492.052 97.4877V118.946V97.4877ZM453.315 97.4877V118.946V97.4877ZM472.685 97.4877V118.946V97.4877ZM482.367 97.4877V118.946V97.4877ZM443.633 97.4877V118.946V97.4877ZM414.578 76.1758V118.946V76.1758ZM511.422 76.1758V118.946V76.1758ZM424.263 97.4877V118.946V97.4877ZM433.948 97.4877V118.946V97.4877Z" stroke="#DD5928" stroke-linecap="round" stroke-linejoin="round"/>
<path d="M414.578 135.824C417.004 135.824 418.971 133.857 418.971 131.431C418.971 129.005 417.004 127.038 414.578 127.038C412.152 127.038 410.185 129.005 410.185 131.431C410.185 133.857 412.152 135.824 414.578 135.824Z" stroke="#DD5928" stroke-linecap="round" stroke-linejoin="round"/>
<path d="M608.422 135.824C610.848 135.824 612.815 133.87 612.815 131.458C612.815 129.047 610.848 127.092 608.422 127.092C605.996 127.092 604.029 129.047 604.029 131.458C604.029 133.87 605.996 135.824 608.422 135.824Z" stroke="#DD5928" stroke-linecap="round" stroke-linejoin="round"/>
<path d="M598.737 133.462C599.859 133.462 600.769 132.553 600.769 131.431C600.769 130.309 599.859 129.4 598.737 129.4C597.615 129.4 596.706 130.309 596.706 131.431C596.706 132.553 597.615 133.462 598.737 133.462Z" fill="#DD5928"/>
<path d="M521.263 133.462C522.385 133.462 523.294 132.553 523.294 131.431C523.294 130.309 522.385 129.4 521.263 129.4C520.141 129.4 519.231 130.309 519.231 131.431C519.231 132.553 520.141 133.462 521.263 133.462Z" fill="#DD5928"/>
<path d="M530.948 133.462C532.07 133.462 532.979 132.553 532.979 131.431C532.979 130.309 532.07 129.4 530.948 129.4C529.826 129.4 528.916 130.309 528.916 131.431C528.916 132.553 529.826 133.462 530.948 133.462Z" fill="#DD5928"/>
<path d="M540.633 133.462C541.755 133.462 542.664 132.553 542.664 131.431C542.664 130.309 541.755 129.4 540.633 129.4C539.511 129.4 538.601 130.309 538.601 131.431C538.601 132.553 539.511 133.462 540.633 133.462Z" fill="#DD5928"/>
<path d="M550.315 133.462C551.437 133.462 552.346 132.553 552.346 131.431C552.346 130.309 551.437 129.4 550.315 129.4C549.193 129.4 548.284 130.309 548.284 131.431C548.284 132.553 549.193 133.462 550.315 133.462Z" fill="#DD5928"/>
<path d="M560 133.462C561.122 133.462 562.031 132.553 562.031 131.431C562.031 130.309 561.122 129.4 560 129.4C558.878 129.4 557.969 130.309 557.969 131.431C557.969 132.553 558.878 133.462 560 133.462Z" fill="#DD5928"/>
<path d="M569.685 133.462C570.807 133.462 571.716 132.553 571.716 131.431C571.716 130.309 570.807 129.4 569.685 129.4C568.563 129.4 567.654 130.309 567.654 131.431C567.654 132.553 568.563 133.462 569.685 133.462Z" fill="#DD5928"/>
<path d="M579.367 133.462C580.489 133.462 581.399 132.553 581.399 131.431C581.399 130.309 580.489 129.4 579.367 129.4C578.245 129.4 577.336 130.309 577.336 131.431C577.336 132.553 578.245 133.462 579.367 133.462Z" fill="#DD5928"/>
<path d="M589.052 133.462C590.174 133.462 591.084 132.553 591.084 131.431C591.084 130.309 590.174 129.4 589.052 129.4C587.93 129.4 587.021 130.309 587.021 131.431C587.021 132.553 587.93 133.462 589.052 133.462Z" fill="#DD5928"/>
<path d="M560 85.8879V118.94M598.737 97.4877V118.946V97.4877ZM589.052 97.4877V118.946V97.4877ZM550.315 97.4877V118.946V97.4877ZM569.685 97.4877V118.946V97.4877ZM579.367 97.4877V118.946V97.4877ZM540.633 97.4877V118.946V97.4877ZM511.578 76.1758V118.946V76.1758ZM608.422 76.1758V118.946V76.1758ZM521.263 97.4877V118.946V97.4877ZM530.948 97.4877V118.946V97.4877Z" stroke="#DD5928" stroke-linecap="round" stroke-linejoin="round"/>
<path d="M511.578 135.824C514.004 135.824 515.971 133.857 515.971 131.431C515.971 129.005 514.004 127.038 511.578 127.038C509.152 127.038 507.185 129.005 507.185 131.431C507.185 133.857 509.152 135.824 511.578 135.824Z" stroke="#DD5928" stroke-linecap="round" stroke-linejoin="round"/>
<path d="M705.422 135.824C707.848 135.824 709.815 133.87 709.815 131.458C709.815 129.047 707.848 127.092 705.422 127.092C702.996 127.092 701.029 129.047 701.029 131.458C701.029 133.87 702.996 135.824 705.422 135.824Z" stroke="#DD5928" stroke-linecap="round" stroke-linejoin="round"/>
<path d="M695.737 133.462C696.859 133.462 697.769 132.553 697.769 131.431C697.769 130.309 696.859 129.4 695.737 129.4C694.615 129.4 693.706 130.309 693.706 131.431C693.706 132.553 694.615 133.462 695.737 133.462Z" fill="#DD5928"/>
<path d="M618.263 133.462C619.385 133.462 620.294 132.553 620.294 131.431C620.294 130.309 619.385 129.4 618.263 129.4C617.141 129.4 616.231 130.309 616.231 131.431C616.231 132.553 617.141 133.462 618.263 133.462Z" fill="#DD5928"/>
<path d="M627.948 133.462C629.07 133.462 629.979 132.553 629.979 131.431C629.979 130.309 629.07 129.4 627.948 129.4C626.826 129.4 625.916 130.309 625.916 131.431C625.916 132.553 626.826 133.462 627.948 133.462Z" fill="#DD5928"/>
<path d="M637.633 133.462C638.755 133.462 639.664 132.553 639.664 131.431C639.664 130.309 638.755 129.4 637.633 129.4C636.511 129.4 635.601 130.309 635.601 131.431C635.601 132.553 636.511 133.462 637.633 133.462Z" fill="#DD5928"/>
<path d="M647.315 133.462C648.437 133.462 649.346 132.553 649.346 131.431C649.346 130.309 648.437 129.4 647.315 129.4C646.193 129.4 645.284 130.309 645.284 131.431C645.284 132.553 646.193 133.462 647.315 133.462Z" fill="#DD5928"/>
<path d="M657 133.462C658.122 133.462 659.031 132.553 659.031 131.431C659.031 130.309 658.122 129.4 657 129.4C655.878 129.4 654.969 130.309 654.969 131.431C654.969 132.553 655.878 133.462 657 133.462Z" fill="#DD5928"/>
<path d="M666.685 133.462C667.807 133.462 668.716 132.553 668.716 131.431C668.716 130.309 667.807 129.4 666.685 129.4C665.563 129.4 664.654 130.309 664.654 131.431C664.654 132.553 665.563 133.462 666.685 133.462Z" fill="#DD5928"/>
<path d="M676.367 133.462C677.489 133.462 678.399 132.553 678.399 131.431C678.399 130.309 677.489 129.4 676.367 129.4C675.245 129.4 674.336 130.309 674.336 131.431C674.336 132.553 675.245 133.462 676.367 133.462Z" fill="#DD5928"/>
<path d="M686.052 133.462C687.174 133.462 688.084 132.553 688.084 131.431C688.084 130.309 687.174 129.4 686.052 129.4C684.93 129.4 684.021 130.309 684.021 131.431C684.021 132.553 684.93 133.462 686.052 133.462Z" fill="#DD5928"/>
<path d="M657 85.8879V118.94M695.737 97.4877V118.946V97.4877ZM686.052 97.4877V118.946V97.4877ZM647.315 97.4877V118.946V97.4877ZM666.685 97.4877V118.946V97.4877ZM676.367 97.4877V118.946V97.4877ZM637.633 97.4877V118.946V97.4877ZM608.578 76.1758V118.946V76.1758ZM705.422 76.1758V118.946V76.1758ZM618.263 97.4877V118.946V97.4877ZM627.948 97.4877V118.946V97.4877Z" stroke="#DD5928" stroke-linecap="round" stroke-linejoin="round"/>
<path d="M608.578 135.824C611.004 135.824 612.971 133.857 612.971 131.431C612.971 129.005 611.004 127.038 608.578 127.038C606.152 127.038 604.185 129.005 604.185 131.431C604.185 133.857 606.152 135.824 608.578 135.824Z" stroke="#DD5928" stroke-linecap="round" stroke-linejoin="round"/>
<path d="M298.536 106.232C298.536 104.44 298.899 102.872 299.624 101.528C300.349 100.163 301.341 99.1173 302.6 98.392C303.88 97.6453 305.32 97.272 306.92 97.272C308.456 97.272 309.843 97.6453 311.08 98.392C312.317 99.1387 313.224 100.109 313.8 101.304V91.32H316.04V115H313.8V111.096C313.267 112.312 312.392 113.315 311.176 114.104C309.96 114.872 308.531 115.256 306.888 115.256C305.288 115.256 303.848 114.883 302.568 114.136C301.309 113.389 300.317 112.333 299.592 110.968C298.888 109.603 298.536 108.024 298.536 106.232ZM313.8 106.264C313.8 104.856 313.512 103.619 312.936 102.552C312.36 101.485 311.571 100.664 310.568 100.088C309.587 99.512 308.499 99.224 307.304 99.224C306.067 99.224 304.957 99.5013 303.976 100.056C302.995 100.611 302.216 101.421 301.64 102.488C301.085 103.533 300.808 104.781 300.808 106.232C300.808 107.661 301.085 108.92 301.64 110.008C302.216 111.075 302.995 111.896 303.976 112.472C304.957 113.027 306.067 113.304 307.304 113.304C308.499 113.304 309.587 113.016 310.568 112.44C311.571 111.864 312.36 111.043 312.936 109.976C313.512 108.909 313.8 107.672 313.8 106.264ZM320.13 106.232C320.13 104.44 320.482 102.872 321.186 101.528C321.911 100.163 322.903 99.1173 324.162 98.392C325.442 97.6453 326.882 97.272 328.482 97.272C330.146 97.272 331.575 97.656 332.77 98.424C333.986 99.192 334.86 100.173 335.394 101.368V97.528H337.634V115H335.394V111.128C334.839 112.323 333.954 113.315 332.738 114.104C331.543 114.872 330.114 115.256 328.45 115.256C326.871 115.256 325.442 114.883 324.162 114.136C322.903 113.389 321.911 112.333 321.186 110.968C320.482 109.603 320.13 108.024 320.13 106.232ZM335.394 106.264C335.394 104.856 335.106 103.619 334.53 102.552C333.954 101.485 333.164 100.664 332.162 100.088C331.18 99.512 330.092 99.224 328.898 99.224C327.66 99.224 326.551 99.5013 325.57 100.056C324.588 100.611 323.81 101.421 323.234 102.488C322.679 103.533 322.402 104.781 322.402 106.232C322.402 107.661 322.679 108.92 323.234 110.008C323.81 111.075 324.588 111.896 325.57 112.472C326.551 113.027 327.66 113.304 328.898 113.304C330.092 113.304 331.18 113.016 332.162 112.44C333.164 111.864 333.954 111.043 334.53 109.976C335.106 108.909 335.394 107.672 335.394 106.264ZM345.66 99.416V110.264C345.66 111.331 345.862 112.067 346.268 112.472C346.673 112.877 347.388 113.08 348.411 113.08H350.46V115H348.06C346.481 115 345.308 114.637 344.54 113.912C343.772 113.165 343.388 111.949 343.388 110.264V99.416H340.956V97.528H343.388V93.144H345.66V97.528H350.46V99.416H345.66ZM353.13 106.232C353.13 104.44 353.482 102.872 354.186 101.528C354.911 100.163 355.903 99.1173 357.162 98.392C358.442 97.6453 359.882 97.272 361.482 97.272C363.146 97.272 364.575 97.656 365.77 98.424C366.986 99.192 367.86 100.173 368.394 101.368V97.528H370.634V115H368.394V111.128C367.839 112.323 366.954 113.315 365.738 114.104C364.543 114.872 363.114 115.256 361.45 115.256C359.871 115.256 358.442 114.883 357.162 114.136C355.903 113.389 354.911 112.333 354.186 110.968C353.482 109.603 353.13 108.024 353.13 106.232ZM368.394 106.264C368.394 104.856 368.106 103.619 367.53 102.552C366.954 101.485 366.164 100.664 365.162 100.088C364.18 99.512 363.092 99.224 361.898 99.224C360.66 99.224 359.551 99.5013 358.57 100.056C357.588 100.611 356.81 101.421 356.234 102.488C355.679 103.533 355.402 104.781 355.402 106.232C355.402 107.661 355.679 108.92 356.234 110.008C356.81 111.075 357.588 111.896 358.57 112.472C359.551 113.027 360.66 113.304 361.898 113.304C363.092 113.304 364.18 113.016 365.162 112.44C366.164 111.864 366.954 111.043 367.53 109.976C368.106 108.909 368.394 107.672 368.394 106.264Z" fill="#DD5928"/>
<line x1="282.5" y1="72" x2="282.5" y2="135" stroke="#DD5928" stroke-width="5"/>
<line x1="298" y1="74.5" x2="280" y2="74.5" stroke="#DD5928" stroke-width="5"/>
<line x1="298" y1="133.5" x2="280" y2="133.5" stroke="#DD5928" stroke-width="5"/>
<line x1="388.5" y1="135" x2="388.5" y2="72" stroke="#DD5928" stroke-width="5"/>
<line x1="373" y1="132.5" x2="391" y2="132.5" stroke="#DD5928" stroke-width="5"/>
<line x1="373" y1="73.5" x2="391" y2="73.5" stroke="#DD5928" stroke-width="5"/>
</svg>
