<svg width="726" height="516" viewBox="0 0 726 516" fill="none" xmlns="http://www.w3.org/2000/svg">
<g filter="url(#filter0_d_72_80)">
<rect x="40" y="40" width="269" height="110" rx="20" fill="white"/>
</g>
<path d="M155.06 103.02V113.6C155.06 114.667 154.733 115.527 154.08 116.18C153.427 116.82 152.553 117.14 151.46 117.14C150.327 117.14 149.42 116.8 148.74 116.12C148.073 115.427 147.74 114.493 147.74 113.32H149.16C149.173 114.08 149.36 114.7 149.72 115.18C150.093 115.66 150.673 115.9 151.46 115.9C152.207 115.9 152.76 115.68 153.12 115.24C153.48 114.8 153.66 114.253 153.66 113.6V103.02H155.06ZM163.36 117.16C162.334 117.16 161.407 116.933 160.58 116.48C159.767 116.013 159.12 115.36 158.64 114.52C158.174 113.667 157.94 112.673 157.94 111.54C157.94 110.407 158.18 109.42 158.66 108.58C159.14 107.727 159.794 107.073 160.62 106.62C161.447 106.153 162.374 105.92 163.4 105.92C164.427 105.92 165.354 106.153 166.18 106.62C167.02 107.073 167.674 107.727 168.14 108.58C168.62 109.42 168.86 110.407 168.86 111.54C168.86 112.66 168.62 113.647 168.14 114.5C167.66 115.353 167 116.013 166.16 116.48C165.32 116.933 164.387 117.16 163.36 117.16ZM163.36 115.94C164.08 115.94 164.747 115.78 165.36 115.46C165.974 115.127 166.467 114.633 166.84 113.98C167.227 113.313 167.42 112.5 167.42 111.54C167.42 110.58 167.234 109.773 166.86 109.12C166.487 108.453 165.994 107.96 165.38 107.64C164.767 107.307 164.1 107.14 163.38 107.14C162.66 107.14 161.994 107.307 161.38 107.64C160.767 107.96 160.274 108.453 159.9 109.12C159.54 109.773 159.36 110.58 159.36 111.54C159.36 112.5 159.54 113.313 159.9 113.98C160.274 114.633 160.76 115.127 161.36 115.46C161.974 115.78 162.64 115.94 163.36 115.94ZM176.613 105.88C177.439 105.88 178.179 106.053 178.833 106.4C179.499 106.747 180.019 107.28 180.393 108C180.779 108.707 180.973 109.573 180.973 110.6V117H179.593V110.76C179.593 109.573 179.293 108.667 178.693 108.04C178.106 107.413 177.299 107.1 176.273 107.1C175.219 107.1 174.379 107.433 173.753 108.1C173.126 108.767 172.813 109.747 172.813 111.04V117H171.413V102.2H172.813V107.94C173.159 107.287 173.666 106.78 174.333 106.42C175.013 106.06 175.773 105.88 176.613 105.88ZM189.189 105.88C190.495 105.88 191.562 106.287 192.389 107.1C193.215 107.9 193.629 109.067 193.629 110.6V117H192.249V110.76C192.249 109.573 191.949 108.667 191.349 108.04C190.762 107.413 189.955 107.1 188.929 107.1C187.875 107.1 187.035 107.433 186.409 108.1C185.782 108.767 185.469 109.747 185.469 111.04V117H184.069V106.08H185.469V107.94C185.815 107.273 186.315 106.767 186.969 106.42C187.622 106.06 188.362 105.88 189.189 105.88ZM211.153 107.04C211.153 108.24 210.76 109.207 209.973 109.94C209.187 110.673 208.007 111.04 206.433 111.04H203.613V117H202.213V103.02H206.433C207.993 103.02 209.167 103.387 209.953 104.12C210.753 104.853 211.153 105.827 211.153 107.04ZM206.433 109.84C208.62 109.84 209.713 108.907 209.713 107.04C209.713 106.107 209.453 105.4 208.933 104.92C208.413 104.44 207.58 104.2 206.433 104.2H203.613V109.84H206.433ZM212.862 111.52C212.862 110.4 213.082 109.42 213.522 108.58C213.976 107.727 214.596 107.073 215.382 106.62C216.182 106.153 217.082 105.92 218.082 105.92C219.122 105.92 220.016 106.16 220.762 106.64C221.522 107.12 222.069 107.733 222.402 108.48V106.08H223.802V117H222.402V114.58C222.056 115.327 221.502 115.947 220.742 116.44C219.996 116.92 219.102 117.16 218.062 117.16C217.076 117.16 216.182 116.927 215.382 116.46C214.596 115.993 213.976 115.333 213.522 114.48C213.082 113.627 212.862 112.64 212.862 111.52ZM222.402 111.54C222.402 110.66 222.222 109.887 221.862 109.22C221.502 108.553 221.009 108.04 220.382 107.68C219.769 107.32 219.089 107.14 218.342 107.14C217.569 107.14 216.876 107.313 216.262 107.66C215.649 108.007 215.162 108.513 214.802 109.18C214.456 109.833 214.282 110.613 214.282 111.52C214.282 112.413 214.456 113.2 214.802 113.88C215.162 114.547 215.649 115.06 216.262 115.42C216.876 115.767 217.569 115.94 218.342 115.94C219.089 115.94 219.769 115.76 220.382 115.4C221.009 115.04 221.502 114.527 221.862 113.86C222.222 113.193 222.402 112.42 222.402 111.54ZM228.398 108.02C228.705 107.34 229.172 106.813 229.798 106.44C230.438 106.067 231.218 105.88 232.138 105.88V107.34H231.758C230.745 107.34 229.932 107.613 229.318 108.16C228.705 108.707 228.398 109.62 228.398 110.9V117H226.998V106.08H228.398V108.02ZM240.145 117L235.645 112.1V117H234.245V102.2H235.645V110.96L240.045 106.08H242.005L236.825 111.52L242.045 117H240.145ZM253.734 110.98C253.734 111.46 253.721 111.827 253.694 112.08H244.634C244.674 112.907 244.874 113.613 245.234 114.2C245.594 114.787 246.067 115.233 246.654 115.54C247.241 115.833 247.881 115.98 248.574 115.98C249.481 115.98 250.241 115.76 250.854 115.32C251.481 114.88 251.894 114.287 252.094 113.54H253.574C253.307 114.607 252.734 115.48 251.854 116.16C250.987 116.827 249.894 117.16 248.574 117.16C247.547 117.16 246.627 116.933 245.814 116.48C245.001 116.013 244.361 115.36 243.894 114.52C243.441 113.667 243.214 112.673 243.214 111.54C243.214 110.407 243.441 109.413 243.894 108.56C244.347 107.707 244.981 107.053 245.794 106.6C246.607 106.147 247.534 105.92 248.574 105.92C249.614 105.92 250.521 106.147 251.294 106.6C252.081 107.053 252.681 107.667 253.094 108.44C253.521 109.2 253.734 110.047 253.734 110.98ZM252.314 110.94C252.327 110.127 252.161 109.433 251.814 108.86C251.481 108.287 251.021 107.853 250.434 107.56C249.847 107.267 249.207 107.12 248.514 107.12C247.474 107.12 246.587 107.453 245.854 108.12C245.121 108.787 244.714 109.727 244.634 110.94H252.314ZM257.695 108.02C258.002 107.34 258.469 106.813 259.095 106.44C259.735 106.067 260.515 105.88 261.435 105.88V107.34H261.055C260.042 107.34 259.229 107.613 258.615 108.16C258.002 108.707 257.695 109.62 257.695 110.9V117H256.295V106.08H257.695V108.02Z" fill="#DD5928"/>
<path d="M161.08 66.32C163.04 66.32 164.64 66.93 165.88 68.15C167.12 69.35 167.74 71.1 167.74 73.4V83H165.67V73.64C165.67 71.86 165.22 70.5 164.32 69.56C163.44 68.62 162.23 68.15 160.69 68.15C159.11 68.15 157.85 68.65 156.91 69.65C155.97 70.65 155.5 72.12 155.5 74.06V83H153.4V66.62H155.5V69.41C156.02 68.41 156.77 67.65 157.75 67.13C158.73 66.59 159.84 66.32 161.08 66.32ZM171.424 74.78C171.424 73.1 171.754 71.63 172.414 70.37C173.094 69.09 174.024 68.11 175.204 67.43C176.404 66.73 177.754 66.38 179.254 66.38C180.814 66.38 182.154 66.74 183.274 67.46C184.414 68.18 185.234 69.1 185.734 70.22V66.62H187.834V83H185.734V79.37C185.214 80.49 184.384 81.42 183.244 82.16C182.124 82.88 180.784 83.24 179.224 83.24C177.744 83.24 176.404 82.89 175.204 82.19C174.024 81.49 173.094 80.5 172.414 79.22C171.754 77.94 171.424 76.46 171.424 74.78ZM185.734 74.81C185.734 73.49 185.464 72.33 184.924 71.33C184.384 70.33 183.644 69.56 182.704 69.02C181.784 68.48 180.764 68.21 179.644 68.21C178.484 68.21 177.444 68.47 176.524 68.99C175.604 69.51 174.874 70.27 174.334 71.27C173.814 72.25 173.554 73.42 173.554 74.78C173.554 76.12 173.814 77.3 174.334 78.32C174.874 79.32 175.604 80.09 176.524 80.63C177.444 81.15 178.484 81.41 179.644 81.41C180.764 81.41 181.784 81.14 182.704 80.6C183.644 80.06 184.384 79.29 184.924 78.29C185.464 77.29 185.734 76.13 185.734 74.81ZM212.129 66.32C214.049 66.32 215.609 66.93 216.809 68.15C218.029 69.35 218.639 71.1 218.639 73.4V83H216.569V73.64C216.569 71.86 216.139 70.5 215.279 69.56C214.419 68.62 213.249 68.15 211.769 68.15C210.229 68.15 208.999 68.66 208.079 69.68C207.159 70.7 206.699 72.18 206.699 74.12V83H204.629V73.64C204.629 71.86 204.199 70.5 203.339 69.56C202.479 68.62 201.299 68.15 199.799 68.15C198.259 68.15 197.029 68.66 196.109 69.68C195.189 70.7 194.729 72.18 194.729 74.12V83H192.629V66.62H194.729V69.44C195.249 68.42 195.989 67.65 196.949 67.13C197.909 66.59 198.979 66.32 200.159 66.32C201.579 66.32 202.819 66.66 203.879 67.34C204.959 68.02 205.739 69.02 206.219 70.34C206.659 69.04 207.409 68.05 208.469 67.37C209.549 66.67 210.769 66.32 212.129 66.32ZM238.122 73.97C238.122 74.69 238.102 75.24 238.062 75.62H224.472C224.532 76.86 224.832 77.92 225.372 78.8C225.912 79.68 226.622 80.35 227.502 80.81C228.382 81.25 229.342 81.47 230.382 81.47C231.742 81.47 232.882 81.14 233.802 80.48C234.742 79.82 235.362 78.93 235.662 77.81H237.882C237.482 79.41 236.622 80.72 235.302 81.74C234.002 82.74 232.362 83.24 230.382 83.24C228.842 83.24 227.462 82.9 226.242 82.22C225.022 81.52 224.062 80.54 223.362 79.28C222.682 78 222.342 76.51 222.342 74.81C222.342 73.11 222.682 71.62 223.362 70.34C224.042 69.06 224.992 68.08 226.212 67.4C227.432 66.72 228.822 66.38 230.382 66.38C231.942 66.38 233.302 66.72 234.462 67.4C235.642 68.08 236.542 69 237.162 70.16C237.802 71.3 238.122 72.57 238.122 73.97ZM235.992 73.91C236.012 72.69 235.762 71.65 235.242 70.79C234.742 69.93 234.052 69.28 233.172 68.84C232.292 68.4 231.332 68.18 230.292 68.18C228.732 68.18 227.402 68.68 226.302 69.68C225.202 70.68 224.592 72.09 224.472 73.91H235.992Z" fill="#5F5B5B"/>
<path fill-rule="evenodd" clip-rule="evenodd" d="M99.5 115.875C114.619 115.875 126.875 103.619 126.875 88.5C126.875 73.3814 114.619 61.125 99.5 61.125C84.3814 61.125 72.125 73.3814 72.125 88.5C72.125 103.619 84.3814 115.875 99.5 115.875ZM99.5 118.917C116.299 118.917 129.917 105.299 129.917 88.5C129.917 71.7009 116.299 58.0833 99.5 58.0833C82.7009 58.0833 69.0833 71.7009 69.0833 88.5C69.0833 105.299 82.7009 118.917 99.5 118.917Z" fill="#DD5928"/>
<path d="M81.25 106.187C81.25 104.616 82.4241 103.289 83.9875 103.115C95.7207 101.816 103.332 101.934 115.04 103.144C115.624 103.205 116.179 103.436 116.634 103.807C117.09 104.178 117.428 104.674 117.607 105.234C117.786 105.794 117.797 106.394 117.641 106.96C117.484 107.527 117.166 108.036 116.725 108.424C102.908 120.468 95.012 120.302 82.2233 108.437C81.5998 107.859 81.25 107.037 81.25 106.189V106.187Z" fill="#DD5928"/>
<path fill-rule="evenodd" clip-rule="evenodd" d="M114.883 104.656C103.269 103.454 95.7664 103.342 84.1533 104.627C83.771 104.671 83.4186 104.855 83.1635 105.144C82.9084 105.432 82.7686 105.804 82.7708 106.189C82.7708 106.624 82.9518 107.036 83.2575 107.322C89.5963 113.201 94.3991 115.858 99.0939 115.875C103.805 115.892 108.867 113.256 115.726 107.279C115.944 107.085 116.101 106.832 116.177 106.551C116.254 106.269 116.247 105.972 116.158 105.694C116.069 105.416 115.901 105.17 115.675 104.986C115.448 104.802 115.173 104.688 114.883 104.657V104.656ZM83.8202 101.604C95.6766 100.291 103.399 100.41 115.198 101.631C116.078 101.723 116.911 102.069 117.597 102.627C118.283 103.186 118.791 103.932 119.059 104.774C119.327 105.617 119.344 106.519 119.107 107.371C118.87 108.223 118.39 108.988 117.726 109.571C110.768 115.636 104.973 118.939 99.0848 118.917C93.1794 118.895 87.6405 115.536 81.1907 109.551C80.7289 109.121 80.3608 108.6 80.1093 108.022C79.8578 107.443 79.7284 106.818 79.7292 106.187C79.7269 105.053 80.1431 103.959 80.898 103.112C81.6529 102.266 82.6934 101.729 83.8202 101.602V101.604Z" fill="#DD5928"/>
<path d="M111.667 82.4167C111.667 85.6435 110.385 88.7381 108.103 91.0198C105.821 93.3015 102.727 94.5833 99.5 94.5833C96.2732 94.5833 93.1786 93.3015 90.8969 91.0198C88.6152 88.7381 87.3333 85.6435 87.3333 82.4167C87.3333 79.1899 88.6152 76.0952 90.8969 73.8135C93.1786 71.5318 96.2732 70.25 99.5 70.25C102.727 70.25 105.821 71.5318 108.103 73.8135C110.385 76.0952 111.667 79.1899 111.667 82.4167Z" fill="#DD5928"/>
<path fill-rule="evenodd" clip-rule="evenodd" d="M99.5 91.5417C101.92 91.5417 104.241 90.5803 105.952 88.869C107.664 87.1577 108.625 84.8368 108.625 82.4167C108.625 79.9966 107.664 77.6756 105.952 75.9643C104.241 74.253 101.92 73.2917 99.5 73.2917C97.0799 73.2917 94.7589 74.253 93.0476 75.9643C91.3364 77.6756 90.375 79.9966 90.375 82.4167C90.375 84.8368 91.3364 87.1577 93.0476 88.869C94.7589 90.5803 97.0799 91.5417 99.5 91.5417ZM99.5 94.5833C102.727 94.5833 105.821 93.3015 108.103 91.0198C110.385 88.7381 111.667 85.6435 111.667 82.4167C111.667 79.1899 110.385 76.0952 108.103 73.8135C105.821 71.5318 102.727 70.25 99.5 70.25C96.2732 70.25 93.1786 71.5318 90.8969 73.8135C88.6152 76.0952 87.3333 79.1899 87.3333 82.4167C87.3333 85.6435 88.6152 88.7381 90.8969 91.0198C93.1786 93.3015 96.2732 94.5833 99.5 94.5833Z" fill="#DD5928"/>
<g filter="url(#filter1_d_72_80)">
<rect x="46" y="195" width="263" height="230" rx="20" fill="white"/>
</g>
<path d="M146.18 395.92C147.207 395.92 148.1 396.16 148.86 396.64C149.62 397.12 150.167 397.727 150.5 398.46V396.08H151.9V407.28C151.9 408.28 151.68 409.167 151.24 409.94C150.813 410.713 150.213 411.307 149.44 411.72C148.667 412.147 147.787 412.36 146.8 412.36C145.4 412.36 144.233 412.027 143.3 411.36C142.38 410.693 141.807 409.787 141.58 408.64H142.96C143.2 409.4 143.653 410.007 144.32 410.46C145 410.913 145.827 411.14 146.8 411.14C147.507 411.14 148.14 410.987 148.7 410.68C149.26 410.387 149.7 409.947 150.02 409.36C150.34 408.773 150.5 408.08 150.5 407.28V404.58C150.153 405.327 149.6 405.947 148.84 406.44C148.093 406.92 147.207 407.16 146.18 407.16C145.18 407.16 144.28 406.927 143.48 406.46C142.693 405.993 142.073 405.333 141.62 404.48C141.18 403.627 140.96 402.64 140.96 401.52C140.96 400.4 141.18 399.42 141.62 398.58C142.073 397.727 142.693 397.073 143.48 396.62C144.28 396.153 145.18 395.92 146.18 395.92ZM150.5 401.54C150.5 400.66 150.32 399.887 149.96 399.22C149.6 398.553 149.107 398.04 148.48 397.68C147.867 397.32 147.187 397.14 146.44 397.14C145.667 397.14 144.973 397.313 144.36 397.66C143.747 398.007 143.26 398.513 142.9 399.18C142.553 399.833 142.38 400.613 142.38 401.52C142.38 402.413 142.553 403.2 142.9 403.88C143.26 404.547 143.747 405.06 144.36 405.42C144.973 405.767 145.667 405.94 146.44 405.94C147.187 405.94 147.867 405.76 148.48 405.4C149.107 405.04 149.6 404.527 149.96 403.86C150.32 403.193 150.5 402.42 150.5 401.54ZM159.876 407.16C158.849 407.16 157.923 406.933 157.096 406.48C156.283 406.013 155.636 405.36 155.156 404.52C154.689 403.667 154.456 402.673 154.456 401.54C154.456 400.407 154.696 399.42 155.176 398.58C155.656 397.727 156.309 397.073 157.136 396.62C157.963 396.153 158.889 395.92 159.916 395.92C160.943 395.92 161.869 396.153 162.696 396.62C163.536 397.073 164.189 397.727 164.656 398.58C165.136 399.42 165.376 400.407 165.376 401.54C165.376 402.66 165.136 403.647 164.656 404.5C164.176 405.353 163.516 406.013 162.676 406.48C161.836 406.933 160.903 407.16 159.876 407.16ZM159.876 405.94C160.596 405.94 161.263 405.78 161.876 405.46C162.489 405.127 162.983 404.633 163.356 403.98C163.743 403.313 163.936 402.5 163.936 401.54C163.936 400.58 163.749 399.773 163.376 399.12C163.003 398.453 162.509 397.96 161.896 397.64C161.283 397.307 160.616 397.14 159.896 397.14C159.176 397.14 158.509 397.307 157.896 397.64C157.283 397.96 156.789 398.453 156.416 399.12C156.056 399.773 155.876 400.58 155.876 401.54C155.876 402.5 156.056 403.313 156.416 403.98C156.789 404.633 157.276 405.127 157.876 405.46C158.489 405.78 159.156 405.94 159.876 405.94ZM172.708 407.16C171.681 407.16 170.755 406.933 169.928 406.48C169.115 406.013 168.468 405.36 167.988 404.52C167.521 403.667 167.288 402.673 167.288 401.54C167.288 400.407 167.528 399.42 168.008 398.58C168.488 397.727 169.141 397.073 169.968 396.62C170.795 396.153 171.721 395.92 172.748 395.92C173.775 395.92 174.701 396.153 175.528 396.62C176.368 397.073 177.021 397.727 177.488 398.58C177.968 399.42 178.208 400.407 178.208 401.54C178.208 402.66 177.968 403.647 177.488 404.5C177.008 405.353 176.348 406.013 175.508 406.48C174.668 406.933 173.735 407.16 172.708 407.16ZM172.708 405.94C173.428 405.94 174.095 405.78 174.708 405.46C175.321 405.127 175.815 404.633 176.188 403.98C176.575 403.313 176.768 402.5 176.768 401.54C176.768 400.58 176.581 399.773 176.208 399.12C175.835 398.453 175.341 397.96 174.728 397.64C174.115 397.307 173.448 397.14 172.728 397.14C172.008 397.14 171.341 397.307 170.728 397.64C170.115 397.96 169.621 398.453 169.248 399.12C168.888 399.773 168.708 400.58 168.708 401.54C168.708 402.5 168.888 403.313 169.248 403.98C169.621 404.633 170.108 405.127 170.708 405.46C171.321 405.78 171.988 405.94 172.708 405.94ZM185.34 395.92C186.367 395.92 187.26 396.16 188.02 396.64C188.78 397.12 189.327 397.727 189.66 398.46V396.08H191.06V407.28C191.06 408.28 190.84 409.167 190.4 409.94C189.973 410.713 189.373 411.307 188.6 411.72C187.827 412.147 186.947 412.36 185.96 412.36C184.56 412.36 183.393 412.027 182.46 411.36C181.54 410.693 180.967 409.787 180.74 408.64H182.12C182.36 409.4 182.813 410.007 183.48 410.46C184.16 410.913 184.987 411.14 185.96 411.14C186.667 411.14 187.3 410.987 187.86 410.68C188.42 410.387 188.86 409.947 189.18 409.36C189.5 408.773 189.66 408.08 189.66 407.28V404.58C189.313 405.327 188.76 405.947 188 406.44C187.253 406.92 186.367 407.16 185.34 407.16C184.34 407.16 183.44 406.927 182.64 406.46C181.853 405.993 181.233 405.333 180.78 404.48C180.34 403.627 180.12 402.64 180.12 401.52C180.12 400.4 180.34 399.42 180.78 398.58C181.233 397.727 181.853 397.073 182.64 396.62C183.44 396.153 184.34 395.92 185.34 395.92ZM189.66 401.54C189.66 400.66 189.48 399.887 189.12 399.22C188.76 398.553 188.267 398.04 187.64 397.68C187.027 397.32 186.347 397.14 185.6 397.14C184.827 397.14 184.133 397.313 183.52 397.66C182.907 398.007 182.42 398.513 182.06 399.18C181.713 399.833 181.54 400.613 181.54 401.52C181.54 402.413 181.713 403.2 182.06 403.88C182.42 404.547 182.907 405.06 183.52 405.42C184.133 405.767 184.827 405.94 185.6 405.94C186.347 405.94 187.027 405.76 187.64 405.4C188.267 405.04 188.76 404.527 189.12 403.86C189.48 403.193 189.66 402.42 189.66 401.54ZM195.656 392.2V407H194.256V392.2H195.656ZM208.707 400.98C208.707 401.46 208.693 401.827 208.667 402.08H199.607C199.647 402.907 199.847 403.613 200.207 404.2C200.567 404.787 201.04 405.233 201.627 405.54C202.213 405.833 202.853 405.98 203.547 405.98C204.453 405.98 205.213 405.76 205.827 405.32C206.453 404.88 206.867 404.287 207.067 403.54H208.547C208.28 404.607 207.707 405.48 206.827 406.16C205.96 406.827 204.867 407.16 203.547 407.16C202.52 407.16 201.6 406.933 200.787 406.48C199.973 406.013 199.333 405.36 198.867 404.52C198.413 403.667 198.187 402.673 198.187 401.54C198.187 400.407 198.413 399.413 198.867 398.56C199.32 397.707 199.953 397.053 200.767 396.6C201.58 396.147 202.507 395.92 203.547 395.92C204.587 395.92 205.493 396.147 206.267 396.6C207.053 397.053 207.653 397.667 208.067 398.44C208.493 399.2 208.707 400.047 208.707 400.98ZM207.287 400.94C207.3 400.127 207.133 399.433 206.787 398.86C206.453 398.287 205.993 397.853 205.407 397.56C204.82 397.267 204.18 397.12 203.487 397.12C202.447 397.12 201.56 397.453 200.827 398.12C200.093 398.787 199.687 399.727 199.607 400.94H207.287Z" fill="#DD5928"/>
<path d="M106.44 229.81C106.44 228.11 106.78 226.63 107.46 225.37C108.14 224.09 109.08 223.11 110.28 222.43C111.48 221.73 112.85 221.38 114.39 221.38C116.41 221.38 118.07 221.88 119.37 222.88C120.69 223.88 121.54 225.24 121.92 226.96H119.67C119.39 225.78 118.78 224.86 117.84 224.2C116.92 223.52 115.77 223.18 114.39 223.18C113.29 223.18 112.3 223.43 111.42 223.93C110.54 224.43 109.84 225.18 109.32 226.18C108.82 227.16 108.57 228.37 108.57 229.81C108.57 231.25 108.82 232.47 109.32 233.47C109.84 234.47 110.54 235.22 111.42 235.72C112.3 236.22 113.29 236.47 114.39 236.47C115.77 236.47 116.92 236.14 117.84 235.48C118.78 234.8 119.39 233.86 119.67 232.66H121.92C121.54 234.34 120.69 235.69 119.37 236.71C118.05 237.73 116.39 238.24 114.39 238.24C112.85 238.24 111.48 237.9 110.28 237.22C109.08 236.52 108.14 235.54 107.46 234.28C106.78 233 106.44 231.51 106.44 229.81ZM132.968 238.24C131.428 238.24 130.038 237.9 128.798 237.22C127.578 236.52 126.608 235.54 125.888 234.28C125.188 233 124.838 231.51 124.838 229.81C124.838 228.11 125.198 226.63 125.918 225.37C126.638 224.09 127.618 223.11 128.858 222.43C130.098 221.73 131.488 221.38 133.028 221.38C134.568 221.38 135.958 221.73 137.198 222.43C138.458 223.11 139.438 224.09 140.138 225.37C140.858 226.63 141.218 228.11 141.218 229.81C141.218 231.49 140.858 232.97 140.138 234.25C139.418 235.53 138.428 236.52 137.168 237.22C135.908 237.9 134.508 238.24 132.968 238.24ZM132.968 236.41C134.048 236.41 135.048 236.17 135.968 235.69C136.888 235.19 137.628 234.45 138.188 233.47C138.768 232.47 139.058 231.25 139.058 229.81C139.058 228.37 138.778 227.16 138.218 226.18C137.658 225.18 136.918 224.44 135.998 223.96C135.078 223.46 134.078 223.21 132.998 223.21C131.918 223.21 130.918 223.46 129.998 223.96C129.078 224.44 128.338 225.18 127.778 226.18C127.238 227.16 126.968 228.37 126.968 229.81C126.968 231.25 127.238 232.47 127.778 233.47C128.338 234.45 129.068 235.19 129.968 235.69C130.888 236.17 131.888 236.41 132.968 236.41ZM164.546 221.32C166.466 221.32 168.026 221.93 169.226 223.15C170.446 224.35 171.056 226.1 171.056 228.4V238H168.986V228.64C168.986 226.86 168.556 225.5 167.696 224.56C166.836 223.62 165.666 223.15 164.186 223.15C162.646 223.15 161.416 223.66 160.496 224.68C159.576 225.7 159.116 227.18 159.116 229.12V238H157.046V228.64C157.046 226.86 156.616 225.5 155.756 224.56C154.896 223.62 153.716 223.15 152.216 223.15C150.676 223.15 149.446 223.66 148.526 224.68C147.606 225.7 147.146 227.18 147.146 229.12V238H145.046V221.62H147.146V224.44C147.666 223.42 148.406 222.65 149.366 222.13C150.326 221.59 151.396 221.32 152.576 221.32C153.996 221.32 155.236 221.66 156.296 222.34C157.376 223.02 158.156 224.02 158.636 225.34C159.076 224.04 159.826 223.05 160.886 222.37C161.966 221.67 163.186 221.32 164.546 221.32ZM177.79 225.22C178.31 224.12 179.13 223.21 180.25 222.49C181.39 221.75 182.74 221.38 184.3 221.38C185.78 221.38 187.11 221.73 188.29 222.43C189.49 223.11 190.42 224.09 191.08 225.37C191.76 226.63 192.1 228.1 192.1 229.78C192.1 231.46 191.76 232.94 191.08 234.22C190.42 235.5 189.49 236.49 188.29 237.19C187.11 237.89 185.78 238.24 184.3 238.24C182.76 238.24 181.42 237.88 180.28 237.16C179.14 236.42 178.31 235.5 177.79 234.4V245.74H175.72V221.62H177.79V225.22ZM189.97 229.78C189.97 228.42 189.7 227.25 189.16 226.27C188.64 225.27 187.92 224.51 187 223.99C186.08 223.47 185.04 223.21 183.88 223.21C182.76 223.21 181.73 223.48 180.79 224.02C179.87 224.56 179.14 225.33 178.6 226.33C178.06 227.33 177.79 228.49 177.79 229.81C177.79 231.13 178.06 232.29 178.6 233.29C179.14 234.29 179.87 235.06 180.79 235.6C181.73 236.14 182.76 236.41 183.88 236.41C185.04 236.41 186.08 236.15 187 235.63C187.92 235.09 188.64 234.32 189.16 233.32C189.7 232.3 189.97 231.12 189.97 229.78ZM195.004 229.78C195.004 228.1 195.334 226.63 195.994 225.37C196.674 224.09 197.604 223.11 198.784 222.43C199.984 221.73 201.334 221.38 202.834 221.38C204.394 221.38 205.734 221.74 206.854 222.46C207.994 223.18 208.814 224.1 209.314 225.22V221.62H211.414V238H209.314V234.37C208.794 235.49 207.964 236.42 206.824 237.16C205.704 237.88 204.364 238.24 202.804 238.24C201.324 238.24 199.984 237.89 198.784 237.19C197.604 236.49 196.674 235.5 195.994 234.22C195.334 232.94 195.004 231.46 195.004 229.78ZM209.314 229.81C209.314 228.49 209.044 227.33 208.504 226.33C207.964 225.33 207.224 224.56 206.284 224.02C205.364 223.48 204.344 223.21 203.224 223.21C202.064 223.21 201.024 223.47 200.104 223.99C199.184 224.51 198.454 225.27 197.914 226.27C197.394 227.25 197.134 228.42 197.134 229.78C197.134 231.12 197.394 232.3 197.914 233.32C198.454 234.32 199.184 235.09 200.104 235.63C201.024 236.15 202.064 236.41 203.224 236.41C204.344 236.41 205.364 236.14 206.284 235.6C207.224 235.06 207.964 234.29 208.504 233.29C209.044 232.29 209.314 231.13 209.314 229.81ZM223.889 221.32C225.849 221.32 227.449 221.93 228.689 223.15C229.929 224.35 230.549 226.1 230.549 228.4V238H228.479V228.64C228.479 226.86 228.029 225.5 227.129 224.56C226.249 223.62 225.039 223.15 223.499 223.15C221.919 223.15 220.659 223.65 219.719 224.65C218.779 225.65 218.309 227.12 218.309 229.06V238H216.209V221.62H218.309V224.41C218.829 223.41 219.579 222.65 220.559 222.13C221.539 221.59 222.649 221.32 223.889 221.32ZM248.693 221.62L238.973 245.71H236.783L239.963 237.91L233.243 221.62H235.553L241.133 235.6L246.533 221.62H248.693Z" fill="#5F5B5B"/>
<path d="M224.856 313.462C225.492 316.867 225.838 320.427 225.838 324.142C225.838 353.199 206.39 373.861 177.018 373.861C170.338 373.863 163.724 372.549 157.552 369.993C151.38 367.438 145.773 363.692 141.049 358.968C136.326 354.245 132.58 348.638 130.025 342.466C127.469 336.294 126.155 329.68 126.157 323C126.155 316.32 127.469 309.706 130.025 303.534C132.58 297.362 136.326 291.755 141.049 287.032C145.773 282.308 151.38 278.562 157.552 276.007C163.724 273.451 170.338 272.137 177.018 272.139C190.751 272.139 202.226 277.192 211.03 285.397L196.692 299.735V299.698C191.355 294.614 184.582 292.005 177.018 292.005C160.236 292.005 146.597 306.183 146.597 322.969C146.597 339.75 160.236 353.959 177.018 353.959C192.244 353.959 202.608 345.253 204.737 333.297H177.018V313.462H224.861H224.856Z" fill="#DD5928"/>
<g filter="url(#filter2_d_72_80)">
<rect x="347" y="40" width="300" height="240" rx="10" fill="white"/>
</g>
<path d="M447.44 74.78C447.44 73.1 447.77 71.63 448.43 70.37C449.11 69.09 450.04 68.11 451.22 67.43C452.42 66.73 453.77 66.38 455.27 66.38C456.83 66.38 458.17 66.74 459.29 67.46C460.43 68.18 461.25 69.1 461.75 70.22V66.62H463.85V83H461.75V79.37C461.23 80.49 460.4 81.42 459.26 82.16C458.14 82.88 456.8 83.24 455.24 83.24C453.76 83.24 452.42 82.89 451.22 82.19C450.04 81.49 449.11 80.5 448.43 79.22C447.77 77.94 447.44 76.46 447.44 74.78ZM461.75 74.81C461.75 73.49 461.48 72.33 460.94 71.33C460.4 70.33 459.66 69.56 458.72 69.02C457.8 68.48 456.78 68.21 455.66 68.21C454.5 68.21 453.46 68.47 452.54 68.99C451.62 69.51 450.89 70.27 450.35 71.27C449.83 72.25 449.57 73.42 449.57 74.78C449.57 76.12 449.83 77.3 450.35 78.32C450.89 79.32 451.62 80.09 452.54 80.63C453.46 81.15 454.5 81.41 455.66 81.41C456.78 81.41 457.8 81.14 458.72 80.6C459.66 80.06 460.4 79.29 460.94 78.29C461.48 77.29 461.75 76.13 461.75 74.81ZM470.744 69.53C471.204 68.51 471.904 67.72 472.844 67.16C473.804 66.6 474.974 66.32 476.354 66.32V68.51H475.784C474.264 68.51 473.044 68.92 472.124 69.74C471.204 70.56 470.744 71.93 470.744 73.85V83H468.644V66.62H470.744V69.53ZM482.243 68.39V78.56C482.243 79.56 482.433 80.25 482.813 80.63C483.193 81.01 483.863 81.2 484.823 81.2H486.743V83H484.493C483.013 83 481.913 82.66 481.193 81.98C480.473 81.28 480.113 80.14 480.113 78.56V68.39H477.833V66.62H480.113V62.51H482.243V66.62H486.743V68.39H482.243ZM491.257 63.53C490.837 63.53 490.477 63.38 490.177 63.08C489.877 62.78 489.727 62.41 489.727 61.97C489.727 61.53 489.877 61.17 490.177 60.89C490.477 60.59 490.837 60.44 491.257 60.44C491.677 60.44 492.037 60.59 492.337 60.89C492.637 61.17 492.787 61.53 492.787 61.97C492.787 62.41 492.637 62.78 492.337 63.08C492.037 63.38 491.677 63.53 491.257 63.53ZM492.307 66.62V83H490.207V66.62H492.307ZM496.102 74.81C496.102 73.11 496.442 71.63 497.122 70.37C497.802 69.09 498.742 68.11 499.942 67.43C501.142 66.73 502.512 66.38 504.052 66.38C506.072 66.38 507.732 66.88 509.032 67.88C510.352 68.88 511.202 70.24 511.582 71.96H509.332C509.052 70.78 508.442 69.86 507.502 69.2C506.582 68.52 505.432 68.18 504.052 68.18C502.952 68.18 501.962 68.43 501.082 68.93C500.202 69.43 499.502 70.18 498.982 71.18C498.482 72.16 498.232 73.37 498.232 74.81C498.232 76.25 498.482 77.47 498.982 78.47C499.502 79.47 500.202 80.22 501.082 80.72C501.962 81.22 502.952 81.47 504.052 81.47C505.432 81.47 506.582 81.14 507.502 80.48C508.442 79.8 509.052 78.86 509.332 77.66H511.582C511.202 79.34 510.352 80.69 509.032 81.71C507.712 82.73 506.052 83.24 504.052 83.24C502.512 83.24 501.142 82.9 499.942 82.22C498.742 81.52 497.802 80.54 497.122 79.28C496.442 78 496.102 76.51 496.102 74.81ZM517.561 60.8V83H515.461V60.8H517.561ZM537.136 73.97C537.136 74.69 537.116 75.24 537.076 75.62H523.486C523.546 76.86 523.846 77.92 524.386 78.8C524.926 79.68 525.636 80.35 526.516 80.81C527.396 81.25 528.356 81.47 529.396 81.47C530.756 81.47 531.896 81.14 532.816 80.48C533.756 79.82 534.376 78.93 534.676 77.81H536.896C536.496 79.41 535.636 80.72 534.316 81.74C533.016 82.74 531.376 83.24 529.396 83.24C527.856 83.24 526.476 82.9 525.256 82.22C524.036 81.52 523.076 80.54 522.376 79.28C521.696 78 521.356 76.51 521.356 74.81C521.356 73.11 521.696 71.62 522.376 70.34C523.056 69.06 524.006 68.08 525.226 67.4C526.446 66.72 527.836 66.38 529.396 66.38C530.956 66.38 532.316 66.72 533.476 67.4C534.656 68.08 535.556 69 536.176 70.16C536.816 71.3 537.136 72.57 537.136 73.97ZM535.006 73.91C535.026 72.69 534.776 71.65 534.256 70.79C533.756 69.93 533.066 69.28 532.186 68.84C531.306 68.4 530.346 68.18 529.306 68.18C527.746 68.18 526.416 68.68 525.316 69.68C524.216 70.68 523.606 72.09 523.486 73.91H535.006ZM546.618 83.24C544.738 83.24 543.198 82.81 541.998 81.95C540.818 81.07 540.158 79.88 540.018 78.38H542.178C542.278 79.3 542.708 80.05 543.468 80.63C544.248 81.19 545.288 81.47 546.588 81.47C547.728 81.47 548.618 81.2 549.258 80.66C549.918 80.12 550.248 79.45 550.248 78.65C550.248 78.09 550.068 77.63 549.708 77.27C549.348 76.91 548.888 76.63 548.328 76.43C547.788 76.21 547.048 75.98 546.108 75.74C544.888 75.42 543.898 75.1 543.138 74.78C542.378 74.46 541.728 73.99 541.188 73.37C540.668 72.73 540.408 71.88 540.408 70.82C540.408 70.02 540.648 69.28 541.128 68.6C541.608 67.92 542.288 67.38 543.168 66.98C544.048 66.58 545.048 66.38 546.168 66.38C547.928 66.38 549.348 66.83 550.428 67.73C551.508 68.61 552.088 69.83 552.168 71.39H550.068C550.008 70.43 549.628 69.66 548.928 69.08C548.248 68.48 547.308 68.18 546.108 68.18C545.048 68.18 544.188 68.43 543.528 68.93C542.868 69.43 542.538 70.05 542.538 70.79C542.538 71.43 542.728 71.96 543.108 72.38C543.508 72.78 543.998 73.1 544.578 73.34C545.158 73.56 545.938 73.81 546.918 74.09C548.098 74.41 549.038 74.72 549.738 75.02C550.438 75.32 551.038 75.76 551.538 76.34C552.038 76.92 552.298 77.69 552.318 78.65C552.318 79.53 552.078 80.32 551.598 81.02C551.118 81.7 550.448 82.24 549.588 82.64C548.728 83.04 547.738 83.24 546.618 83.24Z" fill="#5F5B5B"/>
<path d="M450.24 249.32C450.333 248.107 450.8 247.153 451.64 246.46C452.493 245.753 453.593 245.4 454.94 245.4C455.833 245.4 456.6 245.56 457.24 245.88C457.88 246.2 458.36 246.64 458.68 247.2C459.013 247.747 459.18 248.367 459.18 249.06C459.18 249.9 458.933 250.627 458.44 251.24C457.947 251.853 457.247 252.233 456.34 252.38V252.48C457.287 252.667 458.04 253.08 458.6 253.72C459.16 254.347 459.44 255.173 459.44 256.2C459.44 257.347 459.053 258.287 458.28 259.02C457.52 259.74 456.413 260.1 454.96 260.1C453.573 260.1 452.433 259.74 451.54 259.02C450.647 258.287 450.133 257.253 450 255.92H451.36C451.48 256.813 451.853 257.54 452.48 258.1C453.107 258.647 453.933 258.92 454.96 258.92C455.973 258.92 456.747 258.653 457.28 258.12C457.827 257.587 458.1 256.907 458.1 256.08C458.1 254.053 456.64 253.04 453.72 253.04H453.28V251.86H453.74C456.46 251.86 457.82 250.973 457.82 249.2C457.82 248.427 457.567 247.807 457.06 247.34C456.553 246.86 455.833 246.62 454.9 246.62C453.993 246.62 453.24 246.86 452.64 247.34C452.053 247.807 451.707 248.467 451.6 249.32H450.24ZM470.239 249.16C469.946 247.427 468.939 246.56 467.219 246.56C465.913 246.56 464.933 247.067 464.279 248.08C463.626 249.093 463.326 250.753 463.379 253.06C463.646 252.26 464.153 251.633 464.899 251.18C465.659 250.713 466.526 250.48 467.499 250.48C468.899 250.48 470.006 250.913 470.819 251.78C471.646 252.633 472.059 253.813 472.059 255.32C472.059 256.2 471.886 257 471.539 257.72C471.206 258.427 470.686 258.993 469.979 259.42C469.286 259.847 468.419 260.06 467.379 260.06C465.393 260.06 464.019 259.427 463.259 258.16C462.513 256.893 462.139 255.1 462.139 252.78C462.139 247.847 463.833 245.38 467.219 245.38C468.499 245.38 469.506 245.733 470.239 246.44C470.973 247.133 471.406 248.04 471.539 249.16H470.239ZM467.239 251.68C466.613 251.68 466.019 251.807 465.459 252.06C464.899 252.313 464.439 252.7 464.079 253.22C463.733 253.727 463.559 254.353 463.559 255.1C463.559 256.18 463.879 257.08 464.519 257.8C465.159 258.52 466.093 258.88 467.319 258.88C468.346 258.88 469.166 258.567 469.779 257.94C470.393 257.313 470.699 256.46 470.699 255.38C470.699 254.22 470.399 253.313 469.799 252.66C469.199 252.007 468.346 251.68 467.239 251.68ZM479.726 254.52C479.726 253.4 479.946 252.42 480.386 251.58C480.839 250.727 481.459 250.073 482.246 249.62C483.046 249.153 483.946 248.92 484.946 248.92C485.986 248.92 486.879 249.16 487.626 249.64C488.386 250.12 488.932 250.733 489.266 251.48V249.08H490.666V260H489.266V257.58C488.919 258.327 488.366 258.947 487.606 259.44C486.859 259.92 485.966 260.16 484.926 260.16C483.939 260.16 483.046 259.927 482.246 259.46C481.459 258.993 480.839 258.333 480.386 257.48C479.946 256.627 479.726 255.64 479.726 254.52ZM489.266 254.54C489.266 253.66 489.086 252.887 488.726 252.22C488.366 251.553 487.872 251.04 487.246 250.68C486.632 250.32 485.952 250.14 485.206 250.14C484.432 250.14 483.739 250.313 483.126 250.66C482.512 251.007 482.026 251.513 481.666 252.18C481.319 252.833 481.146 253.613 481.146 254.52C481.146 255.413 481.319 256.2 481.666 256.88C482.026 257.547 482.512 258.06 483.126 258.42C483.739 258.767 484.432 258.94 485.206 258.94C485.952 258.94 486.632 258.76 487.246 258.4C487.872 258.04 488.366 257.527 488.726 256.86C489.086 256.193 489.266 255.42 489.266 254.54ZM495.262 251.02C495.568 250.34 496.035 249.813 496.662 249.44C497.302 249.067 498.082 248.88 499.002 248.88V250.34H498.622C497.608 250.34 496.795 250.613 496.182 251.16C495.568 251.707 495.262 252.62 495.262 253.9V260H493.862V249.08H495.262V251.02ZM502.928 250.26V257.04C502.928 257.707 503.054 258.167 503.308 258.42C503.561 258.673 504.008 258.8 504.648 258.8H505.928V260H504.428C503.441 260 502.708 259.773 502.228 259.32C501.748 258.853 501.508 258.093 501.508 257.04V250.26H499.988V249.08H501.508V246.34H502.928V249.08H505.928V250.26H502.928ZM508.937 247.02C508.657 247.02 508.417 246.92 508.217 246.72C508.017 246.52 507.917 246.273 507.917 245.98C507.917 245.687 508.017 245.447 508.217 245.26C508.417 245.06 508.657 244.96 508.937 244.96C509.217 244.96 509.457 245.06 509.657 245.26C509.857 245.447 509.957 245.687 509.957 245.98C509.957 246.273 509.857 246.52 509.657 246.72C509.457 246.92 509.217 247.02 508.937 247.02ZM509.637 249.08V260H508.237V249.08H509.637ZM512.167 254.54C512.167 253.407 512.394 252.42 512.847 251.58C513.3 250.727 513.927 250.073 514.727 249.62C515.527 249.153 516.44 248.92 517.467 248.92C518.814 248.92 519.92 249.253 520.787 249.92C521.667 250.587 522.234 251.493 522.487 252.64H520.987C520.8 251.853 520.394 251.24 519.767 250.8C519.154 250.347 518.387 250.12 517.467 250.12C516.734 250.12 516.074 250.287 515.487 250.62C514.9 250.953 514.434 251.453 514.087 252.12C513.754 252.773 513.587 253.58 513.587 254.54C513.587 255.5 513.754 256.313 514.087 256.98C514.434 257.647 514.9 258.147 515.487 258.48C516.074 258.813 516.734 258.98 517.467 258.98C518.387 258.98 519.154 258.76 519.767 258.32C520.394 257.867 520.8 257.24 520.987 256.44H522.487C522.234 257.56 521.667 258.46 520.787 259.14C519.907 259.82 518.8 260.16 517.467 260.16C516.44 260.16 515.527 259.933 514.727 259.48C513.927 259.013 513.3 258.36 512.847 257.52C512.394 256.667 512.167 255.673 512.167 254.54ZM526.473 245.2V260H525.073V245.2H526.473ZM539.523 253.98C539.523 254.46 539.51 254.827 539.483 255.08H530.423C530.463 255.907 530.663 256.613 531.023 257.2C531.383 257.787 531.856 258.233 532.443 258.54C533.03 258.833 533.67 258.98 534.363 258.98C535.27 258.98 536.03 258.76 536.643 258.32C537.27 257.88 537.683 257.287 537.883 256.54H539.363C539.096 257.607 538.523 258.48 537.643 259.16C536.776 259.827 535.683 260.16 534.363 260.16C533.336 260.16 532.416 259.933 531.603 259.48C530.79 259.013 530.15 258.36 529.683 257.52C529.23 256.667 529.003 255.673 529.003 254.54C529.003 253.407 529.23 252.413 529.683 251.56C530.136 250.707 530.77 250.053 531.583 249.6C532.396 249.147 533.323 248.92 534.363 248.92C535.403 248.92 536.31 249.147 537.083 249.6C537.87 250.053 538.47 250.667 538.883 251.44C539.31 252.2 539.523 253.047 539.523 253.98ZM538.103 253.94C538.116 253.127 537.95 252.433 537.603 251.86C537.27 251.287 536.81 250.853 536.223 250.56C535.636 250.267 534.996 250.12 534.303 250.12C533.263 250.12 532.376 250.453 531.643 251.12C530.91 251.787 530.503 252.727 530.423 253.94H538.103ZM545.844 260.16C544.591 260.16 543.564 259.873 542.764 259.3C541.978 258.713 541.538 257.92 541.444 256.92H542.884C542.951 257.533 543.238 258.033 543.744 258.42C544.264 258.793 544.958 258.98 545.824 258.98C546.584 258.98 547.178 258.8 547.604 258.44C548.044 258.08 548.264 257.633 548.264 257.1C548.264 256.727 548.144 256.42 547.904 256.18C547.664 255.94 547.358 255.753 546.984 255.62C546.624 255.473 546.131 255.32 545.504 255.16C544.691 254.947 544.031 254.733 543.524 254.52C543.018 254.307 542.584 253.993 542.224 253.58C541.878 253.153 541.704 252.587 541.704 251.88C541.704 251.347 541.864 250.853 542.184 250.4C542.504 249.947 542.958 249.587 543.544 249.32C544.131 249.053 544.798 248.92 545.544 248.92C546.718 248.92 547.664 249.22 548.384 249.82C549.104 250.407 549.491 251.22 549.544 252.26H548.144C548.104 251.62 547.851 251.107 547.384 250.72C546.931 250.32 546.304 250.12 545.504 250.12C544.798 250.12 544.224 250.287 543.784 250.62C543.344 250.953 543.124 251.367 543.124 251.86C543.124 252.287 543.251 252.64 543.504 252.92C543.771 253.187 544.098 253.4 544.484 253.56C544.871 253.707 545.391 253.873 546.044 254.06C546.831 254.273 547.458 254.48 547.924 254.68C548.391 254.88 548.791 255.173 549.124 255.56C549.458 255.947 549.631 256.46 549.644 257.1C549.644 257.687 549.484 258.213 549.164 258.68C548.844 259.133 548.398 259.493 547.824 259.76C547.251 260.027 546.591 260.16 545.844 260.16Z" fill="#DD5928"/>
<path d="M461.375 170.625C461.375 171.852 460.888 173.028 460.02 173.895C459.153 174.763 457.977 175.25 456.75 175.25H442.875C441.648 175.25 440.472 174.763 439.605 173.895C438.737 173.028 438.25 171.852 438.25 170.625C438.25 169.398 438.737 168.222 439.605 167.355C440.472 166.487 441.648 166 442.875 166H447.5V129H442.875C441.648 129 440.472 128.513 439.605 127.645C438.737 126.778 438.25 125.602 438.25 124.375C438.25 123.148 438.737 121.972 439.605 121.105C440.472 120.237 441.648 119.75 442.875 119.75H452.125C452.913 119.751 453.688 119.953 454.376 120.338C455.064 120.722 455.642 121.276 456.056 121.947L475.25 152.645L494.444 121.947C494.858 121.276 495.436 120.722 496.124 120.338C496.812 119.953 497.587 119.751 498.375 119.75H507.625C508.852 119.75 510.028 120.237 510.895 121.105C511.763 121.972 512.25 123.148 512.25 124.375C512.25 125.602 511.763 126.778 510.895 127.645C510.028 128.513 508.852 129 507.625 129H503V166H507.625C508.852 166 510.028 166.487 510.895 167.355C511.763 168.222 512.25 169.398 512.25 170.625C512.25 171.852 511.763 173.028 510.895 173.895C510.028 174.763 508.852 175.25 507.625 175.25H493.75C492.523 175.25 491.347 174.763 490.48 173.895C489.612 173.028 489.125 171.852 489.125 170.625C489.125 169.398 489.612 168.222 490.48 167.355C491.347 166.487 492.523 166 493.75 166V140.505L479.181 163.803C478.766 164.472 478.188 165.025 477.5 165.408C476.812 165.791 476.037 165.992 475.25 165.992C474.463 165.992 473.688 165.791 473 165.408C472.312 165.025 471.734 164.472 471.319 163.803L456.75 140.505V166C457.977 166 459.153 166.487 460.02 167.355C460.888 168.222 461.375 169.398 461.375 170.625ZM526.125 156.75H567.75C568.977 156.75 570.153 156.263 571.02 155.395C571.888 154.528 572.375 153.352 572.375 152.125C572.375 150.898 571.888 149.722 571.02 148.855C570.153 147.987 568.977 147.5 567.75 147.5H526.125C524.898 147.5 523.722 147.987 522.855 148.855C521.987 149.722 521.5 150.898 521.5 152.125C521.5 153.352 521.987 154.528 522.855 155.395C523.722 156.263 524.898 156.75 526.125 156.75ZM567.75 166H526.125C524.898 166 523.722 166.487 522.855 167.355C521.987 168.222 521.5 169.398 521.5 170.625C521.5 171.852 521.987 173.028 522.855 173.895C523.722 174.763 524.898 175.25 526.125 175.25H567.75C568.977 175.25 570.153 174.763 571.02 173.895C571.888 173.028 572.375 171.852 572.375 170.625C572.375 169.398 571.888 168.222 571.02 167.355C570.153 166.487 568.977 166 567.75 166ZM567.75 184.5H470.625C469.398 184.5 468.222 184.987 467.355 185.855C466.487 186.722 466 187.898 466 189.125C466 190.352 466.487 191.528 467.355 192.395C468.222 193.263 469.398 193.75 470.625 193.75H567.75C568.977 193.75 570.153 193.263 571.02 192.395C571.888 191.528 572.375 190.352 572.375 189.125C572.375 187.898 571.888 186.722 571.02 185.855C570.153 184.987 568.977 184.5 567.75 184.5ZM567.75 203H470.625C469.398 203 468.222 203.487 467.355 204.355C466.487 205.222 466 206.398 466 207.625C466 208.852 466.487 210.028 467.355 210.895C468.222 211.763 469.398 212.25 470.625 212.25H567.75C568.977 212.25 570.153 211.763 571.02 210.895C571.888 210.028 572.375 208.852 572.375 207.625C572.375 206.398 571.888 205.222 571.02 204.355C570.153 203.487 568.977 203 567.75 203Z" fill="#DD5928"/>
<g filter="url(#filter3_d_72_80)">
<rect x="347" y="311" width="300" height="125" rx="20" fill="white"/>
</g>
<path d="M463.22 352.97C463.22 353.69 463.2 354.24 463.16 354.62H449.57C449.63 355.86 449.93 356.92 450.47 357.8C451.01 358.68 451.72 359.35 452.6 359.81C453.48 360.25 454.44 360.47 455.48 360.47C456.84 360.47 457.98 360.14 458.9 359.48C459.84 358.82 460.46 357.93 460.76 356.81H462.98C462.58 358.41 461.72 359.72 460.4 360.74C459.1 361.74 457.46 362.24 455.48 362.24C453.94 362.24 452.56 361.9 451.34 361.22C450.12 360.52 449.16 359.54 448.46 358.28C447.78 357 447.44 355.51 447.44 353.81C447.44 352.11 447.78 350.62 448.46 349.34C449.14 348.06 450.09 347.08 451.31 346.4C452.53 345.72 453.92 345.38 455.48 345.38C457.04 345.38 458.4 345.72 459.56 346.4C460.74 347.08 461.64 348 462.26 349.16C462.9 350.3 463.22 351.57 463.22 352.97ZM461.09 352.91C461.11 351.69 460.86 350.65 460.34 349.79C459.84 348.93 459.15 348.28 458.27 347.84C457.39 347.4 456.43 347.18 455.39 347.18C453.83 347.18 452.5 347.68 451.4 348.68C450.3 349.68 449.69 351.09 449.57 352.91H461.09ZM486.562 345.32C488.482 345.32 490.042 345.93 491.242 347.15C492.462 348.35 493.072 350.1 493.072 352.4V362H491.002V352.64C491.002 350.86 490.572 349.5 489.712 348.56C488.852 347.62 487.682 347.15 486.202 347.15C484.662 347.15 483.432 347.66 482.512 348.68C481.592 349.7 481.132 351.18 481.132 353.12V362H479.062V352.64C479.062 350.86 478.632 349.5 477.772 348.56C476.912 347.62 475.732 347.15 474.232 347.15C472.692 347.15 471.462 347.66 470.542 348.68C469.622 349.7 469.162 351.18 469.162 353.12V362H467.062V345.62H469.162V348.44C469.682 347.42 470.422 346.65 471.382 346.13C472.342 345.59 473.412 345.32 474.592 345.32C476.012 345.32 477.252 345.66 478.312 346.34C479.392 347.02 480.172 348.02 480.652 349.34C481.092 348.04 481.842 347.05 482.902 346.37C483.982 345.67 485.202 345.32 486.562 345.32ZM496.776 353.78C496.776 352.1 497.106 350.63 497.766 349.37C498.446 348.09 499.376 347.11 500.556 346.43C501.756 345.73 503.106 345.38 504.606 345.38C506.166 345.38 507.506 345.74 508.626 346.46C509.766 347.18 510.586 348.1 511.086 349.22V345.62H513.186V362H511.086V358.37C510.566 359.49 509.736 360.42 508.596 361.16C507.476 361.88 506.136 362.24 504.576 362.24C503.096 362.24 501.756 361.89 500.556 361.19C499.376 360.49 498.446 359.5 497.766 358.22C497.106 356.94 496.776 355.46 496.776 353.78ZM511.086 353.81C511.086 352.49 510.816 351.33 510.276 350.33C509.736 349.33 508.996 348.56 508.056 348.02C507.136 347.48 506.116 347.21 504.996 347.21C503.836 347.21 502.796 347.47 501.876 347.99C500.956 348.51 500.226 349.27 499.686 350.27C499.166 351.25 498.906 352.42 498.906 353.78C498.906 355.12 499.166 356.3 499.686 357.32C500.226 358.32 500.956 359.09 501.876 359.63C502.796 360.15 503.836 360.41 504.996 360.41C506.116 360.41 507.136 360.14 508.056 359.6C508.996 359.06 509.736 358.29 510.276 357.29C510.816 356.29 511.086 355.13 511.086 353.81ZM519.03 342.53C518.61 342.53 518.25 342.38 517.95 342.08C517.65 341.78 517.5 341.41 517.5 340.97C517.5 340.53 517.65 340.17 517.95 339.89C518.25 339.59 518.61 339.44 519.03 339.44C519.45 339.44 519.81 339.59 520.11 339.89C520.41 340.17 520.56 340.53 520.56 340.97C520.56 341.41 520.41 341.78 520.11 342.08C519.81 342.38 519.45 342.53 519.03 342.53ZM520.08 345.62V362H517.98V345.62H520.08ZM526.936 339.8V362H524.836V339.8H526.936Z" fill="#5F5B5B"/>
<path d="M448.4 378.02C448.12 378.02 447.88 377.92 447.68 377.72C447.48 377.52 447.38 377.273 447.38 376.98C447.38 376.687 447.48 376.447 447.68 376.26C447.88 376.06 448.12 375.96 448.4 375.96C448.68 375.96 448.913 376.06 449.1 376.26C449.3 376.447 449.4 376.687 449.4 376.98C449.4 377.273 449.3 377.52 449.1 377.72C448.913 377.92 448.68 378.02 448.4 378.02ZM449.08 393.58C449.08 394.46 448.86 395.107 448.42 395.52C447.98 395.947 447.32 396.16 446.44 396.16H445.46V394.96H446.22C446.74 394.96 447.113 394.847 447.34 394.62C447.567 394.407 447.68 394.04 447.68 393.52V380.08H449.08V393.58ZM457.068 391.16C456.041 391.16 455.114 390.933 454.288 390.48C453.474 390.013 452.828 389.36 452.348 388.52C451.881 387.667 451.648 386.673 451.648 385.54C451.648 384.407 451.888 383.42 452.368 382.58C452.848 381.727 453.501 381.073 454.328 380.62C455.154 380.153 456.081 379.92 457.108 379.92C458.134 379.92 459.061 380.153 459.888 380.62C460.728 381.073 461.381 381.727 461.848 382.58C462.328 383.42 462.568 384.407 462.568 385.54C462.568 386.66 462.328 387.647 461.848 388.5C461.368 389.353 460.708 390.013 459.868 390.48C459.028 390.933 458.094 391.16 457.068 391.16ZM457.068 389.94C457.788 389.94 458.454 389.78 459.068 389.46C459.681 389.127 460.174 388.633 460.548 387.98C460.934 387.313 461.128 386.5 461.128 385.54C461.128 384.58 460.941 383.773 460.568 383.12C460.194 382.453 459.701 381.96 459.088 381.64C458.474 381.307 457.808 381.14 457.088 381.14C456.368 381.14 455.701 381.307 455.088 381.64C454.474 381.96 453.981 382.453 453.608 383.12C453.248 383.773 453.068 384.58 453.068 385.54C453.068 386.5 453.248 387.313 453.608 387.98C453.981 388.633 454.468 389.127 455.068 389.46C455.681 389.78 456.348 389.94 457.068 389.94ZM470.32 379.88C471.146 379.88 471.886 380.053 472.54 380.4C473.206 380.747 473.726 381.28 474.1 382C474.486 382.707 474.68 383.573 474.68 384.6V391H473.3V384.76C473.3 383.573 473 382.667 472.4 382.04C471.813 381.413 471.006 381.1 469.98 381.1C468.926 381.1 468.086 381.433 467.46 382.1C466.833 382.767 466.52 383.747 466.52 385.04V391H465.12V376.2H466.52V381.94C466.866 381.287 467.373 380.78 468.04 380.42C468.72 380.06 469.48 379.88 470.32 379.88ZM482.896 379.88C484.202 379.88 485.269 380.287 486.096 381.1C486.922 381.9 487.336 383.067 487.336 384.6V391H485.956V384.76C485.956 383.573 485.656 382.667 485.056 382.04C484.469 381.413 483.662 381.1 482.636 381.1C481.582 381.1 480.742 381.433 480.116 382.1C479.489 382.767 479.176 383.747 479.176 385.04V391H477.776V380.08H479.176V381.94C479.522 381.273 480.022 380.767 480.676 380.42C481.329 380.06 482.069 379.88 482.896 379.88ZM490.672 391.1C490.379 391.1 490.132 391 489.932 390.8C489.745 390.6 489.652 390.353 489.652 390.06C489.652 389.767 489.745 389.527 489.932 389.34C490.132 389.14 490.379 389.04 490.672 389.04C490.952 389.04 491.185 389.14 491.372 389.34C491.572 389.527 491.672 389.767 491.672 390.06C491.672 390.353 491.572 390.6 491.372 390.8C491.185 391 490.952 391.1 490.672 391.1ZM503.005 381.04C503.005 382.24 502.612 383.207 501.825 383.94C501.038 384.673 499.858 385.04 498.285 385.04H495.465V391H494.065V377.02H498.285C499.845 377.02 501.018 377.387 501.805 378.12C502.605 378.853 503.005 379.827 503.005 381.04ZM498.285 383.84C500.472 383.84 501.565 382.907 501.565 381.04C501.565 380.107 501.305 379.4 500.785 378.92C500.265 378.44 499.432 378.2 498.285 378.2H495.465V383.84H498.285ZM515.094 378.28C516.534 378.28 517.801 378.56 518.894 379.12C519.987 379.68 520.827 380.467 521.414 381.48C522.001 382.48 522.294 383.633 522.294 384.94C522.294 385.98 522.127 386.973 521.794 387.92C521.461 388.867 520.981 389.64 520.354 390.24C519.727 390.827 518.994 391.12 518.154 391.12C517.501 391.12 517.001 390.947 516.654 390.6C516.321 390.24 516.141 389.753 516.114 389.14C515.701 389.753 515.174 390.24 514.534 390.6C513.894 390.947 513.214 391.12 512.494 391.12C511.481 391.12 510.687 390.813 510.114 390.2C509.554 389.587 509.274 388.753 509.274 387.7C509.274 386.713 509.481 385.793 509.894 384.94C510.307 384.073 510.881 383.38 511.614 382.86C512.347 382.34 513.181 382.08 514.114 382.08C514.781 382.08 515.341 382.227 515.794 382.52C516.261 382.813 516.594 383.24 516.794 383.8L517.054 382.32H518.274L517.254 388.14C517.214 388.38 517.194 388.6 517.194 388.8C517.194 389.693 517.581 390.14 518.354 390.14C518.927 390.14 519.421 389.88 519.834 389.36C520.261 388.84 520.581 388.187 520.794 387.4C521.021 386.6 521.134 385.807 521.134 385.02C521.134 383.847 520.881 382.833 520.374 381.98C519.881 381.113 519.167 380.453 518.234 380C517.301 379.533 516.194 379.3 514.914 379.3C513.314 379.3 511.867 379.693 510.574 380.48C509.281 381.267 508.267 382.333 507.534 383.68C506.801 385.027 506.434 386.513 506.434 388.14C506.421 389.953 506.967 391.36 508.074 392.36C509.181 393.373 510.694 393.88 512.614 393.88C513.827 393.88 514.927 393.653 515.914 393.2L516.134 394.18C514.961 394.66 513.687 394.9 512.314 394.9C510.914 394.9 509.681 394.627 508.614 394.08C507.547 393.547 506.721 392.78 506.134 391.78C505.547 390.78 505.254 389.613 505.254 388.28C505.254 386.427 505.674 384.74 506.514 383.22C507.367 381.687 508.541 380.48 510.034 379.6C511.541 378.72 513.227 378.28 515.094 378.28ZM512.894 390.02C513.494 390.02 514.047 389.86 514.554 389.54C515.061 389.22 515.474 388.773 515.794 388.2C516.127 387.627 516.334 386.973 516.414 386.24C516.441 386 516.454 385.827 516.454 385.72C516.454 384.973 516.247 384.367 515.834 383.9C515.434 383.42 514.861 383.18 514.114 383.18C513.407 383.18 512.787 383.387 512.254 383.8C511.721 384.213 511.307 384.753 511.014 385.42C510.721 386.073 510.574 386.767 510.574 387.5C510.574 388.273 510.774 388.887 511.174 389.34C511.574 389.793 512.147 390.02 512.894 390.02ZM529.973 379.92C531 379.92 531.893 380.16 532.653 380.64C533.413 381.12 533.96 381.727 534.293 382.46V380.08H535.693V391.28C535.693 392.28 535.473 393.167 535.033 393.94C534.606 394.713 534.006 395.307 533.233 395.72C532.46 396.147 531.58 396.36 530.593 396.36C529.193 396.36 528.026 396.027 527.093 395.36C526.173 394.693 525.6 393.787 525.373 392.64H526.753C526.993 393.4 527.446 394.007 528.113 394.46C528.793 394.913 529.62 395.14 530.593 395.14C531.3 395.14 531.933 394.987 532.493 394.68C533.053 394.387 533.493 393.947 533.813 393.36C534.133 392.773 534.293 392.08 534.293 391.28V388.58C533.946 389.327 533.393 389.947 532.633 390.44C531.886 390.92 531 391.16 529.973 391.16C528.973 391.16 528.073 390.927 527.273 390.46C526.486 389.993 525.866 389.333 525.413 388.48C524.973 387.627 524.753 386.64 524.753 385.52C524.753 384.4 524.973 383.42 525.413 382.58C525.866 381.727 526.486 381.073 527.273 380.62C528.073 380.153 528.973 379.92 529.973 379.92ZM534.293 385.54C534.293 384.66 534.113 383.887 533.753 383.22C533.393 382.553 532.9 382.04 532.273 381.68C531.66 381.32 530.98 381.14 530.233 381.14C529.46 381.14 528.766 381.313 528.153 381.66C527.54 382.007 527.053 382.513 526.693 383.18C526.346 383.833 526.173 384.613 526.173 385.52C526.173 386.413 526.346 387.2 526.693 387.88C527.053 388.547 527.54 389.06 528.153 389.42C528.766 389.767 529.46 389.94 530.233 389.94C530.98 389.94 531.66 389.76 532.273 389.4C532.9 389.04 533.393 388.527 533.753 387.86C534.113 387.193 534.293 386.42 534.293 385.54ZM543.669 391.16C542.642 391.16 541.716 390.933 540.889 390.48C540.076 390.013 539.429 389.36 538.949 388.52C538.482 387.667 538.249 386.673 538.249 385.54C538.249 384.407 538.489 383.42 538.969 382.58C539.449 381.727 540.102 381.073 540.929 380.62C541.756 380.153 542.682 379.92 543.709 379.92C544.736 379.92 545.662 380.153 546.489 380.62C547.329 381.073 547.982 381.727 548.449 382.58C548.929 383.42 549.169 384.407 549.169 385.54C549.169 386.66 548.929 387.647 548.449 388.5C547.969 389.353 547.309 390.013 546.469 390.48C545.629 390.933 544.696 391.16 543.669 391.16ZM543.669 389.94C544.389 389.94 545.056 389.78 545.669 389.46C546.282 389.127 546.776 388.633 547.149 387.98C547.536 387.313 547.729 386.5 547.729 385.54C547.729 384.58 547.542 383.773 547.169 383.12C546.796 382.453 546.302 381.96 545.689 381.64C545.076 381.307 544.409 381.14 543.689 381.14C542.969 381.14 542.302 381.307 541.689 381.64C541.076 381.96 540.582 382.453 540.209 383.12C539.849 383.773 539.669 384.58 539.669 385.54C539.669 386.5 539.849 387.313 540.209 387.98C540.582 388.633 541.069 389.127 541.669 389.46C542.282 389.78 542.949 389.94 543.669 389.94ZM556.501 391.16C555.474 391.16 554.548 390.933 553.721 390.48C552.908 390.013 552.261 389.36 551.781 388.52C551.314 387.667 551.081 386.673 551.081 385.54C551.081 384.407 551.321 383.42 551.801 382.58C552.281 381.727 552.934 381.073 553.761 380.62C554.588 380.153 555.514 379.92 556.541 379.92C557.568 379.92 558.494 380.153 559.321 380.62C560.161 381.073 560.814 381.727 561.281 382.58C561.761 383.42 562.001 384.407 562.001 385.54C562.001 386.66 561.761 387.647 561.281 388.5C560.801 389.353 560.141 390.013 559.301 390.48C558.461 390.933 557.528 391.16 556.501 391.16ZM556.501 389.94C557.221 389.94 557.888 389.78 558.501 389.46C559.114 389.127 559.608 388.633 559.981 387.98C560.368 387.313 560.561 386.5 560.561 385.54C560.561 384.58 560.374 383.773 560.001 383.12C559.628 382.453 559.134 381.96 558.521 381.64C557.908 381.307 557.241 381.14 556.521 381.14C555.801 381.14 555.134 381.307 554.521 381.64C553.908 381.96 553.414 382.453 553.041 383.12C552.681 383.773 552.501 384.58 552.501 385.54C552.501 386.5 552.681 387.313 553.041 387.98C553.414 388.633 553.901 389.127 554.501 389.46C555.114 389.78 555.781 389.94 556.501 389.94ZM569.133 379.92C570.16 379.92 571.053 380.16 571.813 380.64C572.573 381.12 573.12 381.727 573.453 382.46V380.08H574.853V391.28C574.853 392.28 574.633 393.167 574.193 393.94C573.766 394.713 573.166 395.307 572.393 395.72C571.62 396.147 570.74 396.36 569.753 396.36C568.353 396.36 567.186 396.027 566.253 395.36C565.333 394.693 564.76 393.787 564.533 392.64H565.913C566.153 393.4 566.606 394.007 567.273 394.46C567.953 394.913 568.78 395.14 569.753 395.14C570.46 395.14 571.093 394.987 571.653 394.68C572.213 394.387 572.653 393.947 572.973 393.36C573.293 392.773 573.453 392.08 573.453 391.28V388.58C573.106 389.327 572.553 389.947 571.793 390.44C571.046 390.92 570.16 391.16 569.133 391.16C568.133 391.16 567.233 390.927 566.433 390.46C565.646 389.993 565.026 389.333 564.573 388.48C564.133 387.627 563.913 386.64 563.913 385.52C563.913 384.4 564.133 383.42 564.573 382.58C565.026 381.727 565.646 381.073 566.433 380.62C567.233 380.153 568.133 379.92 569.133 379.92ZM573.453 385.54C573.453 384.66 573.273 383.887 572.913 383.22C572.553 382.553 572.06 382.04 571.433 381.68C570.82 381.32 570.14 381.14 569.393 381.14C568.62 381.14 567.926 381.313 567.313 381.66C566.7 382.007 566.213 382.513 565.853 383.18C565.506 383.833 565.333 384.613 565.333 385.52C565.333 386.413 565.506 387.2 565.853 387.88C566.213 388.547 566.7 389.06 567.313 389.42C567.926 389.767 568.62 389.94 569.393 389.94C570.14 389.94 570.82 389.76 571.433 389.4C572.06 389.04 572.553 388.527 572.913 387.86C573.273 387.193 573.453 386.42 573.453 385.54ZM579.449 376.2V391H578.049V376.2H579.449ZM592.5 384.98C592.5 385.46 592.486 385.827 592.46 386.08H583.4C583.44 386.907 583.64 387.613 584 388.2C584.36 388.787 584.833 389.233 585.42 389.54C586.006 389.833 586.646 389.98 587.34 389.98C588.246 389.98 589.006 389.76 589.62 389.32C590.246 388.88 590.66 388.287 590.86 387.54H592.34C592.073 388.607 591.5 389.48 590.62 390.16C589.753 390.827 588.66 391.16 587.34 391.16C586.313 391.16 585.393 390.933 584.58 390.48C583.766 390.013 583.126 389.36 582.66 388.52C582.206 387.667 581.98 386.673 581.98 385.54C581.98 384.407 582.206 383.413 582.66 382.56C583.113 381.707 583.746 381.053 584.56 380.6C585.373 380.147 586.3 379.92 587.34 379.92C588.38 379.92 589.286 380.147 590.06 380.6C590.846 381.053 591.446 381.667 591.86 382.44C592.286 383.2 592.5 384.047 592.5 384.98ZM591.08 384.94C591.093 384.127 590.926 383.433 590.58 382.86C590.246 382.287 589.786 381.853 589.2 381.56C588.613 381.267 587.973 381.12 587.28 381.12C586.24 381.12 585.353 381.453 584.62 382.12C583.886 382.787 583.48 383.727 583.4 384.94H591.08ZM595.301 391.1C595.008 391.1 594.761 391 594.561 390.8C594.374 390.6 594.281 390.353 594.281 390.06C594.281 389.767 594.374 389.527 594.561 389.34C594.761 389.14 595.008 389.04 595.301 389.04C595.581 389.04 595.814 389.14 596.001 389.34C596.201 389.527 596.301 389.767 596.301 390.06C596.301 390.353 596.201 390.6 596.001 390.8C595.814 391 595.581 391.1 595.301 391.1ZM598.054 385.54C598.054 384.407 598.28 383.42 598.734 382.58C599.187 381.727 599.814 381.073 600.614 380.62C601.414 380.153 602.327 379.92 603.354 379.92C604.7 379.92 605.807 380.253 606.674 380.92C607.554 381.587 608.12 382.493 608.374 383.64H606.874C606.687 382.853 606.28 382.24 605.654 381.8C605.04 381.347 604.274 381.12 603.354 381.12C602.62 381.12 601.96 381.287 601.374 381.62C600.787 381.953 600.32 382.453 599.974 383.12C599.64 383.773 599.474 384.58 599.474 385.54C599.474 386.5 599.64 387.313 599.974 387.98C600.32 388.647 600.787 389.147 601.374 389.48C601.96 389.813 602.62 389.98 603.354 389.98C604.274 389.98 605.04 389.76 605.654 389.32C606.28 388.867 606.687 388.24 606.874 387.44H608.374C608.12 388.56 607.554 389.46 606.674 390.14C605.794 390.82 604.687 391.16 603.354 391.16C602.327 391.16 601.414 390.933 600.614 390.48C599.814 390.013 599.187 389.36 598.734 388.52C598.28 387.667 598.054 386.673 598.054 385.54ZM615.739 391.16C614.713 391.16 613.786 390.933 612.959 390.48C612.146 390.013 611.499 389.36 611.019 388.52C610.553 387.667 610.319 386.673 610.319 385.54C610.319 384.407 610.559 383.42 611.039 382.58C611.519 381.727 612.173 381.073 612.999 380.62C613.826 380.153 614.753 379.92 615.779 379.92C616.806 379.92 617.733 380.153 618.559 380.62C619.399 381.073 620.053 381.727 620.519 382.58C620.999 383.42 621.239 384.407 621.239 385.54C621.239 386.66 620.999 387.647 620.519 388.5C620.039 389.353 619.379 390.013 618.539 390.48C617.699 390.933 616.766 391.16 615.739 391.16ZM615.739 389.94C616.459 389.94 617.126 389.78 617.739 389.46C618.353 389.127 618.846 388.633 619.219 387.98C619.606 387.313 619.799 386.5 619.799 385.54C619.799 384.58 619.613 383.773 619.239 383.12C618.866 382.453 618.373 381.96 617.759 381.64C617.146 381.307 616.479 381.14 615.759 381.14C615.039 381.14 614.373 381.307 613.759 381.64C613.146 381.96 612.653 382.453 612.279 383.12C611.919 383.773 611.739 384.58 611.739 385.54C611.739 386.5 611.919 387.313 612.279 387.98C612.653 388.633 613.139 389.127 613.739 389.46C614.353 389.78 615.019 389.94 615.739 389.94ZM636.791 379.88C638.071 379.88 639.111 380.287 639.911 381.1C640.725 381.9 641.131 383.067 641.131 384.6V391H639.751V384.76C639.751 383.573 639.465 382.667 638.891 382.04C638.318 381.413 637.538 381.1 636.551 381.1C635.525 381.1 634.705 381.44 634.091 382.12C633.478 382.8 633.171 383.787 633.171 385.08V391H631.791V384.76C631.791 383.573 631.505 382.667 630.931 382.04C630.358 381.413 629.571 381.1 628.571 381.1C627.545 381.1 626.725 381.44 626.111 382.12C625.498 382.8 625.191 383.787 625.191 385.08V391H623.791V380.08H625.191V381.96C625.538 381.28 626.031 380.767 626.671 380.42C627.311 380.06 628.025 379.88 628.811 379.88C629.758 379.88 630.585 380.107 631.291 380.56C632.011 381.013 632.531 381.68 632.851 382.56C633.145 381.693 633.645 381.033 634.351 380.58C635.071 380.113 635.885 379.88 636.791 379.88Z" fill="#DD5928"/>
<path d="M429.65 388.575V358.425C429.65 355.645 427.405 353.4 424.625 353.4H377.692C374.911 353.4 372.667 355.645 372.667 358.425V388.575C372.667 391.355 374.911 393.6 377.692 393.6H424.625C427.405 393.6 429.65 391.355 429.65 388.575ZM425.262 358.057C426.367 359.162 425.764 360.301 425.161 360.871L411.56 373.332L424.625 386.933C425.027 387.403 425.295 388.139 424.826 388.642C424.39 389.178 423.385 389.144 422.95 388.809L408.311 376.314L401.142 382.846L394.006 376.314L379.367 388.809C378.931 389.144 377.926 389.178 377.491 388.642C377.022 388.139 377.29 387.403 377.692 386.933L390.757 373.332L377.156 360.871C376.553 360.301 375.95 359.162 377.055 358.057C378.161 356.951 379.3 357.487 380.238 358.291L401.142 375.175L422.079 358.291C423.017 357.487 424.156 356.951 425.262 358.057Z" fill="#DD5928"/>
<defs>
<filter id="filter0_d_72_80" x="0" y="0" width="389" height="230" filterUnits="userSpaceOnUse" color-interpolation-filters="sRGB">
<feFlood flood-opacity="0" result="BackgroundImageFix"/>
<feColorMatrix in="SourceAlpha" type="matrix" values="0 0 0 0 0 0 0 0 0 0 0 0 0 0 0 0 0 0 127 0" result="hardAlpha"/>
<feMorphology radius="20" operator="dilate" in="SourceAlpha" result="effect1_dropShadow_72_80"/>
<feOffset dx="20" dy="20"/>
<feGaussianBlur stdDeviation="20"/>
<feComposite in2="hardAlpha" operator="out"/>
<feColorMatrix type="matrix" values="0 0 0 0 0.6375 0 0 0 0 0.629531 0 0 0 0 0.629531 0 0 0 0.2 0"/>
<feBlend mode="normal" in2="BackgroundImageFix" result="effect1_dropShadow_72_80"/>
<feBlend mode="normal" in="SourceGraphic" in2="effect1_dropShadow_72_80" result="shape"/>
</filter>
<filter id="filter1_d_72_80" x="6" y="155" width="383" height="350" filterUnits="userSpaceOnUse" color-interpolation-filters="sRGB">
<feFlood flood-opacity="0" result="BackgroundImageFix"/>
<feColorMatrix in="SourceAlpha" type="matrix" values="0 0 0 0 0 0 0 0 0 0 0 0 0 0 0 0 0 0 127 0" result="hardAlpha"/>
<feMorphology radius="20" operator="dilate" in="SourceAlpha" result="effect1_dropShadow_72_80"/>
<feOffset dx="20" dy="20"/>
<feGaussianBlur stdDeviation="20"/>
<feComposite in2="hardAlpha" operator="out"/>
<feColorMatrix type="matrix" values="0 0 0 0 0.6375 0 0 0 0 0.629531 0 0 0 0 0.629531 0 0 0 0.2 0"/>
<feBlend mode="normal" in2="BackgroundImageFix" result="effect1_dropShadow_72_80"/>
<feBlend mode="normal" in="SourceGraphic" in2="effect1_dropShadow_72_80" result="shape"/>
</filter>
<filter id="filter2_d_72_80" x="307" y="0" width="420" height="360" filterUnits="userSpaceOnUse" color-interpolation-filters="sRGB">
<feFlood flood-opacity="0" result="BackgroundImageFix"/>
<feColorMatrix in="SourceAlpha" type="matrix" values="0 0 0 0 0 0 0 0 0 0 0 0 0 0 0 0 0 0 127 0" result="hardAlpha"/>
<feMorphology radius="20" operator="dilate" in="SourceAlpha" result="effect1_dropShadow_72_80"/>
<feOffset dx="20" dy="20"/>
<feGaussianBlur stdDeviation="20"/>
<feComposite in2="hardAlpha" operator="out"/>
<feColorMatrix type="matrix" values="0 0 0 0 0.6375 0 0 0 0 0.629531 0 0 0 0 0.629531 0 0 0 0.2 0"/>
<feBlend mode="normal" in2="BackgroundImageFix" result="effect1_dropShadow_72_80"/>
<feBlend mode="normal" in="SourceGraphic" in2="effect1_dropShadow_72_80" result="shape"/>
</filter>
<filter id="filter3_d_72_80" x="307" y="271" width="420" height="245" filterUnits="userSpaceOnUse" color-interpolation-filters="sRGB">
<feFlood flood-opacity="0" result="BackgroundImageFix"/>
<feColorMatrix in="SourceAlpha" type="matrix" values="0 0 0 0 0 0 0 0 0 0 0 0 0 0 0 0 0 0 127 0" result="hardAlpha"/>
<feMorphology radius="20" operator="dilate" in="SourceAlpha" result="effect1_dropShadow_72_80"/>
<feOffset dx="20" dy="20"/>
<feGaussianBlur stdDeviation="20"/>
<feComposite in2="hardAlpha" operator="out"/>
<feColorMatrix type="matrix" values="0 0 0 0 0.639216 0 0 0 0 0.631373 0 0 0 0 0.631373 0 0 0 0.15 0"/>
<feBlend mode="normal" in2="BackgroundImageFix" result="effect1_dropShadow_72_80"/>
<feBlend mode="normal" in="SourceGraphic" in2="effect1_dropShadow_72_80" result="shape"/>
</filter>
</defs>
</svg>
