<svg width="29" height="28" viewBox="0 0 29 28" fill="none" xmlns="http://www.w3.org/2000/svg">
<g clip-path="url(#clip0_72_452)">
<path d="M11.4833 3.99902C12.3486 3.99902 13.1945 4.24645 13.914 4.71001C14.6334 5.17357 15.1942 5.83245 15.5253 6.60333C15.8564 7.3742 15.9431 8.22245 15.7743 9.04081C15.6055 9.85917 15.1888 10.6109 14.5769 11.2009C13.9651 11.7909 13.1855 12.1927 12.3369 12.3555C11.4882 12.5182 10.6085 12.4347 9.8091 12.1154C9.00967 11.7961 8.32639 11.2554 7.84566 10.5616C7.36493 9.86782 7.10834 9.05216 7.10834 8.21777C7.10834 7.09889 7.56927 6.02584 8.38975 5.23467C9.21022 4.4435 10.323 3.99902 11.4833 3.99902ZM11.4833 2.31152C10.2719 2.31152 9.08772 2.65792 8.08047 3.30691C7.07322 3.95589 6.28816 4.87832 5.82458 5.95755C5.36099 7.03678 5.23969 8.22433 5.47603 9.37003C5.71236 10.5157 6.29571 11.5681 7.15231 12.3941C8.00891 13.2201 9.10028 13.7826 10.2884 14.0105C11.4765 14.2384 12.7081 14.1215 13.8273 13.6744C14.9465 13.2274 15.9031 12.4704 16.5761 11.4991C17.2491 10.5278 17.6083 9.38592 17.6083 8.21777C17.6083 6.65134 16.963 5.14906 15.8144 4.04142C14.6657 2.93379 13.1078 2.31152 11.4833 2.31152ZM20.2333 25.9365H18.4833V21.7178C18.4833 20.5989 18.0224 19.5258 17.2019 18.7347C16.3815 17.9435 15.2687 17.499 14.1083 17.499H8.85834C7.69802 17.499 6.58522 17.9435 5.76475 18.7347C4.94427 19.5258 4.48334 20.5989 4.48334 21.7178V25.9365H2.73334V21.7178C2.73334 20.1513 3.37865 18.6491 4.52731 17.5414C5.67597 16.4338 7.23389 15.8115 8.85834 15.8115H14.1083C15.7328 15.8115 17.2907 16.4338 18.4394 17.5414C19.588 18.6491 20.2333 20.1513 20.2333 21.7178V25.9365ZM20.2333 3.99902H28.9833V5.68652H20.2333V3.99902ZM20.2333 8.21777H28.9833V9.90527H20.2333V8.21777ZM20.2333 12.4365H26.3583V14.124H20.2333V12.4365Z" fill="#DD5928"/>
</g>
<defs>
<clipPath id="clip0_72_452">
<rect width="28" height="27" fill="white" transform="translate(0.983337 0.624023)"/>
</clipPath>
</defs>
</svg>
