<svg width="303" height="303" viewBox="0 0 303 303" fill="none" xmlns="http://www.w3.org/2000/svg">
<path d="M62.1574 272.797C16.8832 246.642 16.8832 204.283 62.1574 178.164C107.432 152.046 180.83 152.027 226.099 178.164C271.367 204.301 271.373 246.679 226.099 272.815C180.824 298.952 107.432 298.934 62.1574 272.797Z" fill="#F5F5F5"/>
<path d="M167.365 244.351L169.977 245.86L84.1613 259.21V257.295L167.365 244.351Z" fill="#E0E0E0"/>
<path d="M54.6976 267.246C48.8557 270.658 48.8557 276.184 54.6976 279.596C60.5394 283.008 70.0112 283.008 75.8591 279.596C81.707 276.184 81.7009 270.658 75.8591 267.246C70.0172 263.834 60.5394 263.81 54.6976 267.246Z" fill="#E0E0E0"/>
<path d="M144.016 217.554C129.884 225.808 129.884 239.182 144.016 247.43C158.148 255.677 181.055 255.677 195.18 247.43C209.306 239.182 209.306 225.808 195.18 217.554C181.055 209.3 158.166 209.331 144.016 217.554Z" fill="#E0E0E0"/>
<path d="M204.374 219.021C208.397 218.669 212.858 218.415 216.039 220.899C217.536 222.057 218.572 223.687 219.711 225.196C220.936 226.814 222.298 228.322 223.784 229.704C224.54 230.462 225.414 231.092 226.371 231.571C227.444 232.014 228.599 232.22 229.759 232.177C234.607 232.177 239.109 229.498 242.842 226.371C243.842 225.535 244.86 224.553 245.121 223.293C245.557 221.19 243.782 219.281 241.97 218.13C236.867 214.882 230.516 213.015 224.711 211.464C218.523 209.726 212.122 208.863 205.695 208.9C201.693 208.977 197.712 209.491 193.823 210.434C191.472 211.003 188.066 211.706 186.248 213.421C185.832 213.774 185.527 214.24 185.369 214.762C185.211 215.285 185.207 215.842 185.357 216.366C185.812 217.578 187.206 218.057 188.454 218.348C193.629 219.572 199.132 219.475 204.374 219.021Z" fill="#E0E0E0"/>
<path d="M71.3262 102.414V104.729C71.3262 105.462 71.8413 105.759 72.4715 105.389L74.7077 104.099V99.1355L72.4715 100.426C72.1384 100.645 71.8612 100.939 71.6622 101.284C71.4633 101.629 71.3482 102.016 71.3262 102.414Z" fill="#E0E0E0"/>
<path d="M74.7077 178.376L65.3753 183.77C65.0416 183.986 64.7638 184.279 64.5648 184.623C64.3657 184.967 64.251 185.354 64.2299 185.751V188.072C64.2299 188.799 64.739 189.096 65.3753 188.733L74.7077 183.345V178.376Z" fill="#E0E0E0"/>
<path d="M64.236 100.42V102.741C64.236 103.469 64.745 103.766 65.3813 103.402L74.7137 98.0085V93.0454L65.3813 98.4388C65.0476 98.6553 64.7699 98.9477 64.5708 99.2921C64.3717 99.6366 64.257 100.023 64.236 100.42Z" fill="#E0E0E0"/>
<path d="M69.2779 126.654L58.6729 132.781C58.3402 132.998 58.0632 133.291 57.8643 133.635C57.6654 133.979 57.55 134.365 57.5276 134.762V137.083C57.5276 137.811 58.0427 138.107 58.6729 137.744L69.2779 131.623C69.6118 131.405 69.8895 131.112 70.0885 130.766C70.2875 130.421 70.4022 130.034 70.4233 129.636V127.321C70.4233 126.557 69.9142 126.26 69.2779 126.654Z" fill="#E0E0E0"/>
<path d="M74.7077 153.997L65.3753 159.39C65.0416 159.607 64.7638 159.899 64.5648 160.244C64.3657 160.588 64.251 160.975 64.2299 161.372V163.693C64.2299 164.42 64.739 164.717 65.3753 164.353L74.7077 158.96V153.997Z" fill="#E0E0E0"/>
<path d="M64.236 76.041V78.356C64.236 79.0892 64.745 79.3861 65.3813 79.0225L74.7137 73.6292V68.666L65.3813 74.0594C65.0469 74.2752 64.7687 74.5674 64.5695 74.912C64.3704 75.2566 64.256 75.6436 64.236 76.041Z" fill="#E0E0E0"/>
<path d="M74.7077 214.948L65.3753 220.342C65.0416 220.558 64.7638 220.851 64.5648 221.195C64.3657 221.539 64.251 221.926 64.2299 222.323V224.644C64.2299 225.371 64.739 225.668 65.3753 225.305L74.7077 219.911V214.948Z" fill="#E0E0E0"/>
<path d="M53.6068 149.33V151.645C53.6068 152.379 54.1158 152.676 54.7521 152.306L65.351 146.185C65.6855 145.969 65.9642 145.677 66.1643 145.333C66.3644 144.988 66.4802 144.601 66.5024 144.204V141.883C66.5024 141.156 65.9873 140.859 65.351 141.222L54.7521 147.343C54.4182 147.561 54.1405 147.854 53.9415 148.2C53.7425 148.545 53.6278 148.932 53.6068 149.33Z" fill="#E0E0E0"/>
<path d="M64.236 124.8V127.121C64.236 127.848 64.745 128.145 65.3813 127.781L74.7137 122.394V117.425L65.3813 122.818C65.0476 123.035 64.7699 123.327 64.5708 123.672C64.3717 124.016 64.257 124.403 64.236 124.8Z" fill="#E0E0E0"/>
<path d="M63.327 164.226V161.911C63.327 161.178 62.8119 160.881 62.1817 161.251L51.5767 167.371C51.244 167.589 50.967 167.881 50.768 168.226C50.5691 168.57 50.4538 168.956 50.4313 169.353V171.674C50.4313 172.401 50.9464 172.698 51.5767 172.334L62.1817 166.214C62.5148 165.995 62.792 165.701 62.991 165.356C63.1899 165.011 63.305 164.624 63.327 164.226Z" fill="#E0E0E0"/>
<path d="M58.6729 223.045L69.2779 216.924C69.6118 216.706 69.8895 216.413 70.0885 216.067C70.2875 215.722 70.4022 215.334 70.4233 214.936V212.621C70.4233 211.888 69.9142 211.591 69.2779 211.961L58.6729 218.081C58.3402 218.299 58.0632 218.592 57.8643 218.936C57.6654 219.28 57.55 219.666 57.5276 220.063V222.402C57.5276 223.111 58.0427 223.408 58.6729 223.045Z" fill="#E0E0E0"/>
<path d="M63.3815 69.1688L52.7765 75.2894C52.4428 75.5059 52.1651 75.7983 51.966 76.1428C51.767 76.4872 51.6522 76.8738 51.6312 77.271V79.592C51.6312 80.3192 52.1402 80.6161 52.7765 80.2526L63.3815 74.132C63.7147 73.9134 63.9919 73.6197 64.1908 73.2745C64.3898 72.9292 64.5049 72.5421 64.5269 72.1443V69.8294C64.5269 69.084 64.0118 68.7992 63.3815 69.1688Z" fill="#E0E0E0"/>
<path d="M69.2779 77.865L58.6729 83.9856C58.3398 84.2042 58.0625 84.4979 57.8636 84.8431C57.6647 85.1883 57.5496 85.5755 57.5276 85.9733V88.2882C57.5276 89.0215 58.0427 89.3184 58.6729 88.9488L69.2779 82.8282C69.6116 82.6116 69.8894 82.3192 70.0885 81.9748C70.2875 81.6304 70.4022 81.2438 70.4233 80.8465V78.5256C70.4233 77.7983 69.9142 77.5014 69.2779 77.865Z" fill="#E0E0E0"/>
<path d="M69.2779 102.244L58.6729 108.371C58.3395 108.588 58.0621 108.88 57.863 109.225C57.664 109.569 57.5491 109.956 57.5276 110.353V112.674C57.5276 113.401 58.0427 113.698 58.6729 113.334L69.2779 107.208C69.6116 106.991 69.8894 106.699 70.0885 106.354C70.2875 106.01 70.4022 105.623 70.4233 105.226V102.905C70.4233 102.178 69.9142 101.881 69.2779 102.244Z" fill="#E0E0E0"/>
<path d="M58.6729 174.286L69.2779 168.159C69.6123 167.943 69.8906 167.651 70.0897 167.306C70.2889 166.962 70.4032 166.575 70.4233 166.177V163.856C70.4233 163.129 69.9142 162.832 69.2779 163.196L58.6729 169.322C58.3395 169.539 58.0621 169.832 57.863 170.176C57.664 170.521 57.5491 170.907 57.5276 171.304V173.625C57.5276 174.352 58.0427 174.649 58.6729 174.286Z" fill="#E0E0E0"/>
<path d="M74.7077 190.569L65.3753 195.962C65.0409 196.178 64.7626 196.47 64.5635 196.815C64.3643 197.159 64.25 197.546 64.2299 197.944V200.259C64.2299 200.992 64.739 201.289 65.3753 200.925L74.7077 195.532V190.569Z" fill="#E0E0E0"/>
<path d="M173.77 50.8313V53.1462C173.751 53.5463 173.637 53.936 173.438 54.2836C173.239 54.6311 172.96 54.9267 172.625 55.146L170.389 56.4368V51.4616L172.625 50.1708C173.255 49.8072 173.77 50.0981 173.77 50.8313Z" fill="#E0E0E0"/>
<path d="M170.389 130.714L179.727 125.327C180.333 124.957 180.873 125.254 180.873 125.988V128.302C180.851 128.7 180.736 129.087 180.537 129.433C180.338 129.778 180.061 130.072 179.727 130.29L170.389 135.678V130.714Z" fill="#E0E0E0"/>
<path d="M180.873 40.6565V42.9714C180.851 43.3693 180.736 43.7564 180.537 44.1016C180.338 44.4468 180.061 44.7406 179.727 44.9591L170.389 50.3464V45.3833L179.727 39.996C180.358 39.6263 180.873 39.9232 180.873 40.6565Z" fill="#E0E0E0"/>
<path d="M175.819 72.7199L186.424 66.5933C187.03 66.2297 187.569 66.5266 187.569 67.2538V69.5748C187.548 69.9719 187.433 70.3584 187.234 70.7027C187.035 71.0471 186.757 71.3396 186.424 71.5564L175.819 77.6831C175.182 78.0467 174.673 77.7498 174.673 77.0225V74.7016C174.694 74.3043 174.809 73.9177 175.008 73.5733C175.207 73.2289 175.485 72.9365 175.819 72.7199Z" fill="#E0E0E0"/>
<path d="M170.389 106.335L179.727 100.948C180.333 100.578 180.873 100.875 180.873 101.608V103.923C180.851 104.321 180.736 104.708 180.537 105.053C180.338 105.399 180.061 105.692 179.727 105.911L170.389 111.298V106.335Z" fill="#E0E0E0"/>
<path d="M180.873 16.2712V18.5921C180.856 18.9945 180.743 19.387 180.544 19.737C180.345 20.0869 180.065 20.3842 179.727 20.6041L170.389 25.9975V21.004L179.727 15.6106C180.358 15.247 180.873 15.544 180.873 16.2712Z" fill="#E0E0E0"/>
<path d="M170.389 167.286L179.727 161.899C180.333 161.529 180.873 161.826 180.873 162.56V164.874C180.851 165.272 180.736 165.659 180.537 166.005C180.338 166.35 180.061 166.644 179.727 166.862L170.389 172.25V167.286Z" fill="#E0E0E0"/>
<path d="M191.496 77.2953V79.6163C191.474 80.0132 191.358 80.3993 191.159 80.7435C190.96 81.0877 190.683 81.3803 190.351 81.5979L179.746 87.7185C179.109 88.0882 178.6 87.7912 178.6 87.058V84.7431C178.621 84.345 178.736 83.9575 178.935 83.6121C179.134 83.2668 179.412 82.9732 179.746 82.7554L190.351 76.6348C190.981 76.2712 191.496 76.5681 191.496 77.2953Z" fill="#E0E0E0"/>
<path d="M180.873 65.0359V67.3508C180.851 67.7488 180.736 68.1361 180.537 68.4814C180.338 68.8267 180.061 69.1203 179.727 69.3385L170.389 74.7258V69.7627L179.727 64.3754C180.358 64.0057 180.873 64.3026 180.873 65.0359Z" fill="#E0E0E0"/>
<path d="M181.8 103.39V101.075C181.822 100.677 181.936 100.289 182.135 99.9442C182.334 99.5989 182.612 99.3052 182.945 99.087L193.55 92.9664C194.187 92.6028 194.696 92.8937 194.696 93.627V95.948C194.675 96.3452 194.56 96.7318 194.361 97.0762C194.162 97.4207 193.884 97.7131 193.55 97.9296L182.945 104.05C182.285 104.42 181.8 104.123 181.8 103.39Z" fill="#E0E0E0"/>
<path d="M186.424 156.869L175.819 163.014C175.182 163.378 174.673 163.081 174.673 162.354V159.984C174.694 159.587 174.809 159.2 175.008 158.856C175.207 158.511 175.485 158.219 175.819 158.003L186.424 151.882C187.03 151.512 187.569 151.809 187.569 152.542V154.857C187.551 155.259 187.438 155.651 187.238 156.001C187.039 156.351 186.76 156.648 186.424 156.869Z" fill="#E0E0E0"/>
<path d="M175.819 23.9309L186.424 17.8103C187.03 17.4467 187.569 17.7437 187.569 18.4709V20.7918C187.547 21.1888 187.431 21.5748 187.232 21.919C187.033 22.2632 186.756 22.5559 186.424 22.7735L175.819 28.8941C175.182 29.2637 174.673 28.9668 174.673 28.2335V25.9186C174.694 25.5205 174.809 25.1331 175.008 24.7877C175.207 24.4423 175.485 24.1488 175.819 23.9309Z" fill="#E0E0E0"/>
<path d="M175.819 48.3103L186.424 42.1897C187.03 41.8261 187.569 42.1231 187.569 42.8503V45.1712C187.547 45.5681 187.431 45.9542 187.232 46.2984C187.033 46.6426 186.756 46.9353 186.424 47.1529L175.819 53.2795C175.182 53.6431 174.673 53.3462 174.673 52.6129V50.298C174.694 49.8999 174.809 49.5125 175.008 49.1671C175.207 48.8217 175.485 48.5281 175.819 48.3103Z" fill="#E0E0E0"/>
<path d="M186.424 108.104L175.819 114.231C175.182 114.595 174.673 114.298 174.673 113.564V111.249C174.694 110.851 174.809 110.464 175.008 110.118C175.207 109.773 175.485 109.48 175.819 109.262L186.424 103.141C187.03 102.778 187.569 103.074 187.569 103.802V106.123C187.547 106.52 187.431 106.906 187.232 107.25C187.033 107.594 186.756 107.887 186.424 108.104Z" fill="#E0E0E0"/>
<path d="M170.389 142.907L179.727 137.514C180.333 137.15 180.873 137.447 180.873 138.174V140.495C180.85 140.892 180.735 141.278 180.536 141.622C180.337 141.967 180.06 142.259 179.727 142.477L170.389 147.864V142.907Z" fill="#E0E0E0"/>
<path d="M84.1613 168.201L160.663 212.391V27.4883L84.1613 71.6839V168.201Z" fill="#DD5928"/>
<path opacity="0.4" d="M84.1613 168.201L160.663 212.391V27.4883L84.1613 71.6839V168.201Z" fill="black"/>
<path d="M160.663 212.391L84.1613 168.201V256.544L160.663 212.391Z" fill="#E0E0E0"/>
<path d="M160.663 212.391L164.238 214.445V25.4219L160.663 27.4883V212.391Z" fill="#DD5928"/>
<path opacity="0.4" d="M160.663 212.391L164.238 214.445V25.4219L160.663 27.4883V212.391Z" fill="white"/>
<path opacity="0.1" d="M160.663 212.391L164.238 214.445V25.4219L160.663 27.4883V212.391Z" fill="black"/>
<path d="M164.238 214.445L170.389 210.894V12.4534L78.2285 65.6602L78.2346 264.101L84.1613 260.677V71.6838L164.238 25.4218V214.445Z" fill="#DD5928"/>
<path opacity="0.7" d="M164.238 214.445L170.389 210.894V12.4534L78.2285 65.6602L78.2346 264.101L84.1613 260.677V71.6838L164.238 25.4218V214.445Z" fill="white"/>
<path d="M170.389 12.4534L78.2285 65.6602L74.7077 63.6119L166.868 10.4111L170.389 12.4534Z" fill="#DD5928"/>
<path opacity="0.85" d="M170.389 12.4534L78.2285 65.6602L74.7077 63.6119L166.868 10.4111L170.389 12.4534Z" fill="white"/>
<path d="M78.2285 264.101V65.6601L74.7077 63.6118L74.6532 262.034L78.2285 264.101Z" fill="#DD5928"/>
<path opacity="0.6" d="M74.7077 63.6118L74.6532 262.034L78.2285 264.101V65.6601" fill="white"/>
<path d="M204.434 53.9341C205.113 53.8749 205.797 53.9137 206.464 54.0492C207.108 54.1725 207.723 54.4106 208.282 54.7522C208.811 55.0755 209.264 55.5097 209.609 56.0248C209.921 56.5272 210.123 57.0892 210.205 57.6747C210.286 58.2601 210.244 58.8561 210.082 59.4244C209.941 59.8562 209.737 60.2647 209.476 60.6364C209.223 61.0017 208.939 61.3443 208.628 61.6606L207.743 62.5453C207.475 62.812 207.232 63.102 207.016 63.4119C206.822 63.6868 206.709 64.0098 206.688 64.3452C206.672 64.5002 206.615 64.6484 206.525 64.7754C206.482 64.8363 206.426 64.8865 206.361 64.9222C206.296 64.9579 206.223 64.9782 206.149 64.9815L204.483 65.1208C204.403 65.1278 204.323 65.1191 204.248 65.0952C204.172 65.0712 204.101 65.0326 204.04 64.9815C203.978 64.9351 203.927 64.8747 203.893 64.8053C203.858 64.7358 203.84 64.6592 203.84 64.5815C203.814 64.0597 203.894 63.5379 204.077 63.0483C204.247 62.6167 204.473 62.2092 204.749 61.8363C205.015 61.4764 205.311 61.1398 205.634 60.8304C205.955 60.5213 206.24 60.2244 206.519 59.9517C206.768 59.6997 206.99 59.4213 207.179 59.1214C207.344 58.8642 207.419 58.5593 207.391 58.2549C207.372 57.9872 207.288 57.7281 207.147 57.5001C207.006 57.2721 206.811 57.0819 206.579 56.9459C206.002 56.6121 205.331 56.4779 204.67 56.5641C204.078 56.6043 203.512 56.8269 203.051 57.2012C202.59 57.5755 202.256 58.0832 202.095 58.6548C202.049 58.7917 201.981 58.9205 201.895 59.0366C201.784 59.134 201.642 59.1879 201.495 59.1881L199.725 59.3335C199.663 59.3413 199.6 59.3362 199.539 59.3185C199.479 59.3008 199.422 59.2708 199.374 59.2305C199.323 59.1907 199.282 59.1403 199.252 59.0827C199.223 59.0251 199.207 58.9618 199.204 58.8972C199.183 58.3421 199.3 57.7905 199.544 57.2913C199.795 56.7066 200.148 56.1711 200.586 55.7097C201.079 55.2177 201.648 54.8085 202.271 54.4977C202.947 54.1675 203.683 53.9759 204.434 53.9341ZM206.349 66.2904C206.506 66.2813 206.66 66.3334 206.779 66.4359C206.84 66.484 206.89 66.5446 206.925 66.6136C206.961 66.6826 206.981 66.7583 206.985 66.8358L207.149 68.7629C207.16 68.9189 207.11 69.0731 207.01 69.1932C206.96 69.2539 206.898 69.3035 206.828 69.339C206.758 69.3745 206.682 69.395 206.604 69.3992L204.725 69.5568C204.648 69.5645 204.569 69.5561 204.495 69.5321C204.421 69.5081 204.353 69.4691 204.295 69.4174C204.234 69.3688 204.184 69.3082 204.147 69.2394C204.111 69.1706 204.089 69.095 204.083 69.0174L203.925 67.0903C203.916 67.0128 203.923 66.9342 203.947 66.8599C203.972 66.7856 204.011 66.7174 204.064 66.6601C204.112 66.5984 204.173 66.5477 204.242 66.5111C204.311 66.4745 204.387 66.453 204.464 66.448L206.349 66.2904Z" fill="#DD5928"/>
<path d="M218.008 74.8351C218.525 74.9784 219.017 75.1969 219.469 75.4835C219.904 75.7481 220.288 76.0889 220.602 76.4895C220.895 76.8776 221.102 77.3239 221.208 77.7985C221.324 78.3059 221.303 78.8349 221.148 79.3316C221.047 79.73 220.865 80.1033 220.614 80.4285C220.393 80.7093 220.131 80.9563 219.839 81.1617C219.551 81.359 219.247 81.5313 218.93 81.6769L218.033 82.0889C217.763 82.2099 217.505 82.356 217.263 82.5252C217.042 82.6745 216.869 82.8852 216.766 83.1312C216.711 83.2417 216.627 83.3358 216.524 83.404C216.476 83.437 216.421 83.4585 216.363 83.4669C216.305 83.4753 216.246 83.4704 216.19 83.4524L214.924 83.0949C214.863 83.0801 214.806 83.0524 214.757 83.0138C214.708 82.9751 214.668 82.9263 214.639 82.8707C214.607 82.8199 214.586 82.7622 214.58 82.7023C214.574 82.6423 214.582 82.5817 214.603 82.5252C214.731 82.1343 214.937 81.7734 215.209 81.4647C215.454 81.1906 215.733 80.9484 216.039 80.7436C216.335 80.5509 216.647 80.3846 216.972 80.2467C217.293 80.1073 217.578 79.974 217.863 79.8407C218.116 79.726 218.356 79.5838 218.578 79.4165C218.774 79.2651 218.913 79.0514 218.972 78.8105C219.037 78.6048 219.049 78.3861 219.008 78.1744C218.967 77.9627 218.873 77.7647 218.736 77.5985C218.404 77.1948 217.948 76.9115 217.439 76.7925C216.991 76.658 216.512 76.6656 216.068 76.8143C215.624 76.963 215.237 77.2453 214.96 77.6227C214.891 77.7108 214.807 77.7866 214.712 77.8469C214.604 77.8874 214.486 77.8874 214.379 77.8469L213.033 77.4651C212.986 77.4536 212.941 77.4326 212.901 77.4035C212.861 77.3743 212.828 77.3376 212.803 77.2955C212.776 77.2514 212.759 77.2021 212.753 77.1509C212.747 77.0997 212.751 77.0478 212.767 76.9985C212.904 76.584 213.142 76.2096 213.457 75.9077C213.81 75.5613 214.22 75.2784 214.669 75.0714C215.169 74.846 215.7 74.7008 216.245 74.6412C216.84 74.5908 217.439 74.6566 218.008 74.8351ZM216.015 84.4645C216.073 84.4803 216.128 84.5078 216.176 84.5453C216.224 84.5828 216.264 84.6295 216.294 84.6826C216.324 84.7363 216.344 84.7956 216.351 84.8571C216.358 84.9185 216.353 84.9808 216.336 85.0402L215.924 86.5006C215.908 86.5593 215.881 86.6142 215.843 86.6621C215.806 86.71 215.759 86.7499 215.706 86.7794C215.652 86.8098 215.593 86.8292 215.531 86.8365C215.47 86.8437 215.408 86.8388 215.348 86.8218L213.918 86.4218C213.859 86.4055 213.805 86.3772 213.758 86.3385C213.711 86.2999 213.673 86.2519 213.645 86.1976C213.614 86.1454 213.593 86.0873 213.585 86.0269C213.576 85.9664 213.581 85.9049 213.597 85.8461L214.009 84.3796C214.026 84.3207 214.055 84.2657 214.093 84.2179C214.132 84.1701 214.179 84.1303 214.233 84.1009C214.286 84.0703 214.344 84.0508 214.404 84.0435C214.465 84.0362 214.526 84.0413 214.585 84.0584L216.015 84.4645Z" fill="#DD5928"/>
<g opacity="0.2">
<path opacity="0.2" d="M218.008 74.8351C218.525 74.9784 219.017 75.1969 219.469 75.4835C219.904 75.7481 220.288 76.0889 220.602 76.4895C220.895 76.8776 221.102 77.3239 221.208 77.7985C221.324 78.3059 221.303 78.8349 221.148 79.3316C221.047 79.73 220.865 80.1033 220.614 80.4285C220.393 80.7093 220.131 80.9563 219.839 81.1617C219.551 81.359 219.247 81.5313 218.93 81.6769L218.033 82.0889C217.763 82.2099 217.505 82.356 217.263 82.5252C217.042 82.6745 216.869 82.8852 216.766 83.1312C216.711 83.2417 216.627 83.3358 216.524 83.404C216.476 83.437 216.421 83.4585 216.363 83.4669C216.305 83.4753 216.246 83.4704 216.19 83.4524L214.924 83.0949C214.863 83.0801 214.806 83.0524 214.757 83.0138C214.708 82.9751 214.668 82.9263 214.639 82.8707C214.607 82.8199 214.586 82.7622 214.58 82.7023C214.574 82.6423 214.582 82.5817 214.603 82.5252C214.731 82.1343 214.937 81.7734 215.209 81.4647C215.454 81.1906 215.733 80.9484 216.039 80.7436C216.335 80.5509 216.647 80.3846 216.972 80.2467C217.293 80.1073 217.578 79.974 217.863 79.8407C218.116 79.726 218.356 79.5838 218.578 79.4165C218.774 79.2651 218.913 79.0514 218.972 78.8105C219.037 78.6048 219.049 78.3861 219.008 78.1744C218.967 77.9627 218.873 77.7647 218.736 77.5985C218.404 77.1948 217.948 76.9115 217.439 76.7925C216.991 76.658 216.512 76.6656 216.068 76.8143C215.624 76.963 215.237 77.2453 214.96 77.6227C214.891 77.7108 214.807 77.7866 214.712 77.8469C214.604 77.8874 214.486 77.8874 214.379 77.8469L213.033 77.4651C212.986 77.4536 212.941 77.4326 212.901 77.4035C212.861 77.3743 212.828 77.3376 212.803 77.2955C212.776 77.2514 212.759 77.2021 212.753 77.1509C212.747 77.0997 212.751 77.0478 212.767 76.9985C212.904 76.584 213.142 76.2096 213.457 75.9077C213.81 75.5613 214.22 75.2784 214.669 75.0714C215.169 74.846 215.7 74.7008 216.245 74.6412C216.84 74.5908 217.439 74.6566 218.008 74.8351ZM216.015 84.4645C216.073 84.4803 216.128 84.5078 216.176 84.5453C216.224 84.5828 216.264 84.6295 216.294 84.6826C216.324 84.7363 216.344 84.7956 216.351 84.8571C216.358 84.9185 216.353 84.9808 216.336 85.0402L215.924 86.5006C215.908 86.5593 215.881 86.6142 215.843 86.6621C215.806 86.71 215.759 86.7499 215.706 86.7794C215.652 86.8098 215.593 86.8292 215.531 86.8365C215.47 86.8437 215.408 86.8388 215.348 86.8218L213.918 86.4218C213.859 86.4055 213.805 86.3772 213.758 86.3385C213.711 86.2999 213.673 86.2519 213.645 86.1976C213.614 86.1454 213.593 86.0873 213.585 86.0269C213.576 85.9664 213.581 85.9049 213.597 85.8461L214.009 84.3796C214.026 84.3207 214.055 84.2657 214.093 84.2179C214.132 84.1701 214.179 84.1303 214.233 84.1009C214.286 84.0703 214.344 84.0508 214.404 84.0435C214.465 84.0362 214.526 84.0413 214.585 84.0584L216.015 84.4645Z" fill="black"/>
</g>
<path d="M224.571 67.9327C224.622 67.9649 224.666 68.0075 224.699 68.0576C224.733 68.1077 224.755 68.1642 224.765 68.2236C224.778 68.2817 224.778 68.3417 224.767 68.4C224.755 68.4583 224.732 68.5137 224.699 68.5629L223.869 69.7749C223.836 69.8258 223.794 69.8694 223.744 69.9028C223.694 69.9362 223.637 69.9587 223.578 69.9689C223.519 69.9808 223.46 69.981 223.401 69.9696C223.343 69.9581 223.288 69.9352 223.238 69.9022L222.026 69.0902C221.976 69.0576 221.934 69.0149 221.901 68.9648C221.869 68.9146 221.848 68.8582 221.838 68.7993C221.827 68.7411 221.826 68.6812 221.838 68.6229C221.849 68.5647 221.872 68.5093 221.905 68.4599L222.735 67.2479C222.803 67.1562 222.903 67.093 223.015 67.0706C223.127 67.0482 223.243 67.0682 223.341 67.1267L224.571 67.9327ZM229.359 59.6366C229.79 59.9283 230.177 60.2792 230.51 60.6789C230.831 61.0575 231.082 61.4905 231.25 61.9575C231.412 62.4051 231.474 62.8831 231.431 63.3574C231.383 63.8634 231.203 64.348 230.91 64.7633C230.693 65.0986 230.413 65.3888 230.086 65.6178C229.793 65.8071 229.475 65.954 229.141 66.0541C228.814 66.1504 228.479 66.2173 228.141 66.2541L227.189 66.3571C226.902 66.3887 226.618 66.4475 226.341 66.5328C226.095 66.6027 225.873 66.739 225.699 66.9267C225.618 67.0161 225.512 67.0794 225.396 67.1085C225.34 67.1242 225.282 67.127 225.225 67.1164C225.168 67.1059 225.115 67.0825 225.068 67.0479L224.008 66.3329C223.958 66.2998 223.915 66.2571 223.881 66.2071C223.848 66.1571 223.825 66.101 223.814 66.042C223.798 65.9837 223.796 65.9225 223.809 65.8634C223.821 65.8043 223.848 65.7492 223.887 65.7026C224.125 65.3833 224.421 65.1119 224.759 64.9027C225.07 64.7258 225.402 64.5894 225.747 64.4967C226.079 64.4073 226.417 64.3465 226.759 64.3149C227.098 64.3149 227.414 64.2543 227.711 64.2179C227.979 64.1869 228.243 64.128 228.498 64.0422C228.72 63.9641 228.911 63.8177 229.044 63.624C229.16 63.455 229.233 63.2602 229.258 63.0564C229.282 62.8527 229.256 62.6461 229.183 62.4545C229.002 61.9779 228.667 61.575 228.232 61.3091C227.858 61.0487 227.414 60.909 226.959 60.909C226.504 60.909 226.06 61.0487 225.687 61.3091C225.596 61.3705 225.496 61.4156 225.39 61.4424C225.276 61.449 225.164 61.4146 225.074 61.3455L223.947 60.6001C223.906 60.5748 223.871 60.5412 223.844 60.5016C223.817 60.4619 223.799 60.417 223.79 60.3698C223.778 60.3209 223.777 60.2698 223.787 60.2204C223.798 60.1711 223.819 60.1248 223.85 60.085C224.105 59.7458 224.437 59.4734 224.82 59.2911C225.254 59.0741 225.725 58.9385 226.208 58.8912C226.738 58.8329 227.274 58.8615 227.795 58.976C228.354 59.0948 228.884 59.319 229.359 59.6366Z" fill="#DD5928"/>
<g opacity="0.6">
<path opacity="0.6" d="M224.571 67.9327C224.622 67.9649 224.666 68.0075 224.699 68.0576C224.733 68.1077 224.755 68.1642 224.765 68.2236C224.778 68.2817 224.778 68.3417 224.767 68.4C224.755 68.4583 224.732 68.5137 224.699 68.5629L223.869 69.7749C223.836 69.8258 223.794 69.8694 223.744 69.9028C223.694 69.9362 223.637 69.9587 223.578 69.9689C223.519 69.9808 223.46 69.981 223.401 69.9696C223.343 69.9581 223.288 69.9352 223.238 69.9022L222.026 69.0902C221.976 69.0576 221.934 69.0149 221.901 68.9648C221.869 68.9146 221.848 68.8582 221.838 68.7993C221.827 68.7411 221.826 68.6812 221.838 68.6229C221.849 68.5647 221.872 68.5093 221.905 68.4599L222.735 67.2479C222.803 67.1562 222.903 67.093 223.015 67.0706C223.127 67.0482 223.243 67.0682 223.341 67.1267L224.571 67.9327ZM229.359 59.6366C229.79 59.9283 230.177 60.2792 230.51 60.6789C230.831 61.0575 231.082 61.4905 231.25 61.9575C231.412 62.4051 231.474 62.8831 231.431 63.3574C231.383 63.8634 231.203 64.348 230.91 64.7633C230.693 65.0986 230.413 65.3888 230.086 65.6178C229.793 65.8071 229.475 65.954 229.141 66.0541C228.814 66.1504 228.479 66.2173 228.141 66.2541L227.189 66.3571C226.902 66.3887 226.618 66.4475 226.341 66.5328C226.095 66.6027 225.873 66.739 225.699 66.9267C225.618 67.0161 225.512 67.0794 225.396 67.1085C225.34 67.1242 225.282 67.127 225.225 67.1164C225.168 67.1059 225.115 67.0825 225.068 67.0479L224.008 66.3329C223.958 66.2998 223.915 66.2571 223.881 66.2071C223.848 66.1571 223.825 66.101 223.814 66.042C223.798 65.9837 223.796 65.9225 223.809 65.8634C223.821 65.8043 223.848 65.7492 223.887 65.7026C224.125 65.3833 224.421 65.1119 224.759 64.9027C225.07 64.7258 225.402 64.5894 225.747 64.4967C226.079 64.4073 226.417 64.3465 226.759 64.3149C227.098 64.3149 227.414 64.2543 227.711 64.2179C227.979 64.1869 228.243 64.128 228.498 64.0422C228.72 63.9641 228.911 63.8177 229.044 63.624C229.16 63.455 229.233 63.2602 229.258 63.0564C229.282 62.8527 229.256 62.6461 229.183 62.4545C229.002 61.9779 228.667 61.575 228.232 61.3091C227.858 61.0487 227.414 60.909 226.959 60.909C226.504 60.909 226.06 61.0487 225.687 61.3091C225.596 61.3705 225.496 61.4156 225.39 61.4424C225.276 61.449 225.164 61.4146 225.074 61.3455L223.947 60.6001C223.906 60.5748 223.871 60.5412 223.844 60.5016C223.817 60.4619 223.799 60.417 223.79 60.3698C223.778 60.3209 223.777 60.2698 223.787 60.2204C223.798 60.1711 223.819 60.1248 223.85 60.085C224.105 59.7458 224.437 59.4734 224.82 59.2911C225.254 59.0741 225.725 58.9385 226.208 58.8912C226.738 58.8329 227.274 58.8615 227.795 58.976C228.354 59.0948 228.884 59.319 229.359 59.6366Z" fill="white"/>
</g>
<path d="M174.589 232.098C174.455 233.54 175.395 237.297 175.395 237.297C175.395 237.297 176.194 238.509 178.473 239.067L178.631 233.613L174.589 232.098Z" fill="#263238"/>
<path d="M178.473 239.037L182.97 236.764L183.466 232.395L178.564 235.891L178.473 239.037Z" fill="black"/>
<path d="M181.891 225.802L181.8 224.886C182.491 225.105 184.303 230.213 186.757 233.473C188.999 236.449 192.732 237.715 194.071 238.964C195.859 240.618 193.314 243.497 188.472 243.206C186.048 243.06 182.321 242.115 181.127 240.691C179.934 239.267 179.164 236.449 178.206 235.395C177.249 234.34 175.176 233.316 174.601 232.062C174.273 231.371 174.395 229.771 174.601 228.426C174.783 227.171 174.982 225.795 175.413 225.862C175.413 226.014 175.516 226.632 175.516 226.632C175.661 227.238 176.467 227.88 178.982 227.607C180.097 227.474 182.091 227.044 181.891 225.802Z" fill="#455A64"/>
<path d="M132.296 204.161C131.526 205.222 130.169 212.645 130.169 212.645C130.169 212.645 131.944 215.239 132.969 216.027L136.259 209.046L132.296 204.161Z" fill="#263238"/>
<path d="M132.969 215.996L139.004 214.609L141.246 209.961L134.962 211.712L132.969 215.996Z" fill="black"/>
<path d="M136.792 199.453C136.447 199.192 135.95 199.871 134.744 200.95C133.896 201.707 132.066 202.422 132.066 204.586C132.066 206.143 133.102 208.064 134.096 209.676C135.09 211.288 135.235 212.736 135.229 215.027C135.229 217.796 134.72 219.493 138.126 221.96C140.853 223.929 146.391 224.293 147.609 223.172C149.694 221.22 144.828 218.542 144.034 214.548C142.943 209.04 142.822 208.119 142.974 204.246L136.792 199.453Z" fill="#455A64"/>
<path d="M190.084 131.744C187.43 133.181 179.37 133.562 168.062 131.138L169.401 163.862C169.401 163.862 159.493 170.892 156.445 174.728C153.397 178.564 138.738 197.199 138.738 197.199L136.714 199.544C135.459 200.998 136.108 202.962 137.562 204.216C138.962 205.367 140.786 206.179 142.149 204.992L143.822 203.537C143.822 203.537 176.582 178.285 177.758 176.673C178.934 175.061 181.691 171.062 184.666 162.62C188.508 151.791 189.151 143.949 190.084 131.744Z" fill="#FFA8A7"/>
<path d="M190.078 131.744C182.921 135.029 168.535 133.908 168.535 133.908L169.195 163.814C165.577 166.015 162.191 168.575 159.087 171.456C154.797 175.588 148.252 184.182 148.252 184.182C150.494 190.49 156.881 193.435 156.881 193.435C156.881 193.435 170.316 184.024 177.831 178.697C181.764 175.916 184.721 174.364 185.903 169.838C186.832 166.372 187.548 162.852 188.048 159.299C188.69 155.391 188.999 150.942 189.375 147.652C190.015 142.375 190.25 137.057 190.078 131.744Z" fill="#DD5928"/>
<path opacity="0.4" d="M190.078 131.744C182.921 135.029 168.535 133.908 168.535 133.908L169.195 163.814C165.577 166.015 162.191 168.575 159.087 171.456C154.797 175.588 148.252 184.182 148.252 184.182C150.494 190.49 156.881 193.435 156.881 193.435C156.881 193.435 170.316 184.024 177.831 178.697C181.764 175.916 184.721 174.364 185.903 169.838C186.832 166.372 187.548 162.852 188.048 159.299C188.69 155.391 188.999 150.942 189.375 147.652C190.015 142.375 190.25 137.057 190.078 131.744Z" fill="black"/>
<path opacity="0.1" d="M178.128 170.547L176.988 154.015L172.746 150.07L169.11 159.796L169.201 163.814C166.855 165.248 164.598 166.825 162.444 168.535L163.05 169.995L166.499 178.328C166.499 178.328 165.287 184.012 165.796 187.151C169.765 184.363 174.28 181.182 177.667 178.788L178.128 170.547Z" fill="black"/>
<path d="M182.121 226.523V225.844C181.6 219.729 182.442 186.109 182.406 177.037C182.364 167.214 180.588 143.416 180.588 143.416C180.588 143.416 186.393 135.835 190.133 131.744C186.6 135.786 168.783 133.738 167.711 125.957C166.25 129.023 161.045 132.187 160.614 142.264C160.008 155.106 169.098 177.812 169.098 177.812C168.753 179.527 167.195 186.715 168.11 193.35C169.553 203.822 174.728 222.335 175.273 224.862L175.607 227.014C176.74 228.419 181.303 228.207 182.121 226.523Z" fill="#FFA8A7"/>
<path d="M182.533 159.069L182.012 145.658C182.012 145.658 187.412 144.252 189.599 139.713C190.007 137.078 190.17 134.41 190.084 131.744C190.084 131.744 185.363 133.932 178.728 132.314C174.544 131.196 170.725 129.005 167.65 125.957C167.65 125.957 166.377 127.211 163.765 131.108C162.517 132.968 160.408 137.774 160.226 141.525C159.808 150.088 162.541 159.226 162.541 159.226C163.935 165.929 168.165 178.128 168.165 178.128C168.165 178.128 166.553 187.012 167.365 193.381C168.177 199.75 170.753 206.949 170.753 206.949C170.753 206.949 177.934 209.373 182.654 206.561C182.654 206.561 182.879 184.412 182.964 175.77C183.048 167.129 182.533 159.069 182.533 159.069Z" fill="#DD5928"/>
<path opacity="0.3" d="M182.533 159.069L182.012 145.658C182.012 145.658 187.412 144.252 189.599 139.713C190.007 137.078 190.17 134.41 190.084 131.744C190.084 131.744 185.363 133.932 178.728 132.314C174.544 131.196 170.725 129.005 167.65 125.957C167.65 125.957 166.377 127.211 163.765 131.108C162.517 132.968 160.408 137.774 160.226 141.525C159.808 150.088 162.541 159.226 162.541 159.226C163.935 165.929 168.165 178.128 168.165 178.128C168.165 178.128 166.553 187.012 167.365 193.381C168.177 199.75 170.753 206.949 170.753 206.949C170.753 206.949 177.934 209.373 182.654 206.561C182.654 206.561 182.879 184.412 182.964 175.77C183.048 167.129 182.533 159.069 182.533 159.069Z" fill="black"/>
<path d="M206.87 102.868C207.689 101.94 208.168 100.76 208.227 99.5232C208.287 98.2864 207.924 97.0661 207.197 96.0631C204.707 92.1665 198.829 93.6815 198.829 93.6815L197.259 91.1545C197.852 90.9972 198.47 90.9601 199.077 91.0454C200.179 91.0875 201.279 90.9315 202.325 90.5849C203.448 90.2745 204.425 89.5769 205.083 88.6154C205.395 88.1283 205.536 87.551 205.483 86.9747C205.431 86.3984 205.187 85.8562 204.792 85.4339C205.375 85.438 205.952 85.318 206.485 85.0819C207.018 84.8457 207.494 84.4989 207.883 84.0645C208.271 83.63 208.563 83.1178 208.739 82.562C208.914 82.0061 208.969 81.4192 208.9 80.8404C208.878 80.4863 208.746 80.1477 208.525 79.8708C208.21 79.5929 207.831 79.399 207.422 79.3072C206.316 78.9193 205.305 78.2995 204.458 77.4892C202.78 75.8833 202.071 73.9987 199.75 72.4897C197.786 71.1972 195.483 70.5141 193.132 70.5263C190.472 70.5263 188.072 71.2898 186.272 73.4896C183.303 73.4896 179.437 75.2531 176.794 82.5796C174.195 89.791 175.14 98.2144 180.055 105.747C183.297 110.716 196.223 118.97 205.464 115.716C214.706 112.461 210.821 103.099 206.87 102.868Z" fill="#263238"/>
<path d="M191.454 100.917C198.629 102.25 199.041 105.832 199.404 108.965C200.344 117.128 198.726 130.611 198.162 133.581C198.162 133.581 188.514 130.635 188.624 130.157C188.733 129.678 191.454 100.917 191.454 100.917Z" fill="#FFA8A7"/>
<path d="M191.569 128.848C191.569 128.848 194.817 128.09 197.271 128.848C197.271 128.848 195.253 126.751 190.642 128.114L191.569 128.848Z" fill="#F28F8F"/>
<path d="M190.745 131.163C191.783 128.553 192.594 125.858 193.169 123.109C197.962 120.642 199.01 116.964 198.017 113.516C195.956 106.42 193.95 102.965 192.108 100.917C190.678 99.9052 185.587 98.4932 185.587 98.4932C184.678 98.3478 176.443 97.3115 173.928 97.1055C172.568 98.1575 171.534 99.5738 170.947 101.19C170.462 102.693 169.613 103.971 169.613 109.11L170.571 118.297C170.571 118.297 170.825 121.049 169.862 122.648C168.898 124.248 164.971 127.175 163.159 131.132C163.159 131.132 163.378 137.156 174.455 139.671C183.466 141.719 190.151 138.459 190.151 138.459C190.546 136.047 190.744 133.607 190.745 131.163Z" fill="#F5F5F5"/>
<path d="M198.271 116.898C197.972 116.517 197.538 116.266 197.059 116.195C196.017 116.067 195.029 116.613 194.065 117.043C192.284 117.837 190.236 118.255 188.375 117.679C186.363 117.031 184.739 115.255 182.648 115.073C180.655 114.916 178.873 116.285 177.407 117.625C175.237 119.643 173.225 121.867 170.741 123.497C169.674 124.18 168.57 124.802 167.432 125.357L166.947 125.866L166.85 125.969C166.48 126.363 166.099 126.781 165.729 127.218L165.59 127.387L165.19 127.872L164.996 128.121L164.662 128.563L164.462 128.842L164.153 129.302L163.971 129.587C163.862 129.757 163.765 129.927 163.662 130.102L163.517 130.357C163.378 130.617 163.238 130.884 163.117 131.157C163.156 131.572 163.252 131.98 163.402 132.369C163.641 132.997 163.96 133.592 164.353 134.138C164.517 134.362 164.693 134.587 164.893 134.817C166.414 136.556 169.219 138.507 174.407 139.665C176.46 140.134 178.561 140.359 180.667 140.338C181.376 140.338 182.055 140.295 182.703 140.235C183.351 140.174 183.963 140.101 184.521 140.01C185.284 139.889 185.987 139.744 186.618 139.592C187.811 139.32 188.974 138.931 190.09 138.429C190.367 136.784 190.545 135.125 190.623 133.459C190.623 133.102 190.66 132.732 190.672 132.344C190.684 131.957 190.672 131.551 190.672 131.132C191.278 129.417 191.835 127.86 192.247 126.503C192.35 126.163 192.447 125.836 192.532 125.521C192.767 124.724 192.955 123.915 193.096 123.097C196.405 121.443 197.932 119.225 198.271 116.898Z" fill="#EBEBEB"/>
<path d="M201.422 80.3314C201.949 81.5131 202.774 83.4038 200.907 90.8213C199.326 97.1055 196.926 98.2023 195.793 98.4144C194.659 98.6265 192.763 97.9115 191.405 97.3903L189.187 101.329C189.387 103.026 189.969 106.444 188.848 108.601C185.587 106.117 182.255 103.111 179.97 98.4084L183.545 90.5849C183.545 90.5849 181.473 91.5788 180.364 89.2033C179.34 87.0156 179.721 85.1915 181.242 84.2159C181.597 83.9889 182.004 83.8552 182.424 83.8271C182.844 83.7989 183.265 83.8773 183.647 84.055C184.029 84.2327 184.359 84.5038 184.609 84.8434C184.858 85.183 185.017 85.5799 185.072 85.9975C185.4 87.8701 187.218 88.0094 187.721 85.2279C187.872 84.3795 188.587 79.7739 191.866 78.7498C195.738 83.6281 200.671 82.9433 201.422 80.3314Z" fill="#FFA8A7"/>
<path d="M192.95 86.7429C192.915 86.9064 192.832 87.0559 192.712 87.1727C192.592 87.2896 192.441 87.3687 192.276 87.4002C192.112 87.4317 191.942 87.4142 191.788 87.35C191.633 87.2858 191.501 87.1776 191.407 87.0388C191.314 86.9001 191.263 86.7369 191.261 86.5696C191.259 86.4022 191.307 86.2381 191.398 86.0975C191.488 85.9569 191.619 85.8461 191.772 85.7787C191.925 85.7114 192.095 85.6906 192.26 85.7188C192.372 85.7405 192.479 85.7843 192.575 85.8476C192.671 85.9109 192.753 85.9924 192.817 86.0876C192.882 86.1827 192.926 86.2895 192.949 86.402C192.972 86.5144 192.972 86.6303 192.95 86.7429Z" fill="#263238"/>
<path d="M193.92 93.4089C193.904 93.5166 193.866 93.6199 193.81 93.713C193.754 93.8061 193.679 93.8872 193.591 93.9514C193.503 94.0156 193.404 94.0618 193.298 94.0873C193.192 94.1127 193.082 94.117 192.975 94.0997C192.807 94.0777 192.649 94.0058 192.522 93.8933C192.395 93.7808 192.305 93.6329 192.263 93.4687C192.221 93.3045 192.229 93.1314 192.287 92.9719C192.344 92.8123 192.448 92.6736 192.584 92.5736C192.721 92.4735 192.885 92.4168 193.054 92.4107C193.224 92.4046 193.391 92.4494 193.535 92.5393C193.679 92.6292 193.792 92.76 193.861 92.915C193.929 93.0701 193.95 93.2421 193.92 93.4089Z" fill="#B16668"/>
<path d="M200.15 85.5792L198.798 84.0945C198.888 84.0003 198.996 83.9253 199.116 83.8741C199.236 83.8228 199.365 83.7964 199.495 83.7964C199.625 83.7964 199.754 83.8228 199.874 83.8741C199.994 83.9253 200.102 84.0003 200.192 84.0945C200.382 84.2976 200.485 84.5675 200.477 84.8456C200.469 85.1237 200.351 85.3874 200.15 85.5792Z" fill="#263238"/>
<path d="M192.672 83.2099L190.823 83.9855C190.766 83.8672 190.734 83.7385 190.729 83.6072C190.724 83.476 190.745 83.3451 190.792 83.2225C190.839 83.0999 190.911 82.9883 191.003 82.8944C191.095 82.8005 191.205 82.7264 191.326 82.6766C191.576 82.5755 191.855 82.5746 192.106 82.6739C192.356 82.7732 192.559 82.9651 192.672 83.2099Z" fill="#263238"/>
<path d="M199.307 87.9244C199.288 88.0351 199.247 88.1408 199.186 88.2355C199.126 88.3302 199.048 88.4122 198.956 88.4766C198.864 88.541 198.76 88.5867 198.65 88.611C198.541 88.6353 198.427 88.6378 198.317 88.6183C198.206 88.5988 198.1 88.5577 198.005 88.4974C197.911 88.437 197.829 88.3586 197.764 88.2666C197.7 88.1746 197.654 88.0708 197.63 87.9612C197.606 87.8515 197.603 87.7381 197.623 87.6275C197.662 87.4041 197.789 87.2055 197.974 87.0754C198.16 86.9452 198.39 86.8943 198.613 86.9336C198.837 86.973 199.035 87.0995 199.166 87.2853C199.296 87.4712 199.347 87.701 199.307 87.9244Z" fill="#263238"/>
<path d="M195.405 86.2458L195.005 91.8756L198.004 91.2393L195.405 86.2458Z" fill="#F28F8F"/>
<path d="M191.405 97.3902C189.436 96.663 185.006 94.2693 184.739 92.4695C184.814 93.358 185.156 94.2031 185.721 94.8935C186.727 96.2449 190.672 98.6749 190.672 98.6749L191.405 97.3902Z" fill="#F28F8F"/>
<path d="M193.787 100.251C193.575 99.5779 192.708 99.5112 192.708 99.5112C192.775 99.2479 192.782 98.9729 192.728 98.7065C192.675 98.4401 192.562 98.1891 192.399 97.972C192.104 97.7563 191.746 97.6453 191.381 97.6569C191.599 97.1781 191.314 96.0873 190.72 95.954C190.156 95.8942 189.586 95.9208 189.03 96.0328C188.45 96.4213 187.949 96.9145 187.551 97.4872L188.466 95.748C189.274 95.5385 190.067 95.2773 190.842 94.9662C191.751 94.5057 191.708 93.5118 191.357 93.4573C190.561 93.4722 189.769 93.5533 188.987 93.6997C187.993 93.8633 186.739 93.8572 186.4 94.4754C186.06 95.0935 185.684 95.8328 184.988 97.2508C184.291 98.6689 184.097 99.0991 184.188 99.9112C184.279 100.723 184.266 102.335 184.515 104.353C184.763 106.371 184.363 106.844 183.473 107.989C182.867 108.759 179.121 112.474 175.17 116.085L175.71 108.238C175.71 108.238 176.994 100.166 173.934 97.1478C169.813 96.4812 167.814 98.3598 166.898 100.572C165.293 104.486 165.765 115.643 166.074 121.515C166.383 127.387 168.692 129.611 170.462 129.999C172.231 130.387 177.079 128.345 180.255 124.169C182.751 121.303 188.096 111.861 188.878 110.546C189.449 109.53 190.148 108.592 190.957 107.753C191.563 107.147 192.047 104.723 192.047 103.274C192.181 103.729 192.653 104.093 193.035 103.808C193.114 103.062 193.847 100.741 193.787 100.251Z" fill="#FFA8A7"/>
<path d="M183.454 107.971C183.771 107.596 184.049 107.19 184.285 106.759C184.485 106.304 184.575 105.807 184.545 105.311C184.545 104.814 184.46 104.317 184.406 103.826C184.351 103.335 184.309 102.832 184.272 102.335L184.188 100.845L184.139 100.099C184.105 99.8482 184.095 99.5945 184.109 99.3416C184.193 98.844 184.357 98.3632 184.594 97.9175C184.8 97.463 185.024 97.0207 185.254 96.5783L185.927 95.239L186.266 94.5724C186.373 94.3292 186.571 94.1376 186.818 94.0391C187.293 93.8709 187.788 93.767 188.29 93.7301C188.787 93.6755 189.272 93.5786 189.769 93.518C190.266 93.4574 190.757 93.3968 191.266 93.3847C191.347 93.3808 191.427 93.4066 191.49 93.4574C191.545 93.5089 191.587 93.5735 191.611 93.6452C191.644 93.7785 191.644 93.918 191.611 94.0513C191.569 94.3137 191.443 94.5558 191.254 94.7421C190.852 95.0593 190.387 95.2866 189.89 95.4087C189.411 95.5663 188.933 95.7056 188.454 95.839L188.508 95.7965L187.605 97.5479L187.466 97.463C187.684 97.1878 187.916 96.9248 188.163 96.6752C188.284 96.55 188.411 96.4288 188.545 96.3116C188.675 96.1851 188.822 96.077 188.981 95.9905C189.287 95.9309 189.597 95.8924 189.908 95.8753C190.229 95.8361 190.554 95.8692 190.86 95.9723C191.136 96.1547 191.332 96.437 191.405 96.7601C191.508 97.0709 191.508 97.4067 191.405 97.7176L191.338 97.6206C191.573 97.6203 191.806 97.6571 192.029 97.7297C192.147 97.7665 192.256 97.8262 192.35 97.9054C192.435 97.9908 192.508 98.0865 192.569 98.1902C192.789 98.6093 192.845 99.0955 192.726 99.5537L192.672 99.4749C192.912 99.5027 193.143 99.5812 193.35 99.7052C193.562 99.8311 193.721 100.029 193.799 100.263C193.789 100.57 193.745 100.875 193.665 101.172L193.441 102.05C193.296 102.656 193.12 103.214 193.017 103.796C192.917 103.862 192.8 103.898 192.681 103.898C192.561 103.898 192.444 103.862 192.344 103.796C192.153 103.662 192.015 103.464 191.957 103.238H192.047C192.033 103.922 191.958 104.604 191.823 105.274C191.695 105.947 191.491 106.604 191.217 107.232C191.067 107.537 190.861 107.812 190.611 108.044C190.381 108.298 190.157 108.553 189.951 108.819C189.535 109.358 189.155 109.923 188.811 110.51C189.148 109.918 189.52 109.347 189.926 108.801C190.133 108.535 190.351 108.274 190.581 108.02C190.832 107.789 191.037 107.514 191.187 107.208C191.446 106.58 191.633 105.926 191.744 105.256C191.873 104.591 191.944 103.916 191.957 103.238V102.917L192.047 103.226C192.105 103.427 192.229 103.602 192.399 103.723C192.479 103.785 192.577 103.819 192.678 103.819C192.779 103.819 192.877 103.785 192.956 103.723V103.759C193.066 103.153 193.235 102.584 193.381 101.996L193.593 101.123C193.67 100.838 193.713 100.546 193.72 100.251C193.631 100.049 193.487 99.8772 193.305 99.7539C193.123 99.6306 192.91 99.5612 192.69 99.5537H192.617V99.481C192.721 99.0544 192.667 98.6045 192.466 98.2145C192.419 98.1197 192.353 98.0355 192.273 97.9667C192.193 97.898 192.1 97.8462 191.999 97.8145C191.789 97.7489 191.57 97.7162 191.351 97.7176H191.254L191.29 97.6206C191.381 97.3409 191.381 97.0397 191.29 96.7601C191.227 96.4745 191.055 96.2246 190.811 96.0632C190.527 95.9749 190.228 95.948 189.933 95.9844C189.629 96.0045 189.328 96.0429 189.03 96.0995C188.89 96.1867 188.758 96.2861 188.636 96.3965C188.508 96.5116 188.381 96.6328 188.266 96.754C188.024 97.0025 187.799 97.2631 187.581 97.5358L187.084 98.1418L187.442 97.4388L188.345 95.6814V95.645H188.381C188.86 95.5117 189.339 95.3784 189.805 95.2208C190.28 95.1148 190.726 94.9081 191.114 94.6148C191.277 94.448 191.389 94.2375 191.435 94.0088C191.472 93.7967 191.435 93.4937 191.217 93.518C190.722 93.5285 190.229 93.569 189.739 93.6392C189.248 93.6998 188.757 93.7907 188.26 93.8452C187.768 93.8766 187.283 93.9744 186.818 94.1361C186.596 94.2247 186.418 94.3965 186.321 94.6148L185.981 95.2814L185.303 96.6086C185.078 97.051 184.848 97.4933 184.636 97.9478C184.403 98.3814 184.244 98.8502 184.163 99.3356C184.136 99.5792 184.136 99.8252 184.163 100.069L184.206 100.82L184.279 102.311C184.309 102.808 184.345 103.305 184.394 103.802C184.442 104.299 184.509 104.79 184.515 105.293C184.537 105.793 184.439 106.292 184.23 106.747C184.014 107.18 183.754 107.59 183.454 107.971Z" fill="#B16668"/>
<path d="M191.405 97.7296C191.454 97.5584 191.47 97.3796 191.454 97.2024C190.957 97.3357 190.314 97.4024 189.902 97.5478C189.567 97.672 189.292 97.919 189.133 98.2387C189.345 98.0144 189.951 97.7236 191.405 97.7296Z" fill="#B16668"/>
<path d="M190.957 99.9475C191.489 99.6533 192.096 99.5227 192.702 99.5718C192.732 99.4057 192.751 99.2376 192.756 99.0688C191.338 99.2749 190.957 99.9475 190.957 99.9475Z" fill="#B16668"/>
<path d="M191.969 103.626C192.025 102.986 192.009 102.342 191.92 101.705C191.854 101.323 191.829 101.099 192.26 101.166C192.69 101.232 193.284 100.705 193.169 101.063C193.108 101.257 192.344 101.578 192.296 101.851C192.246 102.452 192.136 103.046 191.969 103.626Z" fill="#B16668"/>
<path d="M175.134 116.067C174.043 116.97 170.347 119.794 169.831 122.672C169.831 122.672 169.316 120.515 171.437 118.115C172.63 116.752 173.905 115.462 175.255 114.255L175.134 116.067Z" fill="#F28F8F"/>
<path d="M198.162 133.581C197.792 135.732 197.108 136.52 194.914 137.483C191.338 139.053 177.019 143.107 172.789 143.137C170.386 143.182 167.993 142.821 165.711 142.071C165.301 141.973 164.934 141.743 164.668 141.416C164.514 141.137 164.309 140.891 164.062 140.689C163.758 140.506 163.442 140.342 163.117 140.198C162.735 139.96 162.46 139.585 162.347 139.15C162.327 138.864 162.237 138.587 162.087 138.344C161.906 138.158 161.744 137.955 161.602 137.738C161.439 137.448 161.357 137.119 161.366 136.786C161.379 136.619 161.365 136.451 161.323 136.289C161.258 136.142 161.163 136.01 161.045 135.901C160.919 135.761 160.802 135.613 160.693 135.459C160.582 135.334 160.512 135.177 160.493 135.011C160.515 134.876 160.569 134.75 160.651 134.641C161.148 133.859 162.263 134.035 163.075 134.12C164.038 134.229 164.984 134.417 165.947 134.532C167.288 134.693 168.642 134.723 169.989 134.623V132.132C170.964 132.348 171.888 132.752 172.71 133.32C174.286 134.29 175.237 135.598 178.164 134.823C181.091 134.047 188.066 130.084 191.569 128.86C195.071 127.636 198.374 132.308 198.162 133.581Z" fill="#FFA8A7"/>
<path d="M84.1613 257.623L169.977 244.303V58.3337L84.1613 71.6839V257.623Z" fill="#455A64"/>
<path d="M167.365 56.8247L169.977 58.3337L84.1613 71.6838L88.7002 69.0598L167.365 56.8247Z" fill="#37474F"/>
<path d="M94.233 167.965L154.288 158.633V234.219L94.233 243.546V167.965Z" fill="#455A64"/>
<path opacity="0.1" d="M94.233 167.965L154.288 158.633V234.219L94.233 243.546V167.965Z" fill="black"/>
<path d="M98.7416 171.825L149.785 163.887V230.353L98.7416 238.291V171.825Z" fill="#455A64"/>
<path d="M94.233 243.545L98.7416 238.291L149.785 230.353L154.288 234.219L94.233 243.545Z" fill="#263238"/>
<path d="M94.233 167.965L98.7416 171.825V238.291L94.233 243.545V167.965Z" fill="#37474F"/>
<path d="M149.785 163.887L154.288 158.633V234.219L149.785 230.353V163.887Z" fill="#37474F"/>
<path d="M128.351 76.4349L154.288 72.3989V147.985L128.357 152.015L128.351 76.4349Z" fill="#455A64"/>
<path opacity="0.1" d="M128.351 76.4349L154.288 72.3989V147.985L128.357 152.015L128.351 76.4349Z" fill="black"/>
<path d="M132.859 80.295L149.785 77.6589V144.125L132.859 146.761V80.295Z" fill="#455A64"/>
<path d="M128.357 152.015L132.859 146.761L149.785 144.125L154.288 147.985L128.357 152.015Z" fill="#263238"/>
<path d="M128.351 76.4348L132.859 80.295V146.761L128.357 152.015L128.351 76.4348Z" fill="#37474F"/>
<path d="M149.785 77.659L154.288 72.3989V147.985L149.785 144.125V77.659Z" fill="#37474F"/>
<path d="M94.2754 81.7132L120.212 77.6772V153.264L94.2754 157.294V81.7132Z" fill="#455A64"/>
<path opacity="0.1" d="M94.2754 81.7132L120.212 77.6772V153.264L94.2754 157.294V81.7132Z" fill="black"/>
<path d="M98.778 85.5733L115.704 82.9312L115.71 149.403L98.778 152.039V85.5733Z" fill="#455A64"/>
<path d="M94.2754 157.293L98.778 152.039L115.71 149.403L120.212 153.264L94.2754 157.293Z" fill="#263238"/>
<path d="M94.2754 81.7131L98.778 85.5734V152.039L94.2754 157.293V81.7131Z" fill="#37474F"/>
<path d="M115.704 82.9313L120.212 77.6772V153.264L115.71 149.403L115.704 82.9313Z" fill="#37474F"/>
<path d="M158.414 144.87L159.584 146.052V165.468L158.414 164.293V144.87Z" fill="#E0E0E0"/>
<path d="M159.584 146.052L165.893 145.107V164.529L159.584 165.468V146.052Z" fill="#FAFAFA"/>
<path opacity="0.05" d="M165.893 150.452L159.584 151.373V155.172L165.893 154.257V150.452Z" fill="black"/>
<path d="M165.893 145.107L164.723 143.931L158.414 144.87L159.584 146.052L165.893 145.107Z" fill="#EBEBEB"/>
<path d="M162.002 149.731L164.899 152.639L166.056 151.124L163.159 148.222C163.086 148.146 162.995 148.088 162.895 148.055C162.795 148.021 162.688 148.012 162.584 148.028C162.345 148.084 162.133 148.22 161.984 148.415C161.835 148.609 161.758 148.849 161.766 149.094C161.759 149.329 161.844 149.557 162.002 149.731Z" fill="#E0E0E0"/>
<path opacity="0.1" d="M159.584 151.409L164.184 151.918V150.537L165.305 150.373L164.25 149.312L159.584 150.022V151.409Z" fill="black"/>
<path d="M150.112 153.076V156.106L166.547 153.645V150.615L150.112 153.076Z" fill="#FAFAFA"/>
<path d="M150.112 153.076L149.064 152.015V155.051L150.112 156.106V153.076Z" fill="#E0E0E0"/>
<path d="M166.547 150.615L165.493 149.555L149.064 152.015L150.112 153.076L166.547 150.615Z" fill="#EBEBEB"/>
<path d="M161.675 158.166C161.667 157.848 161.769 157.536 161.963 157.284C162.157 157.031 162.432 156.853 162.741 156.778C162.885 156.765 163.03 156.784 163.165 156.833C163.301 156.882 163.424 156.961 163.525 157.064C163.627 157.166 163.704 157.29 163.752 157.426C163.8 157.562 163.817 157.707 163.802 157.851C163.801 158.09 163.742 158.325 163.63 158.536C163.518 158.747 163.356 158.928 163.159 159.063V161.045C163.163 161.152 163.129 161.258 163.064 161.344C162.999 161.43 162.906 161.491 162.802 161.517H162.675C162.626 161.522 162.577 161.516 162.531 161.499C162.485 161.483 162.443 161.456 162.409 161.421C162.374 161.386 162.348 161.344 162.333 161.298C162.317 161.252 162.311 161.202 162.317 161.154V159.172C162.12 159.09 161.953 158.95 161.838 158.77C161.723 158.59 161.666 158.379 161.675 158.166Z" fill="#455A64"/>
<path d="M74.9258 275.015C80.0829 269.694 83.1129 248.024 78.0831 243.8H52.4735C47.4437 248.042 50.4677 269.682 55.6247 275.009L55.7702 275.161L55.9459 275.336C56.0914 275.476 56.2489 275.615 56.4125 275.754C56.4555 275.783 56.4961 275.816 56.5337 275.851C56.661 275.948 56.7883 276.051 56.9276 276.148C57.141 276.305 57.3636 276.449 57.5942 276.579C61.8362 279.057 68.7204 279.057 72.9624 276.579C73.1965 276.449 73.4212 276.303 73.6351 276.142C73.7623 276.057 73.8775 275.96 73.9987 275.87L74.1502 275.748C74.3077 275.615 74.4592 275.482 74.5986 275.342L74.8047 275.142L74.9258 275.015Z" fill="#455A64"/>
<path d="M54.6976 242.097C48.8557 245.509 48.8557 251.042 54.6976 254.453C60.5394 257.865 70.0112 257.865 75.8591 254.453C81.707 251.042 81.7009 245.509 75.8591 242.097C70.0173 238.685 60.5394 238.685 54.6976 242.097Z" fill="#455A64"/>
<g opacity="0.1">
<path opacity="0.1" d="M54.6976 242.097C48.8557 245.509 48.8557 251.042 54.6976 254.453C60.5394 257.865 70.0112 257.865 75.8591 254.453C81.707 251.042 81.7009 245.509 75.8591 242.097C70.0173 238.685 60.5394 238.685 54.6976 242.097Z" fill="white"/>
</g>
<path d="M57.5094 243.739C53.2189 246.242 53.2189 250.308 57.5094 252.829C61.7999 255.35 68.7568 255.338 73.0473 252.829C77.3377 250.321 77.3377 246.26 73.0473 243.739C68.7568 241.218 61.812 241.237 57.5094 243.739Z" fill="#263238"/>
<path d="M73.0472 248.048C68.7568 245.539 61.7999 245.539 57.5094 248.048C56.466 248.613 55.5821 249.432 54.94 250.43C55.5857 251.424 56.4687 252.243 57.5094 252.811C61.7999 255.32 68.7568 255.32 73.0472 252.811C74.0879 252.243 74.9709 251.424 75.6167 250.43C74.9745 249.432 74.0907 248.613 73.0472 248.048Z" fill="#F5F5F5"/>
<path d="M51.0797 201.762L61.3211 208.767L51.6251 205.101C51.7091 207.692 52.3629 210.233 53.5401 212.542C53.5401 212.542 59.9334 215.645 63.4118 218.918L54.9036 216.239C54.6367 217.724 54.7282 219.251 55.1702 220.693C55.2248 220.887 55.2854 221.093 55.352 221.299C55.8005 222.663 56.4428 225.238 57.5336 228.292C58.4586 230.964 59.6376 233.542 61.0545 235.989C61.7555 237.193 62.537 238.349 63.3937 239.449C63.4421 239.522 63.4967 239.588 63.5512 239.655C65.1309 238.6 66.7751 237.568 68.4841 236.558C69.4718 234.049 70.5566 227.941 70.7505 222.984C71.508 204.016 56.5095 194.235 44.844 191.423C44.844 191.423 49.086 196.077 51.0797 201.762Z" fill="#DD5928"/>
<path opacity="0.3" d="M51.0797 201.762L61.3211 208.767L51.6251 205.101C51.7091 207.692 52.3629 210.233 53.5401 212.542C53.5401 212.542 59.9334 215.645 63.4118 218.918L54.9036 216.239C54.6367 217.724 54.7282 219.251 55.1702 220.693C55.2248 220.887 55.2854 221.093 55.352 221.299C55.8005 222.663 56.4428 225.238 57.5336 228.292C58.4586 230.964 59.6376 233.542 61.0545 235.989C61.7555 237.193 62.537 238.349 63.3937 239.449C63.4421 239.522 63.4967 239.588 63.5512 239.655C65.1309 238.6 66.7751 237.568 68.4841 236.558C69.4718 234.049 70.5566 227.941 70.7505 222.984C71.508 204.016 56.5095 194.235 44.844 191.423C44.844 191.423 49.086 196.077 51.0797 201.762Z" fill="black"/>
<path d="M59.2486 201.98C60.2894 202.911 61.1859 203.991 61.909 205.186C62.6256 206.384 63.2515 207.633 63.7815 208.925C64.8306 211.508 65.5927 214.199 66.054 216.948C67.0612 222.437 66.7518 228.086 65.1511 233.431C65.1301 233.501 65.1374 233.577 65.1714 233.641C65.2054 233.706 65.2634 233.754 65.3329 233.777C65.402 233.798 65.4765 233.79 65.5401 233.756C65.6037 233.722 65.6512 233.664 65.6722 233.595C67.2059 228.16 67.4282 222.438 66.3207 216.9C65.8074 214.143 64.9946 211.45 63.8967 208.87C63.3425 207.584 62.6943 206.34 61.9574 205.149C61.2136 203.967 60.301 202.899 59.2486 201.98Z" fill="#FAFAFA"/>
<path d="M95.0511 211.452C94.8208 211.749 91.1909 214.912 85.6278 224.372L74.3441 227.25L83.5189 228.074L79.2769 235.443L69.69 237.794L77.2953 238.764C77.2953 238.764 75.4773 246.242 70.1809 249.533C67.2478 251.351 65.7995 251.666 64.8662 250.848C64.2118 250.272 63.933 246.733 63.2846 243.576C62.6362 240.418 62.3938 235.286 65.1389 228.965C65.888 227.272 66.8757 225.694 68.072 224.281C74.938 215.991 88.3427 211.615 95.0511 211.452Z" fill="#DD5928"/>
<path opacity="0.15" d="M95.0511 211.452C94.8208 211.749 91.1909 214.912 85.6278 224.372L74.3441 227.25L83.5189 228.074L79.2769 235.443L69.69 237.794L77.2953 238.764C77.2953 238.764 75.4773 246.242 70.1809 249.533C67.2478 251.351 65.7995 251.666 64.8662 250.848C64.2118 250.272 63.933 246.733 63.2846 243.576C62.6362 240.418 62.3938 235.286 65.1389 228.965C65.888 227.272 66.8757 225.694 68.072 224.281C74.938 215.991 88.3427 211.615 95.0511 211.452Z" fill="black"/>
<path opacity="0.1" d="M67.266 232.159C66.2284 234.799 65.5733 237.574 65.3207 240.4C65.1448 243.975 65.1873 247.557 65.448 251.126C65.2436 251.061 65.0541 250.956 64.8905 250.817C64.236 250.242 63.9572 246.703 63.3088 243.545C62.6604 240.388 62.418 235.255 65.1632 228.935C65.9122 227.241 66.8999 225.664 68.0962 224.25C74.9622 215.978 88.3669 211.603 95.0753 211.439C84.8461 213.518 74.0471 220.796 68.8901 228.971C68.2599 229.986 67.7166 231.052 67.266 232.159Z" fill="black"/>
<path d="M84.84 215.075C79.8284 217.499 75.144 220.766 71.508 225.074C69.663 227.21 68.1697 229.626 67.0842 232.231C66.0303 234.839 65.416 237.604 65.2662 240.412C65.2662 240.412 65.2662 240.412 65.2662 240.412C65.276 240.416 65.2868 240.416 65.2965 240.412C65.7147 237.668 66.4804 234.988 67.5751 232.437C68.6639 229.894 70.0907 227.509 71.8171 225.347C73.5801 223.198 75.5897 221.264 77.8043 219.584C80.0273 217.89 82.3983 216.399 84.8885 215.13V215.082L84.84 215.075Z" fill="#FAFAFA"/>
<path d="M35.2874 218.615C36.1148 218.565 36.9445 218.565 37.772 218.615C41.0345 218.813 44.2604 219.411 47.3771 220.396C48.5346 220.76 49.6981 221.172 50.8434 221.645C51.4191 221.881 51.9888 222.129 52.5463 222.396C55.3351 223.659 57.8933 225.38 60.1152 227.486C61.1518 228.494 62.0578 229.628 62.8119 230.862C62.9089 231.019 63.0119 231.177 63.1028 231.341C63.3331 231.765 63.5512 232.177 63.7512 232.589C65.6426 236.139 66.6018 240.111 66.5388 244.133C66.5934 246.969 65.8056 250.254 65.2905 250.799C65.2189 250.874 65.1397 250.941 65.0541 250.999C64.2724 251.557 62.9755 251.326 60.5091 250.12C55.5581 247.696 53.2977 241.03 53.2977 241.03L59.9031 239.528L51.2434 238.316L47.4619 233.08L53.8068 231.492L45.0319 230.644C42.0313 226.447 38.7814 222.434 35.2995 218.627L35.2874 218.615Z" fill="#DD5928"/>
<path opacity="0.05" d="M37.772 218.59C41.0345 218.789 44.2604 219.387 47.3771 220.372C48.5346 220.735 49.6981 221.148 50.8434 221.62C51.4191 221.857 51.9888 222.105 52.5463 222.372C55.3351 223.635 57.8933 225.356 60.1152 227.462C61.1518 228.47 62.0578 229.604 62.8119 230.838C62.9089 230.995 63.0119 231.153 63.1028 231.316C63.3331 231.74 63.5512 232.153 63.7512 232.565C65.6426 236.115 66.6018 240.087 66.5388 244.109C66.5934 246.945 65.8056 250.23 65.2905 250.775C65.2189 250.85 65.1397 250.917 65.0541 250.975C64.895 251.08 64.7185 251.156 64.533 251.199C64.8844 246.781 62.109 235.789 58.5942 231.395C54.9582 226.832 46.4742 220.378 35.2935 218.614C36.1185 218.56 36.946 218.551 37.772 218.59Z" fill="black"/>
</svg>
